<svg xmlns="http://www.w3.org/2000/svg" viewBox="0 0 138.69 348.72"><defs><style>.cls-1{fill:#f7a581;}.cls-2{fill:#efe8da;}.cls-3{fill:#050505;}.cls-4{fill:#272828;}.cls-5{fill:#2e3030;}.cls-6{fill:#eda97c;}.cls-7{fill:#1f2121;}.cls-8{fill:#ffbc8f;}.cls-9{fill:#682d04;}.cls-10{fill:#492004;}.cls-11{fill:#d6cfc1;}</style></defs><title>Asset 33</title><g id="Layer_2" data-name="Layer 2"><g id="_ÎÓÈ_3" data-name="—ÎÓÈ_3"><path class="cls-1" d="M113.18,155.94c1.08.35,2.15.67,3.23,1,.22,1.19-.41.82-.12,1.63l1.46.75c.85,2.89-.92,10.09-2.61,12.13-2.18,2.6-3.11,2.82-4.68,6-.63,1.27-1.65,0-.74-2,.12-.27,2.07-4.19,2.07-4.19s-2.88,4.42-3.09,4.95c-.86,2.24-1.59,4.56-2.63,6.63-.2.39-1.37,1.27-1.3-.28,0-1.23.26-1.37.38-2.6s-2.12,2.75-3.31,3.53a.79.79,0,0,1-1.1-.42,5.91,5.91,0,0,1-.31-1.57.75.75,0,0,1-.73-.08c-.79-.52-.54-1.8-.4-2.65a8.91,8.91,0,0,0,.31-1.42c-2.38,2.12-.71-1.8-.12-3.51.08-.56,0,0,.12-.54s.24-1,.39-1.51h0l.18-.64c.13-.36.28-.72.44-1.06s.47-.82.73-1.22l.05,0c4.63-9.47,9.29-9.12,9.75-9.69a5.1,5.1,0,0,0,1.92-3.24Z"/><path class="cls-2" d="M124.8,119.37c-1-12.72-21.07-38.65-22.61-48.21-.83-5.15,2.06-9.25,4.71-10.43C117.34,56,122.85,73.5,126.42,81.46c2.32,5.19,12,23.29,12.27,38.43.1,6.75-11.25,28.06-20,44.05l-9.36-5.05C114.45,143.68,125.68,130.15,124.8,119.37Z"/><path class="cls-3" d="M114.44,337.18c4.07,7.33,16,3,17,.83.66,1,.5,6.05.42,6.91,0,0-.34,3.74-3.39,2.92a16.08,16.08,0,0,0-6.33.07c-10.45,2-17.76.39-18.12-5.37-.42-1.52.47-.52,4.62-2.44A44.16,44.16,0,0,0,114.44,337.18Z"/><path class="cls-3" d="M49.92,332.82c7.53,6.36,23.18.86,23.76-1.59,1,.89,2.26,6.22,2.41,7.13,0,0,.62,4-3.23,3.74-2.3-.14-8.5-.32-10.74.13-10.62,2.13-23.31,2.42-25.33-3.52-.91-1.49,3.62-1.79,8.51-3.69C49.92,333.22,49.92,332.82,49.92,332.82Z"/><path class="cls-4" d="M133.83,338.67c-2.89-17.49-1.43-45.45-1.4-69.58,0-3.41-4.73-12.79-4.73-16.25,0-39.62,2.9-73,2.33-79.34-1.94-21.82-7.4-18.25-13.4-32.34-1.48,0-18-2-18-2l-7.83,1.67-13.33-1.67s12.27,24.35,19.94,62.43c3.11,15.41,8.28,41.49,12.39,61.64,7.09,34.79,2.19,58.63-2.17,77.71,0,0,9.55,1.86,14.93,1.23C129.19,341.35,133.88,339,133.83,338.67Z"/><path class="cls-5" d="M79,139.13c-5.63,3.79-13.54,108.34-14.45,119.32-1.48,17.7-3,33.15-8.11,52.39-2,7.6-5.12,18.71-9.39,23.49,3.29.77,24.95,4.48,29.08,4,0,0,.89-17.86,2.11-24.34,4.64-24.56,4.51-30.47,6-42.26.67-5.19-3.28-13.68-2.39-15.72,4.73-10.78,13.67-39,20.65-49.75s16.68-27,14-39.42-9-21.14-9.71-25.13Z"/><path class="cls-6" d="M86.19,45.23c-2.33-4.9.15-5.91,2.26-8a11.31,11.31,0,0,1,16,0c.76.83.41-3.29.94-2.31-1.09,4.86,2.14,21.14,3,26.27-.59,1.19-3,1.49-3.86,2.31-2,2-5.19-1.71-8-1.83s-7.2-2.91-7.75,0C87.84,66.83,89.69,52.57,86.19,45.23Z"/><polygon class="cls-5" points="50.74 160.41 38.45 155.86 38.48 155.84 28.45 152.48 0.01 181.61 9.65 185.1 9.66 185.09 22.02 189.53 50.74 160.41"/><polygon class="cls-7" points="0 181.59 0.29 182.79 0.29 182.81 0.58 184.01 22.74 191.98 22.45 190.78 22.45 190.76 22.16 189.57 0 181.59"/><polygon class="cls-7" points="22.16 189.57 22.45 190.76 22.45 190.78 22.74 191.98 51.47 162.86 51.18 161.66 51.17 161.64 50.89 160.44 22.16 189.57"/><path class="cls-1" d="M47.54,166.49c-.59-1-1.16-1.94-1.7-2.91-1.2.07-.7.58-1.55.49l-1.08-1.23c-3-.15-9.89,3.08-11.16,5.4-2.33,4.25-2.64,5-4.74,6-1.29.57.38,1.61,2.08.26.24-.19,3.58-3,3.58-3s-3.61,3.85-4.08,4.18c-2,1.36-4.05,2.62-5.82,4.12-.33.28-.9,1.63.58,1.2,1.19-.35,1.28-.58,2.44-1s-2.17,2.71-2.65,4.05a.8.8,0,0,0,.67,1,5.73,5.73,0,0,0,1.6-.07.77.77,0,0,0,.25.69c.69.64,1.88.1,2.67-.24a10.76,10.76,0,0,1,1.31-.64c-1.5,2.82,1.91.27,3.44-.71.52-.2,0,0,.49-.24s.93-.48,1.37-.74v0l.58-.33a10,10,0,0,0,.93-.68c.34-.31.68-.65,1-1l0,0c8.11-6.74,6.66-11.2,7.11-11.77a5,5,0,0,1,2.69-2.63Z"/><path class="cls-8" d="M103.89,13.65c-6-7.35-16.83-6.32-22.4-2.06-2.95,2.26-11.16,4.14-12.21,10.25a30.78,30.78,0,0,0,.28,6.24c.66,2.12,1.57,4,1.76,6.17A22.49,22.49,0,0,0,73.5,42a52.29,52.29,0,0,1,2.67,5.35,10.55,10.55,0,0,0,.92,2.29c1.67,2.66,6.78.86,9.06.11a25.56,25.56,0,0,0,10.33-5.95c3.76-3.89,6-6.38,6.44-6.79C112.52,28.2,109.87,21,103.89,13.65Z"/><path class="cls-9" d="M113.09,18.2a15.78,15.78,0,0,0-6-7.73h0S105.81-2,87.77.29c-10.69,1.37-17.12,8.31-19,17.48a19,19,0,0,0,.37,8.06c1.19-.57,2.69-2.67,4.73.61,3.33,5.38,6.58,7.67,7,7.21,6.84-8.38,6.58,9.34,9.87,14.23,5.12.24,15.62-3.06,15.46-4.44C105.17,34.75,115.5,26.6,113.09,18.2Z"/><path class="cls-10" d="M105.29,2.15c9.36-1.18,15.09,5.25,15.57,15s-11,17.93-1,28.69c0,0-12.24,0-13.93-10.46s.88-17.55-4.53-21.16C97.28,11.55,98.58,3,105.29,2.15Z"/><path class="cls-9" d="M72,12c-4,1.23-10.12,9.77.75,18.44S85.2,39.21,85.2,39.21s-6.74-4.61-3.44-10.39S79.42,9.69,72,12Z"/><path class="cls-2" d="M86.59,58.27s11.18-7.89,20.91-5.39c0,0,.53,5.79,2.64,9.6-.66.39-14.21-1.81-24,4.49C86.19,67,87.51,61.43,86.59,58.27Z"/><path class="cls-11" d="M79.54,69.06s13.55-12,29.46-10.14a66.18,66.18,0,0,1,7.27,6.4c3.42,3.55,7.86,19.62,6,29.08s-5.2,32.17-5.2,39.41c0,0-10.33,6.36-39.17.77,0,0-.62-15.93-4.5-27.84S72.82,76.22,79.54,69.06Z"/><path class="cls-2" d="M54,162.44c2.08-2.94,4.54-5.52,6.82-8.31s4.61-5.78,6.84-8.73c1.85-2.46,3.67-5,5.43-7.47,1-1.49,2.1-3,3-4.56,2.42-4,4-9.48,6.54-15.68,3.54-8.64,10.21-28.6,10.8-37.51s-1.75-11.39-7-12.27c-4-.67-11.18.32-14.59,16.79-1.76,8.44-7.28,38.72-7.28,38.72-4.74,5.58-12.55,17.86-16.18,24S38,160.59,38,160.59s6,7.45,11.54,9.15c.12,0,3.24-5.56,3.6-6.11S53.7,162.83,54,162.44Z"/><path class="cls-7" d="M77.26,131.3s20.78,3.48,40.2-1.06a71.57,71.57,0,0,1-.55,11.34s-15.45,5.82-39.47.84A32.23,32.23,0,0,1,77.26,131.3Z"/></g></g></svg>