<svg xmlns="http://www.w3.org/2000/svg" viewBox="0 0 100.36 311.26"><defs><style>.cls-1{fill:#ff985f;}.cls-2{fill:#512304;}.cls-3{fill:#280f04;}.cls-4{fill:#f77f43;}.cls-5{fill:#050505;}.cls-6{fill:#3c6084;}.cls-7{fill:#282751;}.cls-8{fill:#1b1c1c;}.cls-9{fill:#eda97c;}.cls-10{fill:#2e3030;}.cls-11{fill:#1f2121;}</style></defs><title>Asset 21</title><g id="Layer_2" data-name="Layer 2"><g id="_ÎÓÈ_3" data-name="—ÎÓÈ_3"><path class="cls-1" d="M18.72,15.78C22.1,7.85,31.85,6,37.8,8.36,41,9.6,48.59,9.18,51,14.26a27.28,27.28,0,0,1,1.32,5.53c0,1.1-.32,4.38-.22,5.29.11,1.11.7,1.87.66,2.94a33.23,33.23,0,0,1-1,7.76c-1,3.68.31,5-1.81,6.25-2.55,1.5-11.93,1.36-17.24-1.71-4.26-2.45-6.84-4.07-7.33-4.32C14.83,30.67,15.33,23.72,18.72,15.78Z"/><path class="cls-2" d="M16,30.77a29.51,29.51,0,0,0,2.19,2.42c-2-1.49-3.76-2.71-4.43-3.89a14.56,14.56,0,0,1-2-7.23,10.81,10.81,0,0,1,.48-2.93,10,10,0,0,0,.27,3.67A15.27,15.27,0,0,0,16,30.77Z"/><path class="cls-2" d="M20,34.37c-.24-.13-.47-.27-.7-.41a34.58,34.58,0,0,1-3-3.17A15.57,15.57,0,0,1,13,24.16c.13.32.27.64.43,1a12.39,12.39,0,0,0,2.21,3.05l.18.34a10,10,0,0,0,1.49,2.1c.65.69,1.41,1.27,2.11,1.89a20.54,20.54,0,0,1,2.84,3.16C21.55,35.2,20.78,34.81,20,34.37Z"/><path class="cls-2" d="M24.91,38a10.74,10.74,0,0,0-1.63-1.6l-.42-.32a18.5,18.5,0,0,0-2.63-3.13c-1.41-1.35-3-2.45-4-4.17l0-.05a19.41,19.41,0,0,0,2,1.61c1,.73,2.1,1.41,3.07,2.23a13.13,13.13,0,0,1,1.36,1.33l.12.15.37.49c.18.25.35.5.51.76s.38.63.54,1l.12.23.16.36C24.63,37.2,24.78,37.58,24.91,38Z"/><path class="cls-3" d="M11.82,22.07a14.35,14.35,0,0,1,3.27-8.26h0S14.8,2.78,31.16.28C40.85-1.21,45,3.38,49.28,10.76c.39.69.73,1.28,1,1.79.12.16.25.33.38.52a12.11,12.11,0,0,0,6.3,4.6c-.3.32-14,0-15.6-.08-13.23-.37-11.61,7.11-11.74,9-.06.74.32,3.27-.12,3-8.08-5.6-2.1,4.45-3.74,9.54a11.81,11.81,0,0,0-2.49-2.75,25.65,25.65,0,0,0-3.24-2c-.41-.23-.8-.47-1.2-.72-2.29-1.7-4.31-3.06-5.05-4.35A14.56,14.56,0,0,1,11.82,22.07Z"/><path class="cls-4" d="M25.43,53.54c.75-.12-1.35-1.54-.36-2.12,1-1.8,2.85-11.59,1.54-14.74.1,0,12.94,6.3,17.16,6.27l1.1,8.61c4.1,1.61,1.63,3.25,4.1,1.61a6.68,6.68,0,0,1,8.65,1.5c1.94,2.49-1,1.29-1.93,4.59a33.29,33.29,0,0,1-1.91,4.58c-.36.78-.88,1.47-1.27,2.22a1.8,1.8,0,0,0-.08.21c.23.47.49.94.75,1.41.59.62,1.26,1.2,1.83,1.82a2.09,2.09,0,0,1,.93.64,6.62,6.62,0,0,1,1.61,4.16,7.71,7.71,0,0,1,0,2.71v0a.44.44,0,0,0,0,.1c0,.06,0,.12,0,.19a4.37,4.37,0,0,1-.12.49l-.09.24,0,.09a6.13,6.13,0,0,1-.33.8,3,3,0,0,1-.56.76c-.3.41-.62.83-.91,1.26-2,2.92-5.15,4.68-8.34,6.13a7,7,0,0,0-1.07.61l-.3.37c-2.48.85-4.54,2.35-5.14,5.19a9.51,9.51,0,0,0-.18,2.55c-6.61,1-13.24,2-19.87,2.83.08-.24.16-.48.23-.73C22.24,92.69,22.53,54,25.43,53.54Z"/><path class="cls-1" d="M65.49,140.3c-1,0-2,0-2.92,0-.47.94.14.78-.29,1.38l-1.4.28c-1.4,2.21-1.92,8.78-.71,10.73,2.21,3.57,1.73,4.34,1.53,6.31-.13,1.22,2.3.22,2-1.64,0-.26-.35-1.93-.35-1.93a22.3,22.3,0,0,1,1,2.81c.19,2.06.24,4.17.62,6.15.07.37.84,1.38,1.15.07.24-1,1.41.54,2.21,1.47a.69.69,0,0,0,1-.09,5.32,5.32,0,0,0,.64-1.23.63.63,0,0,0,.62.11c.78-.25.88-1.38,1-2.11a12.9,12.9,0,0,0,1-4.16c.07-.48,0,0,0-.47s0-.91,0-1.35l0,0c0-.19,0-.38,0-.57s-.06-.66-.11-1-.2-.79-.32-1.19l0,0c-1.6-9-5.57-9.82-5.81-10.4a4.42,4.42,0,0,1-.83-3.16Z"/><path class="cls-5" d="M77.22,288.12c-10.27-.31-18,2.34-18.9-.17-1,1.07-1.61,6.83-1.65,7.82,0,0-.23,3.57,3.87,3.53,5.72-.05,8.24-.78,10.64-.43,10,1.46,19.48,3.86,24.11-1.6.78-1.69-4.62-1.86-9.62-4.31A53.57,53.57,0,0,1,77.22,288.12Z"/><path class="cls-6" d="M64.07,87.83c.72-19.3,1.62-25.36-1.57-33.12-1.72-4.19-6-3.93-8.51-3.61-9.83,1.26-5.7,14.68-4.73,22.18.63,4.89-1.21,25.57-1.76,38.67-.39,9.59,9,28.88,10.77,33.58l8.12-2.08c-.75-6.27-2.9-31.81-3.55-38.42C62.58,102.31,64,89.78,64.07,87.83Z"/><path class="cls-7" d="M58.73,137.83,20.55,135s-2-7.84-2.94-13.87c-.09-.56-4.93-2.53-5.43-3.07-4.2-4.46-3.72-8.36-4.08-11.65C5.15,80.25.55,63.26.55,63.26c0-9,18.23-12.93,21.56-12.93l5.08-.43,1.64-4.62a16.43,16.43,0,0,0,7.25,2.42,17.46,17.46,0,0,0,7.7-1.13l.74,3.09,13.75,1.72c4.22,7.34,2.43,20.21,1,25.6-4.21,16,2.19,32.09,1.62,36.66-.48,3.79-2.28,5.25-2.24,6.09C59.08,129.17,58.73,137.83,58.73,137.83Z"/><path class="cls-8" d="M42.34,66.09a.68.68,0,0,1-1.36,0,.68.68,0,0,1,1.36,0Z"/><path class="cls-8" d="M43,118.1a.68.68,0,0,1-1.36,0,.68.68,0,0,1,1.36,0Z"/><path class="cls-8" d="M42.12,107.13a.67.67,0,0,1,.86.42.68.68,0,1,1-.86-.42Z"/><path class="cls-8" d="M43,104.24a.68.68,0,1,1-1.36,0,.68.68,0,0,1,1.36,0Z"/><path class="cls-8" d="M43,93a.68.68,0,1,1-.68-.68A.69.69,0,0,1,43,93Z"/><path class="cls-8" d="M43,79.56a.68.68,0,1,1-1.36,0,.68.68,0,0,1,1.36,0Z"/><path class="cls-8" d="M43,69.34a.68.68,0,1,1-1.36,0,.68.68,0,0,1,1.36,0Z"/><path class="cls-8" d="M42.06,97.07a.67.67,0,0,1-.34-.89.68.68,0,0,1,1.24.55A.68.68,0,0,1,42.06,97.07Z"/><path class="cls-8" d="M43,83.09a.68.68,0,1,1-1.36,0,.68.68,0,0,1,1.36,0Z"/><path class="cls-8" d="M41,54.94a.68.68,0,1,1-.67-.68A.67.67,0,0,1,41,54.94Z"/><path class="cls-8" d="M41.66,57.89a.68.68,0,1,1-.68-.67A.67.67,0,0,1,41.66,57.89Z"/><path class="cls-9" d="M24.31,124c-6.61,7.75-3.76,11.07-9.72,29.41-3,9.28-1.22,46.8-1.44,60-.13,7.53-6.1,14.62-5.74,25.1.24,6.78,3.61,21.87,4,44.85.07,4.15-3.48,7.48-3.73,9.85a3.47,3.47,0,0,0,2.31,4s10.44,1,12.92-.32c1.16-.63,2.27-2.92,2.27-2.92s-4.5-6.47-4.53-8.25c-.38-24.05,3.75-59.1,6.41-67.93C33.5,196.19,37.7,154.82,46.65,135,31.42,131.2,40,124,24.31,124Z"/><path class="cls-5" d="M30.26,296.81c-10-2.36-21-1.93-21.45-4.57-1.19.84-2.94,6.37-3.18,7.32,0,0-1,4.14,3.08,4.24a23.05,23.05,0,0,1,7.83,2.1c12.21,5.5,21,7.3,26.62,2.88,1.11-1.5-2.45-3.57-6.86-7C31.07,297.79,30.26,296.81,30.26,296.81Z"/><path class="cls-8" d="M48.05,221.32c1,18.88,8.93,71.61,8.93,71.61,3.57.39,22.46-1,25.32-1.7-1.08-2-6.28-16.24-7.4-24.57-1.83-13.73-3.15-29.62-4.43-45-.79-9.52-10.56-98-15.44-101.29-5,5.66-20.78,26.62-25.09,32.79C31.81,153.21,47.8,216.79,48.05,221.32Z"/><path class="cls-10" d="M7.64,294.46c-.33-10.51-.21-39.2-.24-60.11,0-3,1.36-15.18,1.36-18.18,0-34.33-1.67-63.5,9.17-80.07L36.7,121.74l6.78,1.45,15.58,7.44-12.41,29.9c-2.69,13.35-14.72,51.26-15.94,69-2.22,32.31,2.09,68.9.62,68.88C31.33,298.44,7.66,295,7.64,294.46Z"/><path class="cls-6" d="M45.89,50,44.52,44.8a14.53,14.53,0,0,1-8.45,2.45c-3.9-.21-9.3-3.34-9.3-3.34l-1.86,6.18c2.14,1.59,9.81,3.36,13.6,3.28l.8-4.93L41.24,53C42.56,52.52,45.77,51.51,45.89,50Z"/><path class="cls-11" d="M59.06,135.07l-41.13,1-2.5-16.28S38.15,122.19,45.3,122C54,121.72,58,119.25,58,119.25Z"/><polygon class="cls-10" points="62.49 105 70.08 99.92 70.06 99.9 76.32 95.99 100.36 111.12 94.38 115.06 94.38 115.05 86.72 120.07 62.49 105"/><polygon class="cls-11" points="100.36 111.11 100.36 111.96 100.36 111.98 100.36 112.83 86.63 121.85 86.63 121 86.63 120.98 86.63 120.12 100.36 111.11"/><polygon class="cls-11" points="86.63 120.12 86.63 120.98 86.63 121 86.63 121.85 62.4 106.78 62.4 105.92 62.4 105.91 62.4 105.05 86.63 120.12"/><path class="cls-1" d="M58.38,115.35c0-1-.05-1.95-.11-2.92.91-.51.79.1,1.37-.36l.21-1.4c2.14-1.51,8.67-2.35,10.68-1.24,3.67,2,4.42,1.51,6.37,1.21,1.21-.18.34,2.3-1.54,2.1-.25,0-1.93-.25-1.93-.25a23.09,23.09,0,0,0,2.84.88c2.08.08,4.18,0,6.18.31.37,0,1.42.77.13,1.14-1,.3.61,1.39,1.57,2.14a.69.69,0,0,1,0,1,5.31,5.31,0,0,1-1.2.7.67.67,0,0,1,.14.61c-.21.79-1.34.95-2.07,1.07a12.75,12.75,0,0,1-4.1,1.23c-.47.09,0,0-.47,0s-.9.08-1.35.1l0,0-.57,0a8.51,8.51,0,0,1-1-.06c-.4-.07-.8-.16-1.2-.26l0,0c-9.06-1.15-10.07-5.08-10.67-5.3a4.39,4.39,0,0,0-3.19-.67Z"/><path class="cls-6" d="M24.75,107.31c-2.91-1.61-.87-12.73-2.74-23.54-1.56-9-4.6-19.8-6.3-23.22-2-4-6.28-3.48-8.75-3-9.71,2-6.9,13.59-5.39,21,.31,1.51.85,8.18,2.47,13,3.55,10.61,8.38,21.48,11.39,24.27,5.71,5.26,14.59,3.39,21.82,4,7.41.62,13.83-2.28,23.69-3.29V109.6C54.24,108.49,27.24,108.7,24.75,107.31Z"/></g></g></svg>