<svg xmlns="http://www.w3.org/2000/svg" viewBox="0 0 77.26 83.52"><defs><style>.cls-1{fill:#9f2e20;}</style></defs><title>Asset 30</title><g id="Layer_2" data-name="Layer 2"><g id="_ÎÓÈ_3" data-name="—ÎÓÈ_3"><path class="cls-1" d="M76.92,73.18a24.37,24.37,0,0,0-1.63-6.9,11.33,11.33,0,0,0-3.22-4.08,28.6,28.6,0,0,0-7.77-4.31A81.2,81.2,0,0,0,55,55a11.41,11.41,0,0,1-6.9-4.4,8,8,0,0,1-1-2c-.06-.17-.09-.31-.13-.43a15,15,0,0,0,3.69-4.32,28.58,28.58,0,0,0,2.95-7.57,4.86,4.86,0,0,0,1.6-.8,6,6,0,0,0,1.6-1.94,10.07,10.07,0,0,0,1-3.32A15.43,15.43,0,0,0,58,28a7.51,7.51,0,0,0-.55-3,4.34,4.34,0,0,0-2.15-2.28l-.11,0a31.63,31.63,0,0,0,.43-4.93c0-4.91-1.48-7.95-3.09-9.7A8.82,8.82,0,0,0,51,6.77c0-.34,0-.68,0-1a10.32,10.32,0,0,0-.24-2.35,1.24,1.24,0,0,0-.76-.86,44.4,44.4,0,0,0-4.4-1.45A29.5,29.5,0,0,0,38,0a17.71,17.71,0,0,0-6.85,1.28A15,15,0,0,0,23.81,8a17.63,17.63,0,0,0-1.51,3.75,14.12,14.12,0,0,0-.46,3.81c0,1.5.15,2.94.22,4.34l.15,2.79a4.36,4.36,0,0,0-1,.56A4.68,4.68,0,0,0,19.82,25a7.52,7.52,0,0,0-.54,3,14,14,0,0,0,.17,2.13,10.16,10.16,0,0,0,1,3.32A5.54,5.54,0,0,0,22.93,36a4,4,0,0,0,.75.27,28.52,28.52,0,0,0,2.95,7.58,15.28,15.28,0,0,0,3.69,4.32,8,8,0,0,1-1.25,2.59A11.51,11.51,0,0,1,22.27,55,67.35,67.35,0,0,0,10.1,59.14,23.37,23.37,0,0,0,5.19,62.2,11.44,11.44,0,0,0,2,66.28a24.37,24.37,0,0,0-1.63,6.9A56.87,56.87,0,0,0,0,79.64c0,1.62.06,2.68.06,2.7a1.25,1.25,0,0,0,2.5-.14,1.15,1.15,0,0,1,0-.17c0-.36,0-1.22,0-2.39a55.8,55.8,0,0,1,.32-6.18,22.66,22.66,0,0,1,1.44-6.17A8.85,8.85,0,0,1,6.8,64.12a21.55,21.55,0,0,1,4.59-2.83,113.52,113.52,0,0,1,.83,13,56,56,0,0,1-.46,7.59,1.25,1.25,0,0,0,2.47.35,57,57,0,0,0,.49-7.94,117.52,117.52,0,0,0-.94-14l.1,0a75.71,75.71,0,0,1,8.33-2.64L33,81.75a1.25,1.25,0,0,0,2.29-1L24.63,56.84A13.29,13.29,0,0,0,31.23,52a10.78,10.78,0,0,0,1.28-2.5l.36.17a12.73,12.73,0,0,0,5.18,1h1.16a12.43,12.43,0,0,0,5.54-1.16A10.81,10.81,0,0,0,46,52a13.32,13.32,0,0,0,6.61,4.86L42,80.73a1.25,1.25,0,0,0,2.29,1L55.05,57.56a76.2,76.2,0,0,1,8.43,2.69,117.52,117.52,0,0,0-.94,14A57.1,57.1,0,0,0,63,82.24a1.25,1.25,0,0,0,2.47-.35A56,56,0,0,1,65,74.3c0-3.65.25-7.24.5-9.91.12-1.28.24-2.34.33-3.1a1.24,1.24,0,0,1,.2.1,20.61,20.61,0,0,1,4.39,2.73A8.85,8.85,0,0,1,73,67.29a22.3,22.3,0,0,1,1.44,6.17,55.8,55.8,0,0,1,.32,6.18c0,.78,0,1.42,0,1.87,0,.23,0,.4,0,.52s0,.17,0,.17a1.25,1.25,0,0,0,1.18,1.32,1.24,1.24,0,0,0,1.31-1.18s.06-1.08.06-2.7A56.87,56.87,0,0,0,76.92,73.18ZM39.21,48.13H38.05a9.49,9.49,0,0,1-5.86-1.73,12.35,12.35,0,0,1-3.41-3.87,27.06,27.06,0,0,1-2.87-7.68,1.24,1.24,0,0,0-1.24-1h-.08a2.15,2.15,0,0,1-1.21-.62,5.74,5.74,0,0,1-1.46-3.45A12.1,12.1,0,0,1,21.78,28a5.06,5.06,0,0,1,.34-2,1.8,1.8,0,0,1,.9-1,1.46,1.46,0,0,1,.37-.11l.1,0h0a1.26,1.26,0,0,0,.88-.35,1.24,1.24,0,0,0,.37-.95c-.06-1.28-.13-2.56-.2-3.84-.08-1.49-.23-2.88-.22-4.21a11.77,11.77,0,0,1,.37-3.15A15.18,15.18,0,0,1,26,9.16a12.42,12.42,0,0,1,6.1-5.57A15.22,15.22,0,0,1,38,2.5a27.16,27.16,0,0,1,7,1c1.17.32,2.34.71,3.49,1.13a11.11,11.11,0,0,1,.06,1.12v.07a1.25,1.25,0,0,0-.94.9,1.23,1.23,0,0,0,.63,1.38c0,.12,0,.23-.09.35a7.48,7.48,0,0,1-3.3,4.16c-1.92,1.21-4.92,2.13-9.6,2.13-1.16,0-2.43-.06-3.8-.18a1.25,1.25,0,0,0-.23,2.49c1.45.13,2.79.19,4,.19a24.73,24.73,0,0,0,8.12-1.18,11.2,11.2,0,0,0,6.31-4.91,9.77,9.77,0,0,0,.75-1.67l.46.49c1.08,1.32,2.2,3.61,2.21,7.76a30.26,30.26,0,0,1-.53,5.34.27.27,0,0,1,0,.09,1.2,1.2,0,0,0-.07.53,1.23,1.23,0,0,0,1.24,1.13v0a1,1,0,0,1,.27.05,1.66,1.66,0,0,1,.86.61,4.14,4.14,0,0,1,.61,2.5,12.27,12.27,0,0,1-.15,1.76,7.64,7.64,0,0,1-.76,2.51,3,3,0,0,1-1.33,1.38,1.53,1.53,0,0,1-.47.16l-.14,0h0a1.26,1.26,0,0,0-1.25,1,27.06,27.06,0,0,1-2.87,7.68,11.08,11.08,0,0,1-5.09,4.83A10.14,10.14,0,0,1,39.21,48.13Z"/><path class="cls-1" d="M43.35,65.54a2,2,0,0,0,1,.28,2.05,2.05,0,0,0,1.44-.58,2.1,2.1,0,0,0,.64-1.5V58.05A2.08,2.08,0,0,0,44.39,56a2,2,0,0,0-1,.28L38.63,59l-4.71-2.72a2.08,2.08,0,0,0-1-.28,2.14,2.14,0,0,0-1.45.58,2.07,2.07,0,0,0-.63,1.5v5.69a2,2,0,0,0,.63,1.5,2.09,2.09,0,0,0,2.49.3l4.71-2.72ZM44,58.78V63L40.3,60.9ZM33.3,63V58.78L37,60.9Z"/><path class="cls-1" d="M38.63,66.76a3,3,0,1,0,3,3A3,3,0,0,0,38.63,66.76Zm0,3.52a.51.51,0,0,1-.51-.51.51.51,0,0,1,1,0A.51.51,0,0,1,38.63,70.28Z"/><path class="cls-1" d="M38.63,73.69a3,3,0,1,0,3,3A3,3,0,0,0,38.63,73.69Zm0,3.52a.51.51,0,1,1,.51-.51A.51.51,0,0,1,38.63,77.21Z"/></g></g></svg>