<svg xmlns="http://www.w3.org/2000/svg" viewBox="0 0 126.13 348.72"><defs><style>.cls-1{fill:#f7a581;}.cls-2{fill:#efe8da;}.cls-3{fill:#050505;}.cls-4{fill:#272828;}.cls-5{fill:#2e3030;}.cls-6{fill:#eda97c;}.cls-7{fill:#1f2121;}.cls-8{fill:#ffbc8f;}.cls-9{fill:#682d04;}.cls-10{fill:#492004;}.cls-11{fill:#d6cfc1;}</style></defs><title>Asset 35</title><g id="Layer_2" data-name="Layer 2"><g id="_ÎÓÈ_3" data-name="—ÎÓÈ_3"><path class="cls-1" d="M100.61,155.94c1.08.35,2.15.67,3.23,1,.22,1.19-.4.82-.12,1.63l1.46.75c.85,2.89-.91,10.09-2.61,12.13-2.17,2.6-3.1,2.82-4.68,6-.62,1.27-1.65,0-.74-2,.12-.27,2.07-4.19,2.07-4.19s-2.88,4.42-3.09,4.95c-.86,2.24-1.59,4.56-2.63,6.63-.2.39-1.37,1.27-1.3-.28.06-1.23.26-1.37.38-2.6s-2.12,2.75-3.31,3.53a.79.79,0,0,1-1.1-.42,5.91,5.91,0,0,1-.31-1.57.75.75,0,0,1-.73-.08c-.78-.52-.53-1.8-.4-2.65a9.59,9.59,0,0,0,.32-1.42c-2.39,2.12-.72-1.8-.13-3.51.08-.56,0,0,.12-.54s.24-1,.39-1.51h0c.06-.22.12-.43.19-.64a8.16,8.16,0,0,1,.44-1.06c.22-.41.47-.82.72-1.22l0,0c4.63-9.47,9.3-9.12,9.75-9.69a5.1,5.1,0,0,0,1.92-3.24Z"/><path class="cls-2" d="M112.23,119.37c-1-12.72-21.07-38.65-22.61-48.21-.83-5.15,2.07-9.25,4.71-10.43,10.44-4.69,16,12.77,19.52,20.73,2.33,5.19,12.05,23.29,12.27,38.43.1,6.75-11.25,28.06-20,44.05l-9.36-5.05C101.88,143.68,113.11,130.15,112.23,119.37Z"/><path class="cls-3" d="M103.08,337.18c4.08,7.33,16,3,17,.83.65,1,.49,6.05.41,6.91,0,0-.34,3.74-3.39,2.92a16.08,16.08,0,0,0-6.33.07c-10.45,2-17.76.39-18.12-5.37-.42-1.52.48-.52,4.62-2.44A44.16,44.16,0,0,0,103.08,337.18Z"/><path class="cls-3" d="M38.56,332.82c7.54,6.36,23.18.86,23.76-1.59,1.06.89,2.26,6.22,2.41,7.13,0,0,.62,4-3.23,3.74-2.29-.14-8.5-.32-10.74.13-10.62,2.13-23.31,2.42-25.33-3.52-.91-1.49,3.63-1.79,8.51-3.69C38.57,333.22,38.56,332.82,38.56,332.82Z"/><path class="cls-4" d="M122.47,338.67c-2.89-17.49-1.43-45.45-1.39-69.58,0-3.41-4.74-12.79-4.74-16.25,0-39.62,2.91-73,2.34-79.34-1.94-21.82-7.4-18.25-13.41-32.34-1.47,0-18-2-18-2l-7.83,1.67L66.1,139.13S78.37,163.48,86,201.56c3.11,15.41,8.28,41.49,12.39,61.64,7.09,34.79,2.19,58.63-2.17,77.71,0,0,9.55,1.86,14.93,1.23C117.84,341.35,122.52,339,122.47,338.67Z"/><path class="cls-5" d="M67.6,139.13C62,142.92,54.06,247.47,53.15,258.45c-1.47,17.7-3,33.15-8.11,52.39-2,7.6-5.12,18.71-9.39,23.49,3.3.77,25,4.48,29.08,4,0,0,.89-17.86,2.12-24.34,4.63-24.56,4.5-30.47,6-42.26.67-5.19-3.28-13.68-2.39-15.72,4.73-10.78,13.68-39,20.65-49.75s16.68-27,14-39.42-9-21.14-9.7-25.13Z"/><path class="cls-6" d="M74.36,44.49c-2.34-4.9-.59-5.17,1.53-7.29a11.3,11.3,0,0,1,16,0c.76.83.41-3.29.94-2.31C91.72,39.75,95,56,95.85,61.16c-.59,1.19-3,1.49-3.86,2.31-2,2-5.18-1.71-8-1.83s-7.2-2.91-7.75,0C75.28,66.83,77.85,51.83,74.36,44.49Z"/><polygon class="cls-5" points="11.42 105.46 22.21 98.02 22.21 98.06 30.73 91.78 23.25 51.76 14.85 57.65 14.85 57.65 4.11 65.22 11.42 105.46"/><polygon class="cls-7" points="23.27 51.77 22.12 51.31 22.1 51.3 20.96 50.85 1.69 64.4 2.83 64.85 2.86 64.86 4 65.31 23.27 51.77"/><polygon class="cls-7" points="4 65.31 2.86 64.86 2.83 64.85 1.69 64.4 9 104.65 10.14 105.1 10.16 105.11 11.3 105.56 4 65.31"/><path class="cls-1" d="M15.38,100.92q1.6-.57,3.21-1c.18-1.19-.43-.8-.17-1.62l1.44-.79c.77-2.91-.93-10.32-2.93-12-3.67-3.17-4.38-3.65-4.84-5.89-.28-1.38-1.65,0-.69,2,.13.27,2.18,4.13,2.18,4.13s-3-4.34-3.22-4.87c-.92-2.21-1.71-4.5-2.81-6.55-.2-.39-1.4-1.23-1.29.31.09,1.23.3,1.37.45,2.59s-2.19-2.69-3.4-3.43a.79.79,0,0,0-1.09.45A6.3,6.3,0,0,0,2,75.7a.76.76,0,0,0-.72.1c-.77.54-.49,1.82-.33,2.66a8.92,8.92,0,0,1,.35,1.41c-2.44-2.05-.67,1.82,0,3.52.09.55,0,0,.13.53s.27,1,.44,1.5h0c.07.22.14.42.21.63a9.82,9.82,0,0,0,.46,1c.24.41.5.81.76,1.2l0,0c4.88,9.35,9.54,8.87,10,9.43a5.06,5.06,0,0,1,2,3.18Z"/><path class="cls-8" d="M91.33,13.65c-6-7.35-16.84-6.32-22.41-2.06-3,2.26-11.15,4.14-12.2,10.25A30.07,30.07,0,0,0,57,28.08c.65,2.12,1.56,4,1.76,6.17A22.26,22.26,0,0,0,60.93,42a52.29,52.29,0,0,1,2.67,5.35,11.66,11.66,0,0,0,.92,2.29c1.67,2.66,6.78.86,9.07.11a25.59,25.59,0,0,0,10.32-5.95c3.76-3.89,6-6.38,6.44-6.79C100,28.2,97.31,21,91.33,13.65Z"/><path class="cls-9" d="M100.52,18.2a15.73,15.73,0,0,0-6-7.73h0S93.25-2,75.2.29C64.52,1.66,58.08,8.6,56.26,17.77a19.1,19.1,0,0,0,.36,8.06c1.19-.57,2.69-2.67,4.73.61,3.33,5.38,6.58,7.67,6.95,7.21,6.84-8.38,6.58,9.34,9.87,14.23,5.13.24,15.63-3.06,15.46-4.44C92.6,34.75,102.94,26.6,100.52,18.2Z"/><path class="cls-10" d="M92.72,2.15c9.36-1.18,15.09,5.25,15.57,15s-11,17.93-1.05,28.69c0,0-12.24,0-13.93-10.46s.89-17.55-4.53-21.16C84.71,11.55,86,3,92.72,2.15Z"/><path class="cls-9" d="M59.42,12c-4,1.23-10.11,9.77.76,18.44s12.45,8.81,12.45,8.81-6.74-4.61-3.44-10.39S66.85,9.69,59.42,12Z"/><path class="cls-2" d="M74,58.27s11.18-7.89,20.92-5.39c0,0,.52,5.79,2.63,9.6-.66.39-14.21-1.81-23.94,4.49C73.63,67,74.94,61.43,74,58.27Z"/><path class="cls-11" d="M68.1,69.06s12.12-12,28-10.14a67.94,67.94,0,0,1,8.28,7c3.42,3.55,6.55,19.91,4.64,29.37s-3.81,31.19-3.81,38.43c0,0-10,6.47-38.83.88,0,0-.62-15.93-4.5-27.84S61.38,76.22,68.1,69.06Z"/><path class="cls-2" d="M73.86,67.91c-4-.67-10.07.59-14.59,16.79s-9.46,29.78-9.46,29.78-7.75-5.41-21-14.75a38.93,38.93,0,0,1-7.69-7.37s-3.75.65-7.51,8.6c0,0,9.45,12.3,16.45,19s17.59,15.85,24,15.7,11.8-9.66,16-18,10.22-28.6,10.8-37.51S79.12,68.79,73.86,67.91Z"/><path class="cls-7" d="M66.18,131.3s19.71,3.92,39.13-.63a37,37,0,0,1,.22,11s-15.15,5.7-39.17.72A32.23,32.23,0,0,1,66.18,131.3Z"/></g></g></svg>