<svg xmlns="http://www.w3.org/2000/svg" viewBox="0 0 60.46 187.52"><defs><style>.cls-1{fill:#ff985f;}.cls-2{fill:#512304;}.cls-3{fill:#280f04;}.cls-4{fill:#f77f43;}.cls-5{fill:#050505;}.cls-6{fill:#efe8da;}.cls-7{fill:#d6cfc1;}.cls-8{fill:#1b1c1c;}.cls-9{fill:#eda97c;}.cls-10{fill:#2e3030;}.cls-11{fill:#1f2121;}</style></defs><title>server 2</title><g id="Layer_2" data-name="Layer 2"><g id="_ÎÓÈ_3" data-name="—ÎÓÈ_3"><path class="cls-1" d="M49.18,9.51c-2-4.78-7.91-5.88-11.49-4.47-1.9.74-6.5.49-8,3.55a16.63,16.63,0,0,0-.8,3.33c0,.67.2,2.64.14,3.19s-.42,1.13-.4,1.77a19.82,19.82,0,0,0,.59,4.67c.59,2.22-.19,3,1.08,3.77,1.54.91,7.19.82,10.39-1,2.57-1.48,4.12-2.45,4.42-2.6C51.53,18.48,51.22,14.29,49.18,9.51Z"/><path class="cls-2" d="M50.81,18.54c-.42.51-.86,1-1.33,1.46a10.39,10.39,0,0,0,2.67-2.35,8.75,8.75,0,0,0,1.19-4.35,6.39,6.39,0,0,0-.29-1.77,6,6,0,0,1-.16,2.21A9.22,9.22,0,0,1,50.81,18.54Z"/><path class="cls-2" d="M48.39,20.71l.42-.25a20.43,20.43,0,0,0,1.81-1.91,9.59,9.59,0,0,0,2-4c-.08.19-.17.38-.26.57A7.43,7.43,0,0,1,51,17l-.1.2a6.34,6.34,0,0,1-.9,1.27c-.39.42-.85.76-1.27,1.14A12.19,12.19,0,0,0,47,21.48C47.48,21.21,47.94,21,48.39,20.71Z"/><path class="cls-2" d="M45.45,22.88a6.5,6.5,0,0,1,1-1l.25-.19a11.32,11.32,0,0,1,1.58-1.89,12.2,12.2,0,0,0,2.41-2.51l0,0a12.53,12.53,0,0,1-1.21,1c-.63.44-1.27.85-1.85,1.34a7,7,0,0,0-.82.81l-.08.09-.22.29c-.11.15-.21.3-.31.46s-.22.38-.32.58a.61.61,0,0,0-.07.14,2,2,0,0,0-.1.21C45.62,22.41,45.53,22.64,45.45,22.88Z"/><path class="cls-3" d="M53.34,13.3a8.59,8.59,0,0,0-2-5h0s.17-6.64-9.68-8.15C35.85-.73,33.33,2,30.78,6.48l-.62,1.08-.22.31a7.34,7.34,0,0,1-3.8,2.78c.18.19,8.44,0,9.4-.05,8-.23,7,4.28,7.07,5.44,0,.44-.19,2,.08,1.78,4.86-3.38,1.26,2.68,2.25,5.75a7.15,7.15,0,0,1,1.5-1.66,15,15,0,0,1,2-1.2l.72-.44a12.19,12.19,0,0,0,3-2.62A8.75,8.75,0,0,0,53.34,13.3Z"/><path class="cls-4" d="M45.14,32.26c-.45-.08.81-.93.22-1.28-.58-1.09-1.72-7-.93-8.88-.06,0-7.79,3.79-10.34,3.78l-.66,5.18c-2.47,1-1,2-2.47,1a4,4,0,0,0-5.21.9c-1.17,1.49.58.77,1.16,2.76a20.85,20.85,0,0,0,1.15,2.76c.22.47.53.88.77,1.34,0,0,0,.08.05.13-.14.28-.3.56-.46.84-.35.38-.75.72-1.1,1.1a1.36,1.36,0,0,0-.56.39,4,4,0,0,0-1,2.5,4.52,4.52,0,0,0,0,1.64v0s0,0,0,.06l0,.11c0,.1,0,.2.07.3L26,47s0,0,0,.06a4.89,4.89,0,0,0,.2.48,1.57,1.57,0,0,0,.34.45c.18.26.37.51.55.76a11.67,11.67,0,0,0,5,3.7,3.68,3.68,0,0,1,.64.37c.06.07.12.15.19.22A4.21,4.21,0,0,1,36,56.2a5.64,5.64,0,0,1,.11,1.53c4,.63,8,1.18,12,1.71,0-.15-.09-.29-.13-.44C47.06,55.84,46.89,32.56,45.14,32.26Z"/><path class="cls-1" d="M21,84.52c.59,0,1.18,0,1.76,0,.28.57-.09.47.17.84l.84.17c.84,1.32,1.16,5.28.43,6.46-1.33,2.15-1,2.61-.92,3.8.08.73-1.39.13-1.22-1l.21-1.16a14.41,14.41,0,0,0-.61,1.69,37.08,37.08,0,0,1-.37,3.7c0,.23-.5.84-.69,0-.15-.63-.85.32-1.33.88a.42.42,0,0,1-.62,0,3.23,3.23,0,0,1-.38-.74.39.39,0,0,1-.38.06c-.46-.14-.52-.83-.58-1.27a8,8,0,0,1-.61-2.5,1.42,1.42,0,0,1,0-.29c0-.27,0-.54,0-.81h0c0-.12,0-.24,0-.35s0-.4.06-.6.12-.47.19-.71l0,0c1-5.41,3.36-5.91,3.51-6.26a2.62,2.62,0,0,0,.49-1.9Z"/><path class="cls-5" d="M13.94,173.58c6.19-.18,10.83,1.41,11.39-.1.6.64,1,4.11,1,4.71A2,2,0,0,1,24,180.32c-3.45,0-5-.47-6.41-.26-6,.87-11.74,2.32-14.53-1-.46-1,2.79-1.12,5.8-2.59A33.07,33.07,0,0,0,13.94,173.58Z"/><path class="cls-6" d="M21.86,52.91c-.43-11.63-1-15.27.95-19.95,1-2.52,3.62-2.37,5.12-2.17,5.93.75,3.44,8.84,2.86,13.36-.38,3,.72,15.4,1.05,23.29.24,5.78-5.42,17.4-6.48,20.24l-4.89-1.26c.45-3.78,1.74-19.16,2.13-23.14C22.76,61.64,21.9,54.09,21.86,52.91Z"/><path class="cls-7" d="M25.08,83l23-1.68s1.21-4.73,1.77-8.36c.06-.34,3-1.53,3.28-1.85,2.52-2.69,2.23-5,2.45-7a192.12,192.12,0,0,1,4.55-26c0-5.42-11-7.79-13-7.79l-3.06-.26-1-2.78a9.92,9.92,0,0,1-4.36,1.46,10.61,10.61,0,0,1-4.65-.69l-.44,1.87-8.28,1c-2.54,4.42-1.47,12.17-.61,15.42,2.54,9.67-1.32,19.33-1,22.08.29,2.28,1.38,3.17,1.35,3.67C24.87,77.82,25.08,83,25.08,83Z"/><path class="cls-8" d="M35,39.81a.41.41,0,0,0,.41.41.41.41,0,1,0,0-.81A.41.41,0,0,0,35,39.81Z"/><path class="cls-8" d="M34.55,71.15a.41.41,0,1,0,.81,0,.41.41,0,1,0-.81,0Z"/><path class="cls-8" d="M35.09,64.54a.41.41,0,1,0,.25.52A.41.41,0,0,0,35.09,64.54Z"/><path class="cls-8" d="M34.55,62.8a.41.41,0,1,0,.81,0,.41.41,0,1,0-.81,0Z"/><path class="cls-8" d="M34.55,56.05a.41.41,0,0,0,.81,0,.41.41,0,1,0-.81,0Z"/><path class="cls-8" d="M34.55,47.93a.41.41,0,1,0,.81,0,.41.41,0,1,0-.81,0Z"/><path class="cls-8" d="M34.55,41.78a.41.41,0,0,0,.81,0,.41.41,0,1,0-.81,0Z"/><path class="cls-8" d="M35.12,58.48a.41.41,0,0,0,.21-.54.41.41,0,0,0-.54-.2.41.41,0,0,0-.21.54A.41.41,0,0,0,35.12,58.48Z"/><path class="cls-8" d="M34.55,50.06a.41.41,0,1,0,.4-.41A.4.4,0,0,0,34.55,50.06Z"/><path class="cls-8" d="M35.77,33.1a.4.4,0,0,0,.41.4.41.41,0,1,0,0-.81A.41.41,0,0,0,35.77,33.1Z"/><path class="cls-8" d="M35.36,34.88a.42.42,0,0,0,.41.41.41.41,0,0,0,.41-.41.41.41,0,0,0-.41-.41A.41.41,0,0,0,35.36,34.88Z"/><path class="cls-9" d="M45.82,74.69c4,4.66,2.26,6.67,5.85,17.71,1.82,5.6.74,28.2.87,36.12.08,4.54,3.67,8.81,3.46,15.13-.15,4.08-2.18,13.17-2.39,27,0,2.5,2.1,4.51,2.25,5.94a2.09,2.09,0,0,1-1.39,2.4s-6.29.63-7.79-.19a5.08,5.08,0,0,1-1.37-1.76s2.72-3.9,2.74-5c.23-14.49-2.26-35.61-3.87-40.93-3.9-13-6.43-37.88-11.82-49.84C41.53,79,36.36,74.72,45.82,74.69Z"/><path class="cls-5" d="M42.23,178.81c6-1.42,12.68-1.16,12.92-2.75.72.51,1.78,3.84,1.92,4.41,0,0,.61,2.5-1.86,2.56a13.84,13.84,0,0,0-4.71,1.26c-7.36,3.32-12.65,4.4-16,1.73-.67-.9,1.48-2.14,4.13-4.19A30.3,30.3,0,0,0,42.23,178.81Z"/><path class="cls-8" d="M31.51,133.34c-.61,11.37-5.37,43.14-5.37,43.14a118.55,118.55,0,0,1-15.26-1,71.83,71.83,0,0,0,4.46-14.8c1.1-8.27,1.9-17.84,2.67-27.08.47-5.73,6.36-59,9.3-61,3,3.41,12.52,16,15.11,19.75C41.3,92.3,31.66,130.61,31.51,133.34Z"/><path class="cls-10" d="M55.86,177.4c.2-6.33.13-23.62.14-36.22,0-1.78-.81-9.14-.81-11,0-20.68,1-38.25-5.53-48.23L38.35,73.34l-4.08.88L24.88,78.7l7.48,18c1.62,8.05,8.87,30.88,9.6,41.59,1.34,19.47-1.26,41.51-.37,41.5C41.59,179.8,55.85,177.7,55.86,177.4Z"/><path class="cls-6" d="M32.82,30.13,33.64,27a8.79,8.79,0,0,0,5.09,1.48c2.35-.13,5.6-2,5.6-2l1.12,3.72c-1.28.95-5.91,2-8.19,2l-.48-3-1.17,2.73C34.82,31.64,32.89,31,32.82,30.13Z"/><path class="cls-11" d="M24.88,81.38,49.66,82l1.5-9.81s-13.68,1.43-18,1.3c-5.21-.16-7.67-1.65-7.67-1.65Z"/><polygon class="cls-10" points="22.82 63.26 18.24 60.2 18.25 60.19 14.48 57.83 0 66.94 3.6 69.31 3.6 69.31 8.22 72.34 22.82 63.26"/><polygon class="cls-11" points="0 66.94 0 67.45 0 67.46 0 67.98 8.27 73.41 8.27 72.89 8.27 72.89 8.27 72.37 0 66.94"/><polygon class="cls-11" points="8.27 72.37 8.27 72.89 8.27 72.89 8.27 73.41 22.87 64.33 22.87 63.81 22.87 63.8 22.87 63.29 8.27 72.37"/><path class="cls-1" d="M25.29,69.49c0-.59,0-1.17.07-1.76-.55-.3-.48.07-.83-.21l-.13-.85c-1.28-.9-5.22-1.41-6.43-.74-2.21,1.22-2.66.91-3.84.73-.73-.12-.2,1.38.93,1.26l1.17-.15a13.52,13.52,0,0,1-1.72.53c-1.25,0-2.52,0-3.72.18-.22,0-.86.47-.08.69.62.18-.37.84-1,1.3a.41.41,0,0,0,0,.61,3,3,0,0,0,.72.42.39.39,0,0,0-.09.37c.13.48.81.57,1.25.64a7.83,7.83,0,0,0,2.47.74,1.33,1.33,0,0,0,.28,0l.81.06h.36q.3,0,.6,0l.72-.16,0,0c5.46-.69,6.07-3.06,6.43-3.19a2.61,2.61,0,0,1,1.92-.4Z"/><path class="cls-6" d="M45.55,64.65c1.75-1,.52-7.67,1.65-14.18C48.14,45,50,38.54,51,36.48c1.21-2.44,3.78-2.1,5.27-1.8,5.85,1.18,4.15,8.18,3.25,12.65A51.92,51.92,0,0,1,58,55.16C55.89,61.55,53,68.1,51.16,69.78c-3.43,3.17-8.79,2-13.14,2.41s-8.33-1.38-14.27-2V66C27.79,65.36,44.05,65.48,45.55,64.65Z"/></g></g></svg>