<svg xmlns="http://www.w3.org/2000/svg" viewBox="0 0 68.44 168.06"><defs><style>.cls-1{fill:#f77f43;}.cls-2{fill:#ff985f;}.cls-3{fill:#280f04;}.cls-4{fill:#050505;}.cls-5{fill:#2e3030;}.cls-6{fill:#1f2121;}.cls-7{fill:#efe8da;}.cls-8{fill:#d6cfc1;}.cls-9{opacity:0.24;}.cls-10{fill:#baae9b;}.cls-11{fill:#eda97c;}.cls-12{fill:#1b1c1c;}</style></defs><title>server 1</title><g id="Layer_2" data-name="Layer 2"><g id="_ÎÓÈ_3" data-name="—ÎÓÈ_3"><path class="cls-1" d="M44.33,31.48c.41-.07-.72-.83-.19-1.15.52-1,1.54-6.27.84-8,.05,0,6.58,0,8.86,0l1,8.05c2.21.87.88,1.76,2.21.87a3.62,3.62,0,0,1,4.68.81c1,1.34-.52.7-1,2.48a17.34,17.34,0,0,1-1,2.48c-.19.42-.47.79-.68,1.2a1.17,1.17,0,0,0,0,.11c.13.26.27.51.41.76.32.34.68.65,1,1a1.15,1.15,0,0,1,.5.34,3.56,3.56,0,0,1,.87,2.25,4,4,0,0,1,0,1.47v0a.43.43,0,0,1,0,.05s0,.07,0,.1a2.68,2.68,0,0,1-.07.27l0,.13,0,0a3.25,3.25,0,0,1-.18.43,1.45,1.45,0,0,1-.3.41l-.49.68a10.6,10.6,0,0,1-4.51,3.32,3,3,0,0,0-.58.33l-.16.2A3.77,3.77,0,0,0,52.54,53a5,5,0,0,0-.1,1.38c-3.57.56-7.16,1.06-10.75,1.53.05-.13.09-.26.13-.39C42.61,52.65,42.77,31.75,44.33,31.48Z"/><path class="cls-2" d="M57.66,8.52c-1.83-4.29-7.1-5.27-10.32-4-1.7.67-5.83.44-7.16,3.19a15.11,15.11,0,0,0-.71,3c0,.59.17,2.37.12,2.86s-.38,1-.36,1.59a17.89,17.89,0,0,0,.53,4.19c.53,2-.17,2.7,1,3.38,1.38.81,6.45.73,9.33-.92,2.3-1.33,3.69-2.2,4-2.34C59.76,16.57,59.49,12.81,57.66,8.52Z"/><path class="cls-3" d="M61.39,11.92a7.74,7.74,0,0,0-1.77-4.46h0s.15-6-8.69-7.32c-5.24-.81-8.36,2-10.44,6.11C39.54,8.15,39,9.67,39,9.67c.17.17,4.16-1,4.21-.1.2,3.11.66,5.45.9,5.28,4.37-3,1.84,5.31,2.73,8.07,2.39.81,7.8.67,7.91,0C55.4,18.67,61.39,16.22,61.39,11.92Z"/><path class="cls-4" d="M55.33,158.22c5.53.46,9.52,2.34,10.16,1.05.48.63.46,3.77.42,4.3,0,0,.52,1.47-2.3,1.66-3.08.22-3.76-.2-5.13.17-5.26,1.46-13.77.64-13.62-1.28.12-1.49,2.8-2.8,5.63-3.81A30,30,0,0,0,55.33,158.22Z"/><polygon class="cls-5" points="0.06 51.02 4.63 47.95 4.62 47.94 8.39 45.59 22.87 54.7 19.27 57.07 19.27 57.07 14.65 60.09 0.06 51.02"/><polygon class="cls-6" points="22.87 54.69 22.87 55.21 22.87 55.22 22.87 55.73 14.6 61.17 14.6 60.65 14.6 60.64 14.6 60.13 22.87 54.69"/><polygon class="cls-6" points="14.6 60.13 14.6 60.64 14.6 60.65 14.6 61.17 0 52.09 0 51.57 0 51.56 0 51.05 14.6 60.13"/><path class="cls-2" d="M46.51,65c.21-.49.42-1,.65-1.44-.36-.44-.42-.11-.62-.46l.18-.74c-.77-1.19-3.88-2.92-5.11-2.77-2.26.28-2.53-.13-3.45-.67-.57-.34-.63,1.08.35,1.36l1,.26a12.33,12.33,0,0,1-1.61-.13c-1.06-.37-2.1-.82-3.16-1.08-.2,0-.87.1-.3.54s-.58.58-1.22.76a.37.37,0,0,0-.18.52,2.61,2.61,0,0,0,.46.59.33.33,0,0,0-.19.28c-.06.44.47.75.82,1A6.93,6.93,0,0,0,36,64.37c.22.14,0,0,.23.12a6.5,6.5,0,0,0,.65.32h0l.28.13a5,5,0,0,0,.51.16c.22.05.44.08.66.12h0c4.78,1.24,6.08-.53,6.42-.52A2.39,2.39,0,0,1,46.5,65Z"/><path class="cls-7" d="M61.37,56.57c-.62-1.72-3.68-19.82-3.77-21.88-.15-3.09,1.12-4.58,2.45-4.86,5.13-1.06,6.57,3.84,7.41,9.51.13.82,1.72,21.17.56,23.06C65.83,66,52,67.51,44.54,65.24l.88-5.17A25.18,25.18,0,0,0,61.37,56.57Z"/><path class="cls-8" d="M62.34,77.05,41.69,75.54s-1.08-4.23-1.58-7.5c0-.3-1.93-.94-2.21-1.23-2.27-2.42-.72-6-.92-7.75-1.6-14.17-2.34-22.15-2.34-22.15,0-4.86,6.1-7.17,7.9-7.17l2.75-.23.89-2.5a8.78,8.78,0,0,0,3.91,1.31,9.49,9.49,0,0,0,4.17-.61l.4,1.67s5.87-.11,7.43.93c3.81,2.54,2.24,10.39,2.56,16.77.51,10.24.76,13.64-.49,17.23-.68,2-2.21,2.24-2.19,2.7C62.2,72.11,62.34,77.05,62.34,77.05Z"/><g class="cls-9"><path class="cls-10" d="M64.65,47.08c0-.47,0-.95,0-1.44a35.53,35.53,0,0,0-9,4.5C55.92,50,53.41,52,53,52.41c-.93.88-1.84,1.8-2.71,2.75a37,37,0,0,0-4.76,6.25l-.05.06a50.8,50.8,0,0,0-2.31,9.78A57.08,57.08,0,0,1,50.94,59,38.54,38.54,0,0,1,64.73,48.66C64.7,48.15,64.68,47.63,64.65,47.08Z"/></g><path class="cls-11" d="M43.73,69.56c-3.57,4.19-2,6-5.26,15.9-1.63,5-.66,25.31-.78,32.42-.06,4.06-3.29,7.9-3.1,13.57.13,3.66,2,11.82,2.15,24.24,0,2.25-1.89,4.05-2,5.33A1.85,1.85,0,0,0,36,163.17s5.65.57,7-.17a4.42,4.42,0,0,0,1.23-1.58s-2.43-3.49-2.45-4.45c-.21-13,2-32,3.47-36.74,3.5-11.62,5.77-34,10.61-44.72C47.57,73.47,52.22,69.59,43.73,69.56Z"/><path class="cls-4" d="M35.39,160.65c5.53.56,11.1,2.73,11.77,1.45.46.64.38,3.77.33,4.3,0,0-.11,1.52-2.32,1.63-2.61.12-3.9-.36-5.2-.24-7.21.65-14.3.27-13.63-2.69.23-1,4-2.11,6.88-3.06C36.6,160.9,35.39,160.65,35.39,160.65Z"/><path class="cls-12" d="M52.16,126.7c.55,10.21-1.08,33.26-1.08,33.26,1.93.21,13.81.6,15.35.24-1.08-5.82-1.15-22.19-1.75-26.7-1-7.33-2.82-15.44-2.51-19.19.77-9.24-3.14-18.68.73-31-2.68,3.07-16-1.41-18.36,1.93C45.55,85.23,52,124.26,52.16,126.7Z"/><path class="cls-5" d="M32,162.33c1-6.44,1.85-14.19,2.59-34.48.67-18.55.62-30.95,5-51.71l10.87-7.79,3.67.79,8,4s1.45,7.51.81,10.2c-1,4.37-6.73,4.36-9.45,12.08-2.33,6.63-4.75,20.86-5.4,27.1-.26,2.54.52,11.55.42,13-1.2,17.47-.15,28.37-.95,28.36C47.52,163.89,32,162.6,32,162.33Z"/><path class="cls-7" d="M55.4,29.57,54.6,26a5.79,5.79,0,0,1-3.87,1c-2.12-.11-6.2-.74-6.2-.74l-.87,3.38a16.43,16.43,0,0,0,7.75,1.74C53.84,31,55.33,30.38,55.4,29.57Z"/><path class="cls-6" d="M62.52,75.56l-23,.58-.63-8.83s12.28,1.29,16.15,1.17a15.48,15.48,0,0,0,7.82-2.35Z"/><path class="cls-2" d="M15.68,62.12c.33-.42.66-.82,1-1.22-.22-.52-.37-.21-.47-.6l.37-.67c-.41-1.35-2.93-3.87-4.16-4.06C10.19,55.23,10,54.76,9.3,54c-.46-.48-.9.87,0,1.41l.91.53a11.9,11.9,0,0,1-1.51-.57c-.92-.65-1.8-1.36-2.75-1.9-.17-.1-.86-.14-.43.45s-.72.39-1.38.39a.37.37,0,0,0-.32.45,3.2,3.2,0,0,0,.28.7.32.32,0,0,0-.26.21c-.17.41.26.85.53,1.14a7,7,0,0,0,1.35,1.88,1.62,1.62,0,0,0,.19.18l.54.48h0l.23.2.45.3c.2.11.4.2.6.29h0c4.26,2.5,6,1.15,6.32,1.25a2.43,2.43,0,0,1,1.58.77Z"/><path class="cls-7" d="M31.6,58.28c-.13-1.83,1.75-18.79,2.21-20.8.71-3,2.93-5.81,5.12-5.44,5.9,1,4.7,7.13,3.88,11.13C42.65,44,38.7,64,37.06,65.51,34,68.36,20.3,66.07,13.7,61.85L16,57.12A23.85,23.85,0,0,0,31.6,58.28Z"/></g></g></svg>