<svg xmlns="http://www.w3.org/2000/svg" viewBox="0 0 727.09 658.54"><defs><style>.cls-1{fill:#fff6ee;}.cls-2{fill:#a07f68;}.cls-3{fill:#ead3c3;}.cls-4{fill:#e2d4c7;}.cls-5{fill:#b7977d;}.cls-6{fill:#f7e9df;}.cls-7{fill:#bfa180;}</style></defs><title>Back wall</title><g id="Layer_2" data-name="Layer 2"><g id="_ÎÓÈ_3" data-name="—ÎÓÈ_3"><g id="_Group_backWall" data-name="&lt;Group&gt;backWall"><polygon class="cls-1" points="706.91 300.54 229.93 14.76 231.21 1 722.26 293.15 706.91 300.54"/><polygon class="cls-2" points="706.8 459.17 229.91 173.45 230.01 14.82 706.91 300.54 706.8 459.17"/><path class="cls-3" d="M549.56,372.37c4.58,2.64,9.26,5.42,16.16,9.79,1.26.8,2.69.82,2.76-1.65l.19-6.8a3.33,3.33,0,0,0-1.72-3.24c-7.79-5-10-6.29-16.21-9.9-2.36-1.37-2.73.62-2.77,2.11l-.2,7.16C547.73,371.33,548.27,371.62,549.56,372.37Z"/><path class="cls-3" d="M534.33,378.21c4.58,2.65,9.26,5.42,16.16,9.79,1.26.8,2.69.82,2.76-1.65l.19-6.8a3.31,3.31,0,0,0-1.72-3.23c-7.79-5-10-6.29-16.21-9.91-2.36-1.37-2.73.62-2.77,2.12l-.2,7.15C532.5,377.18,533,377.46,534.33,378.21Z"/><path class="cls-3" d="M527.42,358.8c4.59,2.65,9.26,5.42,16.17,9.79,1.26.8,2.69.82,2.76-1.65l.18-6.8a3.29,3.29,0,0,0-1.72-3.23c-7.79-5-10-6.3-16.2-9.91-2.36-1.37-2.73.62-2.78,2.12l-.19,7.15C525.6,357.77,526.13,358.05,527.42,358.8Z"/><path class="cls-3" d="M505.28,345.45c4.59,2.64,9.26,5.41,16.16,9.79,1.27.8,2.7.82,2.76-1.65l.19-6.8a3.33,3.33,0,0,0-1.72-3.24c-7.79-5-10-6.29-16.2-9.9-2.37-1.38-2.74.62-2.78,2.11l-.2,7.16C503.45,344.41,504,344.7,505.28,345.45Z"/><path class="cls-3" d="M483,332.09c4.58,2.64,9.26,5.42,16.16,9.79,1.26.8,2.7.82,2.76-1.65l.19-6.8a3.33,3.33,0,0,0-1.72-3.24c-7.79-5-10-6.29-16.21-9.9-2.36-1.38-2.73.62-2.77,2.11l-.2,7.16C481.13,331.05,481.67,331.34,483,332.09Z"/><path class="cls-3" d="M512.19,364.64c4.59,2.65,9.26,5.42,16.16,9.8,1.27.79,2.7.81,2.76-1.65l.19-6.8a3.31,3.31,0,0,0-1.72-3.24c-7.79-5-10-6.29-16.2-9.91-2.37-1.37-2.74.63-2.78,2.12l-.2,7.16C510.36,363.61,510.9,363.9,512.19,364.64Z"/><path class="cls-3" d="M490.05,351.29c4.58,2.65,9.26,5.42,16.16,9.79,1.26.8,2.69.82,2.76-1.65l.19-6.8a3.31,3.31,0,0,0-1.72-3.23c-7.79-5-10-6.3-16.21-9.91-2.36-1.37-2.73.62-2.77,2.11l-.2,7.16C488.22,350.25,488.76,350.54,490.05,351.29Z"/><path class="cls-3" d="M467.73,337.93c4.58,2.65,9.26,5.42,16.16,9.79,1.26.8,2.69.82,2.76-1.65l.19-6.8a3.31,3.31,0,0,0-1.72-3.23c-7.79-5-10-6.3-16.21-9.91-2.36-1.37-2.73.62-2.77,2.11l-.2,7.16C465.9,336.89,466.43,337.18,467.73,337.93Z"/><path class="cls-3" d="M539.64,351.28c4.58,2.65,9.26,5.42,16.16,9.8,1.26.8,2.7.82,2.76-1.65l.19-6.8a3.32,3.32,0,0,0-1.72-3.24c-7.79-5-10-6.29-16.21-9.91-2.36-1.37-2.73.63-2.77,2.12l-.2,7.16C537.81,350.25,538.35,350.54,539.64,351.28Z"/><path class="cls-3" d="M517.5,337.72c4.59,2.64,9.26,5.42,16.17,9.79,1.26.8,2.69.82,2.76-1.65l.19-6.8a3.35,3.35,0,0,0-1.72-3.24c-7.8-5-10-6.29-16.21-9.9-2.36-1.37-2.73.62-2.78,2.11l-.19,7.16C515.68,336.68,516.21,337,517.5,337.72Z"/><path class="cls-3" d="M495.36,324.36c4.59,2.65,9.26,5.42,16.16,9.8,1.27.79,2.7.81,2.76-1.65l.19-6.8a3.31,3.31,0,0,0-1.72-3.24c-7.79-5-10-6.29-16.2-9.91-2.36-1.37-2.74.63-2.78,2.12l-.2,7.16C493.53,323.33,494.07,323.62,495.36,324.36Z"/><path class="cls-3" d="M554.53,345.45c4.59,2.64,9.26,5.41,16.17,9.79,1.26.8,2.69.82,2.76-1.65l.18-6.8a3.33,3.33,0,0,0-1.72-3.24c-7.79-5-10-6.29-16.2-9.9-2.36-1.38-2.74.62-2.78,2.11l-.19,7.16C552.7,344.41,553.24,344.7,554.53,345.45Z"/><path class="cls-3" d="M542.31,278.6c4.59,2.65,9.26,5.42,16.17,9.79,1.26.8,2.69.82,2.76-1.65l.19-6.8a3.33,3.33,0,0,0-1.72-3.23c-7.8-5-10-6.29-16.21-9.91-2.36-1.37-2.73.63-2.77,2.12l-.2,7.16C540.49,277.57,541,277.86,542.31,278.6Z"/><path class="cls-3" d="M520.17,265.25c4.59,2.64,9.26,5.42,16.17,9.79,1.26.8,2.69.82,2.76-1.65l.18-6.8a3.32,3.32,0,0,0-1.72-3.24c-7.79-5-10-6.29-16.2-9.9-2.36-1.37-2.73.62-2.78,2.11l-.19,7.16C518.34,264.21,518.88,264.5,520.17,265.25Z"/><path class="cls-3" d="M497.85,251.89c4.59,2.65,9.26,5.42,16.17,9.79,1.26.8,2.69.82,2.76-1.65l.18-6.8a3.31,3.31,0,0,0-1.72-3.23c-7.79-5-10-6.3-16.2-9.91-2.36-1.37-2.74.62-2.78,2.11l-.19,7.16C496,250.85,496.56,251.14,497.85,251.89Z"/><path class="cls-3" d="M549.22,298c4.58,2.65,9.26,5.42,16.16,9.8,1.26.79,2.69.81,2.76-1.66l.19-6.8a3.31,3.31,0,0,0-1.72-3.23c-7.79-5-10-6.29-16.21-9.91-2.36-1.37-2.73.63-2.77,2.12l-.2,7.16C547.39,297,547.93,297.27,549.22,298Z"/><path class="cls-3" d="M527.08,284.44c4.59,2.65,9.26,5.42,16.17,9.8,1.26.8,2.69.82,2.76-1.65l.18-6.8a3.31,3.31,0,0,0-1.72-3.24c-7.79-5-10-6.29-16.2-9.9-2.36-1.38-2.73.62-2.78,2.11l-.19,7.16C525.26,283.41,525.79,283.7,527.08,284.44Z"/><path class="cls-3" d="M504.94,271.09c4.59,2.65,9.26,5.42,16.16,9.79,1.27.8,2.7.82,2.76-1.65l.19-6.8a3.31,3.31,0,0,0-1.72-3.23c-7.79-5-10-6.29-16.2-9.91-2.37-1.37-2.74.62-2.78,2.12l-.2,7.15C503.11,270.06,503.65,270.34,504.94,271.09Z"/><path class="cls-3" d="M482.62,257.73c4.58,2.65,9.26,5.42,16.16,9.79,1.26.8,2.7.82,2.76-1.65l.19-6.8a3.31,3.31,0,0,0-1.72-3.23c-7.79-5-10-6.29-16.21-9.91-2.36-1.37-2.73.62-2.77,2.12l-.2,7.15C480.79,256.7,481.33,257,482.62,257.73Z"/><path class="cls-3" d="M554.53,271.09c4.59,2.64,9.26,5.42,16.17,9.79,1.26.8,2.69.82,2.76-1.65l.18-6.8a3.33,3.33,0,0,0-1.72-3.24c-7.79-5-10-6.29-16.2-9.9-2.36-1.38-2.74.62-2.78,2.11l-.19,7.16C552.7,270.05,553.24,270.34,554.53,271.09Z"/><path class="cls-3" d="M532.39,257.52c4.59,2.65,9.26,5.42,16.17,9.79,1.26.8,2.69.82,2.76-1.65l.19-6.8a3.31,3.31,0,0,0-1.72-3.23c-7.8-5-10-6.3-16.21-9.91-2.36-1.37-2.73.62-2.77,2.11l-.2,7.16C530.57,256.48,531.1,256.77,532.39,257.52Z"/><path class="cls-3" d="M510.25,244.16c4.59,2.65,9.26,5.42,16.17,9.8,1.26.8,2.69.82,2.76-1.65l.19-6.8a3.34,3.34,0,0,0-1.72-3.24c-7.8-5-10-6.29-16.21-9.9-2.36-1.38-2.73.62-2.78,2.11l-.19,7.16C508.43,243.13,509,243.42,510.25,244.16Z"/><path class="cls-3" d="M487.93,230.8c4.59,2.65,9.26,5.42,16.17,9.8,1.26.8,2.69.82,2.76-1.65l.18-6.8a3.31,3.31,0,0,0-1.72-3.24c-7.79-5-10-6.29-16.2-9.9-2.36-1.38-2.73.62-2.78,2.11l-.19,7.16C486.1,229.77,486.64,230.06,487.93,230.8Z"/><path class="cls-3" d="M562.63,365c4.59,2.65,9.26,5.42,16.17,9.8,1.26.8,2.69.82,2.76-1.65l.18-6.8a3.3,3.3,0,0,0-1.72-3.24c-7.79-5-10-6.29-16.2-9.91-2.36-1.37-2.73.63-2.78,2.12l-.19,7.16C560.81,364,561.34,364.28,562.63,365Z"/><path class="cls-3" d="M540,232.3c4.59,2.64,9.26,5.42,16.17,9.79,1.26.8,2.69.82,2.76-1.65l.19-6.8a3.35,3.35,0,0,0-1.72-3.24c-7.8-5-10-6.29-16.21-9.9-2.36-1.37-2.73.62-2.77,2.11l-.2,7.16C538.14,231.26,538.67,231.55,540,232.3Z"/><path class="cls-3" d="M517.82,218.94c4.59,2.65,9.26,5.42,16.17,9.8,1.26.79,2.69.81,2.76-1.65l.18-6.8a3.3,3.3,0,0,0-1.72-3.24c-7.79-5-10-6.29-16.2-9.91-2.36-1.37-2.73.63-2.78,2.12l-.19,7.16C516,217.91,516.53,218.2,517.82,218.94Z"/><path class="cls-3" d="M495.5,205.58c4.59,2.65,9.26,5.42,16.17,9.8,1.26.8,2.69.81,2.76-1.65l.18-6.8a3.31,3.31,0,0,0-1.72-3.24c-7.79-5-10-6.29-16.2-9.91-2.36-1.37-2.74.63-2.78,2.12l-.19,7.16C493.67,204.55,494.21,204.84,495.5,205.58Z"/><path class="cls-3" d="M546.87,251.71c4.58,2.64,9.26,5.42,16.16,9.79,1.26.8,2.69.82,2.76-1.65l.19-6.8a3.33,3.33,0,0,0-1.72-3.24c-7.79-5-10-6.29-16.21-9.9-2.36-1.37-2.73.62-2.77,2.11l-.2,7.16C545,250.67,545.58,251,546.87,251.71Z"/><path class="cls-3" d="M524.73,238.14c4.59,2.65,9.26,5.42,16.17,9.79,1.26.8,2.69.82,2.76-1.65l.18-6.8a3.29,3.29,0,0,0-1.72-3.23c-7.79-5-10-6.29-16.2-9.91-2.36-1.37-2.73.62-2.78,2.12l-.19,7.15C522.91,237.11,523.44,237.39,524.73,238.14Z"/><path class="cls-3" d="M502.59,224.79c4.59,2.64,9.26,5.42,16.16,9.79,1.27.8,2.7.82,2.76-1.65l.19-6.8a3.33,3.33,0,0,0-1.72-3.24c-7.79-5-10-6.29-16.2-9.9-2.37-1.38-2.74.62-2.78,2.11l-.2,7.16C500.76,223.75,501.3,224,502.59,224.79Z"/><path class="cls-3" d="M480.27,211.43c4.58,2.64,9.26,5.42,16.16,9.79,1.26.8,2.69.82,2.76-1.65l.19-6.8a3.33,3.33,0,0,0-1.72-3.24c-7.79-5-10-6.29-16.21-9.9-2.36-1.37-2.73.62-2.77,2.11l-.2,7.16C478.44,210.39,479,210.68,480.27,211.43Z"/><path class="cls-3" d="M552.18,224.78c4.59,2.65,9.26,5.42,16.17,9.79,1.26.8,2.69.82,2.76-1.65l.18-6.8a3.31,3.31,0,0,0-1.72-3.23c-7.79-5-10-6.29-16.2-9.91-2.36-1.37-2.74.62-2.78,2.12l-.19,7.15C550.35,223.75,550.89,224,552.18,224.78Z"/><path class="cls-3" d="M530,211.21c4.59,2.65,9.26,5.42,16.17,9.8,1.26.8,2.69.82,2.76-1.65l.19-6.8a3.32,3.32,0,0,0-1.72-3.24c-7.8-5-10-6.29-16.21-9.9-2.36-1.38-2.73.62-2.77,2.11l-.2,7.16C528.22,210.18,528.75,210.47,530,211.21Z"/><path class="cls-3" d="M507.9,197.86c4.59,2.65,9.26,5.42,16.17,9.79,1.26.8,2.69.82,2.76-1.65l.19-6.8A3.33,3.33,0,0,0,525.3,196c-7.8-5-10-6.3-16.21-9.91-2.36-1.37-2.73.62-2.78,2.12l-.19,7.15C506.08,196.83,506.61,197.11,507.9,197.86Z"/><path class="cls-3" d="M485.58,184.5c4.59,2.65,9.26,5.42,16.17,9.79,1.26.8,2.69.82,2.76-1.65l.18-6.8a3.29,3.29,0,0,0-1.72-3.23c-7.79-5-10-6.29-16.2-9.91-2.36-1.37-2.74.62-2.78,2.12L483.8,182C483.75,183.47,484.29,183.75,485.58,184.5Z"/><path class="cls-3" d="M474.36,237.75c4.58,2.65,9.26,5.42,16.16,9.8,1.26.8,2.69.82,2.76-1.65l.19-6.8a3.32,3.32,0,0,0-1.72-3.24c-7.79-5-10-6.29-16.21-9.9-2.36-1.38-2.73.62-2.77,2.11l-.2,7.16C472.53,236.72,473.07,237,474.36,237.75Z"/><path class="cls-3" d="M452.22,224.19c4.59,2.64,9.26,5.42,16.17,9.79,1.26.8,2.69.82,2.76-1.65l.19-6.8a3.34,3.34,0,0,0-1.73-3.24c-7.79-5-10-6.29-16.2-9.9-2.36-1.37-2.73.62-2.78,2.11l-.19,7.16C450.4,223.15,450.93,223.44,452.22,224.19Z"/><path class="cls-3" d="M430.08,210.83c4.59,2.65,9.26,5.42,16.16,9.8,1.27.79,2.7.81,2.76-1.65l.19-6.8a3.31,3.31,0,0,0-1.72-3.24c-7.79-5-10-6.29-16.2-9.91-2.36-1.37-2.74.63-2.78,2.12l-.2,7.16C428.25,209.8,428.79,210.09,430.08,210.83Z"/><path class="cls-3" d="M407.76,197.47c4.58,2.65,9.26,5.42,16.16,9.8,1.26.8,2.7.81,2.76-1.65l.19-6.8a3.31,3.31,0,0,0-1.72-3.24c-7.79-5-10-6.29-16.21-9.91-2.36-1.37-2.73.63-2.77,2.12L406,195C405.93,196.44,406.47,196.73,407.76,197.47Z"/><path class="cls-3" d="M459.13,243.6c4.58,2.64,9.26,5.42,16.16,9.79,1.26.8,2.69.82,2.76-1.65l.19-6.8a3.33,3.33,0,0,0-1.72-3.24c-7.79-5-10-6.29-16.21-9.9-2.36-1.37-2.73.62-2.77,2.11l-.2,7.16C457.3,242.56,457.83,242.85,459.13,243.6Z"/><path class="cls-3" d="M437,230c4.59,2.65,9.26,5.42,16.16,9.79,1.27.8,2.7.82,2.76-1.65l.19-6.8a3.31,3.31,0,0,0-1.72-3.23c-7.79-5-10-6.29-16.2-9.91-2.36-1.37-2.74.62-2.78,2.12l-.2,7.15C435.16,229,435.7,229.28,437,230Z"/><path class="cls-3" d="M414.85,216.68c4.58,2.64,9.26,5.42,16.16,9.79,1.26.8,2.69.82,2.76-1.65L434,218a3.33,3.33,0,0,0-1.72-3.24c-7.79-5-10-6.29-16.21-9.9-2.36-1.38-2.73.62-2.77,2.11l-.2,7.16C413,215.64,413.56,215.93,414.85,216.68Z"/><path class="cls-3" d="M392.53,203.32c4.58,2.64,9.26,5.42,16.16,9.79,1.26.8,2.69.82,2.76-1.65l.19-6.8a3.33,3.33,0,0,0-1.72-3.24c-7.79-5-10-6.29-16.21-9.9-2.36-1.37-2.73.62-2.77,2.11l-.2,7.16C390.7,202.28,391.23,202.57,392.53,203.32Z"/><path class="cls-3" d="M464.44,216.67c4.58,2.65,9.26,5.42,16.16,9.79,1.26.8,2.7.82,2.76-1.65l.19-6.8a3.31,3.31,0,0,0-1.72-3.23c-7.79-5-10-6.29-16.21-9.91-2.36-1.37-2.73.62-2.77,2.12l-.2,7.15C462.61,215.64,463.15,215.92,464.44,216.67Z"/><path class="cls-3" d="M442.3,203.1c4.59,2.65,9.26,5.42,16.17,9.8,1.26.8,2.69.82,2.76-1.65l.19-6.8a3.34,3.34,0,0,0-1.72-3.24c-7.8-5-10-6.29-16.21-9.9-2.36-1.38-2.73.62-2.77,2.11l-.2,7.16C440.48,202.07,441,202.36,442.3,203.1Z"/><path class="cls-3" d="M420.16,189.75c4.59,2.65,9.26,5.42,16.17,9.79,1.26.8,2.69.82,2.76-1.65l.18-6.8a3.31,3.31,0,0,0-1.72-3.23c-7.79-5-10-6.3-16.2-9.91-2.36-1.37-2.74.62-2.78,2.12l-.19,7.15C418.33,188.72,418.87,189,420.16,189.75Z"/><path class="cls-3" d="M397.84,176.39c4.59,2.65,9.26,5.42,16.16,9.79,1.26.8,2.7.82,2.76-1.65l.19-6.8a3.31,3.31,0,0,0-1.72-3.23c-7.79-5-10-6.29-16.2-9.91-2.37-1.37-2.74.62-2.78,2.12l-.2,7.15C396,175.36,396.55,175.64,397.84,176.39Z"/><path class="cls-3" d="M473.49,192.38c4.58,2.64,9.26,5.41,16.16,9.79,1.26.8,2.7.82,2.76-1.65l.19-6.8a3.33,3.33,0,0,0-1.72-3.24c-7.79-5-10-6.29-16.21-9.9-2.36-1.38-2.73.62-2.77,2.11l-.2,7.16C471.66,191.34,472.2,191.63,473.49,192.38Z"/><path class="cls-3" d="M451.35,178.81c4.59,2.65,9.26,5.42,16.17,9.79,1.26.8,2.69.82,2.76-1.65l.19-6.8a3.33,3.33,0,0,0-1.72-3.23c-7.8-5-10-6.3-16.21-9.91-2.36-1.37-2.73.62-2.77,2.11l-.2,7.16C449.53,177.77,450.06,178.06,451.35,178.81Z"/><path class="cls-3" d="M429.21,165.45c4.59,2.65,9.26,5.42,16.17,9.8,1.26.8,2.69.82,2.76-1.65l.18-6.8a3.31,3.31,0,0,0-1.72-3.24c-7.79-5-10-6.29-16.2-9.91-2.36-1.37-2.74.63-2.78,2.12l-.19,7.16C427.38,164.42,427.92,164.71,429.21,165.45Z"/><path class="cls-3" d="M406.89,152.09c4.59,2.65,9.26,5.42,16.16,9.8,1.26.8,2.7.82,2.76-1.65l.19-6.8a3.32,3.32,0,0,0-1.72-3.24c-7.79-5-10-6.29-16.2-9.9-2.37-1.38-2.74.62-2.78,2.11l-.2,7.16C405.06,151.06,405.6,151.35,406.89,152.09Z"/><path class="cls-3" d="M458.26,198.22c4.58,2.65,9.26,5.42,16.16,9.79,1.26.8,2.69.82,2.76-1.65l.19-6.8a3.31,3.31,0,0,0-1.72-3.23c-7.79-5-10-6.3-16.21-9.91-2.36-1.37-2.73.62-2.77,2.11l-.2,7.16C456.43,197.18,457,197.47,458.26,198.22Z"/><path class="cls-3" d="M436.12,184.65c4.59,2.65,9.26,5.42,16.17,9.79,1.26.8,2.69.82,2.76-1.65l.18-6.8a3.31,3.31,0,0,0-1.72-3.23c-7.79-5-10-6.29-16.2-9.91-2.36-1.37-2.74.63-2.78,2.12l-.19,7.16C434.29,183.62,434.83,183.91,436.12,184.65Z"/><path class="cls-3" d="M414,171.3c4.58,2.64,9.26,5.42,16.16,9.79,1.26.8,2.7.82,2.76-1.65l.19-6.8a3.33,3.33,0,0,0-1.72-3.24c-7.79-5-10-6.29-16.21-9.9-2.36-1.37-2.73.62-2.77,2.11l-.2,7.16C412.15,170.26,412.69,170.55,414,171.3Z"/><path class="cls-3" d="M391.66,157.94c4.58,2.65,9.26,5.42,16.16,9.79,1.26.8,2.69.82,2.76-1.65l.19-6.8a3.33,3.33,0,0,0-1.72-3.24c-7.79-5-10-6.29-16.21-9.9-2.36-1.37-2.73.62-2.77,2.11l-.2,7.16C389.83,156.9,390.37,157.19,391.66,157.94Z"/><path class="cls-3" d="M463.57,171.29c4.59,2.65,9.26,5.42,16.16,9.8,1.26.79,2.7.81,2.76-1.66l.19-6.79A3.31,3.31,0,0,0,481,169.4c-7.79-5-10-6.29-16.2-9.91-2.37-1.37-2.74.63-2.78,2.12l-.2,7.16C461.74,170.26,462.28,170.55,463.57,171.29Z"/><path class="cls-3" d="M441.43,157.73c4.59,2.64,9.26,5.41,16.17,9.79,1.26.8,2.69.82,2.76-1.65l.19-6.8a3.35,3.35,0,0,0-1.72-3.24c-7.8-5-10-6.29-16.21-9.9-2.36-1.38-2.73.62-2.77,2.11l-.2,7.16C439.61,156.69,440.14,157,441.43,157.73Z"/><path class="cls-3" d="M419.29,144.37c4.59,2.65,9.26,5.42,16.17,9.79,1.26.8,2.69.82,2.76-1.65l.18-6.8a3.29,3.29,0,0,0-1.72-3.23c-7.79-5-10-6.29-16.2-9.91-2.36-1.37-2.73.62-2.78,2.12l-.19,7.15C417.46,143.34,418,143.62,419.29,144.37Z"/><path class="cls-3" d="M397,131c4.59,2.65,9.26,5.42,16.16,9.79,1.27.8,2.7.82,2.76-1.65l.19-6.8a3.31,3.31,0,0,0-1.72-3.23c-7.79-5-10-6.29-16.2-9.91-2.36-1.37-2.74.63-2.78,2.12l-.2,7.16C395.14,130,395.68,130.27,397,131Z"/><path class="cls-3" d="M473,311c4.58,2.65,9.26,5.42,16.16,9.8,1.26.79,2.7.81,2.76-1.65l.19-6.8a3.31,3.31,0,0,0-1.72-3.24c-7.79-5-10-6.29-16.21-9.91-2.36-1.37-2.73.63-2.77,2.12l-.2,7.16C471.21,310,471.75,310.26,473,311Z"/><path class="cls-3" d="M547.21,326.06c4.58,2.65,9.26,5.42,16.16,9.8,1.26.79,2.69.81,2.76-1.66l.19-6.79a3.31,3.31,0,0,0-1.72-3.24c-7.79-5-10-6.29-16.21-9.91-2.36-1.37-2.73.63-2.77,2.12l-.2,7.16C545.38,325,545.92,325.32,547.21,326.06Z"/><path class="cls-3" d="M525.07,312.5c4.59,2.64,9.26,5.41,16.17,9.79,1.26.8,2.69.82,2.76-1.65l.18-6.8a3.32,3.32,0,0,0-1.72-3.24c-7.79-5-10-6.29-16.2-9.9-2.36-1.38-2.73.62-2.78,2.11l-.19,7.16C523.24,311.46,523.78,311.75,525.07,312.5Z"/><path class="cls-3" d="M502.93,299.14c4.59,2.65,9.26,5.42,16.16,9.79,1.26.8,2.7.82,2.76-1.65l.19-6.8a3.31,3.31,0,0,0-1.72-3.23c-7.79-5-10-6.29-16.2-9.91-2.37-1.37-2.74.62-2.78,2.12l-.2,7.15C501.1,298.11,501.64,298.39,502.93,299.14Z"/><path class="cls-3" d="M480.61,285.78c4.58,2.65,9.26,5.42,16.16,9.79,1.26.8,2.69.82,2.76-1.65l.19-6.8a3.31,3.31,0,0,0-1.72-3.23c-7.79-5-10-6.29-16.21-9.91-2.36-1.37-2.73.63-2.77,2.12l-.2,7.16C478.78,284.75,479.32,285,480.61,285.78Z"/><path class="cls-3" d="M532,331.91c4.58,2.64,9.26,5.41,16.16,9.79,1.26.8,2.69.82,2.76-1.65l.19-6.8a3.33,3.33,0,0,0-1.72-3.24c-7.79-5-10-6.29-16.21-9.9-2.36-1.38-2.73.62-2.77,2.11l-.2,7.16C530.15,330.87,530.68,331.16,532,331.91Z"/><path class="cls-3" d="M509.84,318.34c4.59,2.65,9.26,5.42,16.16,9.79,1.27.8,2.7.82,2.76-1.65l.19-6.8a3.31,3.31,0,0,0-1.72-3.23c-7.79-5-10-6.3-16.2-9.91-2.37-1.37-2.74.62-2.78,2.11l-.2,7.16C508,317.3,508.55,317.59,509.84,318.34Z"/><path class="cls-3" d="M487.7,305c4.58,2.65,9.26,5.42,16.16,9.8,1.26.8,2.69.82,2.76-1.65l.19-6.8a3.32,3.32,0,0,0-1.72-3.24c-7.79-5-10-6.29-16.21-9.91-2.36-1.37-2.73.63-2.77,2.12l-.2,7.16C485.87,304,486.41,304.24,487.7,305Z"/><path class="cls-3" d="M465.38,291.62c4.58,2.65,9.26,5.42,16.16,9.8,1.26.8,2.69.82,2.76-1.65l.19-6.8a3.32,3.32,0,0,0-1.72-3.24c-7.79-5-10-6.29-16.21-9.9-2.36-1.38-2.73.62-2.77,2.11l-.2,7.16C463.55,290.59,464.08,290.88,465.38,291.62Z"/><path class="cls-3" d="M537.29,305c4.58,2.65,9.26,5.42,16.16,9.79,1.26.8,2.69.82,2.76-1.65l.19-6.8a3.31,3.31,0,0,0-1.72-3.23c-7.79-5-10-6.3-16.21-9.91-2.36-1.37-2.73.62-2.77,2.11l-.2,7.16C535.46,303.94,536,304.23,537.29,305Z"/><path class="cls-3" d="M515.15,291.41c4.59,2.65,9.26,5.42,16.17,9.8,1.26.79,2.69.81,2.76-1.66l.19-6.79a3.33,3.33,0,0,0-1.72-3.24c-7.8-5-10-6.29-16.21-9.91-2.36-1.37-2.73.63-2.78,2.12l-.19,7.16C513.33,290.38,513.86,290.67,515.15,291.41Z"/><path class="cls-3" d="M493,278.06c4.59,2.65,9.26,5.42,16.16,9.79,1.27.8,2.7.82,2.76-1.65l.19-6.8a3.31,3.31,0,0,0-1.72-3.23c-7.79-5-10-6.3-16.2-9.91-2.36-1.37-2.74.62-2.78,2.11l-.2,7.16C491.18,277,491.72,277.31,493,278.06Z"/><path class="cls-3" d="M470.69,264.7c4.58,2.65,9.26,5.42,16.16,9.79,1.26.8,2.7.82,2.76-1.65l.19-6.8a3.31,3.31,0,0,0-1.72-3.23c-7.79-5-10-6.3-16.21-9.91-2.36-1.37-2.73.62-2.77,2.11l-.2,7.16C468.86,263.66,469.4,264,470.69,264.7Z"/><path class="cls-3" d="M459.47,318c4.58,2.65,9.26,5.42,16.16,9.8,1.26.79,2.69.81,2.76-1.66l.19-6.79a3.31,3.31,0,0,0-1.72-3.24c-7.79-5-10-6.29-16.21-9.91-2.36-1.37-2.73.63-2.77,2.12l-.2,7.16C457.64,316.92,458.17,317.21,459.47,318Z"/><path class="cls-3" d="M437.33,304.39c4.59,2.64,9.26,5.41,16.16,9.79,1.27.8,2.7.82,2.76-1.65l.19-6.8a3.33,3.33,0,0,0-1.72-3.24c-7.79-5-10-6.29-16.2-9.9-2.36-1.38-2.74.62-2.78,2.11l-.2,7.16C435.5,303.35,436,303.64,437.33,304.39Z"/><path class="cls-3" d="M415.19,291c4.58,2.65,9.26,5.42,16.16,9.79,1.26.8,2.69.82,2.76-1.65l.19-6.8a3.31,3.31,0,0,0-1.72-3.23c-7.79-5-10-6.29-16.21-9.91-2.36-1.37-2.73.62-2.77,2.12l-.2,7.15C413.36,290,413.9,290.28,415.19,291Z"/><path class="cls-3" d="M392.87,277.67c4.58,2.65,9.26,5.42,16.16,9.79,1.26.8,2.69.82,2.76-1.65L412,279a3.31,3.31,0,0,0-1.72-3.23c-7.79-5-10-6.29-16.21-9.91-2.36-1.37-2.73.63-2.77,2.12l-.2,7.16C391,276.64,391.57,276.93,392.87,277.67Z"/><path class="cls-3" d="M444.23,323.8c4.59,2.64,9.26,5.41,16.17,9.79,1.26.8,2.69.82,2.76-1.65l.19-6.8a3.33,3.33,0,0,0-1.72-3.24c-7.8-5-10-6.29-16.21-9.9-2.36-1.38-2.73.62-2.77,2.11l-.2,7.16C442.41,322.76,442.94,323.05,444.23,323.8Z"/><path class="cls-3" d="M422.1,310.23c4.58,2.65,9.26,5.42,16.16,9.79,1.26.8,2.69.82,2.76-1.65l.19-6.8a3.31,3.31,0,0,0-1.72-3.23c-7.79-5-10-6.3-16.21-9.91-2.36-1.37-2.73.62-2.77,2.11l-.2,7.16C420.27,309.19,420.81,309.48,422.1,310.23Z"/><path class="cls-3" d="M400,296.87c4.58,2.65,9.26,5.42,16.16,9.8,1.26.8,2.69.82,2.76-1.65l.19-6.8a3.32,3.32,0,0,0-1.72-3.24c-7.79-5-10-6.29-16.21-9.9-2.36-1.38-2.73.62-2.77,2.11l-.2,7.16C398.13,295.84,398.66,296.13,400,296.87Z"/><path class="cls-3" d="M377.64,283.51c4.58,2.65,9.25,5.42,16.16,9.8,1.26.8,2.69.82,2.76-1.65l.19-6.8a3.32,3.32,0,0,0-1.72-3.24c-7.8-5-10-6.29-16.21-9.9-2.36-1.38-2.73.62-2.77,2.11l-.2,7.16C375.81,282.48,376.34,282.77,377.64,283.51Z"/><path class="cls-3" d="M449.55,296.87c4.58,2.65,9.26,5.42,16.16,9.79,1.26.8,2.69.82,2.76-1.65l.19-6.8a3.31,3.31,0,0,0-1.72-3.23c-7.79-5-10-6.3-16.21-9.91-2.36-1.37-2.73.62-2.77,2.11l-.2,7.16C447.72,295.83,448.25,296.12,449.55,296.87Z"/><path class="cls-3" d="M427.41,283.3c4.59,2.65,9.26,5.42,16.17,9.8,1.26.79,2.69.81,2.76-1.65l.18-6.8a3.31,3.31,0,0,0-1.72-3.24c-7.79-5-10-6.29-16.2-9.91-2.36-1.37-2.74.63-2.78,2.12l-.19,7.16C425.58,282.27,426.12,282.56,427.41,283.3Z"/><path class="cls-3" d="M405.27,270c4.58,2.65,9.26,5.42,16.16,9.79,1.26.8,2.7.82,2.76-1.65l.19-6.8a3.31,3.31,0,0,0-1.72-3.23c-7.79-5-10-6.3-16.21-9.91-2.36-1.37-2.73.62-2.77,2.11l-.2,7.16C403.44,268.91,404,269.2,405.27,270Z"/><path class="cls-3" d="M383,256.59c4.58,2.65,9.26,5.42,16.16,9.79,1.26.8,2.69.82,2.76-1.65l.19-6.8a3.31,3.31,0,0,0-1.72-3.23c-7.79-5-10-6.3-16.21-9.91-2.36-1.37-2.73.62-2.77,2.11l-.2,7.16C381.12,255.55,381.66,255.84,383,256.59Z"/><path class="cls-3" d="M458.6,272.57c4.58,2.65,9.26,5.42,16.16,9.8,1.26.8,2.69.81,2.76-1.65l.19-6.8a3.31,3.31,0,0,0-1.72-3.24c-7.79-5-10-6.29-16.21-9.91-2.36-1.37-2.73.63-2.77,2.12l-.2,7.16C456.77,271.54,457.3,271.83,458.6,272.57Z"/><path class="cls-3" d="M436.46,259c4.59,2.64,9.26,5.42,16.17,9.79,1.26.8,2.69.82,2.76-1.65l.18-6.8a3.33,3.33,0,0,0-1.72-3.24c-7.79-5-10-6.29-16.2-9.9-2.36-1.38-2.74.62-2.78,2.11l-.19,7.16C434.63,258,435.17,258.26,436.46,259Z"/><path class="cls-3" d="M414.32,245.65c4.58,2.65,9.26,5.42,16.16,9.8,1.26.79,2.7.81,2.76-1.66l.19-6.8a3.31,3.31,0,0,0-1.72-3.23c-7.79-5-10-6.29-16.21-9.91-2.36-1.37-2.73.63-2.77,2.12l-.2,7.16C412.49,244.62,413,244.91,414.32,245.65Z"/><path class="cls-3" d="M392,232.29c4.58,2.65,9.26,5.42,16.16,9.8,1.26.79,2.69.81,2.76-1.65l.19-6.8a3.31,3.31,0,0,0-1.72-3.24c-7.79-5-10-6.29-16.21-9.91-2.36-1.37-2.73.63-2.77,2.12l-.2,7.16C390.17,231.26,390.71,231.55,392,232.29Z"/><path class="cls-3" d="M443.37,278.42c4.58,2.64,9.25,5.42,16.16,9.79,1.26.8,2.69.82,2.76-1.65l.19-6.8a3.33,3.33,0,0,0-1.72-3.24c-7.8-5-10-6.29-16.21-9.9-2.36-1.37-2.73.62-2.77,2.11l-.2,7.16C441.54,277.38,442.07,277.67,443.37,278.42Z"/><path class="cls-3" d="M421.23,264.85c4.58,2.65,9.26,5.42,16.16,9.79,1.26.8,2.7.82,2.76-1.65l.19-6.8a3.31,3.31,0,0,0-1.72-3.23c-7.79-5-10-6.3-16.21-9.91-2.36-1.37-2.73.62-2.77,2.12l-.2,7.15C419.4,263.81,419.94,264.1,421.23,264.85Z"/><path class="cls-3" d="M399.09,251.49c4.58,2.65,9.26,5.42,16.16,9.8,1.26.8,2.69.82,2.76-1.65l.19-6.8a3.32,3.32,0,0,0-1.72-3.24c-7.79-5-10-6.29-16.21-9.9-2.36-1.38-2.73.62-2.77,2.11l-.2,7.16C397.26,250.46,397.79,250.75,399.09,251.49Z"/><path class="cls-3" d="M376.77,238.14c4.58,2.64,9.26,5.41,16.16,9.79,1.26.8,2.69.82,2.76-1.65l.19-6.8a3.33,3.33,0,0,0-1.72-3.24c-7.79-5-10-6.29-16.21-9.9-2.36-1.38-2.73.62-2.77,2.11l-.2,7.16C374.94,237.1,375.47,237.39,376.77,238.14Z"/><path class="cls-3" d="M448.68,251.49c4.58,2.65,9.26,5.42,16.16,9.79,1.26.8,2.69.82,2.76-1.65l.19-6.8a3.31,3.31,0,0,0-1.72-3.23c-7.79-5-10-6.29-16.21-9.91-2.36-1.37-2.73.62-2.77,2.12l-.2,7.15C446.85,250.46,447.39,250.74,448.68,251.49Z"/><path class="cls-3" d="M426.54,237.92c4.59,2.65,9.26,5.42,16.17,9.8,1.26.8,2.69.81,2.76-1.65l.18-6.8a3.3,3.3,0,0,0-1.72-3.24c-7.79-5-10-6.29-16.2-9.91-2.36-1.37-2.73.63-2.78,2.12l-.19,7.16C424.71,236.89,425.25,237.18,426.54,237.92Z"/><path class="cls-3" d="M404.4,224.57c4.58,2.65,9.26,5.42,16.16,9.79,1.26.8,2.7.82,2.76-1.65l.19-6.8a3.31,3.31,0,0,0-1.72-3.23c-7.79-5-10-6.3-16.21-9.91-2.36-1.37-2.73.62-2.77,2.11l-.2,7.16C402.57,223.53,403.11,223.82,404.4,224.57Z"/><path class="cls-3" d="M382.08,211.21c4.58,2.65,9.26,5.42,16.16,9.79,1.26.8,2.69.82,2.76-1.65l.19-6.8a3.31,3.31,0,0,0-1.72-3.23c-7.79-5-10-6.3-16.21-9.91-2.36-1.37-2.73.62-2.77,2.12l-.2,7.15C380.25,210.17,380.79,210.46,382.08,211.21Z"/><path class="cls-3" d="M370.93,264.69c4.59,2.65,9.26,5.42,16.17,9.8,1.26.8,2.69.82,2.76-1.65l.19-6.8a3.32,3.32,0,0,0-1.72-3.24c-7.8-5-10-6.29-16.21-9.9-2.36-1.38-2.73.62-2.77,2.11l-.2,7.16C369.11,263.66,369.64,264,370.93,264.69Z"/><path class="cls-3" d="M355.7,270.54c4.59,2.65,9.26,5.42,16.17,9.79,1.26.8,2.69.82,2.76-1.65l.19-6.8a3.33,3.33,0,0,0-1.72-3.23c-7.8-5-10-6.3-16.21-9.91-2.36-1.37-2.73.62-2.78,2.11l-.19,7.16C353.88,269.5,354.41,269.79,355.7,270.54Z"/><path class="cls-3" d="M348.8,251.13c4.58,2.65,9.26,5.42,16.16,9.79,1.26.8,2.69.82,2.76-1.65l.19-6.8a3.33,3.33,0,0,0-1.72-3.24c-7.79-5-10-6.29-16.21-9.9-2.36-1.37-2.73.62-2.77,2.11l-.2,7.16C347,250.09,347.51,250.38,348.8,251.13Z"/><path class="cls-3" d="M326.66,237.77c4.58,2.65,9.26,5.42,16.16,9.8,1.26.8,2.69.81,2.76-1.65l.19-6.8a3.31,3.31,0,0,0-1.72-3.24c-7.79-5-10-6.29-16.21-9.91-2.36-1.37-2.73.63-2.77,2.12l-.2,7.16C324.83,236.74,325.36,237,326.66,237.77Z"/><path class="cls-3" d="M304.33,224.41c4.59,2.65,9.26,5.42,16.17,9.8,1.26.8,2.69.82,2.76-1.65l.19-6.8a3.32,3.32,0,0,0-1.72-3.24c-7.8-5-10-6.29-16.21-9.9-2.36-1.38-2.73.62-2.77,2.11l-.2,7.16C302.51,223.38,303,223.67,304.33,224.41Z"/><path class="cls-3" d="M333.57,257c4.58,2.65,9.26,5.42,16.16,9.79,1.26.8,2.69.82,2.76-1.65l.19-6.8a3.31,3.31,0,0,0-1.72-3.23c-7.79-5-10-6.29-16.21-9.91-2.36-1.37-2.73.62-2.77,2.12l-.2,7.15C331.74,255.94,332.27,256.22,333.57,257Z"/><path class="cls-3" d="M311.42,243.62c4.59,2.64,9.26,5.42,16.17,9.79,1.26.8,2.69.82,2.76-1.65l.19-6.8a3.33,3.33,0,0,0-1.72-3.24c-7.8-5-10-6.29-16.21-9.9-2.36-1.37-2.73.62-2.77,2.11l-.2,7.16C309.6,242.58,310.13,242.87,311.42,243.62Z"/><path class="cls-3" d="M289.1,230.26c4.59,2.64,9.26,5.42,16.17,9.79,1.26.8,2.69.82,2.76-1.65l.19-6.8a3.35,3.35,0,0,0-1.72-3.24c-7.8-5-10-6.29-16.21-9.9-2.36-1.37-2.73.62-2.77,2.11l-.2,7.16C287.28,229.22,287.81,229.51,289.1,230.26Z"/><path class="cls-3" d="M361,243.61c4.59,2.65,9.26,5.42,16.17,9.8,1.26.79,2.69.81,2.76-1.66l.19-6.8a3.31,3.31,0,0,0-1.72-3.23c-7.8-5-10-6.29-16.21-9.91-2.36-1.37-2.73.63-2.77,2.12l-.2,7.16C359.19,242.58,359.72,242.87,361,243.61Z"/><path class="cls-3" d="M338.88,230c4.58,2.65,9.26,5.42,16.16,9.8,1.26.8,2.7.82,2.76-1.65l.19-6.8a3.32,3.32,0,0,0-1.72-3.24c-7.79-5-10-6.29-16.21-9.9-2.36-1.38-2.73.62-2.77,2.11l-.2,7.16C337.05,229,337.59,229.3,338.88,230Z"/><path class="cls-3" d="M316.74,216.69c4.58,2.65,9.26,5.42,16.16,9.79,1.26.8,2.69.82,2.76-1.65l.19-6.8a3.31,3.31,0,0,0-1.72-3.23c-7.79-5-10-6.29-16.21-9.91-2.36-1.37-2.73.62-2.77,2.12l-.2,7.15C314.91,215.66,315.44,215.94,316.74,216.69Z"/><path class="cls-3" d="M385.83,184.5c4.58,2.64,9.26,5.42,16.16,9.79,1.26.8,2.69.82,2.76-1.65l.19-6.8a3.33,3.33,0,0,0-1.72-3.24c-7.79-5-10-6.29-16.21-9.9-2.36-1.37-2.73.62-2.77,2.11L384,182C384,183.46,384.53,183.75,385.83,184.5Z"/><path class="cls-3" d="M363.69,170.93c4.59,2.65,9.26,5.42,16.16,9.79,1.27.8,2.7.82,2.76-1.65l.19-6.8a3.31,3.31,0,0,0-1.72-3.23c-7.79-5-10-6.3-16.2-9.91-2.36-1.37-2.74.62-2.78,2.12l-.2,7.15C361.86,169.9,362.4,170.18,363.69,170.93Z"/><path class="cls-3" d="M341.55,157.58c4.58,2.64,9.26,5.41,16.16,9.79,1.26.8,2.69.82,2.76-1.65l.19-6.8a3.33,3.33,0,0,0-1.72-3.24c-7.79-5-10-6.29-16.21-9.9-2.36-1.38-2.73.62-2.77,2.11l-.2,7.16C339.72,156.54,340.26,156.83,341.55,157.58Z"/><path class="cls-3" d="M319.23,144.22c4.58,2.64,9.26,5.42,16.16,9.79,1.26.8,2.69.82,2.76-1.65l.19-6.8a3.33,3.33,0,0,0-1.72-3.24c-7.79-5-10-6.29-16.21-9.9-2.36-1.38-2.73.62-2.77,2.11l-.2,7.16C317.4,143.18,317.93,143.47,319.23,144.22Z"/><path class="cls-3" d="M370.59,190.34c4.59,2.65,9.26,5.42,16.17,9.79,1.26.8,2.69.82,2.76-1.65l.19-6.8a3.31,3.31,0,0,0-1.72-3.23c-7.8-5-10-6.3-16.21-9.91-2.36-1.37-2.73.62-2.77,2.12l-.2,7.15C368.77,189.31,369.3,189.59,370.59,190.34Z"/><path class="cls-3" d="M348.46,176.77c4.58,2.65,9.26,5.42,16.16,9.8,1.26.79,2.69.81,2.76-1.65l.19-6.8a3.31,3.31,0,0,0-1.72-3.24c-7.79-5-10-6.29-16.21-9.91-2.36-1.37-2.73.63-2.77,2.12l-.2,7.16C346.63,175.74,347.17,176,348.46,176.77Z"/><path class="cls-3" d="M326.32,163.42c4.58,2.65,9.26,5.42,16.16,9.79,1.26.8,2.69.82,2.76-1.65l.19-6.8a3.31,3.31,0,0,0-1.72-3.23c-7.79-5-10-6.3-16.21-9.91-2.36-1.37-2.73.62-2.77,2.11l-.2,7.16C324.49,162.38,325,162.67,326.32,163.42Z"/><path class="cls-3" d="M304,150.06c4.58,2.65,9.25,5.42,16.16,9.79,1.26.8,2.69.82,2.76-1.65l.19-6.8a3.31,3.31,0,0,0-1.72-3.23c-7.8-5-10-6.3-16.21-9.91-2.36-1.37-2.73.62-2.77,2.11l-.2,7.16C302.17,149,302.7,149.31,304,150.06Z"/><path class="cls-3" d="M375.91,163.41c4.58,2.65,9.26,5.42,16.16,9.8,1.26.8,2.69.82,2.76-1.65l.19-6.8a3.31,3.31,0,0,0-1.72-3.24c-7.79-5-10-6.29-16.21-9.91-2.36-1.37-2.73.63-2.77,2.12l-.2,7.16C374.08,162.38,374.61,162.67,375.91,163.41Z"/><path class="cls-3" d="M353.77,149.85c4.59,2.64,9.26,5.42,16.17,9.79,1.26.8,2.69.82,2.76-1.65l.18-6.8a3.33,3.33,0,0,0-1.72-3.24c-7.79-5-10-6.29-16.2-9.9-2.36-1.37-2.74.62-2.78,2.11l-.19,7.16C351.94,148.81,352.48,149.1,353.77,149.85Z"/><path class="cls-3" d="M331.63,136.49c4.58,2.65,9.26,5.42,16.16,9.8,1.26.79,2.7.81,2.76-1.66l.19-6.79A3.31,3.31,0,0,0,349,134.6c-7.79-5-10-6.29-16.21-9.91-2.36-1.37-2.73.63-2.77,2.12l-.2,7.16C329.8,135.46,330.34,135.75,331.63,136.49Z"/><path class="cls-3" d="M309.31,123.13c4.58,2.65,9.26,5.42,16.16,9.8,1.26.79,2.69.81,2.76-1.65l.19-6.8a3.31,3.31,0,0,0-1.72-3.24c-7.79-5-10-6.29-16.21-9.91-2.36-1.37-2.73.63-2.77,2.12l-.2,7.16C307.48,122.1,308,122.39,309.31,123.13Z"/><path class="cls-3" d="M383.48,138.19c4.58,2.65,9.26,5.42,16.16,9.8,1.26.79,2.69.81,2.76-1.66l.19-6.8a3.31,3.31,0,0,0-1.72-3.23c-7.79-5-10-6.29-16.21-9.91-2.36-1.37-2.73.63-2.77,2.12l-.2,7.16C381.65,137.16,382.18,137.45,383.48,138.19Z"/><path class="cls-3" d="M361.34,124.62c4.59,2.65,9.26,5.42,16.16,9.8,1.27.8,2.7.82,2.76-1.65l.19-6.8a3.32,3.32,0,0,0-1.72-3.24c-7.79-5-10-6.29-16.2-9.9-2.36-1.38-2.74.62-2.78,2.11l-.2,7.16C359.51,123.59,360.05,123.88,361.34,124.62Z"/><path class="cls-3" d="M339.2,111.27c4.58,2.65,9.26,5.42,16.16,9.79,1.26.8,2.69.82,2.76-1.65l.19-6.8a3.31,3.31,0,0,0-1.72-3.23c-7.79-5-10-6.29-16.21-9.91-2.36-1.37-2.73.62-2.77,2.12l-.2,7.15C337.37,110.24,337.91,110.52,339.2,111.27Z"/><path class="cls-3" d="M316.88,97.91c4.58,2.65,9.26,5.42,16.16,9.79,1.26.8,2.69.82,2.76-1.65l.19-6.8A3.31,3.31,0,0,0,334.27,96c-7.79-5-10-6.29-16.21-9.91-2.36-1.37-2.73.62-2.77,2.12l-.2,7.15C315.05,96.88,315.58,97.16,316.88,97.91Z"/><path class="cls-3" d="M368.24,144c4.59,2.64,9.26,5.41,16.17,9.79,1.26.8,2.69.82,2.76-1.65l.19-6.8a3.33,3.33,0,0,0-1.72-3.24c-7.8-5-10-6.29-16.21-9.9-2.36-1.38-2.73.62-2.77,2.11l-.2,7.16C366.42,143,367,143.29,368.24,144Z"/><path class="cls-3" d="M346.11,130.47c4.58,2.65,9.26,5.42,16.16,9.79,1.26.8,2.69.82,2.76-1.65l.19-6.8a3.31,3.31,0,0,0-1.72-3.23c-7.79-5-10-6.3-16.21-9.91-2.36-1.37-2.73.62-2.77,2.11l-.2,7.16C344.28,129.43,344.82,129.72,346.11,130.47Z"/><path class="cls-3" d="M324,117.11c4.58,2.65,9.26,5.42,16.16,9.8,1.26.8,2.69.82,2.76-1.65l.19-6.8a3.31,3.31,0,0,0-1.72-3.24c-7.79-5-10-6.29-16.21-9.91-2.36-1.37-2.73.63-2.77,2.12l-.2,7.16C322.14,116.08,322.67,116.37,324,117.11Z"/><path class="cls-3" d="M301.64,103.75c4.59,2.65,9.26,5.42,16.17,9.8,1.26.8,2.69.82,2.76-1.65l.19-6.8a3.32,3.32,0,0,0-1.72-3.24c-7.8-5-10-6.29-16.21-9.9-2.36-1.38-2.73.62-2.77,2.11l-.2,7.16C299.82,102.72,300.35,103,301.64,103.75Z"/><path class="cls-3" d="M373.56,117.11c4.58,2.65,9.26,5.42,16.16,9.79,1.26.8,2.69.82,2.76-1.65l.19-6.8a3.31,3.31,0,0,0-1.72-3.23c-7.79-5-10-6.3-16.21-9.91-2.36-1.37-2.73.62-2.77,2.11l-.2,7.16C371.73,116.07,372.26,116.36,373.56,117.11Z"/><path class="cls-3" d="M351.42,103.54c4.59,2.65,9.26,5.42,16.17,9.8,1.26.79,2.69.81,2.76-1.66l.18-6.79a3.31,3.31,0,0,0-1.72-3.24c-7.79-5-10-6.29-16.2-9.91-2.36-1.37-2.74.63-2.78,2.12l-.19,7.16C349.59,102.51,350.13,102.8,351.42,103.54Z"/><path class="cls-3" d="M329.28,90.19c4.58,2.65,9.26,5.42,16.16,9.79,1.26.8,2.7.82,2.76-1.65l.19-6.8a3.33,3.33,0,0,0-1.72-3.24c-7.79-5-10-6.29-16.21-9.9-2.36-1.37-2.73.62-2.77,2.11l-.2,7.16C327.45,89.15,328,89.44,329.28,90.19Z"/><path class="cls-3" d="M307,76.83c4.58,2.65,9.26,5.42,16.16,9.79,1.26.8,2.69.82,2.76-1.65l.19-6.8a3.31,3.31,0,0,0-1.72-3.23c-7.79-5-10-6.3-16.21-9.91-2.36-1.37-2.73.62-2.77,2.11l-.2,7.16C305.13,75.79,305.67,76.08,307,76.83Z"/><path class="cls-3" d="M295.73,130.08c4.59,2.65,9.26,5.42,16.17,9.8,1.26.79,2.69.81,2.76-1.66l.19-6.79a3.31,3.31,0,0,0-1.72-3.24c-7.8-5-10-6.29-16.21-9.91-2.36-1.37-2.73.63-2.77,2.12l-.2,7.16C293.91,129.05,294.44,129.34,295.73,130.08Z"/><path class="cls-3" d="M273.6,116.51c4.58,2.65,9.26,5.42,16.16,9.8,1.26.8,2.69.82,2.76-1.65l.19-6.8a3.32,3.32,0,0,0-1.72-3.24c-7.79-5-10-6.29-16.21-9.9-2.36-1.38-2.73.62-2.77,2.11l-.2,7.16C271.77,115.48,272.31,115.77,273.6,116.51Z"/><path class="cls-3" d="M251.46,103.16c4.58,2.65,9.26,5.42,16.16,9.79,1.26.8,2.69.82,2.76-1.65l.19-6.8a3.31,3.31,0,0,0-1.72-3.23c-7.79-5-10-6.29-16.21-9.91-2.36-1.37-2.73.62-2.77,2.12l-.2,7.15C249.63,102.13,250.16,102.41,251.46,103.16Z"/><path class="cls-3" d="M229.14,89.8c4.58,2.65,9.25,5.42,16.16,9.79,1.26.8,2.69.82,2.76-1.65l.19-6.8a3.31,3.31,0,0,0-1.72-3.23c-7.8-5-10-6.29-16.21-9.91-2.36-1.37-2.73.62-2.77,2.12l-.2,7.15C227.31,88.77,227.84,89.05,229.14,89.8Z"/><path class="cls-3" d="M280.5,135.93c4.59,2.64,9.26,5.41,16.17,9.79,1.26.8,2.69.82,2.76-1.65l.19-6.8A3.35,3.35,0,0,0,297.9,134c-7.8-5-10-6.29-16.21-9.9-2.36-1.38-2.73.62-2.77,2.11l-.2,7.16C278.68,134.89,279.21,135.18,280.5,135.93Z"/><path class="cls-3" d="M258.37,122.36c4.58,2.65,9.26,5.42,16.16,9.79,1.26.8,2.69.82,2.76-1.65l.19-6.8a3.31,3.31,0,0,0-1.72-3.23c-7.79-5-10-6.3-16.21-9.91-2.36-1.37-2.73.62-2.77,2.11l-.2,7.16C256.54,121.32,257.07,121.61,258.37,122.36Z"/><path class="cls-3" d="M236.22,109c4.59,2.65,9.26,5.42,16.17,9.8,1.26.8,2.69.82,2.76-1.65l.19-6.8a3.32,3.32,0,0,0-1.72-3.24c-7.8-5-10-6.29-16.21-9.91-2.36-1.37-2.73.63-2.77,2.12l-.2,7.16C234.4,108,234.93,108.26,236.22,109Z"/><path class="cls-3" d="M285.82,109c4.58,2.65,9.25,5.42,16.16,9.79,1.26.8,2.69.82,2.76-1.65l.19-6.8a3.31,3.31,0,0,0-1.72-3.23c-7.8-5-10-6.3-16.21-9.91-2.36-1.37-2.73.62-2.77,2.11l-.2,7.16C284,108,284.52,108.25,285.82,109Z"/><path class="cls-3" d="M263.68,95.43c4.58,2.65,9.26,5.42,16.16,9.8,1.26.79,2.7.81,2.76-1.66l.19-6.79a3.31,3.31,0,0,0-1.72-3.24c-7.79-5-10-6.29-16.21-9.91-2.36-1.37-2.73.63-2.77,2.12l-.2,7.16C261.85,94.4,262.39,94.69,263.68,95.43Z"/><path class="cls-3" d="M241.54,82.08c4.58,2.65,9.26,5.42,16.16,9.79,1.26.8,2.69.82,2.76-1.65l.19-6.8a3.33,3.33,0,0,0-1.72-3.24c-7.79-5-10-6.29-16.21-9.9-2.36-1.37-2.73.62-2.77,2.11l-.2,7.16C239.71,81,240.24,81.33,241.54,82.08Z"/><path class="cls-3" d="M294.87,84.7c4.58,2.65,9.25,5.42,16.16,9.8,1.26.8,2.69.81,2.76-1.65l.19-6.8a3.31,3.31,0,0,0-1.72-3.24c-7.8-5-10-6.29-16.21-9.91-2.36-1.37-2.73.63-2.77,2.12l-.2,7.16C293,83.67,293.57,84,294.87,84.7Z"/><path class="cls-3" d="M272.73,71.14c4.58,2.64,9.26,5.42,16.16,9.79,1.26.8,2.7.82,2.76-1.65l.19-6.8a3.33,3.33,0,0,0-1.72-3.24c-7.79-5-10-6.29-16.21-9.9-2.36-1.38-2.73.62-2.77,2.11l-.2,7.16C270.9,70.1,271.44,70.39,272.73,71.14Z"/><path class="cls-3" d="M250.59,57.78c4.58,2.65,9.26,5.42,16.16,9.8,1.26.79,2.69.81,2.76-1.66l.19-6.8A3.31,3.31,0,0,0,268,55.89c-7.79-5-10-6.29-16.21-9.91-2.36-1.37-2.73.63-2.77,2.12l-.2,7.16C248.76,56.75,249.29,57,250.59,57.78Z"/><path class="cls-3" d="M228.27,44.42c4.58,2.65,9.26,5.42,16.16,9.8,1.26.79,2.69.81,2.76-1.66l.19-6.79a3.31,3.31,0,0,0-1.72-3.24c-7.79-5-10-6.29-16.21-9.91-2.36-1.37-2.73.63-2.77,2.12l-.2,7.16C226.44,43.39,227,43.68,228.27,44.42Z"/><path class="cls-3" d="M279.63,90.55c4.59,2.64,9.26,5.42,16.17,9.79,1.26.8,2.69.82,2.76-1.65l.19-6.8A3.35,3.35,0,0,0,297,88.65c-7.8-5-10-6.29-16.21-9.9-2.36-1.38-2.73.62-2.77,2.11l-.2,7.16C277.81,89.51,278.34,89.8,279.63,90.55Z"/><path class="cls-3" d="M257.5,77c4.58,2.65,9.26,5.42,16.16,9.79,1.26.8,2.69.82,2.76-1.65l.19-6.8a3.31,3.31,0,0,0-1.72-3.23c-7.79-5-10-6.3-16.21-9.91-2.36-1.37-2.73.62-2.77,2.11l-.2,7.16C255.67,75.94,256.2,76.23,257.5,77Z"/><path class="cls-3" d="M235.36,63.62c4.58,2.65,9.25,5.42,16.16,9.8,1.26.8,2.69.82,2.76-1.65l.19-6.8a3.32,3.32,0,0,0-1.72-3.24c-7.8-5-10-6.29-16.21-9.9-2.36-1.38-2.73.62-2.77,2.11l-.2,7.16C233.53,62.59,234.06,62.88,235.36,63.62Z"/><path class="cls-3" d="M285,63.62c4.58,2.65,9.26,5.42,16.16,9.79,1.26.8,2.69.82,2.76-1.65l.19-6.8a3.31,3.31,0,0,0-1.72-3.23c-7.79-5-10-6.29-16.21-9.91-2.36-1.37-2.73.62-2.77,2.12l-.2,7.15C283.12,62.59,283.65,62.87,285,63.62Z"/><path class="cls-3" d="M262.81,50.05c4.59,2.65,9.26,5.42,16.16,9.8,1.27.8,2.7.81,2.76-1.65l.19-6.8a3.31,3.31,0,0,0-1.72-3.24c-7.79-5-10-6.29-16.2-9.91-2.37-1.37-2.74.63-2.78,2.12l-.2,7.16C261,49,261.52,49.31,262.81,50.05Z"/><path class="cls-3" d="M240.67,36.7c4.58,2.65,9.26,5.42,16.16,9.79,1.26.8,2.69.82,2.76-1.65l.19-6.8a3.31,3.31,0,0,0-1.72-3.23c-7.79-5-10-6.3-16.21-9.91-2.36-1.37-2.73.62-2.77,2.11l-.2,7.16C238.84,35.66,239.38,36,240.67,36.7Z"/><path class="cls-3" d="M218.68,23.45c4.59,2.65,9.26,5.42,16.17,9.79,1.26.8,2.69.82,2.76-1.65l.19-6.8a3.33,3.33,0,0,0-1.72-3.23c-7.8-5-10-6.29-16.21-9.91-2.36-1.37-2.73.63-2.77,2.12l-.2,7.16C216.86,22.42,217.39,22.71,218.68,23.45Z"/><path class="cls-3" d="M213.09,50.05c4.59,2.65,9.26,5.42,16.17,9.8,1.26.8,2.69.81,2.76-1.65l.18-6.8a3.31,3.31,0,0,0-1.72-3.24c-7.79-5-10-6.29-16.2-9.91-2.36-1.37-2.74.63-2.78,2.12l-.19,7.16C211.26,49,211.8,49.31,213.09,50.05Z"/><path class="cls-3" d="M218.81,68.71c4.59,2.65,9.26,5.42,16.17,9.8,1.26.8,2.69.81,2.76-1.65l.19-6.8a3.31,3.31,0,0,0-1.72-3.24c-7.8-5-10-6.29-16.21-9.91-2.36-1.37-2.73.63-2.77,2.12l-.2,7.16C217,67.68,217.52,68,218.81,68.71Z"/><path class="cls-3" d="M213.91,95.74c4.59,2.65,9.26,5.42,16.17,9.79,1.26.8,2.69.82,2.76-1.65l.19-6.8a3.33,3.33,0,0,0-1.72-3.23c-7.8-5-10-6.3-16.21-9.91-2.36-1.37-2.73.62-2.78,2.12l-.19,7.15C212.09,94.71,212.62,95,213.91,95.74Z"/><path class="cls-3" d="M213.09,123.86c4.59,2.65,9.26,5.42,16.17,9.8,1.26.79,2.69.81,2.76-1.65l.18-6.8a3.31,3.31,0,0,0-1.72-3.24c-7.79-5-10-6.29-16.2-9.91-2.36-1.37-2.74.63-2.78,2.12l-.19,7.16C211.26,122.83,211.8,123.12,213.09,123.86Z"/><path class="cls-3" d="M220.68,144.82c4.59,2.65,9.26,5.42,16.17,9.79,1.26.8,2.69.82,2.76-1.65l.19-6.8a3.33,3.33,0,0,0-1.72-3.23c-7.8-5-10-6.3-16.21-9.91-2.36-1.37-2.73.62-2.77,2.11l-.2,7.16C218.86,143.78,219.39,144.07,220.68,144.82Z"/><path class="cls-3" d="M214.91,169.39c4.59,2.64,9.26,5.42,16.17,9.79,1.26.8,2.69.82,2.76-1.65l.19-6.8a3.35,3.35,0,0,0-1.72-3.24c-7.8-5-10-6.29-16.21-9.9-2.36-1.38-2.73.62-2.78,2.11l-.19,7.16C213.09,168.35,213.62,168.64,214.91,169.39Z"/><path class="cls-3" d="M221.68,189.06c4.59,2.65,9.26,5.42,16.17,9.79,1.26.8,2.69.82,2.76-1.65l.19-6.8a3.33,3.33,0,0,0-1.72-3.23c-7.8-5-10-6.29-16.21-9.91-2.36-1.37-2.73.63-2.77,2.12l-.2,7.16C219.86,188,220.39,188.32,221.68,189.06Z"/><path class="cls-3" d="M294.42,203.33c4.58,2.65,9.26,5.42,16.16,9.79,1.26.8,2.69.82,2.76-1.65l.19-6.8a3.31,3.31,0,0,0-1.72-3.23c-7.8-5-10-6.29-16.21-9.91-2.36-1.37-2.73.62-2.77,2.12l-.2,7.15C292.59,202.3,293.12,202.58,294.42,203.33Z"/><path class="cls-3" d="M368.58,218.39c4.59,2.65,9.26,5.42,16.17,9.79,1.26.8,2.69.82,2.76-1.65l.19-6.8A3.31,3.31,0,0,0,386,216.5c-7.8-5-10-6.29-16.21-9.91-2.36-1.37-2.73.62-2.77,2.12l-.2,7.15C366.76,217.36,367.29,217.64,368.58,218.39Z"/><path class="cls-3" d="M346.45,204.82c4.58,2.65,9.26,5.42,16.16,9.8,1.26.8,2.69.81,2.76-1.65l.19-6.8a3.31,3.31,0,0,0-1.72-3.24c-7.79-5-10-6.29-16.21-9.91-2.36-1.37-2.73.63-2.77,2.12l-.2,7.16C344.62,203.79,345.16,204.08,346.45,204.82Z"/><path class="cls-3" d="M324.31,191.47c4.58,2.65,9.26,5.42,16.16,9.79,1.26.8,2.69.82,2.76-1.65l.19-6.8a3.31,3.31,0,0,0-1.72-3.23c-7.79-5-10-6.3-16.21-9.91-2.36-1.37-2.73.62-2.77,2.11l-.2,7.16C322.48,190.43,323,190.72,324.31,191.47Z"/><path class="cls-3" d="M302,178.11c4.59,2.65,9.26,5.42,16.17,9.79,1.26.8,2.69.82,2.76-1.65l.19-6.8a3.31,3.31,0,0,0-1.72-3.23c-7.8-5-10-6.3-16.21-9.91-2.36-1.37-2.73.62-2.77,2.11l-.2,7.16C300.16,177.07,300.69,177.36,302,178.11Z"/><path class="cls-3" d="M353.35,224.23c4.59,2.65,9.26,5.42,16.17,9.8,1.26.8,2.69.81,2.76-1.65l.19-6.8a3.33,3.33,0,0,0-1.72-3.24c-7.8-5-10-6.29-16.21-9.91-2.36-1.37-2.73.63-2.78,2.12l-.19,7.16C351.53,223.2,352.06,223.49,353.35,224.23Z"/><path class="cls-3" d="M331.22,210.67c4.58,2.64,9.26,5.42,16.16,9.79,1.26.8,2.69.82,2.76-1.65l.19-6.8a3.33,3.33,0,0,0-1.72-3.24c-7.79-5-10-6.29-16.21-9.9-2.36-1.38-2.73.62-2.77,2.11l-.2,7.16C329.39,209.63,329.92,209.92,331.22,210.67Z"/><path class="cls-3" d="M309.07,197.31c4.59,2.65,9.26,5.42,16.17,9.8,1.26.79,2.69.81,2.76-1.66l.19-6.8a3.33,3.33,0,0,0-1.72-3.23c-7.8-5-10-6.29-16.21-9.91-2.36-1.37-2.73.63-2.77,2.12l-.2,7.16C307.25,196.28,307.78,196.57,309.07,197.31Z"/><path class="cls-3" d="M286.75,184c4.59,2.65,9.26,5.42,16.17,9.8,1.26.79,2.69.81,2.76-1.65l.19-6.8a3.33,3.33,0,0,0-1.72-3.24c-7.8-5-10-6.29-16.21-9.91-2.36-1.37-2.73.63-2.77,2.12l-.2,7.16C284.93,182.92,285.46,183.21,286.75,184Z"/><path class="cls-3" d="M358.66,197.31c4.59,2.64,9.26,5.42,16.17,9.79,1.26.8,2.69.82,2.76-1.65l.19-6.8a3.33,3.33,0,0,0-1.72-3.24c-7.8-5-10-6.29-16.21-9.9-2.36-1.37-2.73.62-2.77,2.11l-.2,7.16C356.84,196.27,357.37,196.56,358.66,197.31Z"/><path class="cls-3" d="M336.53,183.74c4.58,2.65,9.26,5.42,16.16,9.79,1.26.8,2.7.82,2.76-1.65l.19-6.8a3.31,3.31,0,0,0-1.72-3.23c-7.79-5-10-6.29-16.21-9.91-2.36-1.37-2.73.62-2.77,2.12l-.2,7.15C334.7,182.71,335.24,183,336.53,183.74Z"/><path class="cls-3" d="M314.39,170.39c4.58,2.64,9.26,5.42,16.16,9.79,1.26.8,2.69.82,2.76-1.65l.19-6.8a3.33,3.33,0,0,0-1.72-3.24c-7.79-5-10-6.29-16.21-9.9-2.36-1.38-2.73.62-2.77,2.11l-.2,7.16C312.56,169.35,313.09,169.64,314.39,170.39Z"/><path class="cls-3" d="M292.07,157c4.58,2.64,9.26,5.42,16.16,9.79,1.26.8,2.69.82,2.76-1.65l.19-6.8a3.33,3.33,0,0,0-1.72-3.24c-7.8-5-10-6.29-16.21-9.9-2.36-1.38-2.73.62-2.77,2.11l-.2,7.16C290.24,156,290.77,156.28,292.07,157Z"/><path class="cls-3" d="M280.84,210.28c4.59,2.65,9.26,5.42,16.17,9.79,1.26.8,2.69.82,2.76-1.65l.19-6.8a3.33,3.33,0,0,0-1.72-3.23c-7.8-5-10-6.29-16.21-9.91-2.36-1.37-2.73.62-2.77,2.12l-.2,7.15C279,209.25,279.55,209.53,280.84,210.28Z"/><path class="cls-3" d="M258.71,196.71c4.58,2.65,9.26,5.42,16.16,9.8,1.26.8,2.69.81,2.76-1.65l.19-6.8a3.31,3.31,0,0,0-1.72-3.24c-7.79-5-10-6.29-16.21-9.91-2.36-1.37-2.73.63-2.77,2.12l-.2,7.16C256.88,195.68,257.41,196,258.71,196.71Z"/><path class="cls-3" d="M236.56,183.36c4.59,2.65,9.26,5.42,16.17,9.79,1.26.8,2.69.82,2.76-1.65l.19-6.8a3.31,3.31,0,0,0-1.72-3.23c-7.8-5-10-6.3-16.21-9.91-2.36-1.37-2.73.62-2.77,2.11l-.2,7.16C234.74,182.32,235.27,182.61,236.56,183.36Z"/><path class="cls-3" d="M265.61,216.12c4.59,2.65,9.26,5.42,16.17,9.8,1.26.8,2.69.81,2.76-1.65l.18-6.8a3.31,3.31,0,0,0-1.72-3.24c-7.79-5-10-6.29-16.2-9.91-2.36-1.37-2.74.63-2.78,2.12l-.19,7.16C263.78,215.09,264.32,215.38,265.61,216.12Z"/><path class="cls-3" d="M243.47,202.56c4.59,2.64,9.26,5.42,16.17,9.79,1.26.8,2.69.82,2.76-1.65l.19-6.8a3.33,3.33,0,0,0-1.72-3.24c-7.8-5-10-6.29-16.21-9.9-2.36-1.38-2.73.62-2.77,2.11l-.2,7.16C241.65,201.52,242.18,201.81,243.47,202.56Z"/><path class="cls-3" d="M270.92,189.2c4.59,2.64,9.26,5.42,16.17,9.79,1.26.8,2.69.82,2.76-1.65l.19-6.8a3.35,3.35,0,0,0-1.72-3.24c-7.8-5-10-6.29-16.21-9.9-2.36-1.37-2.73.62-2.77,2.11l-.2,7.16C269.1,188.16,269.63,188.45,270.92,189.2Z"/><path class="cls-3" d="M248.79,175.63c4.58,2.65,9.26,5.42,16.16,9.79,1.26.8,2.69.82,2.76-1.65l.19-6.8a3.31,3.31,0,0,0-1.72-3.23c-7.79-5-10-6.29-16.21-9.91-2.36-1.37-2.73.62-2.77,2.12l-.2,7.15C247,174.6,247.49,174.88,248.79,175.63Z"/><path class="cls-3" d="M226.65,162.28c4.58,2.64,9.25,5.42,16.16,9.79,1.26.8,2.69.82,2.76-1.65l.19-6.8a3.33,3.33,0,0,0-1.72-3.24c-7.8-5-10-6.29-16.21-9.9-2.36-1.38-2.73.62-2.77,2.11l-.2,7.16C224.82,161.24,225.35,161.53,226.65,162.28Z"/><path class="cls-3" d="M280,164.9c4.59,2.65,9.26,5.42,16.17,9.79,1.26.8,2.69.82,2.76-1.65l.19-6.8a3.33,3.33,0,0,0-1.72-3.23c-7.8-5-10-6.29-16.21-9.91-2.36-1.37-2.73.62-2.77,2.12l-.2,7.15C278.15,163.87,278.68,164.15,280,164.9Z"/><path class="cls-3" d="M257.84,151.33c4.58,2.65,9.26,5.42,16.16,9.8,1.26.8,2.69.82,2.76-1.65l.19-6.8a3.32,3.32,0,0,0-1.72-3.24c-7.79-5-10-6.29-16.21-9.9-2.36-1.38-2.73.62-2.77,2.11l-.2,7.16C256,150.3,256.54,150.59,257.84,151.33Z"/><path class="cls-3" d="M235.7,138c4.58,2.65,9.25,5.42,16.16,9.79,1.26.8,2.69.82,2.76-1.65l.19-6.8a3.31,3.31,0,0,0-1.72-3.23c-7.8-5-10-6.3-16.21-9.91-2.36-1.37-2.73.62-2.77,2.12l-.2,7.15C233.87,137,234.4,137.23,235.7,138Z"/><path class="cls-3" d="M264.74,170.74c4.59,2.65,9.26,5.42,16.17,9.8,1.26.8,2.69.82,2.76-1.65l.18-6.8a3.31,3.31,0,0,0-1.72-3.24c-7.79-5-10-6.29-16.2-9.9-2.36-1.38-2.73.62-2.78,2.11l-.19,7.16C262.91,169.71,263.45,170,264.74,170.74Z"/><path class="cls-3" d="M242.61,157.18c4.58,2.65,9.25,5.42,16.16,9.79,1.26.8,2.69.82,2.76-1.65l.19-6.8a3.33,3.33,0,0,0-1.72-3.24c-7.8-5-10-6.29-16.21-9.9-2.36-1.37-2.73.62-2.77,2.11l-.2,7.16C240.78,156.14,241.31,156.43,242.61,157.18Z"/><path class="cls-3" d="M270.05,143.82c4.59,2.65,9.26,5.42,16.17,9.79,1.26.8,2.69.82,2.76-1.65l.19-6.8a3.33,3.33,0,0,0-1.72-3.23c-7.8-5-10-6.3-16.21-9.91-2.36-1.37-2.73.62-2.77,2.11l-.2,7.16C268.23,142.78,268.76,143.07,270.05,143.82Z"/><path class="cls-3" d="M247.92,130.25c4.58,2.65,9.26,5.42,16.16,9.79,1.26.8,2.69.82,2.76-1.65l.19-6.8a3.31,3.31,0,0,0-1.72-3.23c-7.79-5-10-6.29-16.21-9.91-2.36-1.37-2.73.63-2.77,2.12l-.2,7.16C246.09,129.22,246.63,129.51,247.92,130.25Z"/><path class="cls-3" d="M225.78,116.9c4.58,2.64,9.26,5.42,16.16,9.79,1.26.8,2.69.82,2.76-1.65l.19-6.8a3.33,3.33,0,0,0-1.72-3.24c-7.8-5-10-6.29-16.21-9.9-2.36-1.37-2.73.62-2.77,2.11l-.2,7.16C224,115.86,224.48,116.15,225.78,116.9Z"/><path class="cls-3" d="M559.67,318.34c4.59,2.65,9.26,5.42,16.16,9.79,1.26.8,2.7.82,2.76-1.65l.19-6.8a3.31,3.31,0,0,0-1.72-3.23c-7.79-5-10-6.3-16.2-9.91-2.37-1.37-2.74.62-2.78,2.11l-.2,7.16C557.84,317.3,558.38,317.59,559.67,318.34Z"/><path class="cls-3" d="M686.47,304.39c4.59,2.64,9.26,5.41,16.17,9.79,1.26.8,2.69.82,2.76-1.65l.18-6.8a3.32,3.32,0,0,0-1.72-3.24c-7.79-5-10-6.29-16.2-9.9-2.36-1.38-2.73.62-2.78,2.11l-.19,7.16C684.64,303.35,685.18,303.64,686.47,304.39Z"/><path class="cls-3" d="M622.94,431.7c4.58,2.65,9.26,5.42,16.16,9.79,1.26.8,2.69.82,2.76-1.65l.19-6.8a3.31,3.31,0,0,0-1.72-3.23c-7.79-5-10-6.3-16.21-9.91-2.36-1.37-2.73.62-2.77,2.11l-.2,7.16C621.11,430.66,621.64,431,622.94,431.7Z"/><path class="cls-3" d="M616,412.29c4.59,2.65,9.26,5.42,16.17,9.79,1.26.8,2.69.82,2.76-1.65l.19-6.8a3.33,3.33,0,0,0-1.72-3.23c-7.8-5-10-6.3-16.21-9.91-2.36-1.37-2.73.62-2.77,2.11l-.2,7.16C614.21,411.25,614.74,411.54,616,412.29Z"/><path class="cls-3" d="M593.89,398.93c4.59,2.65,9.26,5.42,16.17,9.8,1.26.8,2.69.82,2.76-1.65l.18-6.8a3.32,3.32,0,0,0-1.72-3.24c-7.79-5-10-6.29-16.2-9.9-2.36-1.38-2.74.62-2.78,2.11l-.19,7.16C592.06,397.9,592.6,398.19,593.89,398.93Z"/><path class="cls-3" d="M571.57,385.57c4.59,2.65,9.26,5.42,16.16,9.8,1.26.8,2.7.82,2.76-1.65l.19-6.8a3.32,3.32,0,0,0-1.72-3.24c-7.79-5-10-6.29-16.2-9.9-2.37-1.38-2.74.62-2.78,2.11l-.2,7.16C569.74,384.54,570.28,384.83,571.57,385.57Z"/><path class="cls-3" d="M600.8,418.13c4.59,2.65,9.26,5.42,16.17,9.8,1.26.79,2.69.81,2.76-1.66l.18-6.8a3.31,3.31,0,0,0-1.72-3.23c-7.79-5-10-6.29-16.2-9.91-2.36-1.37-2.74.63-2.78,2.12l-.19,7.16C599,417.1,599.51,417.39,600.8,418.13Z"/><path class="cls-3" d="M578.66,404.78c4.58,2.64,9.26,5.42,16.16,9.79,1.26.8,2.7.82,2.76-1.65l.19-6.8a3.33,3.33,0,0,0-1.72-3.24c-7.79-5-10-6.29-16.21-9.9-2.36-1.37-2.73.62-2.77,2.11l-.2,7.16C576.83,403.74,577.37,404,578.66,404.78Z"/><path class="cls-3" d="M556.34,391.42c4.58,2.65,9.26,5.42,16.16,9.79,1.26.8,2.69.82,2.76-1.65l.19-6.8a3.31,3.31,0,0,0-1.72-3.23c-7.79-5-10-6.3-16.21-9.91-2.36-1.37-2.73.62-2.77,2.11l-.2,7.16C554.51,390.38,555.05,390.67,556.34,391.42Z"/><path class="cls-3" d="M628.25,404.77c4.59,2.65,9.26,5.42,16.16,9.8,1.26.79,2.7.81,2.76-1.65l.19-6.8a3.31,3.31,0,0,0-1.72-3.24c-7.79-5-10-6.29-16.2-9.91-2.37-1.37-2.74.63-2.78,2.12l-.2,7.16C626.42,403.74,627,404,628.25,404.77Z"/><path class="cls-3" d="M606.11,391.21c4.59,2.64,9.26,5.42,16.17,9.79,1.26.8,2.69.82,2.76-1.65l.19-6.8a3.35,3.35,0,0,0-1.72-3.24c-7.8-5-10-6.29-16.21-9.9-2.36-1.38-2.73.62-2.77,2.11l-.2,7.16C604.29,390.17,604.82,390.46,606.11,391.21Z"/><path class="cls-3" d="M584,377.85c4.59,2.65,9.26,5.42,16.17,9.79,1.26.8,2.69.82,2.76-1.65l.18-6.8a3.29,3.29,0,0,0-1.72-3.23c-7.79-5-10-6.29-16.2-9.91-2.36-1.37-2.73.63-2.78,2.12l-.19,7.15C582.14,376.82,582.68,377.1,584,377.85Z"/><path class="cls-3" d="M664,291.63c4.59,2.65,9.26,5.42,16.17,9.79,1.26.8,2.69.82,2.76-1.65l.19-6.8a3.31,3.31,0,0,0-1.72-3.23c-7.8-5-10-6.3-16.21-9.91-2.36-1.37-2.73.62-2.77,2.11l-.2,7.16C662.22,290.59,662.75,290.88,664,291.63Z"/><path class="cls-3" d="M630.92,332.09c4.59,2.65,9.26,5.42,16.17,9.79,1.26.8,2.69.82,2.76-1.65l.19-6.8a3.31,3.31,0,0,0-1.72-3.23c-7.8-5-10-6.29-16.21-9.91-2.36-1.37-2.73.62-2.77,2.12l-.2,7.15C629.1,331.06,629.63,331.34,630.92,332.09Z"/><path class="cls-3" d="M608.78,318.74c4.59,2.64,9.26,5.42,16.17,9.79,1.26.8,2.69.82,2.76-1.65l.19-6.8a3.35,3.35,0,0,0-1.72-3.24c-7.8-5-10-6.29-16.21-9.9-2.36-1.38-2.73.62-2.77,2.11l-.2,7.16C607,317.7,607.49,318,608.78,318.74Z"/><path class="cls-3" d="M586.46,305.38c4.59,2.64,9.26,5.42,16.17,9.79,1.26.8,2.69.82,2.76-1.65l.18-6.8a3.32,3.32,0,0,0-1.72-3.24c-7.79-5-10-6.29-16.2-9.9-2.36-1.37-2.73.62-2.78,2.11l-.19,7.16C584.63,304.34,585.17,304.63,586.46,305.38Z"/><path class="cls-3" d="M637.83,351.5c4.58,2.65,9.26,5.42,16.16,9.79,1.26.8,2.7.82,2.76-1.65l.19-6.8a3.31,3.31,0,0,0-1.72-3.23c-7.79-5-10-6.29-16.21-9.91-2.36-1.37-2.73.62-2.77,2.12L636,349C636,350.47,636.54,350.75,637.83,351.5Z"/><path class="cls-3" d="M615.69,337.93c4.59,2.65,9.26,5.42,16.17,9.8,1.26.8,2.69.82,2.76-1.65l.19-6.8a3.33,3.33,0,0,0-1.72-3.24c-7.8-5-10-6.29-16.21-9.91-2.36-1.37-2.73.63-2.77,2.12l-.2,7.16C613.87,336.9,614.4,337.19,615.69,337.93Z"/><path class="cls-3" d="M593.55,324.58c4.59,2.65,9.26,5.42,16.17,9.79,1.26.8,2.69.82,2.76-1.65l.18-6.8a3.31,3.31,0,0,0-1.72-3.23c-7.79-5-10-6.3-16.2-9.91-2.36-1.37-2.74.62-2.78,2.11l-.19,7.16C591.72,323.54,592.26,323.83,593.55,324.58Z"/><path class="cls-3" d="M571.23,311.22c4.59,2.65,9.26,5.42,16.16,9.79,1.26.8,2.7.82,2.76-1.65l.19-6.8a3.31,3.31,0,0,0-1.72-3.23c-7.79-5-10-6.29-16.2-9.91-2.37-1.37-2.74.62-2.78,2.12l-.2,7.15C569.4,310.19,569.94,310.47,571.23,311.22Z"/><path class="cls-3" d="M643.14,324.57c4.59,2.65,9.26,5.42,16.17,9.8,1.26.8,2.69.82,2.76-1.65l.18-6.8a3.31,3.31,0,0,0-1.72-3.24c-7.79-5-10-6.29-16.2-9.9-2.36-1.38-2.73.62-2.78,2.11l-.19,7.16C641.31,323.54,641.85,323.83,643.14,324.57Z"/><path class="cls-3" d="M621,311c4.58,2.65,9.25,5.42,16.16,9.79,1.26.8,2.69.82,2.76-1.65l.19-6.8a3.33,3.33,0,0,0-1.72-3.24c-7.8-5-10-6.29-16.21-9.9-2.36-1.37-2.73.62-2.77,2.11l-.2,7.16C619.18,310,619.71,310.26,621,311Z"/><path class="cls-3" d="M598.86,297.65c4.59,2.65,9.26,5.42,16.17,9.8,1.26.8,2.69.81,2.76-1.65L618,299a3.33,3.33,0,0,0-1.72-3.24c-7.8-5-10-6.29-16.21-9.91-2.36-1.37-2.73.63-2.77,2.12l-.2,7.16C597,296.62,597.57,296.91,598.86,297.65Z"/><path class="cls-3" d="M576.54,284.29c4.59,2.65,9.26,5.42,16.17,9.8,1.26.8,2.69.82,2.76-1.65l.18-6.8a3.3,3.3,0,0,0-1.72-3.24c-7.79-5-10-6.29-16.2-9.91-2.36-1.37-2.73.63-2.78,2.12l-.19,7.16C574.72,283.26,575.25,283.55,576.54,284.29Z"/><path class="cls-3" d="M674.5,312.15c4.58,2.65,9.26,5.42,16.16,9.79,1.26.8,2.69.82,2.76-1.65l.19-6.8a3.31,3.31,0,0,0-1.72-3.23c-7.79-5-10-6.3-16.21-9.91-2.36-1.37-2.73.62-2.77,2.11l-.2,7.16C672.67,311.11,673.2,311.4,674.5,312.15Z"/><path class="cls-3" d="M628.57,285.79c4.59,2.64,9.26,5.42,16.17,9.79,1.26.8,2.69.82,2.76-1.65l.19-6.8a3.33,3.33,0,0,0-1.72-3.24c-7.8-5-10-6.29-16.21-9.9-2.36-1.38-2.73.62-2.77,2.11l-.2,7.16C626.75,284.75,627.28,285,628.57,285.79Z"/><path class="cls-3" d="M606.43,272.43c4.59,2.65,9.26,5.42,16.17,9.79,1.26.8,2.69.82,2.76-1.65l.19-6.8a3.33,3.33,0,0,0-1.72-3.23c-7.8-5-10-6.29-16.21-9.91-2.36-1.37-2.73.63-2.77,2.12l-.2,7.16C604.61,271.4,605.14,271.69,606.43,272.43Z"/><path class="cls-3" d="M584.11,259.07c4.59,2.65,9.26,5.42,16.17,9.8,1.26.79,2.69.81,2.76-1.66l.18-6.79a3.3,3.3,0,0,0-1.72-3.24c-7.79-5-10-6.29-16.2-9.91-2.36-1.37-2.73.63-2.78,2.12l-.19,7.16C582.28,258,582.82,258.33,584.11,259.07Z"/><path class="cls-3" d="M635.48,305.2c4.58,2.64,9.26,5.42,16.16,9.79,1.26.8,2.7.82,2.76-1.65l.19-6.8a3.33,3.33,0,0,0-1.72-3.24c-7.79-5-10-6.29-16.21-9.9-2.36-1.38-2.73.62-2.77,2.11l-.2,7.16C633.65,304.16,634.19,304.45,635.48,305.2Z"/><path class="cls-3" d="M613.34,291.63c4.59,2.65,9.26,5.42,16.17,9.79,1.26.8,2.69.82,2.76-1.65l.19-6.8a3.33,3.33,0,0,0-1.72-3.23c-7.8-5-10-6.3-16.21-9.91-2.36-1.37-2.73.62-2.77,2.11l-.2,7.16C611.52,290.59,612.05,290.88,613.34,291.63Z"/><path class="cls-3" d="M591.2,278.27c4.59,2.65,9.26,5.42,16.17,9.8,1.26.8,2.69.82,2.76-1.65l.18-6.8a3.32,3.32,0,0,0-1.72-3.24c-7.79-5-10-6.29-16.2-9.9-2.36-1.38-2.74.62-2.78,2.11l-.19,7.16C589.37,277.24,589.91,277.53,591.2,278.27Z"/><path class="cls-3" d="M568.88,264.92c4.59,2.64,9.26,5.41,16.16,9.79,1.26.8,2.7.82,2.76-1.65l.19-6.8a3.33,3.33,0,0,0-1.72-3.24c-7.79-5-10-6.29-16.2-9.9-2.37-1.38-2.74.62-2.78,2.11l-.2,7.16C567.05,263.88,567.59,264.17,568.88,264.92Z"/><path class="cls-3" d="M640.79,278.27c4.59,2.65,9.26,5.42,16.17,9.79,1.26.8,2.69.82,2.76-1.65l.18-6.8a3.29,3.29,0,0,0-1.72-3.23c-7.79-5-10-6.29-16.2-9.91-2.36-1.37-2.73.62-2.78,2.12l-.19,7.15C639,277.24,639.5,277.52,640.79,278.27Z"/><path class="cls-3" d="M618.66,264.7c4.58,2.65,9.25,5.42,16.16,9.8,1.26.79,2.69.81,2.76-1.65l.19-6.8a3.31,3.31,0,0,0-1.72-3.24c-7.8-5-10-6.29-16.21-9.91-2.36-1.37-2.73.63-2.77,2.12l-.2,7.16C616.83,263.67,617.36,264,618.66,264.7Z"/><path class="cls-3" d="M596.51,251.35c4.59,2.65,9.26,5.42,16.17,9.79,1.26.8,2.69.82,2.76-1.65l.19-6.8a3.33,3.33,0,0,0-1.72-3.23c-7.8-5-10-6.3-16.21-9.91-2.36-1.37-2.73.62-2.77,2.11l-.2,7.16C594.69,250.31,595.22,250.6,596.51,251.35Z"/><path class="cls-3" d="M574.19,238c4.59,2.65,9.26,5.42,16.17,9.79,1.26.8,2.69.82,2.76-1.65l.18-6.8a3.29,3.29,0,0,0-1.72-3.23c-7.79-5-10-6.3-16.2-9.91-2.36-1.37-2.73.62-2.78,2.11l-.19,7.16C572.37,237,572.9,237.24,574.19,238Z"/><path class="cls-3" d="M563,291.24c4.59,2.65,9.26,5.42,16.16,9.8,1.26.79,2.7.81,2.76-1.65l.19-6.8a3.31,3.31,0,0,0-1.72-3.24c-7.79-5-10-6.29-16.21-9.91-2.36-1.37-2.73.63-2.77,2.12l-.2,7.16C561.14,290.21,561.68,290.5,563,291.24Z"/><path class="cls-3" d="M562.1,245.86c4.59,2.65,9.26,5.42,16.16,9.8,1.27.8,2.7.82,2.76-1.65l.19-6.8a3.32,3.32,0,0,0-1.72-3.24c-7.79-5-10-6.29-16.2-9.9-2.36-1.38-2.74.62-2.78,2.11l-.2,7.16C560.27,244.83,560.81,245.12,562.1,245.86Z"/><path class="cls-3" d="M546.87,251.71c4.58,2.64,9.26,5.42,16.16,9.79,1.26.8,2.69.82,2.76-1.65l.19-6.8a3.33,3.33,0,0,0-1.72-3.24c-7.79-5-10-6.29-16.21-9.9-2.36-1.37-2.73.62-2.77,2.11l-.2,7.16C545,250.67,545.58,251,546.87,251.71Z"/><path class="cls-3" d="M552.18,224.78c4.59,2.65,9.26,5.42,16.17,9.79,1.26.8,2.69.82,2.76-1.65l.18-6.8a3.31,3.31,0,0,0-1.72-3.23c-7.79-5-10-6.29-16.2-9.91-2.36-1.37-2.74.62-2.78,2.12l-.19,7.15C550.35,223.75,550.89,224,552.18,224.78Z"/><path class="cls-3" d="M561.65,364.49c4.59,2.65,9.26,5.42,16.16,9.8,1.27.79,2.7.81,2.76-1.66l.19-6.8A3.31,3.31,0,0,0,579,362.6c-7.79-5-10-6.29-16.2-9.91-2.36-1.37-2.74.63-2.78,2.12l-.2,7.16C559.82,363.46,560.36,363.75,561.65,364.49Z"/><path class="cls-3" d="M658.73,318.74c4.59,2.64,9.26,5.42,16.17,9.79,1.26.8,2.69.82,2.76-1.65l.18-6.8a3.32,3.32,0,0,0-1.72-3.24c-7.79-5-10-6.29-16.2-9.9-2.36-1.38-2.73.62-2.78,2.11l-.19,7.16C656.91,317.7,657.44,318,658.73,318.74Z"/><path class="cls-3" d="M613.68,366c4.59,2.65,9.26,5.42,16.17,9.8,1.26.8,2.69.82,2.76-1.65l.19-6.8a3.34,3.34,0,0,0-1.72-3.24c-7.8-5-10-6.29-16.21-9.9-2.36-1.38-2.73.62-2.77,2.11l-.2,7.16C611.86,365,612.39,365.24,613.68,366Z"/><path class="cls-3" d="M591.54,352.63c4.59,2.65,9.26,5.42,16.17,9.79,1.26.8,2.69.82,2.76-1.65l.18-6.8a3.31,3.31,0,0,0-1.72-3.23c-7.79-5-10-6.3-16.2-9.91-2.36-1.37-2.74.62-2.78,2.12l-.19,7.15C589.71,351.6,590.25,351.88,591.54,352.63Z"/><path class="cls-3" d="M569.22,339.27c4.59,2.65,9.26,5.42,16.16,9.79,1.26.8,2.7.82,2.76-1.65l.19-6.8a3.31,3.31,0,0,0-1.72-3.23c-7.79-5-10-6.29-16.21-9.91-2.36-1.37-2.73.62-2.77,2.12l-.2,7.15C567.39,338.24,567.93,338.52,569.22,339.27Z"/><path class="cls-3" d="M620.59,385.39c4.58,2.65,9.26,5.42,16.16,9.8,1.26.8,2.69.82,2.76-1.65l.19-6.8A3.32,3.32,0,0,0,638,383.5c-7.79-5-10-6.29-16.21-9.9-2.36-1.38-2.73.62-2.77,2.11l-.2,7.16C618.76,384.36,619.29,384.65,620.59,385.39Z"/><path class="cls-3" d="M598.45,371.83c4.59,2.64,9.26,5.42,16.17,9.79,1.26.8,2.69.82,2.76-1.65l.18-6.8a3.33,3.33,0,0,0-1.72-3.24c-7.79-5-10-6.29-16.2-9.9-2.36-1.37-2.74.62-2.78,2.11l-.19,7.16C596.62,370.79,597.16,371.08,598.45,371.83Z"/><path class="cls-3" d="M576.31,358.47c4.58,2.65,9.26,5.42,16.16,9.8,1.26.79,2.7.81,2.76-1.65l.19-6.8a3.31,3.31,0,0,0-1.72-3.24c-7.79-5-10-6.29-16.21-9.91-2.36-1.37-2.73.63-2.77,2.12l-.2,7.16C574.48,357.44,575,357.73,576.31,358.47Z"/><path class="cls-3" d="M554,345.11c4.58,2.65,9.26,5.42,16.16,9.8,1.26.8,2.69.81,2.76-1.65l.19-6.8a3.31,3.31,0,0,0-1.72-3.24c-7.79-5-10-6.29-16.21-9.91-2.36-1.37-2.73.63-2.77,2.12l-.2,7.16C552.16,344.08,552.7,344.37,554,345.11Z"/><path class="cls-3" d="M625.9,358.47c4.59,2.65,9.26,5.42,16.16,9.79,1.26.8,2.7.82,2.76-1.65l.19-6.8a3.31,3.31,0,0,0-1.72-3.23c-7.79-5-10-6.3-16.21-9.91-2.36-1.37-2.73.62-2.77,2.11l-.2,7.16C624.07,357.43,624.61,357.72,625.9,358.47Z"/><path class="cls-3" d="M603.76,344.9c4.59,2.65,9.26,5.42,16.17,9.79,1.26.8,2.69.82,2.76-1.65l.19-6.8a3.33,3.33,0,0,0-1.72-3.23c-7.8-5-10-6.29-16.21-9.91-2.36-1.37-2.73.62-2.77,2.12l-.2,7.15C601.94,343.87,602.47,344.15,603.76,344.9Z"/><path class="cls-3" d="M581.62,331.55c4.59,2.64,9.26,5.42,16.17,9.79,1.26.8,2.69.82,2.76-1.65l.18-6.8a3.32,3.32,0,0,0-1.72-3.24c-7.79-5-10-6.29-16.2-9.9-2.36-1.37-2.74.62-2.78,2.11l-.19,7.16C579.79,330.51,580.33,330.8,581.62,331.55Z"/><path class="cls-3" d="M559.3,318.19c4.59,2.64,9.26,5.42,16.16,9.79,1.27.8,2.7.82,2.76-1.65l.19-6.8a3.33,3.33,0,0,0-1.72-3.24c-7.79-5-10-6.29-16.2-9.9-2.36-1.37-2.74.62-2.78,2.11l-.2,7.16C557.47,317.15,558,317.44,559.3,318.19Z"/><path class="cls-3" d="M547.21,326.06c4.58,2.65,9.26,5.42,16.16,9.8,1.26.79,2.69.81,2.76-1.66l.19-6.79a3.31,3.31,0,0,0-1.72-3.24c-7.79-5-10-6.29-16.21-9.91-2.36-1.37-2.73.63-2.77,2.12l-.2,7.16C545.38,325,545.92,325.32,547.21,326.06Z"/><path class="cls-3" d="M651.24,300c4.59,2.65,9.26,5.42,16.17,9.8,1.26.8,2.69.82,2.76-1.65l.19-6.8a3.34,3.34,0,0,0-1.72-3.24c-7.8-5-10-6.29-16.21-9.91-2.36-1.37-2.73.63-2.77,2.12l-.2,7.16C649.42,298.92,650,299.21,651.24,300Z"/></g><g id="_Group_middleWall" data-name="&lt;Group&gt;middleWall"><polygon class="cls-1" points="221.78 179.4 14.22 315.75 0.72 306.58 0 253.72 45.83 229.01 92.73 84.3 233.21 0 232.03 13.82 221.78 179.4"/><path class="cls-4" d="M20.86,279.55c-.83-5.56-7.2-19.45-7.2-19.45L0,253.72l.75,55.1,13.47,6.93,10.9-7.16C23.59,298.93,22.29,289.23,20.86,279.55Z"/><path class="cls-4" d="M77.37,274.26a2.32,2.32,0,0,1,.13-2.47C86,258.33,94.74,245,102.83,231.27c7.13-12.08,15.19-24.4,16.43-38.58a2.92,2.92,0,0,1-.22-.87c-1.3-17.32-1.26-34.72-2.77-52-1.45-16.52-10.85-31.35-11-48L92.72,84.33,45.83,229h0c11.58,4.56,22,8.92,27.07,21.31a57.05,57.05,0,0,1,3.67,24.48Z"/><polygon class="cls-5" points="232.03 186.36 14.22 315.75 13.66 260.1 57.69 234.4 105.23 91.82 232.03 13.82 232.03 186.36"/></g><g id="_Group_FrontWallback" data-name="&lt;Group&gt;FrontWallback"><polygon class="cls-1" points="722.16 447.76 491.17 550.93 408.67 585.62 587.3 482.36 651.77 325.26 714.19 288.35 727.09 295.94 722.16 447.76"/><path class="cls-6" d="M664.46,334.3s-12.84-8.68-12.69-8.53l-.15-.15L587.51,481.85a3.69,3.69,0,0,1,.53.26c8.29,5.15,16.75,9.87,25.36,14.23l108.76-48.58,2.34-72.25C707.79,365.78,679.44,346.41,664.46,334.3Z"/><polygon class="cls-7" points="727.09 470.46 411.33 658.54 411.33 485.98 491.17 550.93 599.6 488.63 664.46 334.3 727.09 295.94 727.09 470.46"/></g></g></g></svg>