<svg xmlns="http://www.w3.org/2000/svg" viewBox="0 0 312.23 316.41"><defs><style>.cls-1{fill:#634b40;}.cls-2{fill:#422f26;}.cls-3{fill:#775944;}.cls-4{fill:#604431;}.cls-5{fill:#9b6948;}.cls-6{fill:#ffb200;}.cls-7{fill:#c80;}.cls-8{fill:#a39c96;}.cls-9{fill:#d6d2cc;}.cls-10{fill:#bab4ae;}.cls-11{fill:#e5e5e5;}.cls-12{fill:#fff;}.cls-13{fill:#a3a3a3;}.cls-14{fill:#ededed;}.cls-15{fill:#7c7c7c;fill-rule:evenodd;}.cls-16{fill:#9b3b78;}.cls-17{opacity:0.6;}.cls-18{fill:#e09ec5;}.cls-19{fill:#78245e;opacity:0.74;}.cls-20{fill:#edaabd;}.cls-21{fill:#2e3030;}.cls-22{fill:#1f2121;}</style></defs><title>Asset 46</title><g id="Layer_2" data-name="Layer 2"><g id="_ÎÓÈ_3" data-name="—ÎÓÈ_3"><polygon class="cls-1" points="205.93 199.43 202.95 201.34 208.7 136.34 214.53 132.72 205.93 199.43"/><polygon class="cls-2" points="208.68 136.34 202.84 132.84 200.06 199.64 202.93 201.34 208.68 136.34"/><polygon class="cls-3" points="251.46 226.96 248.45 228.79 253.41 164.17 259.24 160.54 251.46 226.96"/><polygon class="cls-2" points="253.41 164.17 247.57 160.67 245.59 227.09 248.45 228.79 253.41 164.17"/><polygon class="cls-3" points="309.39 192.24 306.41 194.15 297.88 134.31 303.71 130.69 309.39 192.24"/><polygon class="cls-2" points="297.86 134.31 292.02 130.81 303.52 192.44 306.38 194.15 297.86 134.31"/><polygon class="cls-3" points="303.93 132.82 253.38 164.61 202.84 132.82 202.84 128.15 303.93 128.15 303.93 132.82"/><polygon class="cls-2" points="253.38 164.61 202.84 132.82 202.84 128.15 253.38 154.38 253.38 164.61"/><polygon class="cls-4" points="303.93 128.15 253.38 159.94 202.84 128.15 253.38 97.5 303.93 128.15"/><polygon class="cls-5" points="312.23 30.04 308.68 30.04 261.11 0 265.69 0 312.23 30.04"/><path class="cls-3" d="M303.9,128.26,300,130.69s-9.81-46.8-8.19-59.87C293.21,59.25,308.68,30,308.68,30h3.55a195.67,195.67,0,0,0-8.3,48.36C303.22,95.91,303.9,128.26,303.9,128.26Z"/><path class="cls-2" d="M300,130.69s0-29.23.21-42.51c.66-46.64,8.51-58.15,8.51-58.15L268.6,4.71V4.59l-.09.06-3.62-2.28h0L261.35.15h0L261.11,0s-9.28,14.84-9.66,64c-.17,22.36-.51,35.9-.51,35.9l0,1.24,45.77,28.39-.11-3.5.15,2.71Z"/><path class="cls-6" d="M299.2,127c0,3.44-5.36,5.87-17.46,13.2-8.45,5.12-19.58,14.24-28.36,14.21-5.34,0-20.39-9-26.69-12.89C214,133.67,202.07,131,203,124.37c.92-7,7.77-6.65,16.78-11,25.69-12.4,26.52-19.31,37.4-14.67,8.53,3.65,25.62,14.36,33.32,18C295.38,119,299.2,120.07,299.2,127Z"/><path class="cls-7" d="M285.42,133.35c-8.3,4.59-15.48,11.24-25,13.18-11.15,2.27-20.29-4-29.28-9.73-8.55-5.42-19-9.58-26.2-16.81a7.51,7.51,0,0,0-2,4.38c-.88,6.63,11.06,9.3,23.74,17.12,6.3,3.88,21.35,12.87,26.69,12.89,8.78,0,19.91-9.09,28.36-14.21,12.1-7.33,17.46-9.76,17.46-13.2a12.85,12.85,0,0,0-.38-3.32C295.28,127.64,290.59,130.49,285.42,133.35Z"/><polygon class="cls-3" points="80.94 246.58 77.02 248.95 77.02 111.5 84.87 106.76 80.94 246.58"/><polygon class="cls-2" points="77.02 111.5 69.17 106.76 73.09 246.58 77.02 248.95 77.02 111.5"/><polygon class="cls-3" points="264.96 258.05 261.03 260.42 261.03 129.73 268.88 125 264.96 258.05"/><polygon class="cls-2" points="261.03 129.73 253.19 125 257.11 258.05 261.03 260.42 261.03 129.73"/><polygon class="cls-3" points="178.97 309.77 175.05 312.14 175.05 178.62 182.9 173.88 178.97 309.77"/><polygon class="cls-2" points="175.05 178.62 167.2 173.88 171.13 309.77 175.05 312.14 175.05 178.62"/><polygon class="cls-8" points="69.17 106.76 42.95 198.28 59.93 202.44 69.17 106.76"/><polygon class="cls-8" points="268.88 125 278.32 213.92 295.3 211.94 268.88 125"/><polygon class="cls-9" points="268.88 124.72 175.05 178.62 69.17 106.76 155.27 55.4 268.88 124.72"/><polygon class="cls-10" points="175.05 178.62 157.67 262.41 59.93 202.44 69.17 106.76 175.05 178.62"/><polygon class="cls-10" points="278.32 213.92 178.72 267.62 175.05 178.62 268.88 124.72 278.32 213.92"/><path class="cls-9" d="M175.05,178.62l-19.68,89s6.49,6.09,19.68,6.09c14.38,0,19.68-6.09,19.68-6.09Z"/><path class="cls-11" d="M213.22,99.5c-.12,7.88-4.48,15.56-9.86,15.56s-9.82-7.58-9.86-15.56A44.49,44.49,0,0,0,213.22,99.5Z"/><path class="cls-12" d="M193.5,99.5c0,2.7,4.42,4.88,9.86,4.88s9.86-2.18,9.86-4.88-4.42-4.88-9.86-4.88S193.5,96.8,193.5,99.5Z"/><path class="cls-11" d="M189.44,106.61a3.28,3.28,0,1,0,3.28-3.28A3.27,3.27,0,0,0,189.44,106.61Zm1.35,0a1.93,1.93,0,1,1,1.93,1.93A1.92,1.92,0,0,1,190.79,106.61Z"/><path class="cls-13" d="M194.61,99.5c0,2.08,3.92,3.76,8.75,3.76s8.75-1.68,8.75-3.76-3.92-3.76-8.75-3.76S194.61,97.42,194.61,99.5Z"/><ellipse class="cls-14" cx="139.81" cy="111.93" rx="25.55" ry="15.62" transform="translate(-1.96 2.5) rotate(-1.02)"/><path class="cls-12" d="M159.31,111.58c.12,6.59-8.52,12.08-19.29,12.28s-19.6-5-19.72-11.58,8.52-12.08,19.3-12.27S159.2,105,159.31,111.58Z"/><path class="cls-15" d="M159.49,110a4.11,4.11,0,0,0,.13-2.34,2.43,2.43,0,0,0-.3-.49h0v0h0a3.18,3.18,0,0,0-.48-.32,4.17,4.17,0,0,0-2.34.08,8.84,8.84,0,0,0-1.22.4,11,11,0,0,0-2.06,1.33,5.35,5.35,0,0,0-1.44,1.83,4.31,4.31,0,0,0-.2.69c-.1.78.09,1.59-.06,2.43-.09.27-.11.47-.18.61a2.5,2.5,0,0,1-.23.23c-2.13,2.11-4.73,4.35-7.18,6.49h0l-.26.24-.07,0-.22.2-.09.08-.2.17-.1.09-.2.18-.1.08-.2.19-.09.07-.29.26c-1.08,1-2,1.88-3.12,2.84-.76.68-1.34,1.09-1.07,1.76l0,.06v0a.05.05,0,0,0,0,0v0l0,0,0,0,0,0,0,0,0,0,0,0,0,0,0,0,0,0v0l0,0,0,0,0,0h0l0,0,0,0,0,0,0,0,0,0,0,0h0l0,0,0,0,0,0h0l0,0h0l0,0h0l.06,0c.66.29,1.09-.28,1.79-1,1-1.05,1.92-2,2.92-3.05l.25-.27.09-.09.17-.18.09-.1.17-.18.09-.1.18-.2.08-.08.53-.58h0c1.54-1.67,3.12-3.41,4.67-5h0l.22-.24h0c.3-.32.61-.63.92-.93s.7-.7,1.05-1c.15-.06.38-.09.63-.16.84-.13,1.64.08,2.43,0a5.51,5.51,0,0,0,.69-.18,5.42,5.42,0,0,0,1.86-1.4,10.11,10.11,0,0,0,1.38-2A9.41,9.41,0,0,0,159.49,110Z"/><path class="cls-15" d="M140.36,102.07s0-.09-.06-.09c-.24.08-2.48,1.14-3.51,1.59-.65.28-2.18,1-2.37,1.05a.64.64,0,0,1-.2,0,.18.18,0,0,1-.12-.08.44.44,0,0,1,.12-.15,3.28,3.28,0,0,1,.31-.2c.13-.07,5.52-2.8,5.48-2.9l0-.12c0-.06-4.69,2-5.64,2.48h0l-.07,0-.13.06a1.26,1.26,0,0,1-.43.08l0,0s0,0,0,0a1.34,1.34,0,0,1,.34-.29l.13-.06.07,0c.95-.46,5.52-2.69,5.5-2.75a.9.9,0,0,0-.06-.12c0-.09-4.8,2-5.6,2.31h0l-.12.06-.35.11h-.2a.25.25,0,0,1,0-.15l0,0h0s0,0,0,0l0,0c.17-.1,1.69-.83,2.31-1.15,1-.51,3.26-1.55,3.48-1.69,0,0,0-.1,0-.09a28,28,0,0,0-4,1.26,18.42,18.42,0,0,0-2.17.85l-.07,0-.07,0-.49.24-.84.48h0a1.3,1.3,0,0,0-.49.59c-.17.31-.26.65-.42,1l0,0h0a.59.59,0,0,0,0,.08h0l-.17.35-.78.38h0c-2.71,1.29-5.9,2.55-8.92,3.77h0l-.32.13-.08,0-.28.12-.1,0-.25.1-.13,0-.24.1-.12,0-.26.11-.1,0-.36.15c-1.34.56-2.54,1.1-3.88,1.66-1,.39-1.63.59-1.59,1.32a.13.13,0,0,0,0,.06v0s0,0,0,0v0s0,0,0,0v0s0,0,0,.05v.1l0,0v0l0,0v0l0,0v.08s0,0,0,0l0,0v0l0,0,0,0,0,0,0,0,0,0,0,0,0,0v0l0,0,0,0,0,0h0l0,0c.53.49,1.12.09,2-.38,1.28-.68,2.47-1.25,3.75-1.93l.33-.17.11-.06.22-.12.13-.06.21-.12.12-.06.24-.13.1,0,.69-.37h0c2-1.08,4.07-2.21,6.06-3.22h0l.29-.14h0l1.18-.58c.62-.3,1.24-.59,1.83-.85l.38.09h.12c.34.08.66.23,1,.3a1.35,1.35,0,0,0,.77,0h0c.14,0,1-.37.91-.34l.49-.22.08,0c.72-.35,1.42-.74,2.11-1.16A30.56,30.56,0,0,0,140.36,102.07Z"/><path class="cls-15" d="M159.58,141.86c.46-1.47.92-2.8,1.38-4.27l.12-.38,0-.13.08-.25c0-.05,0-.1,0-.14s0-.17.08-.25l0-.14a2.76,2.76,0,0,0,.08-.27l0-.11.24-.81h0c.51-1.68,1-3.42,1.55-5.11h0l5.44-15a.93.93,0,0,0,0-.54.28.28,0,0,0-.12-.24.46.46,0,0,0-.18-.13l-.12,0a.53.53,0,0,0-.12,0,1.53,1.53,0,0,0-1.22.26,2.31,2.31,0,0,0-.64.75c-.5.86-1,1.72-1.42,2.63s-.78,1.9-1.17,2.85-.8,1.9-1.18,2.87l-.86,2.18c-.29.76-.62,1.5-.86,2.27a3.85,3.85,0,0,0-.22,1.06,1.42,1.42,0,0,0,.41.88,6.77,6.77,0,0,1,.5.87.83.83,0,0,1,.06.29l0,.05s0,.05,0,.07c-.62,1.44-1,1.76-1.66,3.4v0c0,.11-.09.23-.14.35l0,.08-.12.29,0,.11-.11.27-.06.13-.1.26-.06.13-.11.27-.05.11c-.05.13-.1.25-.16.38-.59,1.43-1.08,2.74-1.67,4.16-.42,1-.78,1.67-.21,2.19l0,.05h0l0,0h0l0,0,0,0,0,0,0,0,0,0h0l.05,0h0l0,0h.07l0,0h0l0,0h0l0,0h.09l0,0h.42C159.11,143.64,159.26,142.9,159.58,141.86Z"/><path class="cls-16" d="M126.75,105.08c-6.19-1.43-10.26,3.66-10.26,3.66s0,.26-.21,1c-.72,3.39,2.78,7,7.8,8s9.66-.85,10.37-4.24c.1-.46.19-.91.19-.91a9.49,9.49,0,0,0-.38-2.12A11.46,11.46,0,0,0,126.75,105.08Zm-2.21,11.67c-4.38-.91-8.13-3.58-7.59-6.45a15.15,15.15,0,0,1,.91-1.82,6.19,6.19,0,0,1,2.88-2.38,9.74,9.74,0,0,1,2.32-.52,10.93,10.93,0,0,1,2.74,0,10.81,10.81,0,0,1,2.53.75,15.07,15.07,0,0,1,2.09,1,8.88,8.88,0,0,1,1.66,1.47,6.78,6.78,0,0,1,1.64,1.87c.46,1.08.65,1.75.28,2.53,0,.09-.4.31-.46.38C132.86,116.48,128.92,117.67,124.54,116.75Z"/><g class="cls-17"><path class="cls-18" d="M121.11,115.61l0,0a10.83,10.83,0,0,0-.21,1.11l0,0C121,116.35,121,116,121.11,115.61Z"/><path class="cls-18" d="M125.73,117l-.5-.07q-.09.56-.15,1.11a4.87,4.87,0,0,0,.55.06C125.66,117.69,125.69,117.32,125.73,117Z"/><path class="cls-18" d="M127.86,117.05h-.18c-.05.35-.08.69-.11,1h.09C127.72,117.73,127.79,117.39,127.86,117.05Z"/><path class="cls-18" d="M131.08,116.35l-.1.05v.06a9.26,9.26,0,0,1-.13.92l.11,0C131,117,131,116.68,131.08,116.35Z"/><path class="cls-18" d="M133.21,114.57l0,0a4.3,4.3,0,0,1-.35.52.93.93,0,0,1,.23.56c0,.13,0,.26,0,.39a6.38,6.38,0,0,0,.65-.74A4.88,4.88,0,0,0,133.21,114.57Z"/><path class="cls-18" d="M117.42,112.62c-.06.14-.11.28-.16.42s-.11.32-.16.48l.21.31c.09-.31.19-.62.29-.92Z"/><path class="cls-18" d="M134.19,112.92l0-.06-.06.2.14,0h0Z"/><path class="cls-18" d="M123.32,116.45l-.37-.11c-.08.37-.15.75-.21,1.13l.42.12C123.2,117.21,123.26,116.83,123.32,116.45Z"/><path class="cls-18" d="M119.16,114.46c-.09.34-.18.67-.25,1l.14.12v0a9,9,0,0,1,.25-1Z"/></g><path class="cls-19" d="M119.32,115.18a6.35,6.35,0,0,0-.44-.91,5,5,0,0,1-1.95-2.88,7,7,0,0,1-.39-.71,5.52,5.52,0,0,1-.29-.77c-.41,2.22,1,4.52,3.39,6.12C119.53,115.75,119.43,115.46,119.32,115.18Z"/><path class="cls-19" d="M132.82,115.64a4.85,4.85,0,0,1-2.25,1.1,6.13,6.13,0,0,1-.85.09,9.06,9.06,0,0,1-1.69.24l-1.1.43c-.54.2-1.09.39-1.65.55,4.54.53,8.52-1.32,9.17-4.44l.06-.3A6.3,6.3,0,0,1,132.82,115.64Z"/><path class="cls-20" d="M126.84,104.62c-5-1.05-9.66.85-10.37,4.24s2.78,7,7.8,8,9.66-.85,10.37-4.24S131.86,105.67,126.84,104.62Zm5.7,10a8.28,8.28,0,0,1-1.67,1.27,7.06,7.06,0,0,1-2.15.66,10.82,10.82,0,0,1-4-.19A13.82,13.82,0,0,1,121,115a9.43,9.43,0,0,1-3.17-2.75,3.87,3.87,0,0,1-.7-1.79,3.22,3.22,0,0,1,.32-1.7,4.24,4.24,0,0,1,.91-1.2c1.49-1.85,4.81-2.72,8.34-2a11.65,11.65,0,0,1,6.67,4.19,3,3,0,0,1,.49,3.37A5.93,5.93,0,0,1,132.54,114.6Z"/><path class="cls-16" d="M126.79,102.51c-4.85.51-6.53,5.23-6.53,5.23s0,.2.1.8c.33,2.65,3.78,4.39,7.69,3.9s6.81-3,6.48-5.69l-.09-.7a7.16,7.16,0,0,0-.81-1.45A8.79,8.79,0,0,0,126.79,102.51Zm1.33,9c-3.42.43-6.81-.57-7.14-2.79a13,13,0,0,1,.21-1.55,4.67,4.67,0,0,1,1.49-2.45,7.66,7.66,0,0,1,1.56-1,8.38,8.38,0,0,1,2-.66,8.11,8.11,0,0,1,2-.09,12,12,0,0,1,1.78.23,7.65,7.65,0,0,1,1.57.65,5.24,5.24,0,0,1,1.67,1c.6.66.91,1.11.83,1.76a2.55,2.55,0,0,1-.24.39C134.1,109.26,131.53,111.12,128.12,111.55Z"/><g class="cls-17"><path class="cls-18" d="M125.34,111.58h0c0,.29.08.58.13.86h0C125.41,112.15,125.37,111.87,125.34,111.58Z"/><path class="cls-18" d="M129,111.39l-.38.08c0,.28.1.56.17.84l.41-.09C129.16,111.94,129.09,111.67,129,111.39Z"/><path class="cls-18" d="M130.61,110.93l-.14,0c.06.26.12.52.19.78l.06,0C130.67,111.46,130.64,111.2,130.61,110.93Z"/><path class="cls-18" d="M132.77,109.62l-.06.06v0c.05.23.1.47.14.7l.06-.06C132.88,110.11,132.83,109.86,132.77,109.62Z"/><path class="cls-18" d="M133.88,107.79l0,0a2.42,2.42,0,0,1-.13.46.68.68,0,0,1,.31.36l.09.28a4.65,4.65,0,0,0,.28-.7A3.85,3.85,0,0,0,133.88,107.79Z"/><path class="cls-18" d="M121.9,110.33c0,.11,0,.23,0,.34s0,.26,0,.39l.23.17c0-.24,0-.49,0-.74Z"/><path class="cls-18" d="M134.17,106.34l0,0v.16l.11,0h0A.76.76,0,0,0,134.17,106.34Z"/><path class="cls-18" d="M127.16,111.63h-.3c0,.29.08.59.13.88l.34,0C127.26,112.21,127.21,111.92,127.16,111.63Z"/><path class="cls-18" d="M123.63,111.23c0,.26,0,.53.07.79l.14,0h0c0-.26,0-.53-.06-.79Z"/></g><path class="cls-19" d="M123.93,111.71a5.71,5.71,0,0,0-.55-.55,3.82,3.82,0,0,1-2.14-1.61,6.1,6.1,0,0,1-.46-.41,3.72,3.72,0,0,1-.4-.49c.26,1.72,1.84,3,4,3.6C124.22,112.08,124.08,111.89,123.93,111.71Z"/><path class="cls-19" d="M133.86,108.66A3.7,3.7,0,0,1,132.5,110a6.63,6.63,0,0,1-.6.29,7.52,7.52,0,0,1-1.17.59l-.69.59c-.34.28-.69.56-1.06.81,3.43-.75,5.86-3.09,5.55-5.52l0-.23A4.76,4.76,0,0,1,133.86,108.66Z"/><path class="cls-20" d="M126.75,102.15c-3.91.49-6.81,3-6.48,5.68s3.78,4.39,7.69,3.9,6.81-3,6.48-5.68S130.66,101.66,126.75,102.15Zm6.64,5.83a6,6,0,0,1-.89,1.33,5.45,5.45,0,0,1-1.4,1,8.33,8.33,0,0,1-3,.86,10.2,10.2,0,0,1-3.07-.07,7.27,7.27,0,0,1-3-1.2,3,3,0,0,1-1-1.13,2.45,2.45,0,0,1-.19-1.31,3.39,3.39,0,0,1,.36-1.1c.62-1.72,2.81-3.18,5.57-3.53a8.83,8.83,0,0,1,5.9,1.38,2.31,2.31,0,0,1,1.2,2.32A4.56,4.56,0,0,1,133.39,108Z"/><path class="cls-16" d="M135.69,104.25c-5.3-1.62-9.15,2.56-9.15,2.56s-.06.23-.25.89c-.83,2.91,2,6.26,6.31,7.48s8.46-.16,9.28-3.07l.22-.78a8,8,0,0,0-.2-1.86A10,10,0,0,0,135.69,104.25Zm-2.62,10c-3.76-1.07-6.87-3.61-6.23-6.08a16,16,0,0,1,.91-1.53,5.25,5.25,0,0,1,2.65-1.89,8.93,8.93,0,0,1,2-.32,10,10,0,0,1,2.38.19,9.22,9.22,0,0,1,2.16.81,13.49,13.49,0,0,1,1.76,1,8.08,8.08,0,0,1,1.36,1.38,6,6,0,0,1,1.31,1.73c.33,1,.46,1.56.09,2.21,0,.08-.37.25-.43.31C140.33,114.54,136.82,115.34,133.07,114.28Z"/><g class="cls-17"><path class="cls-18" d="M130.15,113.08l-.05,0c-.1.32-.18.64-.25,1l0,0C130,113.71,130.06,113.39,130.15,113.08Z"/><path class="cls-18" d="M134.09,114.52l-.43-.09c-.08.32-.15.64-.2,1l.47.08C134,115.16,134,114.84,134.09,114.52Z"/><path class="cls-18" d="M135.94,114.73h-.17l-.15.89h.08C135.77,115.32,135.85,115,135.94,114.73Z"/><path class="cls-18" d="M138.78,114.32l-.09,0v0a6.93,6.93,0,0,1-.17.79l.1,0C138.67,114.89,138.73,114.61,138.78,114.32Z"/><path class="cls-18" d="M140.75,112.9l0,0a3.57,3.57,0,0,1-.34.43.79.79,0,0,1,.16.51l0,.33a5,5,0,0,0,.61-.61A5.85,5.85,0,0,0,140.75,112.9Z"/><path class="cls-18" d="M127.11,110.25c0,.12-.11.23-.16.35l-.17.42.17.28c.1-.27.2-.53.31-.79Z"/><path class="cls-18" d="M141.7,111.53l0-.06-.06.17.12,0h0Z"/><path class="cls-18" d="M132,113.94l-.31-.12c-.1.32-.18.64-.26,1l.36.14C131.87,114.59,131.94,114.27,132,113.94Z"/><path class="cls-18" d="M128.52,112c-.1.28-.19.57-.28.86l.12.11v0a7.11,7.11,0,0,1,.29-.85Z"/></g><path class="cls-19" d="M128.62,112.6a6,6,0,0,0-.34-.83,4.34,4.34,0,0,1-1.51-2.62,4.12,4.12,0,0,1-.3-.64,5.49,5.49,0,0,1-.21-.69c-.49,1.91.58,4,2.58,5.53C128.76,113.1,128.69,112.85,128.62,112.6Z"/><path class="cls-19" d="M140.34,113.81a4.27,4.27,0,0,1-2,.82,6.35,6.35,0,0,1-.76,0,8.76,8.76,0,0,1-1.48.1l-1,.31c-.49.14-1,.28-1.47.38,3.92.74,7.49-.64,8.25-3.31l.07-.26A5.38,5.38,0,0,1,140.34,113.81Z"/><path class="cls-20" d="M135.8,103.86c-4.31-1.22-8.46.15-9.29,3.06s2,6.26,6.31,7.48,8.46-.16,9.28-3.07S140.1,105.07,135.8,103.86Zm4.36,9a6.76,6.76,0,0,1-1.53,1,6.26,6.26,0,0,1-1.92.45,9.36,9.36,0,0,1-3.48-.42,11.67,11.67,0,0,1-3.18-1.43,8.32,8.32,0,0,1-2.6-2.58,3.53,3.53,0,0,1-.5-1.61,2.74,2.74,0,0,1,.38-1.45,3.57,3.57,0,0,1,.87-1c1.41-1.53,4.35-2.08,7.38-1.22a10,10,0,0,1,5.55,4,2.65,2.65,0,0,1,.23,3A5.39,5.39,0,0,1,140.16,112.88Z"/><polygon class="cls-3" points="111.99 279.86 109 281.77 100.48 221.94 106.31 218.31 111.99 279.86"/><polygon class="cls-2" points="100.46 221.94 94.62 218.44 106.12 280.06 108.98 281.77 100.46 221.94"/><polygon class="cls-3" points="106.53 220.44 55.98 252.23 5.44 220.44 5.44 215.77 106.53 215.77 106.53 220.44"/><polygon class="cls-4" points="106.53 215.77 55.98 247.56 5.44 215.77 55.98 185.12 106.53 215.77"/><path class="cls-6" d="M104,214c-.25,3.43-7.57,6.52-19.67,13.85-8.45,5.12-16.64,12.8-29,12.14-5.33-.29-19.24-11.15-25.55-15-12.68-7.82-17.4-7.69-18.47-14.29-1-6,1.94-7.38,9.87-11,9.13-4.2,28.11-18.22,37.87-13.54,8.36,4,25.88,12.7,34,15.31C96.75,202.54,104.76,203.69,104,214Z"/><path class="cls-7" d="M48.19,231.47c-16.37-11-37.43-18.93-33.29-28.73-3.13,1.93-4.21,3.87-3.57,7.88,1.07,6.6,5.79,6.47,18.47,14.29,6.31,3.88,20.22,14.74,25.55,15,12.35.66,20.54-7,29-12.14,12.1-7.33,19.42-10.42,19.67-13.85a13.51,13.51,0,0,0-.5-5.11C97.47,217.75,60.22,239.55,48.19,231.47Z"/><polygon class="cls-1" points="8.53 287.06 5.54 288.96 11.3 223.97 17.12 220.34 8.53 287.06"/><polygon class="cls-2" points="11.27 223.97 5.44 220.47 2.66 287.26 5.52 288.96 11.27 223.97"/><polygon class="cls-3" points="54.05 314.58 51.05 316.41 56.01 251.79 61.83 248.17 54.05 314.58"/><polygon class="cls-2" points="56.01 251.79 50.17 248.29 48.19 314.71 51.05 316.41 56.01 251.79"/><polygon class="cls-2" points="55.98 252.23 5.44 220.44 5.44 215.77 55.98 242 55.98 252.23"/><polyline class="cls-3" points="3.28 123.29 0.24 117.55 54.66 146.86 54.53 150.62"/><polygon class="cls-5" points="54.66 146.86 51.11 149.55 0 117.4 3.74 115.14 54.66 146.86"/><path class="cls-3" d="M59.94,245.13,56,247.56l-4.88-98,3.54-2.69a233,233,0,0,1,6.6,50.35C61.6,214.73,59.94,245.13,59.94,245.13Z"/><path class="cls-2" d="M56,247.56s1.61-39,1.61-52.24c0-22.59-6.49-45.77-6.49-45.77L7.49,122.11V122l-.09.06-3.62-2.28h0L.24,117.55h0L0,117.4s9.72,16.68,9.47,60.17c-.09,16-4,38.2-4,38.2l1.55,1L7,218l45.77,28.4-.11-3.5.15,2.71Z"/><polygon class="cls-21" points="257.26 121.07 238.42 109.5 208.05 126.87 226.63 138.37 257.26 121.07"/><polygon class="cls-22" points="226.63 138.38 226.63 140.63 257.25 123.33 257.26 121.07 226.63 138.38"/><polygon class="cls-22" points="226.63 138.38 226.63 140.63 208.05 129.12 208.05 126.86 226.63 138.38"/></g></g></svg>