<svg xmlns="http://www.w3.org/2000/svg" viewBox="0 0 65.5 70.75"><defs><style>.cls-1{fill:#9f2e20;}</style></defs><title>Asset 12</title><g id="Layer_2" data-name="Layer 2"><g id="_ÎÓÈ_3" data-name="—ÎÓÈ_3"><polygon class="cls-1" points="18.81 27.94 40.59 27.94 40.73 27.88 40.78 27.74 40.78 25.45 40.73 25.31 40.59 25.25 18.81 25.25 18.66 25.31 18.61 25.45 18.61 27.74 18.66 27.88 18.81 27.94"/><polygon class="cls-1" points="18.81 38.42 32.52 38.42 32.66 38.36 32.72 38.22 32.72 35.93 32.66 35.79 32.52 35.73 18.81 35.73 18.66 35.79 18.61 35.93 18.61 38.22 18.66 38.36 18.81 38.42"/><polygon class="cls-1" points="18.81 48.89 32.52 48.89 32.66 48.83 32.72 48.69 32.72 46.4 32.66 46.26 32.52 46.2 18.81 46.2 18.66 46.26 18.61 46.4 18.61 48.69 18.66 48.83 18.81 48.89"/><polygon class="cls-1" points="40.59 56.68 18.81 56.68 18.66 56.74 18.61 56.88 18.61 59.17 18.66 59.31 18.81 59.37 40.59 59.37 40.73 59.31 40.78 59.17 40.78 56.88 40.73 56.74 40.59 56.68"/><polygon class="cls-1" points="14.11 35.73 11.19 35.73 11.05 35.79 10.99 35.93 10.99 38.22 11.05 38.36 11.19 38.42 14.11 38.42 14.25 38.36 14.31 38.22 14.31 35.93 14.25 35.79 14.11 35.73"/><polygon class="cls-1" points="14.11 46.2 11.19 46.2 11.05 46.26 10.99 46.4 10.99 48.69 11.05 48.83 11.19 48.89 14.11 48.89 14.25 48.83 14.31 48.69 14.31 46.4 14.25 46.26 14.11 46.2"/><polygon class="cls-1" points="14.11 56.68 11.19 56.68 11.05 56.74 10.99 56.88 10.99 59.17 11.05 59.31 11.19 59.37 14.11 59.37 14.25 59.31 14.31 59.17 14.31 56.88 14.25 56.74 14.11 56.68"/><polygon class="cls-1" points="14.11 25.25 11.19 25.25 11.05 25.31 10.99 25.45 10.99 27.74 11.05 27.88 11.19 27.94 14.11 27.94 14.25 27.88 14.31 27.74 14.31 25.45 14.25 25.31 14.11 25.25"/><path class="cls-1" d="M65.5,42.9A14,14,0,0,0,53,29V5L53,4.84l-.14-.06h-12V.2L40.8.06,40.66,0H12.36l-.14.06L12.16.2V4.78H.2l-.14.06L0,5V70.55l.06.14.14.06H52.82l.14-.06.06-.14V56.92l0-.07A14,14,0,0,0,65.5,42.9ZM14.85,9.56V2.69H38.17V9.56ZM51.48,54.24a11.35,11.35,0,1,1,8-3.32A11.33,11.33,0,0,1,51.48,54.24Zm-1.15,2.68V68.06H2.69V7.47h9.47v4.58l.06.14.14.06h28.3l.14-.06.06-.14V7.47h9.47V28.93a14,14,0,0,0,0,27.94Z"/><polygon class="cls-1" points="57.12 38.11 56.83 38.11 49.1 45.84 46.83 43.58 46.55 43.58 44.93 45.19 44.93 45.48 48.96 49.5 49.24 49.5 58.73 40.01 58.79 39.87 58.73 39.73 57.12 38.11"/><polygon class="cls-1" points="32.61 4.78 20.41 4.78 20.27 4.84 20.21 4.98 20.21 7.27 20.27 7.41 20.41 7.47 32.61 7.47 32.75 7.41 32.81 7.27 32.81 4.98 32.75 4.84 32.61 4.78"/></g></g></svg>