<svg xmlns="http://www.w3.org/2000/svg" viewBox="0 0 80.28 70.32"><defs><style>.cls-1{fill:#9f2e20;}</style></defs><title>Asset 28</title><g id="Layer_2" data-name="Layer 2"><g id="_ÎÓÈ_3" data-name="—ÎÓÈ_3"><path class="cls-1" d="M79,67.72h-9.1L73,49.08a76,76,0,0,0,1-12.42V24.85a1.3,1.3,0,1,0-2.6,0h0V28H49.78a1.3,1.3,0,0,0,0,2.6H71.41v6.09a73.14,73.14,0,0,1-1,12L67.24,67.72H52L48.79,48.66a73.14,73.14,0,0,1-1-12V21.74h26a1.3,1.3,0,0,0,1.3-1.3A1.28,1.28,0,0,0,74,19.18v-3a1.3,1.3,0,0,0-.57-1.08L71.71,14a3.17,3.17,0,0,1-1.36-2,5.81,5.81,0,0,0-5.07-4.62V3.48A3.48,3.48,0,0,0,61.79,0H57.42a3.48,3.48,0,0,0-3.48,3.48V7.32a5.8,5.8,0,0,0-5.07,4.62,3.22,3.22,0,0,1-1.37,2l-1.72,1.15a1.3,1.3,0,1,0,1.44,2.16l1.72-1.14a5.81,5.81,0,0,0,2.48-3.7,3.21,3.21,0,0,1,3.15-2.58H64.65a3.21,3.21,0,0,1,3.15,2.58,5.83,5.83,0,0,0,2.47,3.7l1.14.76v2.23h-26a1.29,1.29,0,0,0-.21,2.56v15a74.78,74.78,0,0,0,.85,11.19,1.3,1.3,0,0,0-1.16-.74H34.58a1.3,1.3,0,0,0-1.3,1.3v1.47a1.17,1.17,0,0,0,0,.32l2.23,8.92a5.08,5.08,0,0,0,1.26,2.27,5.13,5.13,0,0,0-1.49,1.77L33.42,67a1.27,1.27,0,0,0-.14.58v.17H29.77l-1.3-.55h0a6.24,6.24,0,0,1-3.33-4.47h0v0l0-.09a9.33,9.33,0,0,1-.37-2.75h0v0h0V52.25h0a16.9,16.9,0,0,1,4.92-11.79L40.41,29.71a1.3,1.3,0,0,0,.38-.92V28a1.34,1.34,0,0,0-.38-.92,1.32,1.32,0,0,0-.92-.38h-26A6.91,6.91,0,0,0,12,24a6.92,6.92,0,1,0-1,10.1l6.31,6.32a16.68,16.68,0,0,1,3.13,4.33,16.7,16.7,0,0,1,1.72,7.46h0V59.8h0a9.27,9.27,0,0,1-.47,2.78l0,.1v0h0A6.17,6.17,0,0,1,18.3,67.1l-.06,0-1.28.6H7.33a1.3,1.3,0,0,0,0,2.6H79a1.3,1.3,0,0,0,0-2.6ZM56.54,7.27V3.48a.88.88,0,0,1,.88-.88h4.37a.89.89,0,0,1,.89.88V7.27H56.54Zm-33.07,38c-.14-.37-.29-.73-.45-1.09h.92C23.77,44.58,23.62,44.94,23.47,45.31ZM6.89,32.93a4.29,4.29,0,1,1,3.18-7.15,3.82,3.82,0,0,1,.61.91H7.47a1.32,1.32,0,0,0-.92.38,1.34,1.34,0,0,0-.38.92v.8a1.3,1.3,0,0,0,.38.92l2.58,2.58A4.21,4.21,0,0,1,6.89,32.93Zm2.92-3.64h1.31s0,0,0,.06a1.3,1.3,0,0,0,2.57.42h0c0-.16,0-.32,0-.48H37.15L36,30.43l-.12,0H17.47a1.3,1.3,0,0,0,0,2.6h16l-5.61,5.61a19,19,0,0,0-2.43,3H21.56a18.44,18.44,0,0,0-2.43-3ZM23.38,65.47a8.82,8.82,0,0,0,1.52,2.25H21.83A8.92,8.92,0,0,0,23.38,65.47Zm14.27-1.15A2.46,2.46,0,0,1,39.86,63h6.5a1.3,1.3,0,1,0,0-2.6H40.47a2.48,2.48,0,0,1-2.4-1.87l-2.19-8.77h9a1.28,1.28,0,0,0,1.26-1.14c0,.17.05.34.08.51l3.1,18.64H36Z"/></g></g></svg>