<svg xmlns="http://www.w3.org/2000/svg" viewBox="0 0 209.45 220.31"><defs><style>.cls-1{fill:#634b40;}.cls-2{fill:#422f26;}.cls-3{fill:#775944;}.cls-4{fill:#604431;}.cls-5{fill:#9b6948;}.cls-6{fill:#ffb200;}.cls-7{fill:#c80;}.cls-8{fill:#e8a52e;}.cls-9{fill:#121f33;}.cls-10{fill:#153b72;}.cls-11{fill:#eda97c;}.cls-12{fill:#992b0a;}.cls-13{fill:#ffbc8f;}.cls-14{fill:#f4ae7f;}.cls-15{fill:#efa470;}.cls-16{fill:#0d3d6d;}.cls-17{fill:#173156;}.cls-18{fill:#ed9356;}.cls-19{fill:#d68b13;}.cls-20{fill:#c4790c;}.cls-21{fill:#f4a56e;}.cls-22{fill:#11467a;}.cls-23{fill:#ba3f19;}.cls-24{fill:#1c4f8c;}.cls-25{fill:#a39c96;}.cls-26{fill:#e0dcd7;}.cls-27{fill:#bab4ae;}.cls-28{fill:#d6d2cc;}.cls-29{fill:#ededed;}.cls-30{fill:#fff;}.cls-31{fill:#060626;}.cls-32{fill:#eaa271;}.cls-33{fill:#060d26;}.cls-34{fill:#1755a0;}.cls-35{fill:#d37739;}.cls-36{fill:#efa573;}.cls-37{fill:#ba850f;}.cls-38{fill:#e08f58;}.cls-39{fill:#eda80f;}.cls-40{opacity:0.61;}.cls-41{fill:#ba8613;}.cls-42{fill:#6c41d6;}.cls-43{fill:#e58848;}.cls-44{fill:#962445;}.cls-45{fill:#56217c;}.cls-46{fill:#e8b856;}.cls-47{fill:#b28d30;}.cls-48{fill:#7c7c7c;fill-rule:evenodd;}</style></defs><title>indoor guests 2</title><g id="Layer_2" data-name="Layer 2"><g id="_ÎÓÈ_3" data-name="—ÎÓÈ_3"><polygon class="cls-1" points="141.98 139.58 140.34 140.63 143.5 104.92 146.7 102.93 141.98 139.58"/><polygon class="cls-2" points="143.49 104.92 140.28 103 138.76 139.69 140.33 140.63 143.49 104.92"/><polygon class="cls-3" points="166.98 154.7 165.34 155.7 168.06 120.21 171.26 118.22 166.98 154.7"/><polygon class="cls-2" points="168.06 120.21 164.85 118.29 163.76 154.77 165.34 155.7 168.06 120.21"/><polygon class="cls-3" points="198.81 135.63 197.17 136.67 192.49 103.81 195.69 101.82 198.81 135.63"/><polygon class="cls-2" points="192.47 103.81 189.27 101.89 195.59 135.74 197.16 136.67 192.47 103.81"/><polygon class="cls-3" points="195.81 102.99 168.04 120.45 140.28 102.99 140.28 100.42 195.81 100.42 195.81 102.99"/><polygon class="cls-2" points="168.04 120.45 140.28 102.99 140.28 100.42 168.04 114.83 168.04 120.45"/><polygon class="cls-4" points="195.81 100.42 168.04 117.88 140.28 100.42 168.04 83.58 195.81 100.42"/><polygon class="cls-5" points="200.37 46.53 198.41 46.53 172.29 30.03 174.8 30.04 200.37 46.53"/><path class="cls-3" d="M195.79,100.48l-2.16,1.34s-5.39-25.71-4.5-32.88c.79-6.36,9.29-22.41,9.29-22.41h1.94a107.24,107.24,0,0,0-4.55,26.57C195.42,82.72,195.79,100.48,195.79,100.48Z"/><path class="cls-2" d="M193.63,101.82s0-16.06.11-23.35c.36-25.62,4.68-31.94,4.68-31.94l-22-13.91v-.06l-.05,0-2-1.26h0l-1.93-1.21h0l-.13-.08s-5.1,8.15-5.31,35.13c-.09,12.28-.28,19.72-.28,19.72l0,.68,25.14,15.59-.06-1.92.08,1.49Z"/><path class="cls-6" d="M193.21,99.78c0,1.89-2.94,3.22-9.59,7.25-4.64,2.81-10.75,7.82-15.58,7.8-2.93,0-11.2-5-14.66-7.08-7-4.29-13.52-5.76-13-9.4.51-3.83,4.27-3.66,9.22-6,14.11-6.81,14.57-10.61,20.54-8.06,4.69,2,14.07,7.89,18.3,9.89C191.11,95.41,193.21,96,193.21,99.78Z"/><path class="cls-7" d="M185.64,103.28c-4.56,2.52-8.5,6.17-13.74,7.24-6.12,1.25-11.14-2.22-16.08-5.35-4.69-3-10.44-5.26-14.39-9.23a4.13,4.13,0,0,0-1.09,2.41c-.48,3.64,6.07,5.11,13,9.4,3.46,2.13,11.73,7.07,14.66,7.08,4.83,0,10.94-5,15.58-7.8,6.65-4,9.59-5.36,9.59-7.25A7,7,0,0,0,193,98,26.89,26.89,0,0,1,185.64,103.28Z"/><path class="cls-8" d="M152.69,87.41s3.39-2.16,4.4-2.68c5.73-3,8.31-5.55,10.46-9.18,4.54-7.61,7.86-19.65,4-22-3.72-2.25-6.46.69-7.88,7.56-.55,2.64-2.08,12.44-3.36,14.08-.84,1.08-3.61,3.9-7.53,7.73L150,85.71Z"/><path class="cls-9" d="M134.58,103.25l20.21-6.65-5.44,15.64s-2.78.52-8.52-2.58C132.67,105.26,134.58,103.25,134.58,103.25Z"/><path class="cls-10" d="M125.07,148.3a4.14,4.14,0,0,0,.94-3.84l-3.36-2.8c-1.31-.71-2.39-1.49-4.58.23-.67.52-1.23,2-4.08,4.46-2.06,1.76-5.22,1.3-5.38,2.27,0,0,4,2,6.51,3,2.74.27,4.48-3.37,6.63-3.81s-1.22,5.64-1.31,5.74l.56.19S124.11,149.44,125.07,148.3Z"/><path class="cls-11" d="M172.2,104.37c0-2.29-9.09-8.3-10-10.63-10.63.49-21.59,5-28.12,11.22-3.6,3.41-5.24,12.3-13.17,35.27-.49,1.43-2.56,2.44-3.44,3.37-2,2.12-4.26,4.28-4.26,4.28s5.24-3.44,6.81-4.1a6.66,6.66,0,0,1,3.49-.34,4.42,4.42,0,0,1,2.5,1,3.81,3.81,0,0,1-.12-2.09c3.84-14.34,13.26-16.18,12.84-27.3-.23-6.28,9.35-10.32,20.58-8.7,0,0,6.78-1.76,7-1.89C168.53,103.2,172.23,105.78,172.2,104.37Z"/><path class="cls-12" d="M174.16,28.58h.11a.83.83,0,0,0-.22,0h.11Z"/><path class="cls-12" d="M180.58,38.92c.7-2.93,1.48-7.57-.64-10.88a1.9,1.9,0,0,1-1.2.43c-.91,0-1.82,0-2.73,0-.41,0-.82,0-1.22.05l-.63,0-.11,0H174a12.3,12.3,0,0,0-2.25.54l-.21.1a3.58,3.58,0,0,0-.48.24,5.74,5.74,0,0,0-.53.32c-.26.22-.2.16-.1.08l0,0a6.75,6.75,0,0,0-.86.83c-.06.07-.11.15-.16.22a2.23,2.23,0,0,0-.2.33c-.18.48-.29,1-.44,1.49a6,6,0,0,1-.62,1.41,2.73,2.73,0,0,1,1,1.7c3.49,15.33-.63,17-.63,17a24,24,0,0,0,7.82,1.29C177.21,54.2,178.52,47.5,180.58,38.92Z"/><path class="cls-10" d="M144.7,152.56a4.17,4.17,0,0,0-.79-3.88l-4.25-1.08c-1.48-.07-2.79-.31-4,2.18-.38.75-.23,2.36-1.76,5.78-1.11,2.47-4.16,3.41-3.89,4.36,0,0,4.5.11,7.18-.07,2.59-.94,2.59-5,4.35-6.29s1.32,5.61,1.28,5.75l.59-.07S144.33,154,144.7,152.56Z"/><path class="cls-13" d="M168.38,92.64a21,21,0,0,0-4.4-5.77c-9.38,5-27.91,17.68-27.64,24.93.18,5,1.75,18.82,1.13,35.26-.05,1.52-1.26,3.31-1.65,4.53-.89,2.76-2,5.69-2,5.69s3.26-5.36,4.4-6.63a6.63,6.63,0,0,1,3-1.81,4.41,4.41,0,0,1,2.68-.18,2.54,2.54,0,0,1-1-1.84c1.35-17.49,5.95-22,2.74-30.9-2.14-5.91,9.7-6.21,20.53-9.57.15-.23-.53-3-.38-3.19A40.66,40.66,0,0,0,170,96.55,27.66,27.66,0,0,0,168.38,92.64Z"/><path class="cls-14" d="M135.1,154.9l.09-1.44c-.71,2.07-1.39,3.82-1.39,3.82s.56-.91,1.29-2.07C135.09,155.1,135.1,155,135.1,154.9Z"/><path class="cls-15" d="M145.61,115.92c-1.26-3.49,2.33-5,7.71-6.38l-1,.1a33.65,33.65,0,0,0-7.24,1.93c-.16.17-.32.33-.46.5a5.87,5.87,0,0,0-.47.79,6.28,6.28,0,0,0-.23.82,9,9,0,0,0,0,1.37c.34,1.92,1.16,3.72,1.6,5.62a13,13,0,0,1,.39,3.57,36.71,36.71,0,0,1-.42,3.78,60,60,0,0,1-1.41,6.32c-.55,2.07-1.13,4.13-1.6,6.23s-.71,3.94-1,5.93c-.1.78-.2,1.56-.29,2.34a4.41,4.41,0,0,1,2.68-.18,2.54,2.54,0,0,1-1-1.84C144.22,129.33,148.82,124.82,145.61,115.92Z"/><path class="cls-16" d="M149.35,112.24s39.79-3.53,34.12-23.33c-1.54-5.39-18-6.31-23.52-5.21-7.41,1.49-25.37,19.55-25.37,19.55C142.39,102.14,149.35,112.24,149.35,112.24Z"/><path class="cls-17" d="M169.72,93.12c-2.64-.79-5.33-1.3-8-2a18.67,18.67,0,0,1-3.89-1.48,8.69,8.69,0,0,1-1.69-1.21l-.29,0a5.05,5.05,0,0,1-.42,1.07,4.07,4.07,0,0,1-.4.59,7.57,7.57,0,0,1-1.65,1.83A25.07,25.07,0,0,1,151,93.71l-1.39,1.23c-1.28,1.14-2.57,2.25-3.79,3.43-.36.34-.71.69-1.06,1a32.16,32.16,0,0,1,9.86-5.84,23.37,23.37,0,0,1,8.54-1.22,18.9,18.9,0,0,1,4.84.78c.6.18,1.2.39,1.8.59s1.38.16,2.07.29c.5.09,1,.2,1.48.33C172.12,93.89,170.93,93.48,169.72,93.12Z"/><path class="cls-17" d="M174.06,104a108.86,108.86,0,0,1-12.52,3.81c-4.42,1.19-8.9,2.06-13.4,2.87.77.92,1.21,1.55,1.21,1.55s20-1.77,29.6-9.85l-.92.4A26.73,26.73,0,0,1,174.06,104Z"/><path class="cls-18" d="M182.77,53.52c.62.62,4,.9,3.45,1.26-1.11.69-7.31,1.77-8.12,1.85-1.12.1-7.26-2.92-7.26-2.92s2.74-.43,2.86-1.39c.16-1.33.24-2,.29-2.77.09-1.22,0-4.52,0-4.52L182.34,43S180.79,51.51,182.77,53.52Z"/><path class="cls-19" d="M160,83.7A30.93,30.93,0,0,1,168.28,87a77.38,77.38,0,0,1,10.88,6.88L184,92.71s-.3-6.88.89-10.67c5.14-16.4,6.77-24.47,6.77-24.47-3.36-4.49-6.9-3.9-6.9-3.9s-5.85,2-10,1a15.83,15.83,0,0,1-4-1.81s-.62,0-1.17,0a63.14,63.14,0,0,0-4.45,8.58C161,70.91,166.47,70,166.33,77,166.23,82,160,83.7,160,83.7Z"/><path class="cls-20" d="M189.32,67.08a59.44,59.44,0,0,1-7,3.85,20.81,20.81,0,0,1-4.82,1,15.36,15.36,0,0,1-4.76-.63c-2.55-.68-5-1.77-7.6-2.19a10.64,10.64,0,0,0-1.26-.07c.5,1.83,1.7,3,2.24,5.3h.06c5.33,0,9.72,3.28,12.9,7.36a33.2,33.2,0,0,1,5,8.75C184.37,82,189.28,67.28,189.32,67.08Z"/><path class="cls-21" d="M167.7,33.07c-.89,2.1-.25,3-.37,3.85s-1,1-.74,2.68c.5,3.21,1.84,6,2.56,6.45a11,11,0,0,0,5.53,1.15c1.85-.31,6.41-1.82,7.76-4.67a8.31,8.31,0,0,0-3.92-11.08C174.37,29.48,169.48,28.84,167.7,33.07Z"/><path class="cls-12" d="M183.26,54.9c1.66.62,3-1.24,6.74.27,0,0-2.86-5.28-.75-13.85C190.51,36.17,192,25.78,177,26.45c-6.3.28-10.21,2.15-9.88,9.18a9.79,9.79,0,0,1,2.62-3.35,12,12,0,0,0,1.71-1.64c-.08.78.62,1.2,1.47,2.14,1.11,1.23,3.64,2.75,4,5.86C178.49,53.09,179.63,53.53,183.26,54.9Z"/><path class="cls-13" d="M152.69,87.41a11.07,11.07,0,0,0-2.67-1.7c0,.05-1.06,1.35-1.09,1.4-.34.56-1.5.67-2.11.92a11.19,11.19,0,0,0-3.1,2.25c-.56.5-1.61,4.86-.86,5,2.33.27,2.2-3.85,4.06-3.93,2.72-.13-.29.57-.16,2,0,.4.16.62.62,0,.89-1.18,3.4-.37,4.26-4.59C151.75,88.4,152.76,87.49,152.69,87.41Z"/><path class="cls-13" d="M166.86,77a27.2,27.2,0,0,0-3.34-.74,17.68,17.68,0,0,0-3.27.19c-3,1.07-4.32.2-4.4.71-.15.9,2.87.49,2.56,1.11s-.9,1.76-4.49,3c-.52.18-1,.09-1,.73a.37.37,0,0,0,.48.33h0l1.41-.35c.24,0-.94.76-1.14.9a.4.4,0,0,0,.1.69.42.42,0,0,0,.39.43,4.9,4.9,0,0,0,2.18-.66,14.88,14.88,0,0,1,1.95-.68,16.41,16.41,0,0,1-1.65.9c-.39.19-.07.76.32.66a13.45,13.45,0,0,0,4.53-2.13A12,12,0,0,0,163,80.87a5.53,5.53,0,0,0,.62-.67c.42-.52,3-.13,3-.13Zm-10,.12a.06.06,0,0,0,0,0l-.08,0Zm.83-.06-.08,0,.11,0h0Z"/><path class="cls-8" d="M166.56,81s24.27,7.07,25.21,3.48c1.95-7.42,2.48-27.43-1.08-29.21s-6.19,2-5.77,6.72c0,0,1.37,14.64.36,16.17-.66,1-18.94-1.16-18.39-1.5Z"/><path class="cls-13" d="M84.87,32.82c-1,.58-.82.93-1.56,1.83,0,0-3.27.26-4.1.25a13.84,13.84,0,0,1-4.62-1.12c-.89-.31-4.15-4.83-3.34-5.28,2.56-1.42,4.36,3.37,6.53,2.6,3.19-1.15-.6-.53-1.11-2.19-.14-.48-.11-.78.72-.28,1.58.94,4.08-1.18,7.07,3.27l.75.77A2.07,2.07,0,0,0,84.87,32.82Z"/><polygon class="cls-1" points="85.04 113.8 83.4 114.84 86.56 79.14 89.76 77.15 85.04 113.8"/><polygon class="cls-2" points="86.55 79.14 83.34 77.22 81.82 113.91 83.39 114.84 86.55 79.14"/><polygon class="cls-3" points="110.05 128.92 108.4 129.92 111.12 94.43 114.32 92.44 110.05 128.92"/><polygon class="cls-2" points="111.12 94.43 107.91 92.5 106.83 128.99 108.4 129.92 111.12 94.43"/><polygon class="cls-3" points="141.87 109.84 140.23 110.89 135.55 78.03 138.75 76.04 141.87 109.84"/><polygon class="cls-2" points="135.53 78.03 132.33 76.1 138.65 109.96 140.22 110.89 135.53 78.03"/><polygon class="cls-3" points="138.87 77.21 111.11 94.67 83.34 77.21 83.34 74.64 138.87 74.64 138.87 77.21"/><polygon class="cls-2" points="111.11 94.67 83.34 77.21 83.34 74.64 111.11 89.05 111.11 94.67"/><polygon class="cls-4" points="138.87 74.64 111.11 92.1 83.34 74.64 111.11 57.8 138.87 74.64"/><polygon class="cls-5" points="143.43 20.75 141.48 20.75 115.35 4.25 117.87 4.25 143.43 20.75"/><path class="cls-3" d="M138.85,74.7,136.69,76s-5.39-25.71-4.5-32.89c.79-6.35,9.29-22.4,9.29-22.4h2a107.49,107.49,0,0,0-4.56,26.56C138.48,56.93,138.85,74.7,138.85,74.7Z"/><path class="cls-2" d="M136.69,76s0-16.06.11-23.36c.37-25.61,4.68-31.93,4.68-31.93l-22-13.91V6.77l0,0-2-1.25h0l-1.94-1.22h0l-.13-.09s-5.1,8.15-5.3,35.14c-.1,12.28-.29,19.72-.29,19.72l0,.68,25.15,15.59-.07-1.92L135,75Z"/><path class="cls-6" d="M136.27,74c0,1.89-2.94,3.23-9.59,7.26-4.64,2.81-10.75,7.82-15.57,7.8-2.94,0-11.21-5-14.67-7.08-7-4.3-13.52-5.76-13-9.4.51-3.83,4.27-3.66,9.22-6,14.11-6.81,14.57-10.61,20.54-8.06,4.69,2,14.08,7.89,18.3,9.88C134.17,69.63,136.27,70.2,136.27,74Z"/><path class="cls-7" d="M128.7,77.5c-4.56,2.52-8.5,6.17-13.74,7.24-6.12,1.24-11.14-2.22-16.08-5.35-4.69-3-10.43-5.26-14.39-9.23a4.13,4.13,0,0,0-1.09,2.41c-.48,3.64,6.08,5.1,13,9.4,3.46,2.13,11.73,7.07,14.67,7.08,4.82,0,10.93-5,15.57-7.8,6.65-4,9.59-5.37,9.59-7.26a6.9,6.9,0,0,0-.21-1.82A26.89,26.89,0,0,1,128.7,77.5Z"/><path class="cls-22" d="M82.4,34.78S96.78,51.38,103,51.37c2.89,0,14.89-20.14,12.87-23.57s-5.21-1.17-7.27,3.1c-1.75,3.63-4.86,12.13-6.54,12.86C101,44.25,84.55,32.05,85.2,32.07Z"/><path class="cls-9" d="M77.64,77.47l20.21-6.65L92.41,86.46s-2.77.52-8.52-2.58C75.73,79.48,77.64,77.47,77.64,77.47Z"/><path class="cls-10" d="M68.13,122.52a4.17,4.17,0,0,0,1-3.84l-3.37-2.8c-1.31-.71-2.39-1.49-4.58.22-.66.52-1.22,2-4.07,4.46-2.07,1.77-5.22,1.31-5.39,2.27,0,0,4,2,6.51,3,2.74.27,4.48-3.38,6.63-3.81s-1.21,5.64-1.31,5.74l.56.19S67.17,123.66,68.13,122.52Z"/><path class="cls-11" d="M115.26,78.59c-.05-2.3-9.09-8.3-10-10.63-10.63.48-21.58,5-28.11,11.22-3.6,3.41-5.25,12.29-13.18,35.26-.49,1.44-2.56,2.45-3.43,3.38-2,2.12-4.27,4.27-4.27,4.27s5.24-3.43,6.82-4.09a6.61,6.61,0,0,1,3.48-.35,4.47,4.47,0,0,1,2.5,1,3.81,3.81,0,0,1-.12-2.09c3.84-14.34,13.26-16.19,12.84-27.3-.23-6.29,9.36-10.32,20.59-8.7,0,0,6.77-1.76,7-1.9C111.59,77.42,115.29,80,115.26,78.59Z"/><path class="cls-10" d="M87.76,126.78A4.13,4.13,0,0,0,87,122.9l-4.24-1.08c-1.49-.08-2.8-.31-4,2.17-.38.76-.23,2.36-1.76,5.78-1.11,2.48-4.16,3.42-3.89,4.37,0,0,4.5.1,7.18-.07,2.59-.94,2.6-5,4.35-6.29s1.32,5.61,1.28,5.75l.59-.08S87.39,128.22,87.76,126.78Z"/><path class="cls-13" d="M111.44,66.86a21,21,0,0,0-4.4-5.77C97.66,66.09,79.13,78.77,79.4,86c.18,5,1.75,18.82,1.14,35.26-.06,1.52-1.27,3.31-1.66,4.52-.89,2.77-2,5.7-2,5.7s3.25-5.36,4.39-6.63a6.69,6.69,0,0,1,3-1.81,4.42,4.42,0,0,1,2.68-.18,2.54,2.54,0,0,1-1-1.84c1.36-17.5,6-22,2.74-30.9-2.14-5.92,9.7-6.21,20.53-9.58.15-.22-.53-3-.38-3.18A40.66,40.66,0,0,0,113,70.77,27.66,27.66,0,0,0,111.44,66.86Z"/><path class="cls-14" d="M78.17,129.11q0-.72.09-1.44c-.72,2.08-1.39,3.83-1.39,3.83s.55-.92,1.28-2.08C78.16,129.32,78.16,129.22,78.17,129.11Z"/><path class="cls-15" d="M88.67,90.14c-1.26-3.49,2.34-5,7.72-6.38-.35,0-.69.06-1,.1a32.47,32.47,0,0,0-7.25,1.93c-.16.16-.31.33-.46.5a6.32,6.32,0,0,0-.47.79,5.84,5.84,0,0,0-.22.82,7.84,7.84,0,0,0,0,1.37c.34,1.92,1.16,3.72,1.6,5.62A13,13,0,0,1,89,98.46a34,34,0,0,1-.42,3.77,61.37,61.37,0,0,1-1.4,6.32c-.55,2.08-1.14,4.14-1.61,6.24-.43,1.95-.71,3.94-1,5.92-.11.78-.21,1.57-.3,2.35a4.42,4.42,0,0,1,2.68-.18,2.54,2.54,0,0,1-1-1.84C87.29,103.54,91.89,99,88.67,90.14Z"/><path class="cls-16" d="M92.41,86.46s39.79-3.53,34.13-23.33c-1.55-5.39-18-6.32-23.53-5.21C95.6,59.41,77.64,77.47,77.64,77.47,85.45,76.35,92.41,86.46,92.41,86.46Z"/><path class="cls-17" d="M112.78,67.34c-2.63-.79-5.33-1.31-8-2a17.88,17.88,0,0,1-3.88-1.49,8.42,8.42,0,0,1-1.7-1.2l-.29,0a4.57,4.57,0,0,1-.42,1.07,4.07,4.07,0,0,1-.4.59,7.37,7.37,0,0,1-1.65,1.83A25.07,25.07,0,0,1,94,67.93l-1.39,1.23c-1.27,1.13-2.56,2.24-3.79,3.42l-1.06,1a32.45,32.45,0,0,1,9.86-5.83,23.38,23.38,0,0,1,8.54-1.23,19.28,19.28,0,0,1,4.84.79c.61.18,1.2.38,1.8.58s1.38.17,2.07.3c.5.09,1,.2,1.49.33C115.19,68.11,114,67.7,112.78,67.34Z"/><path class="cls-17" d="M117.12,78.22A107,107,0,0,1,104.6,82c-4.41,1.19-8.9,2.06-13.4,2.86.77.93,1.21,1.56,1.21,1.56s20-1.77,29.6-9.85c-.3.14-.61.27-.92.39A24.26,24.26,0,0,1,117.12,78.22Z"/><path class="cls-11" d="M125.48,27c.62.62,4,.9,3.44,1.26-1.11.69-7.3,1.78-8.11,1.85-1.12.1-7.26-2.92-7.26-2.92s2.73-.43,2.85-1.38c.17-1.34.25-2,.3-2.77.08-1.23,0-4.52,0-4.52L125,16.47S123.5,25,125.48,27Z"/><path class="cls-16" d="M103,57.92a30.93,30.93,0,0,1,8.33,3.27,76.82,76.82,0,0,1,10.89,6.88l4.86-1.14s-.3-6.89.89-10.67c5.15-16.4,6.78-24.48,6.78-24.48-3.37-4.48-6.91-3.89-6.91-3.89a37.65,37.65,0,0,1-10,1c-3.64-.34-3.42-2.47-3.42-2.47a6.69,6.69,0,0,1-1.78.69,64.57,64.57,0,0,0-4.45,8.58c-4.15,9.48,1.31,8.55,1.17,15.52C109.29,56.22,103,57.92,103,57.92Z"/><path class="cls-17" d="M132.39,41.3a58.91,58.91,0,0,1-7.06,3.85,21.34,21.34,0,0,1-4.82,1,15.4,15.4,0,0,1-4.76-.63c-2.54-.68-5-1.77-7.6-2.2q-.63-.06-1.26-.06c.5,1.83,1.7,3.05,2.24,5.3h.06c5.33,0,9.72,3.28,12.9,7.36a33.59,33.59,0,0,1,5,8.74C127.43,56.17,132.34,41.5,132.39,41.3Z"/><path class="cls-13" d="M110.76,7.29c-.88,2.1-.24,3-.37,3.85s-1,1-.74,2.68c.5,3.2,1.85,6.05,2.56,6.45a11.12,11.12,0,0,0,5.53,1.15c1.85-.31,6.41-1.82,7.77-4.67a8.32,8.32,0,0,0-3.93-11.08C117.44,3.7,112.55,3.06,110.76,7.29Z"/><path class="cls-23" d="M118.88,24.55c.26-.67,9.47-.29,10.11-.9,4.78-4.54,4.18-14,.66-20.89l-.06-.12A15.22,15.22,0,0,0,120,0c-6.29.28-9.75,2.9-10.4,10.62A51.8,51.8,0,0,0,116,9.51a19.18,19.18,0,0,0,5.27-2.34C120.35,16.46,120.69,21.44,118.88,24.55Z"/><path class="cls-13" d="M104.7,42.81s-1.76-.62-2.2-1.51a26.16,26.16,0,0,1-1.14-2.46A4.71,4.71,0,0,0,101,38a11.78,11.78,0,0,0-.88-1.69,13.83,13.83,0,0,0-3.36-3.71c-.32-.24-.84.17-.55.49s-1.4-1.11-2.12-1.36a.41.41,0,0,0-.52.25.4.4,0,0,0-.36.59c.13.21-.38.88,0,1.33a14.6,14.6,0,0,1,2.63,4.71c.42,2.41,2.66,4.56,4.15,5.75a8.32,8.32,0,0,0,2.79,1ZM93.93,39H94v0Zm.84.51h0l-.1-.06h.09Z"/><path class="cls-24" d="M102.07,45.44s20.32,16.11,22.51,13.11c4.51-6.2,12.3-24.65,9.62-27.6s-6.49-.39-7.81,4.16c0,0-4.06,14.13-5.55,15.19-1,.7-17.22-8-16.58-8.09Z"/><polygon class="cls-3" points="31.48 138.18 29.33 139.48 29.33 67.66 33.64 65.05 31.48 138.18"/><polygon class="cls-2" points="29.33 67.66 25.02 65.05 27.17 138.18 29.33 139.48 29.33 67.66"/><polygon class="cls-3" points="192.43 180.94 190.28 182.24 190.28 110.42 194.59 107.82 192.43 180.94"/><polygon class="cls-2" points="190.28 110.42 185.97 107.82 188.12 180.94 190.28 182.24 190.28 110.42"/><polygon class="cls-3" points="145.2 211.16 143.05 212.46 143.05 140.64 147.36 138.03 145.2 211.16"/><polygon class="cls-2" points="143.05 140.64 138.74 138.03 140.89 211.16 143.05 212.46 143.05 140.64"/><polygon class="cls-25" points="25.02 65.05 14.21 113.94 35.83 113.94 25.02 65.05"/><polygon class="cls-25" points="194.59 107.82 199.77 156.7 209.45 154.31 194.59 107.82"/><polygon class="cls-26" points="194.59 107.66 143.05 140.64 25.02 65.05 72.31 35.95 194.59 107.66"/><polygon class="cls-27" points="143.05 140.64 133.5 186.66 19.94 113.94 25.02 65.05 143.05 140.64"/><polygon class="cls-27" points="199.77 156.7 145.06 189.52 143.05 140.64 194.59 107.66 199.77 156.7"/><path class="cls-28" d="M143.05,140.64l-10.81,48.88s3.56,3.35,10.81,3.35c7.9,0,10.81-3.35,10.81-3.35Z"/><path class="cls-29" d="M73.07,70.25c.08,4.74-6.13,8.69-13.88,8.83S45.09,75.49,45,70.75s6.13-8.69,13.87-8.83S73,65.51,73.07,70.25Z"/><path class="cls-30" d="M69.75,70.31c.06,3.62-4.68,6.63-10.6,6.74s-10.76-2.74-10.83-6.36S53,64.05,58.92,64,69.69,66.69,69.75,70.31Z"/><path class="cls-29" d="M142.92,110.57c.08,4.74-6.13,8.69-13.88,8.83s-14.1-3.59-14.19-8.33,6.13-8.69,13.88-8.83S142.83,105.84,142.92,110.57Z"/><path class="cls-30" d="M139.6,110.63c.06,3.62-4.68,6.64-10.6,6.74s-10.76-2.74-10.83-6.36,4.68-6.63,10.6-6.74S139.54,107,139.6,110.63Z"/><path class="cls-31" d="M46.31,151.12l4.35,1.7.17,7s-2.4-.68-3-1.44C47,157.26,46.31,151.12,46.31,151.12Z"/><path class="cls-10" d="M43.68,152.15a4.15,4.15,0,0,1,1-3.83l4.3-.86c1.49,0,2.28,2,3.39,4.58.34.77.23.64,1.58,4.14,1,2.53,3.16,1.6,2.84,2.53a14,14,0,0,1-6,1.12c-2.54-1.07-1.06-5.59-2.74-7s-1.46,6.49-1.43,6.63l-.58-.1S44,153.61,43.68,152.15Z"/><path class="cls-32" d="M25.83,99.22c1.14-2,3,5.46,4.92,3.85,9.84.94,28.24-3.51,28.61,6.31.19,5-8.88,19.26-9.14,35.71,0,1.52,2.74,8.52,2.74,8.52-4.1-6.57-7.36-5.46-8.25-5.31a10.4,10.4,0,0,0,1-3.43c-.43-17.55-2.16-22.32,4.13-31.87,3.46-5.25-13.14,2.08-23.78-1.86-.14-.23.08-7.74-.06-8-1.36-2.14-4.88,1.17-5.78-1.2C20.78,100.65,25.13,100.45,25.83,99.22Z"/><path class="cls-33" d="M49.54,153.56l4.32,1.8v7s-2.38-.73-2.94-1.51C50.1,159.72,49.54,153.56,49.54,153.56Z"/><path class="cls-34" d="M46.89,154.52a4.15,4.15,0,0,1,1.09-3.8l4.31-.75c1.49,0,2.23,2.07,3.28,4.65.32.78.22.65,1.48,4.17.92,2.56,3.12,1.68,2.79,2.6a13.89,13.89,0,0,1-6,1c-2.51-1.13-.93-5.61-2.57-7.06s-1.62,6.47-1.59,6.61l-.58-.12S47.15,156,46.89,154.52Z"/><path class="cls-13" d="M30.32,101.18c1.19-2,4.53,5.18,6.49,3.61,9.81,1.18,26.74-.91,26.71,7.23,0,5-4.53,13.35-9.92,35.6-.36,1.48,2.54,8.58,2.54,8.58-4-6.66-7.24-5.63-8.13-5.5a10.12,10.12,0,0,0,1.13-3.41c0-17.55-1.54-22.54,4.82-31.88,3.54-5.19-13.09,1.87-23.64-2.31-.13-.24.27-7.74.13-8-1.31-2.18-4.91,1.06-5.75-1.34C25.24,102.49,29.6,102.38,30.32,101.18Z"/><polygon class="cls-3" points="61.57 161.32 59.93 162.37 55.25 129.5 58.45 127.51 61.57 161.32"/><polygon class="cls-2" points="55.24 129.5 52.03 127.58 58.35 161.43 59.92 162.37 55.24 129.5"/><polygon class="cls-3" points="58.57 128.68 30.81 146.14 3.04 128.68 3.04 126.12 58.57 126.12 58.57 128.68"/><polygon class="cls-4" points="58.57 126.12 30.81 143.58 3.04 126.12 30.81 109.28 58.57 126.12"/><path class="cls-6" d="M57.19,125.12c-.14,1.88-4.16,3.58-10.81,7.6-4.64,2.82-9.13,7-15.92,6.67-2.93-.15-10.57-6.12-14-8.25-7-4.3-9.56-4.23-10.15-7.85-.53-3.31,1.07-4.05,5.42-6.06,5-2.31,15.44-10,20.8-7.44,4.6,2.21,14.22,7,18.67,8.41C53.2,118.85,57.6,119.48,57.19,125.12Z"/><path class="cls-7" d="M26.53,134.74c-9-6-20.56-10.39-18.29-15.78a3.64,3.64,0,0,0-2,4.33c.59,3.62,3.18,3.55,10.15,7.85,3.46,2.13,11.1,8.1,14,8.25,6.79.36,11.28-3.85,15.92-6.67,6.65-4,10.67-5.72,10.81-7.6a7.29,7.29,0,0,0-.28-2.81C53.6,127.21,33.14,139.18,26.53,134.74Z"/><path class="cls-35" d="M36.16,81.24c0,4.23-1,11.35-5.35,10.85-2.57-.29-4.67-3.43-4.67-7.66s2.09-7.66,4.67-7.66S36.16,77,36.16,81.24Z"/><path class="cls-36" d="M31.39,104.32S6.25,106.92,6,103.21c-.58-7.64,2.5-27.43,6.33-28.53C16,73.62,18,77.76,16.74,82.33c0,0-5.51,15.88-4.79,17.57.47,1.11,20.37.53,19.89.1Z"/><path class="cls-37" d="M25.22,50.46H25.1a.82.82,0,0,1,.22,0h-.1Z"/><path class="cls-37" d="M23.11,76.09c-.95,0-2.26-6.72-4.32-15.29-.7-2.94-1.48-7.57.64-10.89a1.91,1.91,0,0,0,1.2.44c.91,0,1.82,0,2.73,0,.41,0,.82,0,1.22.06l.64.05h.18a12.32,12.32,0,0,1,2.25.55l.21.09.49.24.52.32c.27.23.2.16.11.08l0,0a7.5,7.5,0,0,1,.85.84l.17.22a3.37,3.37,0,0,1,.19.32c.18.49.3,1,.45,1.5a6.13,6.13,0,0,0,.61,1.41,2.74,2.74,0,0,0-1,1.69"/><path class="cls-38" d="M17,74.7c-.61.62-4,.9-3.44,1.26,1.11.69,7.31,1.77,8.12,1.85,1.12.1,7.25-2.92,7.25-2.92s-2.73-.43-2.85-1.38c-.17-1.34-.25-2-.3-2.77-.08-1.23,0-4.52,0-4.52l-8.31-2.09S18.94,72.7,17,74.7Z"/><path class="cls-16" d="M33.26,98.85c-.13-6.07,4.4-6.43,2.15-11.8,0,0-2.1,2.13-3.92.39s-1.71-6-.21-8.16a3.26,3.26,0,0,1,3.9-1.45c-2.06-1.74-6.38-3.11-6.38-3.11a15.87,15.87,0,0,1-4,1.81C20.64,77.61,10.37,75,10.37,75A29.86,29.86,0,0,0,12,87.64c1.7,5,3.73,6.92,5,14.31.35,2-.05,5.26-.52,8a3.35,3.35,0,0,0-.41.88,13.71,13.71,0,0,0-.55,3.78v0h0c.1,16.46,42.36,8.56,42.36,8.56s3-5.74,2-10.75C58.73,107,46,101.25,46,101.25S33.36,103.9,33.26,98.85Z"/><path class="cls-17" d="M28.83,115.8c-6.44-12.19,2.88-27.26-5-39.16C19.39,77.33,10.15,75,10.15,75a30,30,0,0,0,1.66,12.66c1.69,5,3.72,6.92,5,14.3a27.66,27.66,0,0,1-.51,8,3.44,3.44,0,0,0-.41.87,13.77,13.77,0,0,0-.55,3.78v0h0c.07,10.56,16.61,10.91,28.46,9.8C37.46,123.69,31.75,121.33,28.83,115.8Z"/><path class="cls-18" d="M31.67,55c.89,2.1.25,3,.37,3.84s1,1.06.74,2.69c-.49,3.2-1.84,6.05-2.56,6.45a11.1,11.1,0,0,1-5.53,1.15c-1.85-.31-6.4-1.82-7.76-4.67a8.31,8.31,0,0,1,3.92-11.08C25,51.35,29.89,50.72,31.67,55Z"/><path class="cls-39" d="M22.59,84.66c-1.66.63-16.47,2.86-14.27-4.48,0,0,3.91-8.41,1.81-17C8.86,58.05,7.38,47.66,22.34,48.32c6.3.28,10.21,2.15,9.88,9.19l-2.53-2.64C31.53,73.37,26.61,83.15,22.59,84.66Z"/><g class="cls-40"><path class="cls-41" d="M11.74,81.75c5.48.76,10.66-.89,11.59-6.76a3.73,3.73,0,0,1,.28-.95,36.49,36.49,0,0,0-.77-12c-1-4.38-2.29-9.14,1.75-12.45a8.9,8.9,0,0,1,1.26-.84,23.92,23.92,0,0,0-3.5-.4c-15-.66-13.49,9.73-12.22,14.88,2.1,8.57-1.81,17-1.81,17a4.14,4.14,0,0,0-.16,2A6.91,6.91,0,0,1,11.74,81.75Z"/></g><path class="cls-18" d="M66.27,71.62c-.14-.74-4.4.64-4.86,1.24a11.14,11.14,0,0,0-2,3.26A9.66,9.66,0,0,1,58.89,78s-4,4.33-4.1,4.43c-2.12,2.53-4,5-5.34,6.76h0c-2.87-2.07-7.22-6.32-8.89-7.54-5.66-4.15-7.86-5.46-10.12-1.27-2,3.67,3.07,5.89,14,12.74.73.46,5,2.84,6.32,2.52s4.16-4.28,5.39-6.28c.3-.48,4-8.53,4.23-8.77a20.49,20.49,0,0,0,2.55-3.84C63.06,76.45,66.69,73.77,66.27,71.62Z"/><polygon class="cls-1" points="4.68 165.27 3.04 166.32 6.21 130.61 9.41 128.62 4.68 165.27"/><polygon class="cls-2" points="6.19 130.61 2.99 128.69 1.46 165.38 3.03 166.32 6.19 130.61"/><polygon class="cls-3" points="29.69 180.39 28.04 181.39 30.76 145.9 33.97 143.91 29.69 180.39"/><polygon class="cls-2" points="30.76 145.9 27.56 143.98 26.47 180.46 28.04 181.39 30.76 145.9"/><polygon class="cls-2" points="30.75 146.14 2.99 128.68 2.99 126.11 30.75 140.52 30.75 146.14"/><path class="cls-3" d="M32.92,142.24l-2.16,1.33L28.08,89.74,30,88.26a128,128,0,0,1,3.63,27.66C33.84,125.54,32.92,142.24,32.92,142.24Z"/><polyline class="cls-3" points="1.8 75.31 0.13 72.16 30.02 88.26 29.95 90.32"/><polygon class="cls-5" points="30.02 88.26 28.07 89.74 0 72.08 2.06 70.84 30.02 88.26"/><path class="cls-2" d="M30.76,143.57s.88-21.4.88-28.69a107.66,107.66,0,0,0-3.56-25.14l-24-15.07V74.6l-.05,0-2-1.25h0L.13,72.16h0L0,72.08s5.34,9.16,5.2,33.05c0,8.78-2.22,21-2.22,21l.85.53,0,.68L29,142.92,28.94,141l.08,1.48Z"/><path class="cls-31" d="M118.14,190l4.35,1.7.17,7s-2.4-.67-3-1.44C118.84,196.18,118.14,190,118.14,190Z"/><path class="cls-42" d="M115.51,191.06a4.14,4.14,0,0,1,1-3.83l4.3-.85c1.49,0,2.28,2,3.39,4.57.34.77.23.65,1.58,4.14,1,2.54,3.15,1.6,2.84,2.53a13.82,13.82,0,0,1-6,1.12c-2.54-1.07-1.06-5.58-2.74-7s-1.46,6.5-1.43,6.64l-.58-.11S115.8,192.52,115.51,191.06Z"/><path class="cls-43" d="M97.66,138.14c1.14-2,3,5.45,4.92,3.84,9.84,1,28.24-3.51,28.61,6.32.19,5-8.88,19.26-9.14,35.71,0,1.52,2.74,8.51,2.74,8.51-4.1-6.57-7.36-5.46-8.26-5.31a10,10,0,0,0,1.06-3.43c-.43-17.54-2.16-22.32,4.13-31.86,3.46-5.25-13.14,2.07-23.78-1.87-.14-.23.08-7.74-.06-8-1.36-2.14-4.88,1.18-5.78-1.2C92.61,139.57,97,139.36,97.66,138.14Z"/><path class="cls-33" d="M121.37,192.47l4.32,1.8v7s-2.38-.73-2.94-1.51C121.93,198.63,121.37,192.47,121.37,192.47Z"/><path class="cls-42" d="M118.72,193.44a4.16,4.16,0,0,1,1.09-3.81l4.31-.75c1.49,0,2.23,2.08,3.28,4.65.32.78.22.65,1.48,4.18.92,2.55,3.12,1.67,2.79,2.59a13.89,13.89,0,0,1-6,1c-2.51-1.13-.93-5.61-2.57-7.05s-1.62,6.46-1.59,6.6l-.58-.12S119,194.9,118.72,193.44Z"/><path class="cls-18" d="M102.15,140.09c1.19-2,4.53,5.18,6.49,3.62,9.81,1.17,26.74-.92,26.71,7.22,0,5-4.53,13.35-9.92,35.61-.36,1.48,2.54,8.58,2.54,8.58-4-6.67-7.24-5.64-8.13-5.51a10.14,10.14,0,0,0,1.13-3.4c0-17.55-1.54-22.54,4.82-31.88,3.54-5.2-13.09,1.87-23.64-2.32-.13-.23.27-7.74.13-8-1.31-2.17-4.91,1.06-5.75-1.33C97.07,141.41,101.42,141.3,102.15,140.09Z"/><polygon class="cls-3" points="133.4 200.24 131.76 201.28 127.08 168.42 130.28 166.43 133.4 200.24"/><polygon class="cls-2" points="127.07 168.42 123.86 166.5 130.18 200.35 131.75 201.28 127.07 168.42"/><polygon class="cls-3" points="130.4 167.6 102.64 185.06 74.88 167.6 74.88 165.03 130.4 165.03 130.4 167.6"/><polygon class="cls-4" points="130.4 165.03 102.64 182.49 74.88 165.03 102.64 148.19 130.4 165.03"/><path class="cls-6" d="M129,164c-.14,1.89-4.16,3.58-10.81,7.61-4.64,2.81-9.13,7-15.92,6.67-2.93-.16-10.57-6.12-14-8.26-7-4.29-9.56-4.22-10.15-7.85-.53-3.3,1.06-4,5.42-6.06,5-2.3,15.44-10,20.8-7.43,4.6,2.2,14.22,7,18.67,8.4C125,157.77,129.43,158.39,129,164Z"/><path class="cls-7" d="M98.36,173.65c-9-6-20.56-10.39-18.29-15.77a3.62,3.62,0,0,0-2,4.32c.59,3.63,3.18,3.56,10.15,7.85,3.46,2.14,11.1,8.1,14,8.26,6.79.36,11.28-3.86,15.92-6.67,6.65-4,10.67-5.72,10.81-7.61a7.34,7.34,0,0,0-.28-2.81C125.42,166.12,105,178.09,98.36,173.65Z"/><path class="cls-43" d="M125.19,116.2a10.92,10.92,0,0,0-3.63,1.19,9.72,9.72,0,0,1-1.61,1.1s-5.88.71-6,.74c-5.4.93-10.14,2.21-11.51,2.26-2.08.08-10.08-5.11-12.54-6.21-6.41-2.87-8.83-3.69-10.16.88-1.17,4,4.23,5.12,16.34,9.53,1,.38,3.77,1.1,4.92,1.43,1.38.4,2.13.66,9.51-1.74.53-.17,8.58-3.91,8.89-4,1.57-.26,9.24-1.12,10.31-3C130.08,117.73,125.93,116,125.19,116.2Z"/><path class="cls-44" d="M99.93,116c-1.31-.75-2.44-1.37-3.14-1.69-6.82-3-9.4-3.93-10.82.94-1,3.58,2.88,5,11.81,8.15C98.93,121,100.07,118.44,99.93,116Z"/><path class="cls-16" d="M108,120.16c0,4.23-1,11.34-5.35,10.85-2.57-.29-4.67-3.43-4.67-7.66s2.09-7.67,4.67-7.67S108,115.93,108,120.16Z"/><path class="cls-37" d="M97.05,89.37h-.12a.83.83,0,0,1,.22,0h-.1Z"/><path class="cls-37" d="M94.94,115c-1,0-2.26-6.71-4.32-15.29-.7-2.93-1.48-7.57.64-10.88a1.9,1.9,0,0,0,1.2.43c.91,0,1.82,0,2.73,0,.41,0,.82,0,1.22,0l.64.05.1,0h.08a12.3,12.3,0,0,1,2.25.54l.21.1a3.58,3.58,0,0,1,.48.24,5.74,5.74,0,0,1,.53.32c.27.22.2.16.11.08l0,0a6.67,6.67,0,0,1,.85.83c.06.07.11.15.16.22a2.23,2.23,0,0,1,.2.33c.18.48.29,1,.44,1.49a6,6,0,0,0,.62,1.41,2.73,2.73,0,0,0-1,1.7"/><path class="cls-38" d="M88.78,113.61c-.61.63-4,.9-3.44,1.26,1.11.69,7.31,1.78,8.12,1.85,1.12.11,7.25-2.91,7.25-2.91s-2.73-.44-2.85-1.39c-.17-1.34-.25-2-.3-2.77-.08-1.23,0-4.52,0-4.52L89.22,103S90.77,111.61,88.78,113.61Z"/><path class="cls-42" d="M105.09,137.77c-.13-6.07,4.4-6.44,2.15-11.81a12.91,12.91,0,0,0-2.58-3.32c-1.71-1.65-3-2.32-1.55-4.45a3.1,3.1,0,0,1,4.13-1c-1.32-2.21-6.61-3.57-6.61-3.57a15.64,15.64,0,0,1-4,1.8c-4.14,1.09-14.42-1.54-14.42-1.54a30,30,0,0,0,1.66,12.66c1.7,5,3.73,6.91,5,14.3.35,2-.05,5.27-.52,8a3.15,3.15,0,0,0-.41.87,13.71,13.71,0,0,0-.55,3.78v0h0c.11,16.45,42.37,8.55,42.37,8.55s3-5.73,2-10.75c-1.16-5.42-13.87-11.16-13.87-11.16S105.19,142.81,105.09,137.77Z"/><path class="cls-45" d="M100.66,154.72c-6.44-12.2,2.88-27.26-5-39.16-4.48.68-13.72-1.68-13.72-1.68a30,30,0,0,0,1.66,12.66c1.69,5,3.72,6.91,5,14.3a27.66,27.66,0,0,1-.51,8,2.89,2.89,0,0,0-.41.87,13.71,13.71,0,0,0-.55,3.78v0h0c.07,10.56,16.61,10.9,28.46,9.8C109.29,162.61,103.58,160.24,100.66,154.72Z"/><path class="cls-18" d="M103.5,93.86c.89,2.1.25,3,.37,3.85s1,1.05.74,2.68c-.49,3.21-1.84,6-2.56,6.45A11,11,0,0,1,96.52,108c-1.85-.31-6.41-1.82-7.76-4.67a8.31,8.31,0,0,1,3.92-11.08C96.83,90.27,101.72,89.63,103.5,93.86Z"/><path class="cls-46" d="M94.42,123.58c-1.66.62-16.47,2.85-14.27-4.48,0,0,3.91-8.42,1.81-17C80.69,97,79.21,86.57,94.17,87.24c6.3.28,10.21,2.15,9.88,9.18l-2.53-2.63C103.36,112.28,98.44,122.06,94.42,123.58Z"/><path class="cls-47" d="M83.57,120.66c5.48.76,10.66-.89,11.59-6.76a3.66,3.66,0,0,1,.28-.94,36.56,36.56,0,0,0-.77-12c-1-4.37-2.29-9.14,1.75-12.44a7.46,7.46,0,0,1,1.26-.84,22.76,22.76,0,0,0-3.51-.4C79.21,86.57,80.69,97,82,102.11c2.1,8.57-1.81,17-1.81,17a4.1,4.1,0,0,0-.16,2A7.13,7.13,0,0,1,83.57,120.66Z"/><path class="cls-18" d="M146.71,128.85a10.78,10.78,0,0,0-3.8.4,10.42,10.42,0,0,1-1.81.75s-5.9-.55-6-.54c-5.47-.22-10.37,0-11.72-.2-2-.36-8.8-7.11-11-8.7-5.66-4.15-7.86-5.46-10.12-1.27-2,3.67,3.07,5.89,14,12.75.93.58,3.46,1.86,4.51,2.42,1.27.69,1.95,1.09,9.67.29.55-.05,9.21-2,9.53-2a20,20,0,0,0,4.59-.33c.34-.06,4.67,1.18,6.12-.47C151.16,131.37,147.46,128.84,146.71,128.85Z"/><path class="cls-42" d="M115.36,122.72c-1.12-1-2.09-1.86-2.71-2.31-6-4.42-8.37-5.81-10.77-1.35-1.78,3.28,1.76,5.49,9.84,10.44C113.34,127.39,115,125.15,115.36,122.72Z"/><polygon class="cls-1" points="76.51 204.18 74.88 205.23 78.03 169.53 81.23 167.54 76.51 204.18"/><polygon class="cls-2" points="78.02 169.53 74.82 167.61 73.29 204.29 74.86 205.23 78.02 169.53"/><polygon class="cls-3" points="101.52 219.3 99.87 220.31 102.59 184.81 105.79 182.82 101.52 219.3"/><polygon class="cls-2" points="102.59 184.81 99.39 182.89 98.3 219.37 99.87 220.31 102.59 184.81"/><polygon class="cls-2" points="102.58 185.05 74.82 167.59 74.82 165.03 102.58 179.44 102.58 185.05"/><path class="cls-3" d="M104.75,181.15l-2.16,1.34-2.68-53.84,1.94-1.48a128.11,128.11,0,0,1,3.63,27.66C105.67,164.45,104.75,181.15,104.75,181.15Z"/><polyline class="cls-3" points="73.63 114.23 71.96 111.08 101.85 127.17 101.78 129.24"/><polygon class="cls-5" points="101.85 127.18 99.9 128.66 71.83 110.99 73.89 109.75 101.85 127.18"/><path class="cls-2" d="M102.59,182.49s.88-21.4.88-28.7a107.66,107.66,0,0,0-3.56-25.14l-24-15.07v-.06l0,0-2-1.26h0L72,111.08h0l-.13-.08s5.34,9.16,5.2,33c0,8.78-2.22,21-2.22,21l.85.53,0,.68,25.15,15.59-.06-1.92.08,1.49Z"/><path class="cls-48" d="M77.53,73.46a2.28,2.28,0,0,0,.12-1.28,1.59,1.59,0,0,0-.16-.27h0a1.88,1.88,0,0,0-.25-.18,2.26,2.26,0,0,0-1.29,0,5.31,5.31,0,0,0-.68.2,5.72,5.72,0,0,0-1.15.7,2.91,2.91,0,0,0-.82,1,1.55,1.55,0,0,0-.12.37c-.07.43,0,.87-.08,1.33a3.46,3.46,0,0,1-.11.34l-.13.12c-1.2,1.12-2.67,2.31-4,3.44h0l-.15.12,0,0-.12.1,0,0-.12.1,0,0-.11.09-.06,0-.12.1,0,0-.17.14L66,81.55c-.43.36-.76.58-.62,1l0,0h0v0h0v0h0l0,0h0v0h0l0,0v0l0,0h0l0,0h0l0,0v0h0l0,0h0l0,0h0l0,0h0l0,0h.08l0,0c.36.17.61-.14,1-.53.56-.57,1.09-1.06,1.66-1.63l.14-.14,0,0,.09-.1.06,0,.09-.1.06,0,.1-.11,0,0,.3-.31h0c.87-.89,1.77-1.83,2.65-2.68h0l.13-.12h0l.52-.5c.2-.18.4-.37.6-.54l.35-.08c.46-.06.9.07,1.33,0a1.84,1.84,0,0,0,.38-.09,2.89,2.89,0,0,0,1-.73,6,6,0,0,0,.79-1.09A4.87,4.87,0,0,0,77.53,73.46Z"/><path class="cls-48" d="M52.69,57.49l0,0c-.12.08-1.12,1-1.59,1.41-.29.25-1,.87-1.06.93l-.1.05a.08.08,0,0,1-.08,0,.21.21,0,0,1,0-.1l.12-.16c.06,0,2.44-2.36,2.4-2.41l0-.06s-2.13,1.84-2.55,2.23h0l0,0-.06,0a.65.65,0,0,1-.22.11h0v0a.86.86,0,0,1,.13-.2s.05,0,.06-.06l0,0c.42-.4,2.45-2.32,2.43-2.34a.17.17,0,0,0-.05-.05s-2.19,1.81-2.56,2.13h0a.12.12,0,0,0-.05,0l-.17.11a.19.19,0,0,1-.1,0,.12.12,0,0,1,0-.08l0,0h0l0,0,0,0c.07-.08.75-.71,1-1,.45-.43,1.46-1.34,1.55-1.45s0,0,0,0a16,16,0,0,0-1.87,1.31c-.35.25-.68.52-1,.8l0,0,0,0-.22.21s-.32.33-.36.39h0a.74.74,0,0,0-.17.39c0,.19,0,.39-.06.58v0h0v0h0c0,.06,0,.17,0,.21l-.35.33h0c-1.21,1.12-2.67,2.31-4.06,3.44h0l-.15.12,0,0-.13.1,0,0-.12.1-.06.05-.11.09,0,0-.12.1-.05,0-.16.14-1.76,1.5c-.43.36-.76.58-.62,1,0,0,0,0,0,0h0v0h0v0h0l0,0v0l0,0h0l0,0v0l0,0h0l0,0h0v0l0,0h0l0,0h0l0,0h0l0,0h0l0,0h.08l0,0c.36.17.6-.14,1-.53.56-.57,1.09-1.06,1.65-1.63l.15-.14.05,0,.09-.1.06,0,.09-.1.05,0,.11-.11,0,0,.3-.31h0c.87-.89,1.77-1.82,2.65-2.68h0l.12-.12h0l.52-.5c.28-.26.55-.51.82-.74l.22,0h.06c.2,0,.39,0,.58,0a.79.79,0,0,0,.4-.13h0l.42-.33.22-.2,0,0a10.32,10.32,0,0,0,.92-.95A15.73,15.73,0,0,0,52.69,57.49Z"/><path class="cls-48" d="M70.28,85.57c.59-.6,1.15-1.13,1.75-1.73l.16-.15,0,0,.1-.11.06-.06.1-.1.06-.05.1-.12,0,0,.32-.33h0c.67-.7,1.37-1.41,2-2.1h0l6.46-5.92a.66.66,0,0,0,.16-.26.17.17,0,0,0,0-.14.24.24,0,0,0-.06-.11l-.05,0s0,0,0,0A.85.85,0,0,0,80.9,74a1.33,1.33,0,0,0-.51.2c-.46.29-.92.59-1.35.92s-.87.73-1.3,1.09-.88.72-1.3,1.1l-1,.85c-.33.29-.68.57-1,.88a2.33,2.33,0,0,0-.37.46.74.74,0,0,0,0,.53,5.15,5.15,0,0,1,0,.55.37.37,0,0,1,0,.16l0,0,0,0c-.67.54-.91.61-1.67,1.23h0l-.16.13,0,0-.14.11,0,.05-.12.1-.06,0-.12.09-.06,0-.12.11-.06,0-.17.14-1.87,1.61c-.46.38-.81.61-.66,1v.07h0v0h0l0,0h0l0,0v0l0,0h0l0,0h0l0,0v0h0v0h0l0,0h0l0,0h0l0,0h0l0,0h0l0,0h.05l0,0C69.59,86.32,69.85,86,70.28,85.57Z"/><path class="cls-48" d="M64.19,53.56a2.3,2.3,0,0,0-.28,1.25,1.24,1.24,0,0,0,.13.29h0a2,2,0,0,0,.23.22,2.28,2.28,0,0,0,1.28.16,4.27,4.27,0,0,0,.69-.11,6.31,6.31,0,0,0,1.24-.54,2.85,2.85,0,0,0,.94-.87,1.82,1.82,0,0,0,.17-.35c.12-.42.09-.87.24-1.31.08-.14.11-.25.15-.32l.15-.11c1.34-1,3-1.94,4.46-2.88h0l.17-.1,0,0,.13-.08.06,0,.12-.08.07,0,.12-.07.06,0,.13-.08,0,0,.18-.11L76.68,47c.48-.3.82-.47.74-.86v-.07h0v0h0v0h0v0h0l0,0v0l0,0v0h0l0,0h0v0l0,0h0v0h0l0,0v0l0,0h0l0,0h0l0,0h0l0,0c-.33-.22-.62,0-1.06.4l-1.85,1.39-.16.13-.05,0-.11.08-.06,0-.11.08-.06,0-.11.09-.05,0-.34.27h0c-1,.77-2,1.58-3,2.31h0l-.14.11h0l-.58.43-.66.46c-.09,0-.22,0-.36,0-.47,0-.88-.19-1.32-.22a2.22,2.22,0,0,0-.39,0,3,3,0,0,0-1.13.59,6.36,6.36,0,0,0-.93,1A4.92,4.92,0,0,0,64.19,53.56Z"/><path class="cls-48" d="M85.61,69.52s0,0,0,0,1.24-.84,1.76-1.18l1.18-.78.11,0a.09.09,0,0,1,.07,0,.19.19,0,0,1,0,.1,1,1,0,0,1-.15.14c-.06,0-2.73,2-2.7,2.07l0,.06s2.35-1.54,2.83-1.86h0l0,0,.06,0,.23-.08,0,0v0a1,1,0,0,1-.16.19l-.06,0,0,0c-.47.33-2.74,2-2.72,2l0,.06s2.42-1.5,2.82-1.77h0l.06,0,.18-.09h.1a.08.08,0,0,1,0,.08s0,0,0,0h0l0,0,0,0c-.08.07-.84.6-1.15.83-.5.37-1.62,1.14-1.73,1.23l0,0a15.65,15.65,0,0,0,2-1c.37-.21.74-.42,1.09-.66l0,0,0,0,.24-.18.41-.33h0a.71.71,0,0,0,.21-.36c.07-.19.08-.38.14-.57h0s0,0,0,0h0l.06-.2.39-.28h0c1.35-1,3-1.92,4.49-2.86h0l.17-.11,0,0,.14-.09,0,0,.13-.08.06,0,.12-.07.06,0,.13-.08.06,0,.18-.11c.67-.42,1.27-.83,2-1.25.47-.3.82-.47.74-.86v0h0v0h0v0h0v0h0v0h0v0h0l0,0v-.06h0v-.06l0,0h0l0,0h0l0,0h0l0,0h0l0,0h0l0,0h0l0,0c-.33-.21-.61.06-1.06.4-.63.48-1.22.9-1.86,1.38l-.16.13-.05,0-.11.08-.06.05-.11.08-.06,0-.12.08,0,0-.35.27h0c-1,.77-2,1.57-3,2.3h0l-.14.11h0l-.58.42c-.31.22-.62.44-.92.63h-.28a5.54,5.54,0,0,0-.57-.07.81.81,0,0,0-.42.07h0l-.47.27-.24.16,0,0c-.36.25-.7.53-1,.82A17.81,17.81,0,0,0,85.61,69.52Z"/><path class="cls-48" d="M73,42.49c-.67.51-1.3,1-2,1.49l-.17.13-.06,0-.11.09-.07,0-.11.09-.06,0-.12.1-.06,0-.36.28h0c-.76.6-1.54,1.22-2.31,1.81h0l-7.17,5a.44.44,0,0,0-.18.23.14.14,0,0,0,0,.14.22.22,0,0,0,0,.12l0,.06,0,.05a.83.83,0,0,0,.63.27,1.39,1.39,0,0,0,.53-.14c.49-.23,1-.46,1.46-.74s.95-.61,1.42-.91l1.44-.92,1.07-.72c.37-.24.75-.48,1.11-.75a2.72,2.72,0,0,0,.43-.4.81.81,0,0,0,.09-.53,3.41,3.41,0,0,1,0-.55.58.58,0,0,1,.06-.15h0l0,0c.73-.45,1-.49,1.82-1h0l.18-.11,0,0,.15-.09.06,0,.13-.08.07,0,.13-.09.06,0,.14-.08,0,0,.19-.12,2.07-1.35c.5-.32.88-.5.78-.92a0,0,0,0,0,0,0v-.18l0,0h0v0h0l0,0v0h0v0h0l0,0h0l0,0h0l0,0v0l0,0h0l0,0h0l0,0h0l0,0C73.72,41.83,73.42,42.12,73,42.49Z"/><ellipse class="cls-29" cx="83.91" cy="56.15" rx="14.03" ry="8.58" transform="translate(-0.98 1.5) rotate(-1.02)"/><path class="cls-30" d="M94.62,56c.06,3.62-4.68,6.64-10.6,6.74S73.26,60,73.19,56.34s4.68-6.63,10.6-6.74S94.56,52.35,94.62,56Z"/><path class="cls-48" d="M146.38,112.79a2.29,2.29,0,0,0,.12-1.28,1.07,1.07,0,0,0-.16-.27h0a1.57,1.57,0,0,0-.26-.19,2.23,2.23,0,0,0-1.28,0,4,4,0,0,0-.68.2,6.12,6.12,0,0,0-1.15.69,2.88,2.88,0,0,0-.82,1,1.71,1.71,0,0,0-.12.37c-.07.43,0,.88-.08,1.34-.06.14-.07.25-.11.33l-.13.12c-1.2,1.13-2.67,2.31-4.05,3.44h0l-.15.12,0,0-.12.11,0,0-.12.09-.05,0-.11.09-.06,0-.12.09-.05,0-.16.13c-.61.51-1.15,1-1.76,1.51-.43.36-.76.57-.62,1l0,0h0v0h0v0h0l0,0h0v0h0l0,0h0l0,0h0l0,0v0h0l0,0v0h0l0,0h0l0,0,0,0h0l0,0h0l0,0h0l0,0h0l0,0c.36.17.61-.13,1-.53.56-.56,1.09-1.06,1.66-1.63l.14-.14.05,0,.09-.09.06-.06.09-.09.06-.06.1-.1,0,0,.3-.31h0c.87-.89,1.77-1.82,2.65-2.68h0l.13-.12h0l.52-.49.6-.55c.08,0,.21,0,.35-.08.46,0,.9.08,1.33,0a2.61,2.61,0,0,0,.38-.08,3.12,3.12,0,0,0,1.05-.74,5.39,5.39,0,0,0,.79-1.09A4.9,4.9,0,0,0,146.38,112.79Z"/><path class="cls-48" d="M121.54,96.82l0,0c-.12.08-1.12,1-1.59,1.41-.29.25-1,.88-1.06.94l-.1.05-.08,0a.25.25,0,0,1,0-.11l.12-.15c.06-.06,2.44-2.37,2.4-2.42l0,0s-2.13,1.84-2.56,2.22h0l0,0-.06.06-.22.11h0v0a.74.74,0,0,1,.13-.21l.06,0,0,0c.42-.4,2.45-2.32,2.43-2.35l0,0s-2.19,1.82-2.56,2.13h0s0,0,0,0l-.17.11a.2.2,0,0,1-.11,0,.19.19,0,0,1,0-.08l0,0h0l0,0,0,0c.07-.08.75-.71,1-1,.45-.43,1.46-1.35,1.55-1.46s0,0,0,0a16,16,0,0,0-1.87,1.31,9.73,9.73,0,0,0-1,.8l0,0,0,0-.21.2s-.32.33-.36.39h0a.74.74,0,0,0-.17.39c0,.19,0,.38-.06.57v0h0v0h0c0,.06,0,.16,0,.21l-.35.33h0c-1.21,1.12-2.67,2.3-4.06,3.44h0l-.15.12,0,0-.13.11,0,0-.12.09-.06,0-.11.09-.05,0-.12.09,0,0-.16.13c-.61.51-1.15,1-1.76,1.51-.43.36-.76.57-.62,1,0,0,0,0,0,0h0v0h0v0h0v0h0l0,0h0l0,0h0l0,0h0l0,0v0h0v0l0,0h0l0,0h0l0,0v0h0l0,0h0l0,0h0l0,0h0l0,0c.36.17.6-.13,1-.53.56-.56,1.09-1.06,1.65-1.62l.15-.15,0,0,.1-.09.06-.06.09-.09,0-.06.11-.1,0-.05.3-.31h0c.87-.89,1.77-1.82,2.65-2.68h0l.12-.12h0l.52-.49.82-.75h.28c.2,0,.39,0,.58,0a.79.79,0,0,0,.4-.13h0l.42-.33.22-.19,0,0a11.76,11.76,0,0,0,.92-1A16.73,16.73,0,0,0,121.54,96.82Z"/><path class="cls-48" d="M139.12,124.89c.6-.59,1.16-1.12,1.76-1.72L141,123l.05-.05.1-.1.06-.06.1-.1.05-.06.11-.11.05,0,.32-.33h0c.67-.69,1.37-1.41,2.05-2.09h0l6.46-5.92a.47.47,0,0,0,.15-.25.16.16,0,0,0,0-.15.24.24,0,0,0-.06-.11l-.05-.05a.1.1,0,0,0,0,0,.83.83,0,0,0-.66-.19,1.22,1.22,0,0,0-.5.21c-.46.29-.92.58-1.36.91s-.86.73-1.29,1.09l-1.31,1.1-1,.85c-.33.29-.68.57-1,.88a2.33,2.33,0,0,0-.37.46.77.77,0,0,0,0,.54,3.35,3.35,0,0,1,0,.55.21.21,0,0,1,0,.15l0,0,0,0c-.67.55-.91.61-1.67,1.24h0l-.16.13,0,0-.14.11-.05,0-.12.1-.06,0-.12.1-.06,0-.12.1-.06,0-.17.15c-.65.54-1.23,1.06-1.87,1.6-.46.38-.81.62-.66,1v0h0V125l0,0h0l0,0h0l0,0h0l0,0h0l0,0v0h0l0,0v0h0l0,0h0l0,0h0l0,0h0l0,0H138l0,0h0l0,0C138.44,125.64,138.7,125.32,139.12,124.89Z"/><path class="cls-48" d="M133,92.88a2.32,2.32,0,0,0-.28,1.26,1.76,1.76,0,0,0,.13.29h0a1.17,1.17,0,0,0,.23.21,2.36,2.36,0,0,0,1.28.17,4.69,4.69,0,0,0,.69-.12,5.3,5.3,0,0,0,1.24-.54,3,3,0,0,0,.94-.86,1.86,1.86,0,0,0,.17-.36c.12-.41.09-.87.24-1.31.08-.14.11-.24.15-.32l.15-.1c1.34-1,2.95-1.94,4.46-2.89h0l.17-.1,0,0,.13-.09.06,0L143,88l.07,0,.12-.08.06,0,.13-.08,0,0,.18-.12c.67-.43,1.27-.84,1.94-1.26.48-.3.82-.48.74-.87v0h0v0h0v-.12l0,0h0l0,0h0v0l0,0h0v0l0,0h0v0l0,0h0l0,0v0h0v0h0l0,0h0l0,0c-.34-.21-.62.06-1.06.4-.63.49-1.22.91-1.85,1.4l-.16.12-.06,0-.1.09-.07,0-.1.08-.06,0-.12.09,0,0-.34.27h0c-1,.77-2,1.58-3,2.32h0l-.14.11h0l-.58.42-.66.47-.36,0c-.47,0-.88-.19-1.32-.21a2,2,0,0,0-.39,0,3.22,3.22,0,0,0-1.13.6,5.57,5.57,0,0,0-.93,1A5.93,5.93,0,0,0,133,92.88Z"/><path class="cls-48" d="M154.46,108.85l0,0c.12-.07,1.24-.84,1.76-1.19l1.18-.78a.23.23,0,0,1,.11,0,.09.09,0,0,1,.07,0,.41.41,0,0,1-.05.09l-.15.14c-.06,0-2.73,2-2.7,2.07l0,.06s2.35-1.54,2.83-1.86h0l0,0,.06,0a.7.7,0,0,1,.23-.08h0v0a.74.74,0,0,1-.16.19l-.06,0,0,0c-.47.34-2.74,2-2.72,2l0,.06s2.42-1.5,2.82-1.76h0l.06,0a.76.76,0,0,1,.18-.09l.1,0a.08.08,0,0,1,0,.08l0,0h0l0,0,0,0c-.08.07-.84.6-1.15.83-.5.37-1.62,1.14-1.73,1.24s0,0,0,0a16.34,16.34,0,0,0,2-1,12.15,12.15,0,0,0,1.09-.66l0,0,0,0,.24-.17s.35-.29.41-.34h0a.67.67,0,0,0,.21-.36c.07-.18.08-.38.14-.56v0h0s0,0,0-.05h0a1.52,1.52,0,0,0,.06-.2l.39-.28h0c1.35-.94,3-1.92,4.49-2.86h0l.17-.1,0,0,.14-.08,0,0,.13-.07.06,0,.12-.08.06,0,.13-.08.06,0,.18-.11,1.95-1.26c.47-.3.82-.47.74-.86v0h0v0h0v0h0v-.12l0,0h0v0l0,0h0v0h0l0,0h0l0,0h0l0,0h0l0,0h0l0,0h0l0,0c-.33-.22-.61.05-1.06.39-.63.48-1.22.9-1.86,1.39l-.16.12-.05,0-.11.08-.07,0-.1.08-.06,0-.12.09,0,0-.35.26h0c-1,.77-2,1.57-3,2.3h0l-.14.1h0l-.58.42-.92.63-.21,0h-.07c-.19,0-.38-.06-.57-.07a.72.72,0,0,0-.42.08h0c-.07,0-.5.3-.47.27l-.24.17,0,0a11.71,11.71,0,0,0-1,.82A17.48,17.48,0,0,0,154.46,108.85Z"/><path class="cls-48" d="M141.8,81.81c-.67.52-1.3,1-2,1.49l-.17.13-.06,0-.11.09-.07.05-.11.08-.06,0-.13.1-.05,0-.36.28h0L136.4,86h0l-7.17,5a.54.54,0,0,0-.18.23.16.16,0,0,0,0,.15.31.31,0,0,0,0,.12l0,0a.1.1,0,0,0,0,0,.83.83,0,0,0,.63.27,1.39,1.39,0,0,0,.53-.14c.49-.23,1-.46,1.46-.73s.95-.61,1.42-.92,1-.6,1.44-.92l1.07-.71c.37-.25.75-.48,1.11-.75a2.38,2.38,0,0,0,.43-.41.78.78,0,0,0,.09-.52,3.31,3.31,0,0,1,0-.55.47.47,0,0,1,.06-.15l0,0,0,0c.73-.46,1-.49,1.82-1h0l.18-.11,0,0,.15-.1.06,0,.13-.09.07,0,.12-.08.07,0,.14-.09.05,0,.19-.12c.72-.45,1.36-.89,2.07-1.34.5-.32.88-.51.78-.92v0h0v0h0v0h0v0h0v0l0,0v-.06l0,0v0h0v0h0l0,0h0l0,0v0l0,0h0l0,0v0h0v0h0l0,0C142.57,81.16,142.27,81.45,141.8,81.81Z"/><ellipse class="cls-29" cx="152.76" cy="95.48" rx="14.03" ry="8.58" transform="translate(-1.67 2.73) rotate(-1.02)"/><path class="cls-30" d="M163.47,95.29c.06,3.61-4.68,6.63-10.6,6.74S142.11,99.28,142,95.67s4.68-6.64,10.6-6.74S163.41,91.67,163.47,95.29Z"/></g></g></svg>