<svg xmlns="http://www.w3.org/2000/svg" viewBox="0 0 235.27 252.59"><defs><style>.cls-1{fill:#826151;}.cls-2{fill:#4c3528;}.cls-3{fill:#a87b69;}.cls-4{fill:#fffbf3;}.cls-5{fill:#c61022;}.cls-6{fill:#f21c27;}.cls-7{fill:#d1091d;}.cls-8{fill:#ff3b4e;}.cls-9{fill:#efe2a0;}</style></defs><title>Bar lights</title><g id="Layer_2" data-name="Layer 2"><g id="_ÎÓÈ_3" data-name="—ÎÓÈ_3"><polygon class="cls-1" points="148.37 148.93 135.91 140.4 137.97 139.2 147.54 153.51 148.37 148.93"/><polygon class="cls-2" points="143.59 165.67 136.58 161.9 135.91 140.4 149.89 146.27 143.59 165.67"/><polygon class="cls-3" points="149.89 146.27 135.91 140.4 137.97 139.2 152.69 144.81 149.89 146.27"/><path class="cls-4" d="M150.44,171.61a4.91,4.91,0,1,1-4.91-4.91A4.9,4.9,0,0,1,150.44,171.61Z"/><path class="cls-5" d="M154.47,182.44H136.59a4.88,4.88,0,0,1-4.87-4.87V166.92a4.88,4.88,0,0,1,4.87-4.87h17.88a4.87,4.87,0,0,1,4.87,4.87v10.65A4.88,4.88,0,0,1,154.47,182.44Zm-17.88-19.11a3.58,3.58,0,0,0-3.58,3.59v10.65a3.58,3.58,0,0,0,3.58,3.58h17.88a3.59,3.59,0,0,0,3.59-3.58V166.92a3.59,3.59,0,0,0-3.59-3.59Z"/><path class="cls-6" d="M151,183.33H140a1.74,1.74,0,0,1-1.73-1.74h0a1.74,1.74,0,0,1,1.73-1.73h11a1.74,1.74,0,0,1,1.73,1.73h0A1.74,1.74,0,0,1,151,183.33Z"/><path class="cls-6" d="M172.18,153.77a1.43,1.43,0,0,0,0-.22.68.68,0,0,0,0-.14,11.4,11.4,0,0,0-1.27-3.4c-4.78-10.25-14.41-17.26-25.52-17.26-10.91,0-20.4,6.75-25.26,16.7a11.65,11.65,0,0,0-1.13,6.12c.16,9,12,16.32,26.69,16.32,10.62,0,19.79-3.84,24.09-9.39A10.13,10.13,0,0,0,172.18,153.77Z"/><path class="cls-7" d="M119.46,158.59c1.6,5,6.88,9.23,14,11.5.91-12.49,4.08-26.63,13.51-34.47C133.74,138.64,124.64,147.38,119.46,158.59Z"/><path class="cls-8" d="M150.09,123.89h-7.24L140.67,136c0,2.2,2.53,4,5.65,4s5.65-1.78,5.65-4Z"/><path class="cls-6" d="M150.09,123.89c0,1.07-1.62,1.94-3.62,1.94s-3.62-.87-3.62-1.94,1.62-1.94,3.62-1.94S150.09,122.82,150.09,123.89Z"/><path class="cls-9" d="M146.41,124.34h0a.89.89,0,0,1-.89-.89V47.52a.89.89,0,0,1,.89-.89h0a.89.89,0,0,1,.89.89v75.93A.89.89,0,0,1,146.41,124.34Z"/><polygon class="cls-1" points="211.29 102.3 198.83 93.77 200.89 92.58 210.46 106.88 211.29 102.3"/><polygon class="cls-2" points="206.5 119.05 199.5 115.27 198.83 93.77 212.81 99.64 206.5 119.05"/><polygon class="cls-3" points="212.81 99.64 198.83 93.77 200.89 92.58 215.61 98.18 212.81 99.64"/><path class="cls-4" d="M213.36,125a4.91,4.91,0,1,1-4.91-4.9A4.9,4.9,0,0,1,213.36,125Z"/><path class="cls-5" d="M217.39,135.81H199.51a4.88,4.88,0,0,1-4.87-4.87V120.29a4.88,4.88,0,0,1,4.87-4.87h17.88a4.88,4.88,0,0,1,4.87,4.87v10.65A4.88,4.88,0,0,1,217.39,135.81ZM199.51,116.7a3.59,3.59,0,0,0-3.59,3.59v10.65a3.59,3.59,0,0,0,3.59,3.59h17.88a3.59,3.59,0,0,0,3.59-3.59V120.29a3.59,3.59,0,0,0-3.59-3.59Z"/><path class="cls-6" d="M214,136.7H203a1.74,1.74,0,0,1-1.73-1.73h0a1.74,1.74,0,0,1,1.73-1.74h11a1.74,1.74,0,0,1,1.73,1.74h0A1.74,1.74,0,0,1,214,136.7Z"/><path class="cls-6" d="M235.1,107.14a2.07,2.07,0,0,0,0-.22s0-.09,0-.13a11.46,11.46,0,0,0-1.27-3.41C229,93.13,219.36,86.13,208.25,86.13c-10.91,0-20.4,6.75-25.27,16.69a11.77,11.77,0,0,0-1.12,6.13c.16,9,12,16.31,26.68,16.31,10.63,0,19.8-3.84,24.1-9.39A10.13,10.13,0,0,0,235.1,107.14Z"/><path class="cls-7" d="M182.38,112c1.6,5,6.88,9.24,14.05,11.5.91-12.49,4.08-26.63,13.51-34.46C196.66,92,187.56,100.76,182.38,112Z"/><path class="cls-8" d="M213,77.26h-7.24l-2.18,12.08c0,2.2,2.53,4,5.65,4s5.65-1.79,5.65-4Z"/><path class="cls-6" d="M213,77.26c0,1.07-1.62,1.94-3.62,1.94s-3.62-.87-3.62-1.94,1.62-1.93,3.62-1.93S213,76.19,213,77.26Z"/><path class="cls-9" d="M209.33,77.72h0a.89.89,0,0,1-.89-.9V.89a.89.89,0,0,1,.89-.89h0a.89.89,0,0,1,.89.89V76.82A.89.89,0,0,1,209.33,77.72Z"/><polygon class="cls-1" points="29.47 218.19 17.02 209.66 19.07 208.46 28.64 222.77 29.47 218.19"/><polygon class="cls-2" points="24.69 234.94 17.68 231.16 17.02 209.66 30.99 215.53 24.69 234.94"/><polygon class="cls-3" points="30.99 215.53 17.02 209.66 19.07 208.46 33.79 214.07 30.99 215.53"/><path class="cls-4" d="M31.54,240.87A4.91,4.91,0,1,1,26.63,236,4.9,4.9,0,0,1,31.54,240.87Z"/><path class="cls-5" d="M35.58,251.7H17.69a4.88,4.88,0,0,1-4.87-4.87V236.18a4.88,4.88,0,0,1,4.87-4.87H35.58a4.87,4.87,0,0,1,4.86,4.87v10.65A4.87,4.87,0,0,1,35.58,251.7ZM17.69,232.59a3.59,3.59,0,0,0-3.58,3.59v10.65a3.59,3.59,0,0,0,3.58,3.58H35.58a3.59,3.59,0,0,0,3.58-3.58V236.18a3.59,3.59,0,0,0-3.58-3.59Z"/><path class="cls-6" d="M32.14,252.59h-11a1.74,1.74,0,0,1-1.73-1.74h0a1.74,1.74,0,0,1,1.73-1.73h11a1.74,1.74,0,0,1,1.73,1.73h0A1.74,1.74,0,0,1,32.14,252.59Z"/><path class="cls-6" d="M53.29,223a1.7,1.7,0,0,1,0-.22l0-.14a11.51,11.51,0,0,0-1.27-3.4C47.17,209,37.54,202,26.43,202c-10.91,0-20.4,6.76-25.26,16.7A11.69,11.69,0,0,0,0,224.84c.16,9,12,16.31,26.69,16.31,10.62,0,19.79-3.84,24.09-9.39A10.17,10.17,0,0,0,53.29,223Z"/><path class="cls-7" d="M.56,227.85c1.6,5,6.88,9.23,14.05,11.5.91-12.49,4.08-26.63,13.52-34.46C14.85,207.91,5.74,216.64.56,227.85Z"/><path class="cls-8" d="M31.19,193.15H24l-2.18,12.08c0,2.2,2.53,4,5.65,4s5.65-1.78,5.65-4Z"/><path class="cls-6" d="M31.19,193.15c0,1.07-1.62,1.94-3.62,1.94S24,194.22,24,193.15s1.62-1.94,3.62-1.94S31.19,192.08,31.19,193.15Z"/><path class="cls-9" d="M27.51,193.6h0a.89.89,0,0,1-.89-.89V116.78a.89.89,0,0,1,.89-.89h0a.89.89,0,0,1,.9.89v75.93A.89.89,0,0,1,27.51,193.6Z"/></g></g></svg>