<svg xmlns="http://www.w3.org/2000/svg" viewBox="0 0 158.68 199.56"><defs><style>.cls-1{fill:#b7b0ab;}.cls-2{fill:#0c354c;}.cls-3{fill:#1d4560;}.cls-4{fill:#775944;}.cls-5{fill:#422f26;}.cls-6{fill:#604431;}.cls-7{fill:#ffb200;}.cls-8{fill:#c80;}.cls-9{fill:#10384f;}.cls-10{fill:#ffbc8f;}.cls-11{fill:#eda97c;}.cls-12{fill:#3a5f84;}.cls-13{fill:#1d445e;}.cls-14{fill:#512914;}.cls-15{fill:#ddd;}.cls-16{fill:#1b5b77;}.cls-17{fill:#634b40;}.cls-18{fill:#9b6948;}.cls-19{fill:#280906;}.cls-20{fill:#12515b;}.cls-21{fill:#eaa271;}.cls-22{fill:#efa573;}.cls-23{fill:#ba850f;}.cls-24{fill:#e08f58;}.cls-25{fill:#18a6b5;}.cls-26{fill:#287b89;}.cls-27{fill:#ffa96e;}.cls-28{fill:#59410d;}.cls-29{fill:#3f2e0c;}</style></defs><title>Waiting guests</title><g id="Layer_2" data-name="Layer 2"><g id="_ÎÓÈ_3" data-name="—ÎÓÈ_3"><path class="cls-1" d="M57.23,118.11c-.65-1.34-1.22-5.58-.15-9.74-2.2-.11-4.4-.14-6.6-.19-.22,2-.53,4.06-.94,6.27-.2,1.07-1,3.8-1.28,4.93.19.45.51,1.4.9,2.57a1.62,1.62,0,0,1,1.14-.24c2.51.41,5.16.44,7.68.87C57.25,120.86,58,119.64,57.23,118.11Z"/><path class="cls-2" d="M54.57,124.15c-2.46-.5-6.84-.56-7-2.67-.1-1.38.33-2.71,1.12-5a2.18,2.18,0,0,1,.47,0s3.06,2,5.78,1c1.15-.41,2.56-1,2.56-1,.28.07.84,1.44,6.71,3.8,2.85.94,3.41,1.5,3.18,3C67.14,124.94,62.86,125.85,54.57,124.15Z"/><path class="cls-3" d="M26.13,77.76c-2-1.44-11.64-6.59-9.31-11.45.46-1,21-2.3,21-2.3,16.49-2,24.05-1.55,25.2,4.33,2.08,10.63-1.38,44.19-1.38,44.19a28.76,28.76,0,0,1-6.66.31c-2.67-.23-7.59-2.45-7.65-2.47s3.87-33,2.7-36C49.26,72.36,32.31,82.25,26.13,77.76Z"/><polygon class="cls-4" points="61.51 126.31 59.87 127.36 55.19 94.5 58.39 92.5 61.51 126.31"/><polygon class="cls-5" points="55.18 94.5 51.97 92.57 58.29 126.42 59.86 127.36 55.18 94.5"/><polygon class="cls-4" points="58.51 93.67 30.75 111.13 2.99 93.67 2.99 91.11 58.51 91.11 58.51 93.67"/><polygon class="cls-6" points="58.51 91.11 30.75 108.57 2.99 91.11 30.75 74.27 58.51 91.11"/><path class="cls-7" d="M57.13,90.11C57,92,53,93.69,46.32,97.71c-4.64,2.82-9.13,7-15.92,6.67-2.93-.15-10.57-6.12-14-8.25-7-4.29-9.56-4.23-10.14-7.85-.54-3.3,1.06-4,5.42-6.06,5-2.31,15.44-10,20.79-7.43,4.6,2.2,14.22,7,18.67,8.4C53.14,83.84,57.54,84.47,57.13,90.11Z"/><path class="cls-8" d="M26.47,99.73c-9-6-20.56-10.39-18.28-15.78a3.63,3.63,0,0,0-2,4.33c.58,3.62,3.18,3.56,10.14,7.85,3.46,2.13,11.1,8.1,14,8.25,6.79.37,11.28-3.85,15.92-6.67C53,93.69,57,92,57.13,90.11a7.13,7.13,0,0,0-.28-2.81C53.54,92.2,33.08,104.17,26.47,99.73Z"/><path class="cls-9" d="M37.5,59.79S11.94,57.63,10.1,53.7c-2.59-5.53,3.28-14.11,5.72-20.23,1.05-2.63,4.38-6.85,8.52-7.46,4-.6,5,.91,3,5.49l-8.42,16L39.5,53.55Z"/><path class="cls-1" d="M80.38,126c-.84-1.23-2-5.34-1.59-9.62-2.19.22-4.37.52-6.55.8.06,2,.07,4.09,0,6.34,0,1.09-.45,3.9-.53,5.06.25.42.71,1.31,1.26,2.41a1.76,1.76,0,0,1,1.1-.41c2.53,0,5.16-.33,7.72-.27C80.8,128.67,81.33,127.36,80.38,126Z"/><path class="cls-2" d="M78.64,132.33c-2.51-.14-6.84.45-7.31-1.61-.3-1.35-.08-2.73.37-5.14a2.07,2.07,0,0,1,.46-.09s3.32,1.48,5.86.13c1.08-.57,2.39-1.33,2.39-1.33.29,0,1,1.29,7.2,2.76,3,.51,3.59,1,3.59,2.5C91.19,131.25,87.09,132.78,78.64,132.33Z"/><path class="cls-10" d="M78.43,51.09c-.1.22-.17.39-.22.47.13,0-.29-1.78-.15-2.2s1-.33,1.15-.62c1-1.71,2.69-4,2.62-5.52,0-.6,1.13.05.52,3.3-.2,1.06,4.84,1.32,8,.32.65-.38,1.19,0,1.44.64.07.18-.14.42-.23.58-.63,1.08-1.31,3.3-4.27,4.62-2.43,1.08-8.3-1-9.11-1.11,0,.06,0,.07,0,0S78.34,51.25,78.43,51.09Z"/><path class="cls-11" d="M32.52,28.14l10.73,3.43s-.44-3.25-.51-4.85c0-.64.13-4.11.13-4.11l-7.73-4.05Z"/><path class="cls-12" d="M36.31,87.27c-7.69-.49-8.56-11.37-10.4-20.5-.33,0,22.08-.16,22.08-.16l-.37,2.67s9.89,0,18.49.07c11.29.16,11.12,3.47,12.54,10.75s2.41,39.68,2.41,39.68-3.8,1-6.44,1.38a15.39,15.39,0,0,1-6-.85L65.41,84s-5.85,2.44-15.94,3.23A76.51,76.51,0,0,1,36.31,87.27Z"/><path class="cls-13" d="M53.12,84.7S36.36,95.25,24.48,90.54C15.46,87,19.43,66,19.43,66c-2.74-2.88-1.76-15.53.3-25.67C21.1,33.57,23.38,27.92,25,26.77c3.52-2.45,8.28.19,8.28.19s1.79,2.82,6.3,2.73l4.24-.11,6.82,2.87c1.59,1,1.22,1.91.33,7.9-1.73,11.72-2.78,10.12-2.87,15.81C48.08,60.26,53.12,84.7,53.12,84.7Z"/><path class="cls-10" d="M49.11,5.16c.12,2.61.6,5.18.13,6-.66,1.21.55,2.75.15,4.6-1.34,6.2-1.06,7.36-1.84,7.86-2.73,1.74-9.14-.67-10.71-3-3-4.3-5.68-5.06-6-8.67A9.55,9.55,0,0,1,39.44,1.62C44.7,1.13,48.86-.11,49.11,5.16Z"/><path class="cls-14" d="M44.5,23c-4.74.15-5.73-2.57-7.15-6.49-.51-1.41-.34-6-1.41-5,.89,1.34.07,5.23.3,6.8.37,2.49.68,3,2.39,5.17,2.84,1.45,6.77,2.27,8.82,1,.52-.33.61-.93.92-2.81A6,6,0,0,1,44.5,23Z"/><path class="cls-14" d="M36.69,13s-1.45-1.67-2.91-1c-1.7.78,1.36,6.61,1.36,6.61C31,15.8,27.66,10.2,30.43,4.07a5.12,5.12,0,0,1,6.23-2.84c2.72-2.15,8.5-1.17,10.87.57C50.59,4,50.06,5.39,50.11,8.86c0,0-5.73-1.85-10.56-.46C37.49,9,36.69,13,36.69,13Z"/><path class="cls-15" d="M39.71,31.44c-4.26.66-8.66-2.59-9.16-4.55a32.35,32.35,0,0,0,2.77-3.74c.59,1.35,3.28,2.32,5.91,2.41a23.86,23.86,0,0,0,3.87,0c.09.55,1,3.67,1,3.67C44,30.37,42.38,31,39.71,31.44Z"/><path class="cls-9" d="M38.8,32.14c-7.27-.41-8.76-3.75-9.39-6.26.46-.16,1.37-1.63,2.23-2.28.88,1.2,2.35,3.34,6.75,4,1.72.27,2.1-.05,4.86-.05a4.56,4.56,0,0,1,3.28,3.12C44.15,30.85,42.26,32.34,38.8,32.14Z"/><path class="cls-16" d="M47,32.46c2.57-1.13,6.2.78,8.22,5.37L60,53.09c4.87-.51,12-4,17.13-5.74.37,1.26,2.56,5.61,3,6.86,0,0-19,7.45-21.59,7.38-6.56-.17-11.6-13.11-13.55-16.67C41.93,37.48,43.55,34,47,32.46Z"/><polygon class="cls-17" points="4.68 130.26 3.04 131.31 6.21 95.61 9.41 93.62 4.68 130.26"/><polygon class="cls-5" points="6.19 95.61 2.99 93.69 1.46 130.38 3.03 131.31 6.19 95.61"/><polygon class="cls-4" points="29.69 145.38 28.04 146.39 30.76 110.89 33.97 108.9 29.69 145.38"/><polygon class="cls-5" points="30.76 110.89 27.56 108.97 26.47 145.46 28.04 146.39 30.76 110.89"/><polygon class="cls-5" points="30.75 111.13 2.99 93.67 2.99 91.11 30.75 105.52 30.75 111.13"/><polyline class="cls-4" points="1.8 40.31 0.13 37.16 30.02 53.26 29.95 55.32"/><polygon class="cls-18" points="30.02 53.26 28.07 54.74 0 37.08 2.06 35.83 30.02 53.26"/><path class="cls-4" d="M32.92,107.24l-2.16,1.33L28.08,54.73,30,53.26a128,128,0,0,1,3.63,27.65C33.84,90.54,32.92,107.24,32.92,107.24Z"/><path class="cls-5" d="M30.76,108.57s.88-21.4.88-28.7a107.77,107.77,0,0,0-3.56-25.14l-24-15.07V39.6l-.05,0-2-1.25h0L.13,37.16h0L0,37.08s5.34,9.16,5.2,33.05c0,8.77-2.22,21-2.22,21l.85.53,0,.68L29,107.91,28.94,106l.08,1.49Z"/><path class="cls-19" d="M93.47,137.05l4.36,1.7.16,7s-2.39-.68-3-1.44C94.17,143.19,93.47,137.05,93.47,137.05Z"/><path class="cls-20" d="M90.84,138.08a4.14,4.14,0,0,1,1-3.83l4.3-.86c1.48,0,2.27,2,3.38,4.58.34.77.24.64,1.58,4.14,1,2.53,3.16,1.6,2.85,2.53a14,14,0,0,1-6,1.12c-2.53-1.07-1-5.59-2.73-7s-1.47,6.49-1.43,6.63l-.59-.1S91.14,139.54,90.84,138.08Z"/><path class="cls-21" d="M73,85.15c1.13-2,3,5.46,4.92,3.85,9.83.94,28.23-3.51,28.61,6.32.19,5-8.88,19.26-9.14,35.7,0,1.52,2.74,8.52,2.74,8.52-4.11-6.57-7.37-5.46-8.26-5.31a10.17,10.17,0,0,0,1-3.43c-.42-17.55-2.16-22.32,4.13-31.87,3.46-5.25-13.14,2.08-23.78-1.86-.13-.23.09-7.74-.06-8-1.35-2.14-4.87,1.17-5.77-1.2C67.94,86.58,72.3,86.38,73,85.15Z"/><path class="cls-19" d="M96.71,139.49l4.32,1.8v7s-2.39-.73-3-1.51C97.27,145.65,96.71,139.49,96.71,139.49Z"/><path class="cls-20" d="M94.06,140.45a4.13,4.13,0,0,1,1.08-3.8l4.32-.75c1.49,0,2.23,2.07,3.28,4.65.32.78.22.65,1.48,4.17.92,2.56,3.12,1.68,2.78,2.6a13.83,13.83,0,0,1-6,1c-2.52-1.13-.93-5.61-2.58-7.05s-1.61,6.46-1.58,6.6l-.58-.12S94.32,141.92,94.06,140.45Z"/><path class="cls-10" d="M77.49,87.11c1.18-2,4.53,5.18,6.48,3.61,9.82,1.18,26.74-.91,26.71,7.23,0,5-4.53,13.35-9.91,35.61-.36,1.47,2.53,8.57,2.53,8.57-4-6.66-7.23-5.63-8.13-5.5a10.1,10.1,0,0,0,1.14-3.41c0-17.55-1.55-22.54,4.81-31.88C104.66,96.15,88,103.21,77.49,99c-.14-.24.26-7.74.13-8-1.31-2.18-4.91,1.06-5.75-1.34C72.4,88.42,76.76,88.31,77.49,87.11Z"/><polygon class="cls-4" points="108.74 147.25 107.1 148.3 102.42 115.43 105.62 113.44 108.74 147.25"/><polygon class="cls-5" points="102.4 115.43 99.2 113.51 105.52 147.36 107.09 148.3 102.4 115.43"/><polygon class="cls-4" points="105.74 114.61 77.97 132.07 50.21 114.61 50.21 112.05 105.74 112.05 105.74 114.61"/><polygon class="cls-6" points="105.74 112.05 77.97 129.51 50.21 112.05 77.97 95.21 105.74 112.05"/><path class="cls-7" d="M104.36,111.05c-.14,1.88-4.16,3.58-10.81,7.6-4.64,2.82-9.14,7-15.92,6.67-2.93-.15-10.57-6.12-14-8.25-7-4.3-9.57-4.23-10.15-7.85-.53-3.31,1.06-4,5.42-6.06,5-2.31,15.44-10,20.8-7.44,4.59,2.21,14.22,7,18.67,8.41C100.37,104.78,104.77,105.41,104.36,111.05Z"/><path class="cls-8" d="M73.69,120.67c-9-6-20.56-10.39-18.28-15.78a3.64,3.64,0,0,0-2,4.33c.58,3.62,3.18,3.55,10.15,7.85,3.46,2.13,11.1,8.1,14,8.25,6.78.36,11.28-3.85,15.92-6.67,6.65-4,10.67-5.72,10.81-7.6a7.49,7.49,0,0,0-.28-2.81C100.76,113.14,80.3,125.11,73.69,120.67Z"/><path class="cls-22" d="M78.55,91.11S53.41,93.7,53.13,90c-.58-7.64,2.49-27.43,6.32-28.53,3.68-1.06,5.73,3.08,4.46,7.64,0,0-5.51,15.89-4.79,17.57.47,1.11,20.37.53,19.89.1Z"/><path class="cls-23" d="M72.38,37.25l-.11,0,.21,0h-.1Z"/><path class="cls-23" d="M70.28,62.87c-1,0-2.27-6.71-4.32-15.29-.7-2.93-1.48-7.57.64-10.88a2,2,0,0,0,1.2.44c.91,0,1.82,0,2.73,0,.41,0,.81,0,1.22,0l.63.06h.19a11.73,11.73,0,0,1,2.25.55l.21.09.48.24a5.58,5.58,0,0,1,.52.32c.27.22.21.16.11.08l0,0a7.48,7.48,0,0,1,.86.83l.16.23a2.07,2.07,0,0,1,.19.32c.18.49.3,1,.45,1.49a5.59,5.59,0,0,0,.62,1.41,2.73,2.73,0,0,0-1,1.7"/><path class="cls-24" d="M64.12,61.49c-.62.62-4,.89-3.44,1.26,1.11.68,7.3,1.77,8.11,1.85,1.12.1,7.26-2.92,7.26-2.92s-2.73-.44-2.85-1.39c-.17-1.33-.25-2-.3-2.77-.09-1.22,0-4.52,0-4.52l-8.31-2.09S66.1,59.48,64.12,61.49Z"/><path class="cls-25" d="M80.21,85.62c-.14-7,5.32-6.05,1.16-15.53-2.36-5.39,1.15-4.68,1.15-4.68-.55,0-6.77-3.92-6.77-3.92a15.87,15.87,0,0,1-4,1.81c-4.14,1.08-14.41-1.55-14.41-1.55A30,30,0,0,0,59,74.41c1.69,5,3.72,6.91,5,14.3.35,2-.05,5.27-.52,8a3.29,3.29,0,0,0-.41.87,13.32,13.32,0,0,0-.54,3.78v0h0c.1,16.45,42.37,8.55,42.37,8.55s3-5.73,2-10.75C105.68,93.76,93,88,93,88S80.31,90.67,80.21,85.62Z"/><path class="cls-26" d="M76,102.59c-6.44-12.2,2.88-27.26-5-39.16-4.48.68-13.72-1.68-13.72-1.68A30,30,0,0,0,59,74.41c1.69,5,3.72,6.91,5,14.3.35,2-.05,5.27-.52,8a3.29,3.29,0,0,0-.41.87,13.32,13.32,0,0,0-.54,3.78v0h0c.06,10.56,16.61,10.91,28.45,9.8C84.62,110.48,78.91,108.12,76,102.59Z"/><path class="cls-27" d="M78.84,41.74c.88,2.1.24,3,.37,3.84s1,1.06.74,2.68c-.5,3.21-1.85,6.05-2.56,6.46a11.12,11.12,0,0,1-5.53,1.15c-1.85-.31-6.41-1.82-7.77-4.67A8.31,8.31,0,0,1,68,40.12C72.16,38.14,77.05,37.51,78.84,41.74Z"/><path class="cls-28" d="M69.76,71.45C68.1,72.07,53.28,74.3,55.48,67c0,0,3.92-8.42,1.81-17C56,44.83,54.55,34.45,69.51,35.11c6.29.28,10.21,2.15,9.88,9.19l-2.53-2.64C78.69,60.16,73.78,69.93,69.76,71.45Z"/><path class="cls-29" d="M58.9,68.53c5.48.76,10.67-.88,11.59-6.76a4.27,4.27,0,0,1,.29-.94,36.31,36.31,0,0,0-.78-12c-1-4.37-2.29-9.14,1.75-12.44A7.89,7.89,0,0,1,73,35.51a22.63,22.63,0,0,0-3.5-.4C54.55,34.45,56,44.83,57.29,50c2.11,8.57-1.81,17-1.81,17a4.22,4.22,0,0,0-.15,2A7.09,7.09,0,0,1,58.9,68.53Z"/><path class="cls-27" d="M105,102.05a11,11,0,0,0-3.1-2.24,10.06,10.06,0,0,1-1.83-.66s-4-4.36-4.11-4.43c-3.92-3.84-7.73-6.93-8.57-8-1.28-1.64-1.77-11.17-2.31-13.8-1.43-6.88-2.18-9.32-6.66-7.73-3.93,1.4-1.67,6.43,1.83,18.83.3,1,1.32,3.7,1.73,4.83.48,1.36.71,2.11,7,6.69.45.33,8.19,4.66,8.42,4.89a19.61,19.61,0,0,0,3.63,2.83c.29.18,2.68,4,4.86,3.75C106.64,106.91,105.59,102.56,105,102.05Z"/><polygon class="cls-17" points="51.85 151.2 50.21 152.25 53.37 116.55 56.57 114.55 51.85 151.2"/><polygon class="cls-5" points="53.36 116.55 50.15 114.62 48.63 151.31 50.2 152.25 53.36 116.55"/><polygon class="cls-4" points="76.86 166.32 75.21 167.32 77.93 131.83 81.13 129.84 76.86 166.32"/><polygon class="cls-5" points="77.93 131.83 74.72 129.91 73.64 166.39 75.21 167.32 77.93 131.83"/><polygon class="cls-5" points="77.92 132.07 50.15 114.61 50.15 112.04 77.92 126.45 77.92 132.07"/><path class="cls-4" d="M80.09,128.17l-2.16,1.33L75.24,75.67l2-1.48a127.63,127.63,0,0,1,3.62,27.66C81,111.47,80.09,128.17,80.09,128.17Z"/><polyline class="cls-4" points="48.97 61.24 47.3 58.09 77.19 74.19 77.12 76.25"/><polygon class="cls-18" points="77.19 74.19 75.24 75.67 47.17 58.01 49.22 56.77 77.19 74.19"/><path class="cls-5" d="M77.93,129.5s.88-21.4.88-28.69a107.38,107.38,0,0,0-3.57-25.14l-24-15.07v-.07l-.05,0-2-1.25h0L47.3,58.09h0L47.17,58s5.34,9.16,5.2,33.05c0,8.78-2.22,21-2.22,21l.85.53,0,.68,25.14,15.6-.06-1.92.08,1.48Z"/><polygon class="cls-4" points="158.68 179.48 157.04 180.53 152.36 147.67 155.56 145.68 158.68 179.48"/><polygon class="cls-5" points="152.35 147.67 149.14 145.74 155.46 179.59 157.03 180.53 152.35 147.67"/><polygon class="cls-4" points="155.69 146.84 127.92 164.31 100.16 146.84 100.16 144.28 155.69 144.28 155.69 146.84"/><polygon class="cls-6" points="155.69 144.28 127.92 161.74 100.16 144.28 127.92 127.44 155.69 144.28"/><path class="cls-7" d="M154.3,143.28c-.13,1.89-4.16,3.58-10.8,7.61-4.65,2.81-9.14,7-15.92,6.66-2.93-.15-10.58-6.12-14-8.25-7-4.29-9.56-4.23-10.14-7.85-.53-3.3,1.06-4,5.42-6.06,5-2.31,15.44-10,20.8-7.43,4.59,2.2,14.21,7,18.67,8.4C150.31,137,154.71,137.64,154.3,143.28Z"/><path class="cls-8" d="M123.64,152.9c-9-6-20.56-10.39-18.28-15.78a3.63,3.63,0,0,0-2,4.33c.58,3.62,3.18,3.56,10.14,7.85,3.46,2.13,11.11,8.1,14,8.25,6.78.37,11.27-3.85,15.92-6.66,6.64-4,10.67-5.72,10.8-7.61a7.36,7.36,0,0,0-.27-2.81C150.71,145.37,130.25,157.34,123.64,152.9Z"/><polygon class="cls-17" points="101.8 183.43 100.16 184.48 103.32 148.78 106.52 146.78 101.8 183.43"/><polygon class="cls-5" points="103.31 148.78 100.1 146.85 98.58 183.54 100.15 184.48 103.31 148.78"/><polygon class="cls-4" points="126.8 198.55 125.15 199.56 127.88 164.06 131.08 162.07 126.8 198.55"/><polygon class="cls-5" points="127.88 164.06 124.67 162.14 123.58 198.62 125.15 199.56 127.88 164.06"/><polygon class="cls-5" points="127.86 164.3 100.1 146.84 100.1 144.27 127.86 158.69 127.86 164.3"/><path class="cls-4" d="M130,160.4l-2.17,1.33-2.68-53.83,2-1.48a127.63,127.63,0,0,1,3.62,27.66C131,143.7,130,160.4,130,160.4Z"/><polyline class="cls-4" points="98.92 93.47 97.25 90.32 127.14 106.42 127.06 108.49"/><polygon class="cls-18" points="127.13 106.42 125.19 107.9 97.11 90.24 99.17 89 127.13 106.42"/><path class="cls-5" d="M127.87,161.73s.89-21.39.89-28.69a107.38,107.38,0,0,0-3.57-25.14l-24-15.07v-.07l0,0-2-1.25h0l-1.93-1.22h0l-.14-.09s5.34,9.17,5.21,33.05c0,8.78-2.22,21-2.22,21l.85.54,0,.67,25.14,15.6-.06-1.92.08,1.49Z"/></g></g></svg>