<svg xmlns="http://www.w3.org/2000/svg" viewBox="0 0 508.82 479.11"><defs><style>.cls-1{fill:#fff6ee;}.cls-2{fill:#e2ceb3;}.cls-3{fill:#fff1e3;}</style></defs><title>Asset 12</title><g id="Layer_2" data-name="Layer 2"><g id="_ÎÓÈ_3" data-name="—ÎÓÈ_3"><polygon class="cls-1" points="496.34 172.55 3.41 472.15 0 302.56 496.34 0 502.83 4.85 496.34 172.55"/><polygon class="cls-2" points="506.58 179.5 13.66 479.11 13.66 306.57 506.58 6.96 506.58 179.5"/><path class="cls-3" d="M183.25,371.37c-4.59,2.64-9.26,5.41-16.17,9.79-1.26.8-2.69.82-2.76-1.65l-.19-6.8a3.35,3.35,0,0,1,1.72-3.24c7.8-5,10-6.29,16.21-9.9,2.36-1.38,2.73.62,2.77,2.11l.2,7.16C185.07,370.33,184.54,370.62,183.25,371.37Z"/><path class="cls-3" d="M198.48,377.21c-4.59,2.65-9.26,5.42-16.17,9.79-1.26.8-2.69.82-2.76-1.65l-.18-6.8a3.29,3.29,0,0,1,1.72-3.23c7.79-5,10-6.3,16.2-9.91,2.36-1.37,2.74.62,2.78,2.11l.19,7.16C200.31,376.17,199.77,376.46,198.48,377.21Z"/><path class="cls-3" d="M205.38,357.8c-4.58,2.65-9.26,5.42-16.16,9.79-1.26.8-2.69.82-2.76-1.65l-.19-6.8a3.31,3.31,0,0,1,1.72-3.23c7.79-5,10-6.3,16.21-9.91,2.36-1.37,2.73.62,2.77,2.11l.2,7.16C207.21,356.76,206.68,357.05,205.38,357.8Z"/><path class="cls-3" d="M227.53,344.44c-4.59,2.65-9.26,5.42-16.17,9.8-1.26.8-2.69.82-2.76-1.65l-.19-6.8a3.32,3.32,0,0,1,1.72-3.24c7.8-5,10-6.29,16.21-9.91,2.36-1.37,2.73.63,2.77,2.12l.2,7.16C229.35,343.41,228.82,343.7,227.53,344.44Z"/><path class="cls-3" d="M249.85,331.08c-4.59,2.65-9.26,5.42-16.17,9.8-1.26.8-2.69.82-2.76-1.65l-.19-6.8a3.34,3.34,0,0,1,1.72-3.24c7.8-5,10-6.29,16.21-9.9,2.36-1.38,2.73.62,2.77,2.11l.2,7.16C251.67,330.05,251.14,330.34,249.85,331.08Z"/><path class="cls-3" d="M220.62,363.64c-4.59,2.65-9.26,5.42-16.17,9.79-1.26.8-2.69.82-2.76-1.65l-.19-6.8a3.31,3.31,0,0,1,1.72-3.23c7.8-5,10-6.29,16.21-9.91,2.36-1.37,2.73.63,2.77,2.12l.2,7.16C222.44,362.61,221.91,362.9,220.62,363.64Z"/><path class="cls-3" d="M242.76,350.29c-4.59,2.64-9.26,5.42-16.17,9.79-1.26.8-2.69.82-2.76-1.65l-.19-6.8a3.35,3.35,0,0,1,1.72-3.24c7.8-5,10-6.29,16.21-9.9,2.36-1.37,2.73.62,2.77,2.11l.2,7.16C244.58,349.25,244.05,349.54,242.76,350.29Z"/><path class="cls-3" d="M265.08,336.93c-4.59,2.65-9.26,5.42-16.17,9.79-1.26.8-2.69.82-2.76-1.65l-.18-6.8a3.32,3.32,0,0,1,1.72-3.24c7.79-5,10-6.29,16.2-9.9,2.36-1.37,2.73.62,2.78,2.11l.19,7.16C266.91,335.89,266.37,336.18,265.08,336.93Z"/><path class="cls-3" d="M193.17,350.28c-4.59,2.65-9.26,5.42-16.17,9.8-1.26.79-2.69.81-2.76-1.66l-.19-6.79a3.33,3.33,0,0,1,1.72-3.24c7.8-5,10-6.29,16.21-9.91,2.36-1.37,2.73.63,2.77,2.12l.2,7.16C195,349.25,194.46,349.54,193.17,350.28Z"/><path class="cls-3" d="M215.3,336.72c-4.58,2.64-9.26,5.41-16.16,9.79-1.26.8-2.69.82-2.76-1.65l-.19-6.8a3.33,3.33,0,0,1,1.72-3.24c7.79-5,10-6.29,16.21-9.9,2.36-1.38,2.73.62,2.77,2.11l.2,7.16C217.13,335.68,216.59,336,215.3,336.72Z"/><path class="cls-3" d="M237.44,323.36c-4.58,2.65-9.25,5.42-16.16,9.79-1.26.8-2.69.82-2.76-1.65l-.19-6.8a3.31,3.31,0,0,1,1.72-3.23c7.8-5,10-6.29,16.21-9.91,2.36-1.37,2.73.62,2.77,2.12l.2,7.15C239.27,322.33,238.74,322.61,237.44,323.36Z"/><path class="cls-3" d="M178.27,344.44c-4.58,2.65-9.26,5.42-16.16,9.8-1.26.8-2.69.82-2.76-1.65l-.19-6.8a3.32,3.32,0,0,1,1.72-3.24c7.8-5,10-6.29,16.21-9.91,2.36-1.37,2.73.63,2.77,2.12l.2,7.16C180.1,343.41,179.57,343.7,178.27,344.44Z"/><path class="cls-3" d="M190.49,277.6c-4.58,2.65-9.26,5.42-16.16,9.79-1.26.8-2.7.82-2.76-1.65l-.19-6.8a3.31,3.31,0,0,1,1.72-3.23c7.79-5,10-6.29,16.21-9.91,2.36-1.37,2.73.62,2.77,2.12l.2,7.15C192.32,276.57,191.78,276.85,190.49,277.6Z"/><path class="cls-3" d="M212.63,264.25c-4.58,2.64-9.26,5.41-16.16,9.79-1.26.8-2.69.82-2.76-1.65l-.19-6.8a3.33,3.33,0,0,1,1.72-3.24c7.79-5,10-6.29,16.21-9.9,2.36-1.38,2.73.62,2.77,2.11l.2,7.16C214.46,263.21,213.93,263.5,212.63,264.25Z"/><path class="cls-3" d="M235,250.89c-4.58,2.64-9.26,5.42-16.16,9.79-1.26.8-2.69.82-2.76-1.65l-.19-6.8a3.33,3.33,0,0,1,1.72-3.24c7.8-5,10-6.29,16.21-9.9,2.36-1.38,2.73.62,2.77,2.11l.2,7.16C236.78,249.85,236.25,250.14,235,250.89Z"/><path class="cls-3" d="M183.59,297c-4.59,2.65-9.26,5.42-16.17,9.79-1.26.8-2.69.82-2.76-1.65l-.19-6.8a3.33,3.33,0,0,1,1.72-3.23c7.8-5,10-6.29,16.21-9.91,2.36-1.37,2.73.62,2.77,2.12l.2,7.15C185.41,296,184.88,296.26,183.59,297Z"/><path class="cls-3" d="M205.72,283.44c-4.58,2.65-9.26,5.42-16.16,9.8-1.26.8-2.69.81-2.76-1.65l-.19-6.8a3.31,3.31,0,0,1,1.72-3.24c7.79-5,10-6.29,16.21-9.91,2.36-1.37,2.73.63,2.77,2.12l.2,7.16C207.55,282.41,207,282.7,205.72,283.44Z"/><path class="cls-3" d="M227.87,270.09c-4.59,2.65-9.26,5.42-16.17,9.79-1.26.8-2.69.82-2.76-1.65l-.19-6.8a3.31,3.31,0,0,1,1.72-3.23c7.8-5,10-6.3,16.21-9.91,2.36-1.37,2.73.62,2.77,2.11l.2,7.16C229.69,269.05,229.16,269.34,227.87,270.09Z"/><path class="cls-3" d="M250.19,256.73c-4.59,2.65-9.26,5.42-16.17,9.79-1.26.8-2.69.82-2.76-1.65l-.19-6.8a3.33,3.33,0,0,1,1.72-3.23c7.8-5,10-6.3,16.21-9.91,2.36-1.37,2.73.62,2.77,2.11l.2,7.16C252,255.69,251.48,256,250.19,256.73Z"/><path class="cls-3" d="M178.27,270.08c-4.58,2.65-9.26,5.42-16.16,9.8-1.26.8-2.69.82-2.76-1.65l-.19-6.8a3.32,3.32,0,0,1,1.72-3.24c7.8-5,10-6.29,16.21-9.9,2.36-1.38,2.73.62,2.77,2.11l.2,7.16C180.1,269.05,179.57,269.34,178.27,270.08Z"/><path class="cls-3" d="M200.41,256.52c-4.59,2.64-9.26,5.42-16.16,9.79-1.26.8-2.7.82-2.76-1.65l-.19-6.8a3.33,3.33,0,0,1,1.72-3.24c7.79-5,10-6.29,16.21-9.9,2.36-1.37,2.73.62,2.77,2.11l.2,7.16C202.24,255.48,201.7,255.77,200.41,256.52Z"/><path class="cls-3" d="M222.55,243.16c-4.58,2.65-9.26,5.42-16.16,9.8-1.26.79-2.69.81-2.76-1.65l-.19-6.8a3.31,3.31,0,0,1,1.72-3.24c7.79-5,10-6.29,16.21-9.91,2.36-1.37,2.73.63,2.77,2.12l.2,7.16C224.38,242.13,223.85,242.42,222.55,243.16Z"/><path class="cls-3" d="M244.87,229.8c-4.58,2.65-9.26,5.42-16.16,9.8-1.26.8-2.69.81-2.76-1.65l-.19-6.8a3.31,3.31,0,0,1,1.72-3.24c7.79-5,10-6.29,16.21-9.91,2.36-1.37,2.73.63,2.77,2.12l.2,7.16C246.7,228.77,246.17,229.06,244.87,229.8Z"/><path class="cls-3" d="M170.17,364c-4.58,2.65-9.26,5.42-16.16,9.8-1.26.79-2.69.81-2.76-1.66l-.19-6.79a3.31,3.31,0,0,1,1.72-3.24c7.79-5,10-6.29,16.21-9.91,2.36-1.37,2.73.63,2.77,2.12l.2,7.16C172,363,171.47,363.28,170.17,364Z"/><path class="cls-3" d="M192.84,231.3c-4.58,2.64-9.26,5.41-16.16,9.79-1.26.8-2.7.82-2.76-1.65l-.19-6.8a3.33,3.33,0,0,1,1.72-3.24c7.79-5,10-6.29,16.21-9.9,2.36-1.38,2.73.62,2.77,2.11l.2,7.16C194.67,230.26,194.13,230.55,192.84,231.3Z"/><path class="cls-3" d="M215,217.94c-4.58,2.65-9.26,5.42-16.16,9.79-1.26.8-2.69.82-2.76-1.65l-.19-6.8a3.31,3.31,0,0,1,1.72-3.23c7.79-5,10-6.29,16.21-9.91,2.36-1.37,2.73.62,2.77,2.12l.2,7.15C216.81,216.91,216.28,217.19,215,217.94Z"/><path class="cls-3" d="M237.3,204.58c-4.58,2.65-9.26,5.42-16.16,9.79-1.26.8-2.69.82-2.76-1.65l-.19-6.8a3.31,3.31,0,0,1,1.72-3.23c7.8-5,10-6.29,16.21-9.91,2.36-1.37,2.73.63,2.77,2.12l.2,7.16C239.13,203.55,238.6,203.84,237.3,204.58Z"/><path class="cls-3" d="M185.94,250.71c-4.59,2.64-9.26,5.41-16.17,9.79-1.26.8-2.69.82-2.76-1.65l-.19-6.8a3.35,3.35,0,0,1,1.72-3.24c7.8-5,10-6.29,16.21-9.9,2.36-1.38,2.73.62,2.77,2.11l.2,7.16C187.76,249.67,187.23,250,185.94,250.71Z"/><path class="cls-3" d="M208.07,237.14c-4.58,2.65-9.26,5.42-16.16,9.79-1.26.8-2.69.82-2.76-1.65l-.19-6.8a3.31,3.31,0,0,1,1.72-3.23c7.79-5,10-6.3,16.21-9.91,2.36-1.37,2.73.62,2.77,2.11l.2,7.16C209.9,236.1,209.37,236.39,208.07,237.14Z"/><path class="cls-3" d="M230.22,223.78c-4.59,2.65-9.26,5.42-16.17,9.8-1.26.8-2.69.82-2.76-1.65l-.19-6.8a3.32,3.32,0,0,1,1.72-3.24c7.8-5,10-6.29,16.21-9.9,2.36-1.38,2.73.62,2.77,2.11l.2,7.16C232,222.75,231.51,223,230.22,223.78Z"/><path class="cls-3" d="M252.54,210.42c-4.59,2.65-9.26,5.42-16.17,9.8-1.26.8-2.69.82-2.76-1.65l-.19-6.8a3.34,3.34,0,0,1,1.72-3.24c7.8-5,10-6.29,16.21-9.9,2.36-1.38,2.73.62,2.77,2.11l.2,7.16C254.36,209.39,253.83,209.68,252.54,210.42Z"/><path class="cls-3" d="M180.62,223.78c-4.58,2.65-9.26,5.42-16.16,9.79-1.26.8-2.69.82-2.76-1.65l-.19-6.8a3.31,3.31,0,0,1,1.72-3.23c7.8-5,10-6.3,16.21-9.91,2.36-1.37,2.73.62,2.77,2.11l.2,7.16C182.45,222.75,181.92,223,180.62,223.78Z"/><path class="cls-3" d="M202.76,210.21c-4.59,2.65-9.26,5.42-16.16,9.8-1.26.79-2.7.81-2.76-1.65l-.19-6.8a3.31,3.31,0,0,1,1.72-3.24c7.79-5,10-6.29,16.21-9.91,2.36-1.37,2.73.63,2.77,2.12l.2,7.16C204.59,209.18,204.05,209.47,202.76,210.21Z"/><path class="cls-3" d="M224.9,196.86c-4.58,2.65-9.26,5.42-16.16,9.79-1.26.8-2.69.82-2.76-1.65l-.19-6.8a3.31,3.31,0,0,1,1.72-3.23c7.79-5,10-6.3,16.21-9.91,2.36-1.37,2.73.62,2.77,2.11l.2,7.16C226.73,195.82,226.2,196.11,224.9,196.86Z"/><path class="cls-3" d="M247.22,183.5c-4.58,2.65-9.26,5.42-16.16,9.79-1.26.8-2.69.82-2.76-1.65l-.19-6.8a3.31,3.31,0,0,1,1.72-3.23c7.79-5,10-6.3,16.21-9.91,2.36-1.37,2.73.62,2.77,2.11L249,181C249.05,182.46,248.52,182.75,247.22,183.5Z"/><path class="cls-3" d="M258.45,236.75c-4.59,2.65-9.26,5.42-16.17,9.8-1.26.79-2.69.81-2.76-1.65l-.19-6.8a3.33,3.33,0,0,1,1.72-3.24c7.8-5,10-6.29,16.21-9.91,2.36-1.37,2.73.63,2.77,2.12l.2,7.16C260.27,235.72,259.74,236,258.45,236.75Z"/><path class="cls-3" d="M280.58,223.19c-4.58,2.64-9.26,5.41-16.16,9.79-1.26.8-2.69.82-2.76-1.65l-.19-6.8a3.33,3.33,0,0,1,1.72-3.24c7.79-5,10-6.29,16.21-9.9,2.36-1.38,2.73.62,2.77,2.11l.2,7.16C282.41,222.15,281.88,222.44,280.58,223.19Z"/><path class="cls-3" d="M302.72,209.83c-4.58,2.65-9.25,5.42-16.16,9.79-1.26.8-2.69.82-2.76-1.65l-.19-6.8a3.31,3.31,0,0,1,1.72-3.23c7.8-5,10-6.29,16.21-9.91,2.36-1.37,2.73.62,2.77,2.12l.2,7.15C304.55,208.8,304,209.08,302.72,209.83Z"/><path class="cls-3" d="M325.05,196.47c-4.59,2.65-9.26,5.42-16.17,9.8-1.26.79-2.69.81-2.76-1.66l-.19-6.8a3.33,3.33,0,0,1,1.72-3.23c7.8-5,10-6.29,16.21-9.91,2.36-1.37,2.73.63,2.77,2.12l.2,7.16C326.87,195.44,326.34,195.73,325.05,196.47Z"/><path class="cls-3" d="M273.68,242.6c-4.59,2.64-9.26,5.42-16.17,9.79-1.26.8-2.69.82-2.76-1.65l-.18-6.8a3.32,3.32,0,0,1,1.72-3.24c7.79-5,10-6.29,16.2-9.9,2.36-1.38,2.73.62,2.78,2.11l.19,7.16C275.51,241.56,275,241.85,273.68,242.6Z"/><path class="cls-3" d="M295.81,229c-4.58,2.65-9.25,5.42-16.16,9.79-1.26.8-2.69.82-2.76-1.65l-.19-6.8a3.31,3.31,0,0,1,1.72-3.23c7.8-5,10-6.3,16.21-9.91,2.36-1.37,2.73.62,2.77,2.11l.2,7.16C297.64,228,297.11,228.28,295.81,229Z"/><path class="cls-3" d="M318,215.67c-4.59,2.65-9.26,5.42-16.17,9.8-1.26.8-2.69.82-2.76-1.65l-.19-6.8a3.34,3.34,0,0,1,1.72-3.24c7.8-5,10-6.29,16.21-9.9,2.36-1.38,2.73.62,2.77,2.11l.2,7.16C319.78,214.64,319.25,214.93,318,215.67Z"/><path class="cls-3" d="M340.28,202.31c-4.59,2.65-9.26,5.42-16.17,9.8-1.26.8-2.69.82-2.76-1.65l-.18-6.8a3.31,3.31,0,0,1,1.72-3.24c7.79-5,10-6.29,16.2-9.9,2.36-1.38,2.73.62,2.78,2.11l.19,7.16C342.1,201.28,341.57,201.57,340.28,202.31Z"/><path class="cls-3" d="M268.37,215.67c-4.59,2.65-9.26,5.42-16.17,9.79-1.26.8-2.69.82-2.76-1.65l-.19-6.8a3.33,3.33,0,0,1,1.72-3.23c7.8-5,10-6.3,16.21-9.91,2.36-1.37,2.73.62,2.77,2.12l.2,7.15C270.19,214.63,269.66,214.92,268.37,215.67Z"/><path class="cls-3" d="M290.5,202.1c-4.58,2.65-9.26,5.42-16.16,9.8-1.26.79-2.69.81-2.76-1.65l-.19-6.8a3.31,3.31,0,0,1,1.72-3.24c7.79-5,10-6.29,16.21-9.91,2.36-1.37,2.73.63,2.77,2.12l.2,7.16C292.33,201.07,291.79,201.36,290.5,202.1Z"/><path class="cls-3" d="M312.64,188.75c-4.58,2.65-9.26,5.42-16.16,9.79-1.26.8-2.69.82-2.76-1.65l-.19-6.8a3.31,3.31,0,0,1,1.72-3.23c7.79-5,10-6.3,16.21-9.91,2.36-1.37,2.73.62,2.77,2.11l.2,7.16C314.47,187.71,313.94,188,312.64,188.75Z"/><path class="cls-3" d="M335,175.39c-4.59,2.65-9.26,5.42-16.17,9.79-1.26.8-2.69.82-2.76-1.65l-.19-6.8a3.31,3.31,0,0,1,1.72-3.23c7.8-5,10-6.3,16.21-9.91,2.36-1.37,2.73.62,2.77,2.11l.2,7.16C336.79,174.35,336.26,174.64,335,175.39Z"/><path class="cls-3" d="M259.32,191.37c-4.59,2.65-9.26,5.42-16.17,9.8-1.26.8-2.69.82-2.76-1.65l-.19-6.8a3.33,3.33,0,0,1,1.72-3.24c7.8-5,10-6.29,16.21-9.91,2.36-1.37,2.73.63,2.77,2.12l.2,7.16C261.14,190.34,260.61,190.63,259.32,191.37Z"/><path class="cls-3" d="M281.45,177.81c-4.58,2.64-9.26,5.42-16.16,9.79-1.26.8-2.69.82-2.76-1.65l-.19-6.8a3.33,3.33,0,0,1,1.72-3.24c7.79-5,10-6.29,16.21-9.9,2.36-1.37,2.73.62,2.77,2.11l.2,7.16C283.28,176.77,282.74,177.06,281.45,177.81Z"/><path class="cls-3" d="M303.59,164.45c-4.58,2.65-9.26,5.42-16.16,9.8-1.26.79-2.69.81-2.76-1.66l-.19-6.79a3.31,3.31,0,0,1,1.72-3.24c7.79-5,10-6.29,16.21-9.91,2.36-1.37,2.73.63,2.77,2.12l.2,7.16C305.42,163.42,304.89,163.71,303.59,164.45Z"/><path class="cls-3" d="M325.92,151.09c-4.59,2.65-9.26,5.42-16.17,9.8-1.26.79-2.69.81-2.76-1.65l-.19-6.8a3.31,3.31,0,0,1,1.72-3.24c7.8-5,10-6.29,16.21-9.91,2.36-1.37,2.73.63,2.77,2.12l.2,7.16C327.74,150.06,327.21,150.35,325.92,151.09Z"/><path class="cls-3" d="M274.55,197.22c-4.59,2.64-9.26,5.42-16.17,9.79-1.26.8-2.69.82-2.76-1.65l-.18-6.8a3.32,3.32,0,0,1,1.72-3.24c7.79-5,10-6.29,16.2-9.9,2.36-1.37,2.73.62,2.78,2.11l.19,7.16C276.37,196.18,275.84,196.47,274.55,197.22Z"/><path class="cls-3" d="M296.68,183.65c-4.58,2.65-9.26,5.42-16.16,9.79-1.26.8-2.69.82-2.76-1.65l-.19-6.8a3.31,3.31,0,0,1,1.72-3.23c7.79-5,10-6.3,16.21-9.91,2.36-1.37,2.73.62,2.77,2.12l.2,7.15C298.51,182.62,298,182.9,296.68,183.65Z"/><path class="cls-3" d="M318.83,170.3c-4.59,2.64-9.26,5.41-16.17,9.79-1.26.8-2.69.82-2.76-1.65l-.19-6.8a3.35,3.35,0,0,1,1.72-3.24c7.8-5,10-6.29,16.21-9.9,2.36-1.38,2.73.62,2.77,2.11l.2,7.16C320.65,169.26,320.12,169.55,318.83,170.3Z"/><path class="cls-3" d="M341.15,156.94c-4.59,2.64-9.26,5.42-16.17,9.79-1.26.8-2.69.82-2.76-1.65l-.19-6.8a3.35,3.35,0,0,1,1.72-3.24c7.8-5,10-6.29,16.21-9.9,2.36-1.38,2.73.62,2.77,2.11l.2,7.16C343,155.9,342.44,156.19,341.15,156.94Z"/><path class="cls-3" d="M269.24,170.29c-4.59,2.65-9.26,5.42-16.17,9.79-1.26.8-2.69.82-2.76-1.65l-.19-6.8a3.31,3.31,0,0,1,1.72-3.23c7.8-5,10-6.29,16.21-9.91,2.36-1.37,2.73.62,2.77,2.12l.2,7.15C271.06,169.26,270.53,169.54,269.24,170.29Z"/><path class="cls-3" d="M291.37,156.72c-4.58,2.65-9.26,5.42-16.16,9.8-1.26.8-2.69.82-2.76-1.65l-.19-6.8a3.31,3.31,0,0,1,1.72-3.24c7.79-5,10-6.29,16.21-9.91,2.36-1.37,2.73.63,2.77,2.12l.2,7.16C293.2,155.69,292.66,156,291.37,156.72Z"/><path class="cls-3" d="M313.51,143.37c-4.58,2.65-9.26,5.42-16.16,9.79-1.26.8-2.69.82-2.76-1.65l-.19-6.8a3.31,3.31,0,0,1,1.72-3.23c7.79-5,10-6.3,16.21-9.91,2.36-1.37,2.73.62,2.77,2.11l.2,7.16C315.34,142.33,314.81,142.62,313.51,143.37Z"/><path class="cls-3" d="M335.83,130c-4.58,2.65-9.25,5.42-16.16,9.79-1.26.8-2.69.82-2.76-1.65l-.19-6.8a3.31,3.31,0,0,1,1.72-3.23c7.8-5,10-6.3,16.21-9.91,2.36-1.37,2.73.62,2.77,2.12l.2,7.15C337.66,129,337.13,129.26,335.83,130Z"/><path class="cls-3" d="M259.77,310c-4.59,2.65-9.26,5.42-16.17,9.79-1.26.8-2.69.82-2.76-1.65l-.19-6.8a3.31,3.31,0,0,1,1.72-3.23c7.8-5,10-6.29,16.21-9.91,2.36-1.37,2.73.63,2.77,2.12l.2,7.16C261.59,309,261.06,309.26,259.77,310Z"/><path class="cls-3" d="M185.6,325.06c-4.59,2.65-9.26,5.42-16.17,9.79-1.26.8-2.69.82-2.76-1.65l-.19-6.8a3.33,3.33,0,0,1,1.72-3.23c7.8-5,10-6.29,16.21-9.91,2.36-1.37,2.73.62,2.77,2.12l.2,7.15C187.42,324,186.89,324.31,185.6,325.06Z"/><path class="cls-3" d="M207.73,311.49c-4.58,2.65-9.26,5.42-16.16,9.8-1.26.8-2.69.82-2.76-1.65l-.19-6.8a3.31,3.31,0,0,1,1.72-3.24c7.79-5,10-6.29,16.21-9.91,2.36-1.37,2.73.63,2.77,2.12l.2,7.16C209.56,310.46,209,310.75,207.73,311.49Z"/><path class="cls-3" d="M229.88,298.14c-4.59,2.65-9.26,5.42-16.17,9.79-1.26.8-2.69.82-2.76-1.65l-.19-6.8a3.31,3.31,0,0,1,1.72-3.23c7.8-5,10-6.3,16.21-9.91,2.36-1.37,2.73.62,2.77,2.11l.2,7.16C231.7,297.1,231.17,297.39,229.88,298.14Z"/><path class="cls-3" d="M252.2,284.78c-4.59,2.65-9.26,5.42-16.17,9.79-1.26.8-2.69.82-2.76-1.65l-.19-6.8a3.33,3.33,0,0,1,1.72-3.23c7.8-5,10-6.3,16.21-9.91,2.36-1.37,2.73.62,2.77,2.12l.2,7.15C254,283.75,253.49,284,252.2,284.78Z"/><path class="cls-3" d="M200.83,330.9c-4.59,2.65-9.26,5.42-16.17,9.8-1.26.8-2.69.82-2.76-1.65l-.18-6.8a3.3,3.3,0,0,1,1.72-3.24c7.79-5,10-6.29,16.2-9.91,2.36-1.37,2.74.63,2.78,2.12l.19,7.16C202.66,329.87,202.12,330.16,200.83,330.9Z"/><path class="cls-3" d="M223,317.34c-4.59,2.64-9.26,5.42-16.17,9.79-1.26.8-2.69.82-2.76-1.65l-.19-6.8a3.33,3.33,0,0,1,1.72-3.24c7.8-5,10-6.29,16.21-9.9,2.36-1.37,2.73.62,2.77,2.11l.2,7.16C224.79,316.3,224.26,316.59,223,317.34Z"/><path class="cls-3" d="M245.11,304c-4.59,2.65-9.26,5.42-16.17,9.8-1.26.79-2.69.81-2.76-1.65l-.19-6.8a3.33,3.33,0,0,1,1.72-3.24c7.8-5,10-6.29,16.21-9.91,2.36-1.37,2.73.63,2.77,2.12l.2,7.16C246.93,303,246.4,303.24,245.11,304Z"/><path class="cls-3" d="M267.43,290.62c-4.59,2.65-9.26,5.42-16.17,9.8-1.26.79-2.69.81-2.76-1.65l-.18-6.8a3.3,3.3,0,0,1,1.72-3.24c7.79-5,10-6.29,16.2-9.91,2.36-1.37,2.73.63,2.78,2.12l.19,7.16C269.26,289.59,268.72,289.88,267.43,290.62Z"/><path class="cls-3" d="M195.52,304c-4.59,2.65-9.26,5.42-16.17,9.79-1.26.8-2.69.82-2.76-1.65l-.19-6.8a3.35,3.35,0,0,1,1.72-3.24c7.8-5,10-6.29,16.21-9.9,2.36-1.37,2.73.62,2.77,2.11l.2,7.16C197.34,302.94,196.81,303.23,195.52,304Z"/><path class="cls-3" d="M217.65,290.41c-4.58,2.65-9.26,5.42-16.16,9.79-1.26.8-2.69.82-2.76-1.65l-.19-6.8a3.31,3.31,0,0,1,1.72-3.23c7.79-5,10-6.29,16.21-9.91,2.36-1.37,2.73.62,2.77,2.12l.2,7.15C219.48,289.38,218.94,289.66,217.65,290.41Z"/><path class="cls-3" d="M239.79,277.06c-4.58,2.64-9.25,5.42-16.16,9.79-1.26.8-2.69.82-2.76-1.65l-.19-6.8a3.33,3.33,0,0,1,1.72-3.24c7.8-5,10-6.29,16.21-9.9,2.36-1.38,2.73.62,2.77,2.11l.2,7.16C241.62,276,241.09,276.31,239.79,277.06Z"/><path class="cls-3" d="M262.12,263.7c-4.59,2.64-9.26,5.42-16.17,9.79-1.26.8-2.69.82-2.76-1.65L243,265a3.33,3.33,0,0,1,1.72-3.24c7.8-5,10-6.29,16.21-9.9,2.36-1.37,2.73.62,2.77,2.11l.2,7.16C263.94,262.66,263.41,263,262.12,263.7Z"/><path class="cls-3" d="M273.34,317c-4.59,2.65-9.26,5.42-16.17,9.79-1.26.8-2.69.82-2.76-1.65l-.18-6.8a3.29,3.29,0,0,1,1.72-3.23c7.79-5,10-6.29,16.2-9.91,2.36-1.37,2.73.62,2.78,2.12l.19,7.15C275.17,315.92,274.63,316.2,273.34,317Z"/><path class="cls-3" d="M295.47,303.38c-4.58,2.65-9.25,5.42-16.16,9.8-1.26.8-2.69.82-2.76-1.65l-.19-6.8a3.31,3.31,0,0,1,1.72-3.24c7.8-5,10-6.29,16.21-9.91,2.36-1.37,2.73.63,2.77,2.12l.2,7.16C297.3,302.35,296.77,302.64,295.47,303.38Z"/><path class="cls-3" d="M317.62,290c-4.59,2.65-9.26,5.42-16.17,9.79-1.26.8-2.69.82-2.76-1.65l-.19-6.8a3.33,3.33,0,0,1,1.72-3.23c7.8-5,10-6.3,16.21-9.91,2.36-1.37,2.73.62,2.77,2.11l.2,7.16C319.44,289,318.91,289.28,317.62,290Z"/><path class="cls-3" d="M339.94,276.67c-4.59,2.65-9.26,5.42-16.17,9.79-1.26.8-2.69.82-2.76-1.65l-.18-6.8a3.29,3.29,0,0,1,1.72-3.23c7.79-5,10-6.3,16.2-9.91,2.36-1.37,2.73.62,2.78,2.12l.19,7.15C341.76,275.64,341.23,275.92,339.94,276.67Z"/><path class="cls-3" d="M288.57,322.79c-4.59,2.65-9.26,5.42-16.16,9.8-1.26.8-2.7.82-2.76-1.65l-.19-6.8a3.32,3.32,0,0,1,1.72-3.24c7.79-5,10-6.29,16.2-9.91,2.37-1.37,2.74.63,2.78,2.12l.2,7.16C290.4,321.76,289.86,322.05,288.57,322.79Z"/><path class="cls-3" d="M310.71,309.23c-4.59,2.64-9.26,5.42-16.17,9.79-1.26.8-2.69.82-2.76-1.65l-.19-6.8a3.35,3.35,0,0,1,1.72-3.24c7.8-5,10-6.29,16.21-9.9,2.36-1.37,2.73.62,2.77,2.11l.2,7.16C312.53,308.19,312,308.48,310.71,309.23Z"/><path class="cls-3" d="M332.85,295.87c-4.59,2.65-9.26,5.42-16.17,9.8-1.26.79-2.69.81-2.76-1.65l-.18-6.8a3.3,3.3,0,0,1,1.72-3.24c7.79-5,10-6.29,16.2-9.91,2.36-1.37,2.73.63,2.78,2.12l.19,7.16C334.68,294.84,334.14,295.13,332.85,295.87Z"/><path class="cls-3" d="M355.17,282.51c-4.59,2.65-9.26,5.42-16.16,9.8-1.27.79-2.7.81-2.76-1.65l-.19-6.8a3.31,3.31,0,0,1,1.72-3.24c7.79-5,10-6.29,16.2-9.91,2.36-1.37,2.74.63,2.78,2.12L357,280C357,281.48,356.46,281.77,355.17,282.51Z"/><path class="cls-3" d="M283.26,295.87c-4.59,2.65-9.26,5.42-16.17,9.79-1.26.8-2.69.82-2.76-1.65l-.18-6.8a3.32,3.32,0,0,1,1.72-3.24c7.79-5,10-6.29,16.2-9.9,2.36-1.37,2.73.62,2.78,2.11l.19,7.16C285.08,294.83,284.55,295.12,283.26,295.87Z"/><path class="cls-3" d="M305.39,282.3c-4.58,2.65-9.26,5.42-16.16,9.79-1.26.8-2.69.82-2.76-1.65l-.19-6.8a3.31,3.31,0,0,1,1.72-3.23c7.79-5,10-6.29,16.21-9.91,2.36-1.37,2.73.62,2.77,2.12l.2,7.15C307.22,281.27,306.69,281.55,305.39,282.3Z"/><path class="cls-3" d="M327.54,269c-4.59,2.64-9.26,5.42-16.17,9.79-1.26.8-2.69.82-2.76-1.65l-.19-6.8a3.35,3.35,0,0,1,1.72-3.24c7.8-5,10-6.29,16.21-9.9,2.36-1.38,2.73.62,2.77,2.11l.2,7.16C329.36,267.91,328.83,268.2,327.54,269Z"/><path class="cls-3" d="M349.86,255.59c-4.59,2.64-9.26,5.42-16.17,9.79-1.26.8-2.69.82-2.76-1.65l-.19-6.8a3.35,3.35,0,0,1,1.72-3.24c7.8-5,10-6.29,16.21-9.9,2.36-1.37,2.73.62,2.77,2.11l.2,7.16C351.68,254.55,351.15,254.84,349.86,255.59Z"/><path class="cls-3" d="M274.21,271.57c-4.59,2.65-9.26,5.42-16.17,9.8-1.26.79-2.69.81-2.76-1.66l-.18-6.8a3.29,3.29,0,0,1,1.72-3.23c7.79-5,10-6.29,16.2-9.91,2.36-1.37,2.73.63,2.78,2.12l.19,7.16C276,270.54,275.5,270.83,274.21,271.57Z"/><path class="cls-3" d="M296.34,258c-4.58,2.65-9.26,5.42-16.16,9.8-1.26.8-2.69.82-2.76-1.65l-.19-6.8a3.32,3.32,0,0,1,1.72-3.24c7.79-5,10-6.29,16.21-9.9,2.36-1.38,2.73.62,2.77,2.11l.2,7.16C298.17,257,297.64,257.26,296.34,258Z"/><path class="cls-3" d="M318.49,244.65c-4.59,2.65-9.26,5.42-16.17,9.79-1.26.8-2.69.82-2.76-1.65l-.19-6.8a3.33,3.33,0,0,1,1.72-3.23c7.8-5,10-6.29,16.21-9.91,2.36-1.37,2.73.62,2.77,2.12l.2,7.15C320.31,243.62,319.78,243.9,318.49,244.65Z"/><path class="cls-3" d="M340.81,231.29c-4.59,2.65-9.26,5.42-16.17,9.79-1.26.8-2.69.82-2.76-1.65l-.19-6.8a3.33,3.33,0,0,1,1.72-3.23c7.8-5,10-6.29,16.21-9.91,2.36-1.37,2.73.62,2.77,2.12l.2,7.15C342.63,230.26,342.1,230.54,340.81,231.29Z"/><path class="cls-3" d="M289.44,277.41c-4.59,2.65-9.26,5.42-16.16,9.8-1.27.8-2.7.82-2.76-1.65l-.19-6.8a3.32,3.32,0,0,1,1.72-3.24c7.79-5,10-6.29,16.2-9.9,2.36-1.38,2.74.62,2.78,2.11l.2,7.16C291.27,276.38,290.73,276.67,289.44,277.41Z"/><path class="cls-3" d="M311.58,263.85c-4.59,2.65-9.26,5.42-16.17,9.79-1.26.8-2.69.82-2.76-1.65l-.19-6.8a3.33,3.33,0,0,1,1.72-3.23c7.8-5,10-6.3,16.21-9.91,2.36-1.37,2.73.62,2.77,2.11l.2,7.16C313.4,262.81,312.87,263.1,311.58,263.85Z"/><path class="cls-3" d="M333.72,250.49c-4.59,2.65-9.26,5.42-16.17,9.8-1.26.8-2.69.81-2.76-1.65l-.18-6.8a3.3,3.3,0,0,1,1.72-3.24c7.79-5,10-6.29,16.2-9.91,2.36-1.37,2.73.63,2.78,2.12l.19,7.16C335.55,249.46,335,249.75,333.72,250.49Z"/><path class="cls-3" d="M356,237.13c-4.59,2.65-9.26,5.42-16.17,9.8-1.26.8-2.69.82-2.76-1.65l-.18-6.8a3.32,3.32,0,0,1,1.72-3.24c7.79-5,10-6.29,16.2-9.9,2.36-1.38,2.74.62,2.78,2.11l.19,7.16C357.87,236.1,357.33,236.39,356,237.13Z"/><path class="cls-3" d="M284.13,250.49c-4.59,2.65-9.26,5.42-16.17,9.79-1.26.8-2.69.82-2.76-1.65l-.19-6.8a3.33,3.33,0,0,1,1.72-3.23c7.8-5,10-6.3,16.21-9.91,2.36-1.37,2.73.62,2.77,2.11l.2,7.16C286,249.45,285.42,249.74,284.13,250.49Z"/><path class="cls-3" d="M306.26,236.92c-4.58,2.65-9.26,5.42-16.16,9.8-1.26.79-2.69.81-2.76-1.66l-.19-6.8a3.31,3.31,0,0,1,1.72-3.23c7.79-5,10-6.29,16.21-9.91,2.36-1.37,2.73.63,2.77,2.12l.2,7.16C308.09,235.89,307.56,236.18,306.26,236.92Z"/><path class="cls-3" d="M328.41,223.57c-4.59,2.64-9.26,5.42-16.17,9.79-1.26.8-2.69.82-2.76-1.65l-.19-6.8a3.33,3.33,0,0,1,1.72-3.24c7.8-5,10-6.29,16.21-9.9,2.36-1.37,2.73.62,2.77,2.11l.2,7.16C330.23,222.53,329.7,222.82,328.41,223.57Z"/><path class="cls-3" d="M350.73,210.21c-4.59,2.65-9.26,5.42-16.17,9.79-1.26.8-2.69.82-2.76-1.65l-.19-6.8a3.33,3.33,0,0,1,1.72-3.23c7.8-5,10-6.3,16.21-9.91,2.36-1.37,2.73.62,2.77,2.11l.2,7.16C352.55,209.17,352,209.46,350.73,210.21Z"/><path class="cls-3" d="M361.87,263.69c-4.59,2.65-9.26,5.42-16.16,9.8-1.26.8-2.7.81-2.76-1.65l-.19-6.8a3.31,3.31,0,0,1,1.72-3.24c7.79-5,10-6.29,16.21-9.91,2.36-1.37,2.73.63,2.77,2.12l.2,7.16C363.7,262.66,363.16,263,361.87,263.69Z"/><path class="cls-3" d="M377.1,269.54c-4.58,2.64-9.26,5.42-16.16,9.79-1.26.8-2.69.82-2.76-1.65l-.19-6.8a3.33,3.33,0,0,1,1.72-3.24c7.79-5,10-6.29,16.21-9.9,2.36-1.38,2.73.62,2.77,2.11l.2,7.16C378.93,268.5,378.39,268.79,377.1,269.54Z"/><path class="cls-3" d="M384,250.13c-4.59,2.64-9.26,5.42-16.17,9.79-1.26.8-2.69.82-2.76-1.65l-.19-6.8a3.35,3.35,0,0,1,1.72-3.24c7.8-5,10-6.29,16.21-9.9,2.36-1.38,2.73.62,2.77,2.11l.2,7.16C385.83,249.09,385.3,249.38,384,250.13Z"/><path class="cls-3" d="M406.15,236.77c-4.59,2.65-9.26,5.42-16.17,9.79-1.26.8-2.69.82-2.76-1.65l-.18-6.8a3.29,3.29,0,0,1,1.72-3.23c7.79-5,10-6.29,16.2-9.91,2.36-1.37,2.74.63,2.78,2.12l.19,7.16C408,235.74,407.44,236,406.15,236.77Z"/><path class="cls-3" d="M428.47,223.41c-4.59,2.65-9.26,5.42-16.16,9.8-1.27.79-2.7.81-2.76-1.66l-.19-6.79a3.31,3.31,0,0,1,1.72-3.24c7.79-5,10-6.29,16.2-9.91,2.36-1.37,2.74.63,2.78,2.12l.2,7.16C430.3,222.38,429.76,222.67,428.47,223.41Z"/><path class="cls-3" d="M399.24,256c-4.59,2.65-9.26,5.42-16.17,9.79-1.26.8-2.69.82-2.76-1.65l-.18-6.8a3.29,3.29,0,0,1,1.72-3.23c7.79-5,10-6.3,16.2-9.91,2.36-1.37,2.73.62,2.78,2.11l.19,7.16C401.07,254.93,400.53,255.22,399.24,256Z"/><path class="cls-3" d="M421.38,242.61c-4.58,2.65-9.26,5.42-16.16,9.8-1.26.8-2.7.82-2.76-1.65l-.19-6.8a3.32,3.32,0,0,1,1.72-3.24c7.79-5,10-6.29,16.21-9.9,2.36-1.38,2.73.62,2.77,2.11l.2,7.16C423.21,241.58,422.67,241.87,421.38,242.61Z"/><path class="cls-3" d="M443.7,229.26c-4.58,2.64-9.26,5.41-16.16,9.79-1.26.8-2.69.82-2.76-1.65l-.19-6.8a3.33,3.33,0,0,1,1.72-3.24c7.79-5,10-6.29,16.21-9.9,2.36-1.38,2.73.62,2.77,2.11l.2,7.16C445.53,228.22,445,228.51,443.7,229.26Z"/><path class="cls-3" d="M371.79,242.61c-4.59,2.65-9.26,5.42-16.16,9.79-1.27.8-2.7.82-2.76-1.65l-.19-6.8a3.31,3.31,0,0,1,1.72-3.23c7.79-5,10-6.29,16.2-9.91,2.36-1.37,2.74.62,2.78,2.12l.2,7.15C373.62,241.58,373.08,241.86,371.79,242.61Z"/><path class="cls-3" d="M393.93,229c-4.59,2.65-9.26,5.42-16.17,9.8-1.26.8-2.69.81-2.76-1.65l-.19-6.8a3.33,3.33,0,0,1,1.72-3.24c7.8-5,10-6.29,16.21-9.91,2.36-1.37,2.73.63,2.77,2.12l.2,7.16C395.75,228,395.22,228.3,393.93,229Z"/><path class="cls-3" d="M416.07,215.69c-4.59,2.65-9.26,5.42-16.17,9.79-1.26.8-2.69.82-2.76-1.65L397,217a3.29,3.29,0,0,1,1.72-3.23c7.79-5,10-6.3,16.2-9.91,2.36-1.37,2.73.62,2.78,2.11l.19,7.16C417.9,214.65,417.36,214.94,416.07,215.69Z"/><path class="cls-3" d="M347,183.49c-4.59,2.65-9.26,5.42-16.17,9.8-1.26.8-2.69.82-2.76-1.65l-.18-6.8a3.31,3.31,0,0,1,1.72-3.24c7.79-5,10-6.29,16.2-9.9,2.36-1.38,2.73.62,2.78,2.11l.19,7.16C348.81,182.46,348.27,182.75,347,183.49Z"/><path class="cls-3" d="M369.11,169.93c-4.58,2.65-9.25,5.42-16.16,9.79-1.26.8-2.69.82-2.76-1.65l-.19-6.8a3.31,3.31,0,0,1,1.72-3.23c7.8-5,10-6.3,16.21-9.91,2.36-1.37,2.73.62,2.77,2.11l.2,7.16C370.94,168.89,370.41,169.18,369.11,169.93Z"/><path class="cls-3" d="M391.26,156.57c-4.59,2.65-9.26,5.42-16.17,9.8-1.26.8-2.69.82-2.76-1.65l-.19-6.8a3.33,3.33,0,0,1,1.72-3.24c7.8-5,10-6.29,16.21-9.91,2.36-1.37,2.73.63,2.77,2.12l.2,7.16C393.08,155.54,392.55,155.83,391.26,156.57Z"/><path class="cls-3" d="M413.58,143.21c-4.59,2.65-9.26,5.42-16.17,9.8-1.26.8-2.69.82-2.76-1.65l-.18-6.8a3.31,3.31,0,0,1,1.72-3.24c7.79-5,10-6.29,16.2-9.9,2.36-1.38,2.73.62,2.78,2.11l.19,7.16C415.4,142.18,414.87,142.47,413.58,143.21Z"/><path class="cls-3" d="M362.21,189.34c-4.59,2.65-9.26,5.42-16.16,9.79-1.26.8-2.7.82-2.76-1.65l-.19-6.8a3.31,3.31,0,0,1,1.72-3.23c7.79-5,10-6.3,16.21-9.91,2.36-1.37,2.73.62,2.77,2.11l.2,7.16C364,188.3,363.5,188.59,362.21,189.34Z"/><path class="cls-3" d="M384.35,175.77c-4.59,2.65-9.26,5.42-16.17,9.79-1.26.8-2.69.82-2.76-1.65l-.19-6.8a3.33,3.33,0,0,1,1.72-3.23c7.8-5,10-6.29,16.21-9.91,2.36-1.37,2.73.62,2.77,2.12l.2,7.15C386.17,174.74,385.64,175,384.35,175.77Z"/><path class="cls-3" d="M406.49,162.42c-4.59,2.64-9.26,5.42-16.17,9.79-1.26.8-2.69.82-2.76-1.65l-.18-6.8a3.32,3.32,0,0,1,1.72-3.24c7.79-5,10-6.29,16.2-9.9,2.36-1.37,2.74.62,2.78,2.11l.19,7.16C408.32,161.38,407.78,161.67,406.49,162.42Z"/><path class="cls-3" d="M428.81,149.06c-4.59,2.64-9.26,5.42-16.16,9.79-1.27.8-2.7.82-2.76-1.65l-.19-6.8a3.33,3.33,0,0,1,1.72-3.24c7.79-5,10-6.29,16.2-9.9,2.36-1.37,2.74.62,2.78,2.11l.2,7.16C430.64,148,430.1,148.31,428.81,149.06Z"/><path class="cls-3" d="M356.9,162.41c-4.59,2.65-9.26,5.42-16.17,9.8-1.26.79-2.69.81-2.76-1.66l-.18-6.79a3.3,3.3,0,0,1,1.72-3.24c7.79-5,10-6.29,16.2-9.91,2.36-1.37,2.73.63,2.78,2.12l.19,7.16C358.72,161.38,358.19,161.67,356.9,162.41Z"/><path class="cls-3" d="M379,148.84c-4.58,2.65-9.26,5.42-16.16,9.8-1.26.8-2.69.82-2.76-1.65l-.19-6.8a3.32,3.32,0,0,1,1.72-3.24c7.79-5,10-6.29,16.21-9.9,2.36-1.38,2.73.62,2.77,2.11l.2,7.16C380.86,147.81,380.33,148.1,379,148.84Z"/><path class="cls-3" d="M401.18,135.49c-4.59,2.65-9.26,5.42-16.17,9.79-1.26.8-2.69.82-2.76-1.65l-.19-6.8a3.33,3.33,0,0,1,1.72-3.23c7.8-5,10-6.29,16.21-9.91,2.36-1.37,2.73.62,2.77,2.12L403,133C403,134.46,402.47,134.74,401.18,135.49Z"/><path class="cls-3" d="M423.5,122.13c-4.59,2.65-9.26,5.42-16.17,9.79-1.26.8-2.69.82-2.76-1.65l-.19-6.8a3.33,3.33,0,0,1,1.72-3.23c7.8-5,10-6.29,16.21-9.91,2.36-1.37,2.73.62,2.77,2.12l.2,7.15C425.32,121.1,424.79,121.38,423.5,122.13Z"/><path class="cls-3" d="M349.33,137.19c-4.59,2.65-9.26,5.42-16.17,9.79-1.26.8-2.69.82-2.76-1.65l-.18-6.8a3.29,3.29,0,0,1,1.72-3.23c7.79-5,10-6.29,16.2-9.91,2.36-1.37,2.73.62,2.78,2.12l.19,7.15C351.16,136.16,350.62,136.44,349.33,137.19Z"/><path class="cls-3" d="M371.46,123.62c-4.58,2.65-9.25,5.42-16.16,9.8-1.26.8-2.69.81-2.76-1.65l-.19-6.8a3.31,3.31,0,0,1,1.72-3.24c7.8-5,10-6.29,16.21-9.91,2.36-1.37,2.73.63,2.77,2.12l.2,7.16C373.29,122.59,372.76,122.88,371.46,123.62Z"/><path class="cls-3" d="M393.61,110.27c-4.59,2.65-9.26,5.42-16.17,9.79-1.26.8-2.69.82-2.76-1.65l-.19-6.8a3.33,3.33,0,0,1,1.72-3.23c7.8-5,10-6.3,16.21-9.91,2.36-1.37,2.73.62,2.77,2.11l.2,7.16C395.43,109.23,394.9,109.52,393.61,110.27Z"/><path class="cls-3" d="M415.93,96.91c-4.59,2.65-9.26,5.42-16.17,9.79-1.26.8-2.69.82-2.76-1.65l-.18-6.8A3.29,3.29,0,0,1,398.54,95c7.79-5,10-6.3,16.2-9.91,2.36-1.37,2.73.62,2.78,2.12l.19,7.15C417.75,95.88,417.22,96.16,415.93,96.91Z"/><path class="cls-3" d="M364.56,143c-4.59,2.65-9.26,5.42-16.16,9.8-1.26.8-2.7.82-2.76-1.65l-.19-6.8a3.31,3.31,0,0,1,1.72-3.24c7.79-5,10-6.29,16.21-9.91,2.36-1.37,2.73.63,2.77,2.12l.2,7.16C366.39,142,365.85,142.29,364.56,143Z"/><path class="cls-3" d="M386.7,129.47c-4.59,2.64-9.26,5.42-16.17,9.79-1.26.8-2.69.82-2.76-1.65l-.19-6.8a3.35,3.35,0,0,1,1.72-3.24c7.8-5,10-6.29,16.21-9.9,2.36-1.37,2.73.62,2.77,2.11l.2,7.16C388.52,128.43,388,128.72,386.7,129.47Z"/><path class="cls-3" d="M408.84,116.11c-4.59,2.65-9.26,5.42-16.17,9.8-1.26.79-2.69.81-2.76-1.66l-.18-6.79a3.3,3.3,0,0,1,1.72-3.24c7.79-5,10-6.29,16.2-9.91,2.36-1.37,2.74.63,2.78,2.12l.19,7.16C410.67,115.08,410.13,115.37,408.84,116.11Z"/><path class="cls-3" d="M431.16,102.75c-4.59,2.65-9.26,5.42-16.16,9.8-1.27.79-2.7.81-2.76-1.65l-.19-6.8a3.31,3.31,0,0,1,1.72-3.24c7.79-5,10-6.29,16.2-9.91,2.36-1.37,2.74.63,2.78,2.12l.2,7.16C433,101.72,432.45,102,431.16,102.75Z"/><path class="cls-3" d="M359.25,116.11c-4.59,2.64-9.26,5.42-16.17,9.79-1.26.8-2.69.82-2.76-1.65l-.18-6.8a3.32,3.32,0,0,1,1.72-3.24c7.79-5,10-6.29,16.2-9.9,2.36-1.37,2.73.62,2.78,2.11l.19,7.16C361.07,115.07,360.54,115.36,359.25,116.11Z"/><path class="cls-3" d="M381.38,102.54c-4.58,2.65-9.26,5.42-16.16,9.79-1.26.8-2.69.82-2.76-1.65l-.19-6.8a3.31,3.31,0,0,1,1.72-3.23c7.79-5,10-6.29,16.21-9.91,2.36-1.37,2.73.62,2.77,2.12l.2,7.15C383.21,101.51,382.68,101.79,381.38,102.54Z"/><path class="cls-3" d="M403.53,89.19c-4.59,2.64-9.26,5.42-16.17,9.79-1.26.8-2.69.82-2.76-1.65l-.19-6.8a3.35,3.35,0,0,1,1.72-3.24c7.8-5,10-6.29,16.21-9.9,2.36-1.38,2.73.62,2.77,2.11l.2,7.16C405.35,88.15,404.82,88.44,403.53,89.19Z"/><path class="cls-3" d="M425.85,75.83c-4.59,2.64-9.26,5.42-16.17,9.79-1.26.8-2.69.82-2.76-1.65l-.19-6.8a3.35,3.35,0,0,1,1.72-3.24c7.8-5,10-6.29,16.21-9.9,2.36-1.37,2.73.62,2.77,2.11l.2,7.16C427.67,74.79,427.14,75.08,425.85,75.83Z"/><path class="cls-3" d="M437.07,129.08c-4.59,2.65-9.26,5.42-16.16,9.79-1.27.8-2.7.82-2.76-1.65l-.19-6.8a3.31,3.31,0,0,1,1.72-3.23c7.79-5,10-6.29,16.2-9.91,2.37-1.37,2.74.62,2.78,2.12l.2,7.15C438.9,128.05,438.36,128.33,437.07,129.08Z"/><path class="cls-3" d="M459.21,115.51c-4.59,2.65-9.26,5.42-16.17,9.8-1.26.8-2.69.81-2.76-1.65l-.19-6.8a3.33,3.33,0,0,1,1.72-3.24c7.8-5,10-6.29,16.21-9.91,2.36-1.37,2.73.63,2.77,2.12L461,113C461,114.48,460.5,114.77,459.21,115.51Z"/><path class="cls-3" d="M481.35,102.16c-4.59,2.65-9.26,5.42-16.17,9.79-1.26.8-2.69.82-2.76-1.65l-.18-6.8a3.29,3.29,0,0,1,1.72-3.23c7.79-5,10-6.3,16.2-9.91,2.36-1.37,2.73.62,2.78,2.11l.19,7.16C483.18,101.12,482.64,101.41,481.35,102.16Z"/><path class="cls-3" d="M503.67,88.8c-4.59,2.65-9.26,5.42-16.16,9.79-1.27.8-2.7.82-2.77-1.65l-.18-6.8a3.31,3.31,0,0,1,1.72-3.23c7.79-5,10-6.3,16.2-9.91,2.36-1.37,2.74.62,2.78,2.12l.2,7.15C505.5,87.77,505,88.05,503.67,88.8Z"/><path class="cls-3" d="M452.3,134.92c-4.58,2.65-9.26,5.42-16.16,9.8-1.26.8-2.69.82-2.76-1.65l-.19-6.8a3.31,3.31,0,0,1,1.72-3.24c7.79-5,10-6.29,16.21-9.91,2.36-1.37,2.73.63,2.77,2.12l.2,7.16C454.13,133.89,453.59,134.18,452.3,134.92Z"/><path class="cls-3" d="M474.44,121.36c-4.59,2.64-9.26,5.42-16.17,9.79-1.26.8-2.69.82-2.76-1.65l-.18-6.8a3.32,3.32,0,0,1,1.72-3.24c7.79-5,10-6.29,16.2-9.9,2.36-1.37,2.73.62,2.78,2.11l.19,7.16C476.26,120.32,475.73,120.61,474.44,121.36Z"/><path class="cls-3" d="M496.58,108c-4.59,2.65-9.26,5.42-16.16,9.8-1.26.79-2.7.81-2.76-1.66l-.19-6.79a3.31,3.31,0,0,1,1.72-3.24c7.79-5,10-6.29,16.2-9.91,2.37-1.37,2.74.63,2.78,2.12l.2,7.16C498.41,107,497.87,107.26,496.58,108Z"/><path class="cls-3" d="M447,108c-4.59,2.65-9.26,5.42-16.17,9.79-1.26.8-2.69.82-2.76-1.65l-.18-6.8a3.33,3.33,0,0,1,1.72-3.24c7.79-5,10-6.29,16.2-9.9,2.36-1.37,2.74.62,2.78,2.11l.2,7.16C448.82,107,448.28,107.25,447,108Z"/><path class="cls-3" d="M469.13,94.43c-4.59,2.65-9.26,5.42-16.17,9.79-1.26.8-2.69.82-2.76-1.65l-.19-6.8a3.31,3.31,0,0,1,1.72-3.23c7.8-5,10-6.29,16.21-9.91,2.36-1.37,2.73.62,2.77,2.12l.2,7.15C471,93.4,470.42,93.68,469.13,94.43Z"/><path class="cls-3" d="M491.27,81.08c-4.59,2.64-9.26,5.42-16.17,9.79-1.26.8-2.69.82-2.76-1.65l-.18-6.8a3.32,3.32,0,0,1,1.72-3.24c7.79-5,10-6.29,16.2-9.9,2.36-1.38,2.73.62,2.78,2.11l.19,7.16C493.09,80,492.56,80.33,491.27,81.08Z"/><path class="cls-3" d="M437.94,83.7c-4.59,2.65-9.26,5.42-16.16,9.79-1.27.8-2.7.82-2.77-1.65l-.18-6.8a3.31,3.31,0,0,1,1.72-3.23c7.79-5,10-6.29,16.2-9.91,2.36-1.37,2.74.63,2.78,2.12l.2,7.16C439.77,82.67,439.23,83,437.94,83.7Z"/><path class="cls-3" d="M460.08,70.13c-4.59,2.65-9.26,5.42-16.17,9.8-1.26.8-2.69.82-2.76-1.65l-.19-6.8a3.32,3.32,0,0,1,1.72-3.24c7.8-5,10-6.29,16.21-9.9,2.36-1.38,2.73.62,2.77,2.11l.2,7.16C461.9,69.1,461.37,69.39,460.08,70.13Z"/><path class="cls-3" d="M482.22,56.78c-4.59,2.65-9.26,5.42-16.17,9.79-1.26.8-2.69.82-2.76-1.65l-.18-6.8a3.29,3.29,0,0,1,1.72-3.23c7.79-5,10-6.29,16.2-9.91,2.36-1.37,2.73.62,2.78,2.12l.19,7.15C484,55.75,483.51,56,482.22,56.78Z"/><path class="cls-3" d="M504.54,43.42c-4.59,2.65-9.26,5.42-16.17,9.79-1.26.8-2.69.82-2.76-1.65l-.18-6.8a3.29,3.29,0,0,1,1.72-3.23c7.79-5,10-6.29,16.2-9.91,2.36-1.37,2.74.62,2.78,2.12l.19,7.15C506.37,42.39,505.83,42.67,504.54,43.42Z"/><path class="cls-3" d="M453.17,89.54c-4.58,2.65-9.26,5.42-16.16,9.8-1.26.8-2.69.82-2.76-1.65l-.19-6.8a3.32,3.32,0,0,1,1.72-3.24c7.79-5,10-6.29,16.21-9.9,2.36-1.38,2.73.62,2.77,2.11L455,87C455,88.51,454.46,88.8,453.17,89.54Z"/><path class="cls-3" d="M475.31,76c-4.59,2.65-9.26,5.42-16.17,9.79-1.26.8-2.69.82-2.76-1.65l-.19-6.8a3.35,3.35,0,0,1,1.72-3.24c7.8-5,10-6.29,16.21-9.9,2.36-1.37,2.73.62,2.78,2.11l.19,7.16C477.13,74.94,476.6,75.23,475.31,76Z"/><path class="cls-3" d="M497.45,62.62c-4.59,2.65-9.26,5.42-16.16,9.8-1.27.8-2.7.81-2.76-1.65l-.19-6.8a3.31,3.31,0,0,1,1.72-3.24c7.79-5,10-6.29,16.2-9.91,2.36-1.37,2.74.63,2.78,2.12l.2,7.16C499.28,61.59,498.74,61.88,497.45,62.62Z"/><path class="cls-3" d="M447.86,62.62c-4.59,2.65-9.26,5.42-16.17,9.79-1.26.8-2.69.82-2.76-1.65l-.18-6.8a3.29,3.29,0,0,1,1.72-3.23c7.79-5,10-6.3,16.2-9.91,2.36-1.37,2.74.62,2.78,2.11l.19,7.16C449.69,61.58,449.15,61.87,447.86,62.62Z"/><path class="cls-3" d="M470,49.05c-4.59,2.65-9.26,5.42-16.17,9.79-1.26.8-2.69.82-2.76-1.65l-.19-6.8a3.31,3.31,0,0,1,1.72-3.23c7.8-5,10-6.29,16.21-9.91,2.36-1.37,2.73.63,2.77,2.12l.2,7.16C471.82,48,471.29,48.31,470,49.05Z"/><path class="cls-3" d="M492.14,35.7c-4.59,2.64-9.26,5.42-16.17,9.79-1.26.8-2.69.82-2.76-1.65L473,37a3.35,3.35,0,0,1,1.72-3.24c7.8-5,10-6.29,16.21-9.9,2.36-1.37,2.73.62,2.77,2.11l.2,7.16C494,34.66,493.43,35,492.14,35.7Z"/><path class="cls-3" d="M438.39,202.33c-4.59,2.65-9.26,5.42-16.17,9.79-1.26.8-2.69.82-2.76-1.65l-.18-6.8a3.31,3.31,0,0,1,1.72-3.23c7.79-5,10-6.3,16.2-9.91,2.36-1.37,2.74.62,2.78,2.11l.19,7.16C440.22,201.29,439.68,201.58,438.39,202.33Z"/><path class="cls-3" d="M364.22,217.39c-4.59,2.65-9.26,5.42-16.16,9.79-1.26.8-2.7.82-2.76-1.65l-.19-6.8a3.31,3.31,0,0,1,1.72-3.23c7.79-5,10-6.3,16.21-9.91,2.36-1.37,2.73.62,2.77,2.11l.2,7.16C366.05,216.35,365.51,216.64,364.22,217.39Z"/><path class="cls-3" d="M386.36,203.82c-4.59,2.65-9.26,5.42-16.17,9.79-1.26.8-2.69.82-2.76-1.65l-.19-6.8a3.33,3.33,0,0,1,1.72-3.23c7.8-5,10-6.29,16.21-9.91,2.36-1.37,2.73.63,2.77,2.12l.2,7.16C388.18,202.79,387.65,203.08,386.36,203.82Z"/><path class="cls-3" d="M408.5,190.47c-4.59,2.64-9.26,5.42-16.17,9.79-1.26.8-2.69.82-2.76-1.65l-.18-6.8a3.32,3.32,0,0,1,1.72-3.24c7.79-5,10-6.29,16.2-9.9,2.36-1.37,2.74.62,2.78,2.11l.19,7.16C410.33,189.43,409.79,189.72,408.5,190.47Z"/><path class="cls-3" d="M430.82,177.11c-4.59,2.65-9.26,5.42-16.16,9.79-1.27.8-2.7.82-2.76-1.65l-.19-6.8a3.33,3.33,0,0,1,1.72-3.24c7.79-5,10-6.29,16.2-9.9,2.36-1.37,2.74.62,2.78,2.11l.2,7.16C432.65,176.07,432.11,176.36,430.82,177.11Z"/><path class="cls-3" d="M379.45,223.23c-4.58,2.65-9.26,5.42-16.16,9.8-1.26.79-2.69.81-2.76-1.66l-.19-6.8a3.31,3.31,0,0,1,1.72-3.23c7.79-5,10-6.29,16.21-9.91,2.36-1.37,2.73.63,2.77,2.12l.2,7.16C381.28,222.2,380.75,222.49,379.45,223.23Z"/><path class="cls-3" d="M401.59,209.66c-4.59,2.65-9.26,5.42-16.17,9.8-1.26.8-2.69.82-2.76-1.65l-.18-6.8a3.31,3.31,0,0,1,1.72-3.24c7.79-5,10-6.29,16.2-9.9,2.36-1.38,2.74.62,2.78,2.11l.19,7.16C403.42,208.63,402.88,208.92,401.59,209.66Z"/><path class="cls-3" d="M423.73,196.31c-4.58,2.65-9.26,5.42-16.16,9.79-1.26.8-2.7.82-2.76-1.65l-.19-6.8a3.31,3.31,0,0,1,1.72-3.23c7.79-5,10-6.29,16.21-9.91,2.36-1.37,2.73.62,2.77,2.12l.2,7.15C425.56,195.28,425,195.56,423.73,196.31Z"/><path class="cls-3" d="M446.05,183c-4.58,2.65-9.26,5.42-16.16,9.79-1.26.8-2.69.82-2.76-1.65l-.19-6.8a3.31,3.31,0,0,1,1.72-3.23c7.79-5,10-6.29,16.21-9.91,2.36-1.37,2.73.62,2.77,2.12l.2,7.15C447.88,181.92,447.34,182.2,446.05,183Z"/><path class="cls-3" d="M374.14,196.31c-4.59,2.64-9.26,5.41-16.16,9.79-1.27.8-2.7.82-2.76-1.65l-.19-6.8a3.33,3.33,0,0,1,1.72-3.24c7.79-5,10-6.29,16.2-9.9,2.36-1.38,2.74.62,2.78,2.11l.2,7.16C376,195.27,375.43,195.56,374.14,196.31Z"/><path class="cls-3" d="M396.28,182.74c-4.59,2.65-9.26,5.42-16.17,9.79-1.26.8-2.69.82-2.76-1.65l-.19-6.8a3.33,3.33,0,0,1,1.72-3.23c7.8-5,10-6.3,16.21-9.91,2.36-1.37,2.73.62,2.77,2.11l.2,7.16C398.1,181.7,397.57,182,396.28,182.74Z"/><path class="cls-3" d="M418.42,169.38c-4.59,2.65-9.26,5.42-16.17,9.8-1.26.8-2.69.82-2.76-1.65l-.18-6.8a3.31,3.31,0,0,1,1.72-3.24c7.79-5,10-6.29,16.2-9.9,2.36-1.38,2.73.62,2.78,2.11l.19,7.16C420.25,168.35,419.71,168.64,418.42,169.38Z"/><path class="cls-3" d="M440.74,156c-4.59,2.65-9.26,5.42-16.17,9.8-1.26.8-2.69.82-2.76-1.65l-.18-6.8a3.32,3.32,0,0,1,1.72-3.24c7.79-5,10-6.29,16.2-9.9,2.36-1.38,2.74.62,2.78,2.11l.19,7.16C442.57,155,442,155.28,440.74,156Z"/><path class="cls-3" d="M452,209.28c-4.58,2.65-9.26,5.42-16.16,9.79-1.26.8-2.69.82-2.76-1.65l-.19-6.8a3.31,3.31,0,0,1,1.72-3.23c7.79-5,10-6.3,16.21-9.91,2.36-1.37,2.73.62,2.77,2.11l.2,7.16C453.79,208.24,453.25,208.53,452,209.28Z"/><path class="cls-3" d="M474.1,195.71c-4.59,2.65-9.26,5.42-16.17,9.79-1.26.8-2.69.82-2.76-1.65l-.18-6.8a3.29,3.29,0,0,1,1.72-3.23c7.79-5,10-6.29,16.2-9.91,2.36-1.37,2.73.63,2.78,2.12l.19,7.16C475.93,194.68,475.39,195,474.1,195.71Z"/><path class="cls-3" d="M496.24,182.36c-4.59,2.64-9.26,5.42-16.16,9.79-1.26.8-2.7.82-2.76-1.65l-.19-6.8a3.33,3.33,0,0,1,1.72-3.24c7.79-5,10-6.29,16.21-9.9,2.36-1.37,2.73.62,2.77,2.11l.2,7.16C498.07,181.32,497.53,181.61,496.24,182.36Z"/><path class="cls-3" d="M467.19,215.12c-4.58,2.65-9.26,5.42-16.16,9.8-1.26.79-2.69.81-2.76-1.66l-.19-6.8a3.31,3.31,0,0,1,1.72-3.23c7.79-5,10-6.29,16.21-9.91,2.36-1.37,2.73.63,2.77,2.12l.2,7.16C469,214.09,468.49,214.38,467.19,215.12Z"/><path class="cls-3" d="M489.33,201.55c-4.59,2.65-9.26,5.42-16.16,9.8-1.27.8-2.7.82-2.76-1.65l-.19-6.8a3.32,3.32,0,0,1,1.72-3.24c7.79-5,10-6.29,16.2-9.9,2.37-1.38,2.74.62,2.78,2.11l.2,7.16C491.16,200.52,490.62,200.81,489.33,201.55Z"/><path class="cls-3" d="M461.88,188.2c-4.58,2.64-9.26,5.41-16.16,9.79-1.26.8-2.69.82-2.76-1.65l-.19-6.8a3.33,3.33,0,0,1,1.72-3.24c7.79-5,10-6.29,16.21-9.9,2.36-1.38,2.73.62,2.77,2.11l.2,7.16C463.71,187.16,463.17,187.45,461.88,188.2Z"/><path class="cls-3" d="M484,174.63c-4.59,2.65-9.26,5.42-16.17,9.79-1.26.8-2.69.82-2.76-1.65l-.19-6.8a3.32,3.32,0,0,1,1.73-3.23c7.79-5,10-6.3,16.2-9.91,2.36-1.37,2.73.62,2.78,2.11l.19,7.16C485.84,173.59,485.31,173.88,484,174.63Z"/><path class="cls-3" d="M506.16,161.27c-4.59,2.65-9.26,5.42-16.16,9.8-1.27.8-2.7.82-2.76-1.65l-.19-6.8a3.32,3.32,0,0,1,1.72-3.24c7.79-5,10-6.29,16.2-9.9,2.36-1.38,2.74.62,2.78,2.11l.2,7.16C508,160.24,507.45,160.53,506.16,161.27Z"/><path class="cls-3" d="M452.83,163.9c-4.58,2.65-9.26,5.42-16.16,9.79-1.26.8-2.69.82-2.76-1.65l-.19-6.8a3.31,3.31,0,0,1,1.72-3.23c7.79-5,10-6.3,16.21-9.91,2.36-1.37,2.73.62,2.77,2.12l.2,7.15C454.66,162.87,454.12,163.15,452.83,163.9Z"/><path class="cls-3" d="M475,150.33c-4.59,2.65-9.26,5.42-16.17,9.8-1.26.79-2.69.81-2.76-1.65l-.18-6.8a3.3,3.3,0,0,1,1.72-3.24c7.79-5,10-6.29,16.2-9.91,2.36-1.37,2.73.63,2.78,2.12l.19,7.16C476.79,149.3,476.26,149.59,475,150.33Z"/><path class="cls-3" d="M497.11,137c-4.59,2.65-9.26,5.42-16.16,9.79-1.27.8-2.7.82-2.76-1.65l-.19-6.8a3.31,3.31,0,0,1,1.72-3.23c7.79-5,10-6.3,16.2-9.91,2.36-1.37,2.74.62,2.78,2.11l.2,7.16C498.94,135.94,498.4,136.23,497.11,137Z"/><path class="cls-3" d="M468.06,169.74c-4.58,2.65-9.26,5.42-16.16,9.8-1.26.79-2.69.81-2.76-1.65l-.19-6.8a3.31,3.31,0,0,1,1.72-3.24c7.79-5,10-6.29,16.21-9.91,2.36-1.37,2.73.63,2.77,2.12l.2,7.16C469.89,168.71,469.36,169,468.06,169.74Z"/><path class="cls-3" d="M490.2,156.18c-4.59,2.64-9.26,5.42-16.16,9.79-1.27.8-2.7.82-2.76-1.65l-.19-6.8a3.33,3.33,0,0,1,1.72-3.24c7.79-5,10-6.29,16.2-9.9,2.36-1.38,2.74.62,2.78,2.11l.2,7.16C492,155.14,491.49,155.43,490.2,156.18Z"/><path class="cls-3" d="M462.75,142.82c-4.58,2.64-9.26,5.42-16.16,9.79-1.26.8-2.7.82-2.76-1.65l-.19-6.8a3.33,3.33,0,0,1,1.72-3.24c7.79-5,10-6.29,16.21-9.9,2.36-1.37,2.73.62,2.77,2.11l.2,7.16C464.58,141.78,464,142.07,462.75,142.82Z"/><path class="cls-3" d="M484.89,129.25c-4.59,2.65-9.26,5.42-16.17,9.79-1.26.8-2.69.82-2.76-1.65l-.19-6.8a3.33,3.33,0,0,1,1.72-3.23c7.8-5,10-6.3,16.21-9.91,2.36-1.37,2.73.62,2.77,2.12l.2,7.15C486.71,128.22,486.18,128.5,484.89,129.25Z"/><path class="cls-3" d="M507,115.9c-4.59,2.64-9.26,5.41-16.17,9.79-1.26.8-2.69.82-2.76-1.65l-.18-6.8a3.33,3.33,0,0,1,1.72-3.24c7.79-5,10-6.29,16.2-9.9,2.36-1.38,2.74.62,2.78,2.11l.19,7.16C508.86,114.86,508.32,115.15,507,115.9Z"/><path class="cls-3" d="M173.14,317.34c-4.59,2.64-9.26,5.42-16.17,9.79-1.26.8-2.69.82-2.76-1.65l-.19-6.8a3.33,3.33,0,0,1,1.72-3.24c7.8-5,10-6.29,16.21-9.9,2.36-1.37,2.73.62,2.77,2.11l.2,7.16C175,316.3,174.43,316.59,173.14,317.34Z"/><path class="cls-3" d="M46.33,303.38c-4.58,2.65-9.26,5.42-16.16,9.8-1.26.8-2.69.82-2.76-1.65l-.19-6.8a3.31,3.31,0,0,1,1.72-3.24c7.79-5,10-6.29,16.21-9.91,2.36-1.37,2.73.63,2.77,2.12l.2,7.16C48.16,302.35,47.63,302.64,46.33,303.38Z"/><path class="cls-3" d="M109.87,430.7c-4.59,2.64-9.26,5.42-16.17,9.79-1.26.8-2.69.82-2.76-1.65l-.18-6.8a3.32,3.32,0,0,1,1.72-3.24c7.79-5,10-6.29,16.2-9.9,2.36-1.37,2.73.62,2.78,2.11l.19,7.16C111.69,429.66,111.16,430,109.87,430.7Z"/><path class="cls-3" d="M116.77,411.29c-4.58,2.64-9.26,5.42-16.16,9.79-1.26.8-2.69.82-2.76-1.65l-.19-6.8a3.33,3.33,0,0,1,1.72-3.24c7.79-5,10-6.29,16.21-9.9,2.36-1.37,2.73.62,2.77,2.11l.2,7.16C118.6,410.25,118.06,410.54,116.77,411.29Z"/><path class="cls-3" d="M138.91,397.93c-4.58,2.65-9.26,5.42-16.16,9.8-1.26.79-2.69.81-2.76-1.65l-.19-6.8a3.31,3.31,0,0,1,1.72-3.24c7.79-5,10-6.29,16.21-9.91,2.36-1.37,2.73.63,2.77,2.12l.2,7.16C140.74,396.9,140.21,397.19,138.91,397.93Z"/><path class="cls-3" d="M161.24,384.57c-4.59,2.65-9.26,5.42-16.17,9.8-1.26.8-2.69.81-2.76-1.65l-.19-6.8a3.31,3.31,0,0,1,1.72-3.24c7.8-5,10-6.29,16.21-9.91,2.36-1.37,2.73.63,2.77,2.12l.2,7.16C163.06,383.54,162.53,383.83,161.24,384.57Z"/><path class="cls-3" d="M132,417.13c-4.58,2.65-9.26,5.42-16.16,9.79-1.26.8-2.69.82-2.76-1.65l-.19-6.8a3.31,3.31,0,0,1,1.72-3.23c7.79-5,10-6.29,16.21-9.91,2.36-1.37,2.73.62,2.77,2.12l.2,7.15C133.83,416.1,133.3,416.38,132,417.13Z"/><path class="cls-3" d="M154.15,403.78c-4.59,2.64-9.26,5.42-16.17,9.79-1.26.8-2.69.82-2.76-1.65l-.19-6.8a3.35,3.35,0,0,1,1.72-3.24c7.8-5,10-6.29,16.21-9.9,2.36-1.38,2.73.62,2.77,2.11l.2,7.16C156,402.74,155.44,403,154.15,403.78Z"/><path class="cls-3" d="M176.47,390.42c-4.59,2.64-9.26,5.42-16.17,9.79-1.26.8-2.69.82-2.76-1.65l-.19-6.8a3.35,3.35,0,0,1,1.72-3.24c7.8-5,10-6.29,16.21-9.9,2.36-1.37,2.73.62,2.77,2.11l.2,7.16C178.29,389.38,177.76,389.67,176.47,390.42Z"/><path class="cls-3" d="M104.56,403.77c-4.59,2.65-9.26,5.42-16.17,9.79-1.26.8-2.69.82-2.76-1.65l-.19-6.8a3.31,3.31,0,0,1,1.72-3.23c7.8-5,10-6.29,16.21-9.91,2.36-1.37,2.73.62,2.77,2.12l.2,7.15C106.38,402.74,105.85,403,104.56,403.77Z"/><path class="cls-3" d="M126.69,390.2c-4.58,2.65-9.26,5.42-16.16,9.8-1.26.8-2.69.82-2.76-1.65l-.19-6.8a3.32,3.32,0,0,1,1.72-3.24c7.79-5,10-6.29,16.21-9.9,2.36-1.38,2.73.62,2.77,2.11l.2,7.16C128.52,389.17,128,389.46,126.69,390.2Z"/><path class="cls-3" d="M148.83,376.85c-4.58,2.65-9.26,5.42-16.16,9.79-1.26.8-2.69.82-2.76-1.65l-.19-6.8a3.31,3.31,0,0,1,1.72-3.23c7.79-5,10-6.3,16.21-9.91,2.36-1.37,2.73.62,2.77,2.12l.2,7.15C150.66,375.82,150.13,376.1,148.83,376.85Z"/><path class="cls-3" d="M68.76,290.63c-4.59,2.65-9.26,5.42-16.16,9.79-1.26.8-2.7.82-2.76-1.65l-.19-6.8a3.33,3.33,0,0,1,1.72-3.24c7.79-5,10-6.29,16.21-9.9,2.36-1.37,2.73.62,2.77,2.11l.2,7.16C70.59,289.59,70.05,289.88,68.76,290.63Z"/><path class="cls-3" d="M101.88,331.09c-4.59,2.65-9.26,5.42-16.16,9.79-1.27.8-2.7.82-2.76-1.65l-.19-6.8a3.31,3.31,0,0,1,1.72-3.23c7.79-5,10-6.3,16.2-9.91,2.37-1.37,2.74.62,2.78,2.11l.2,7.16C103.71,330.05,103.17,330.34,101.88,331.09Z"/><path class="cls-3" d="M124,317.73c-4.58,2.65-9.26,5.42-16.16,9.8-1.26.8-2.69.82-2.76-1.65l-.19-6.8a3.32,3.32,0,0,1,1.72-3.24c7.79-5,10-6.29,16.21-9.9,2.36-1.38,2.73.62,2.77,2.11l.2,7.16C125.85,316.7,125.31,317,124,317.73Z"/><path class="cls-3" d="M146.34,304.38c-4.58,2.64-9.26,5.41-16.16,9.79-1.26.8-2.69.82-2.76-1.65l-.19-6.8a3.33,3.33,0,0,1,1.72-3.24c7.79-5,10-6.29,16.21-9.9,2.36-1.38,2.73.62,2.77,2.11l.2,7.16C148.17,303.34,147.64,303.63,146.34,304.38Z"/><path class="cls-3" d="M95,350.5c-4.59,2.65-9.26,5.42-16.17,9.79-1.26.8-2.69.82-2.76-1.65l-.19-6.8a3.31,3.31,0,0,1,1.72-3.23c7.8-5,10-6.3,16.21-9.91,2.36-1.37,2.73.62,2.77,2.11l.2,7.16C96.8,349.46,96.27,349.75,95,350.5Z"/><path class="cls-3" d="M117.11,336.93c-4.58,2.65-9.26,5.42-16.16,9.8-1.26.79-2.69.81-2.76-1.66L98,338.28A3.31,3.31,0,0,1,99.72,335c7.79-5,10-6.29,16.21-9.91,2.36-1.37,2.73.63,2.77,2.12l.2,7.16C118.94,335.9,118.4,336.19,117.11,336.93Z"/><path class="cls-3" d="M139.25,323.58c-4.58,2.65-9.26,5.42-16.16,9.79-1.26.8-2.69.82-2.76-1.65l-.19-6.8a3.31,3.31,0,0,1,1.72-3.23c7.79-5,10-6.3,16.21-9.91,2.36-1.37,2.73.62,2.77,2.11l.2,7.16C141.08,322.54,140.55,322.83,139.25,323.58Z"/><path class="cls-3" d="M161.58,310.22c-4.59,2.65-9.26,5.42-16.17,9.79-1.26.8-2.69.82-2.76-1.65l-.19-6.8a3.31,3.31,0,0,1,1.72-3.23c7.8-5,10-6.3,16.21-9.91,2.36-1.37,2.73.62,2.77,2.11l.2,7.16C163.4,309.18,162.87,309.47,161.58,310.22Z"/><path class="cls-3" d="M89.66,323.57c-4.58,2.65-9.26,5.42-16.16,9.8-1.26.79-2.69.81-2.76-1.65l-.19-6.8a3.31,3.31,0,0,1,1.72-3.24c7.79-5,10-6.29,16.21-9.91,2.36-1.37,2.73.63,2.77,2.12l.2,7.16C91.49,322.54,91,322.83,89.66,323.57Z"/><path class="cls-3" d="M111.8,310c-4.59,2.64-9.26,5.42-16.17,9.79-1.26.8-2.69.82-2.76-1.65l-.18-6.8a3.33,3.33,0,0,1,1.72-3.24c7.79-5,10-6.29,16.2-9.9,2.36-1.38,2.74.62,2.78,2.11l.2,7.16C113.63,309,113.09,309.26,111.8,310Z"/><path class="cls-3" d="M133.94,296.65c-4.58,2.65-9.26,5.42-16.16,9.79-1.26.8-2.69.82-2.76-1.65l-.19-6.8a3.31,3.31,0,0,1,1.72-3.23c7.79-5,10-6.29,16.21-9.91,2.36-1.37,2.73.63,2.77,2.12l.2,7.16C135.77,295.62,135.23,295.91,133.94,296.65Z"/><path class="cls-3" d="M156.26,283.29c-4.58,2.65-9.26,5.42-16.16,9.8-1.26.79-2.69.81-2.76-1.66l-.19-6.79a3.31,3.31,0,0,1,1.72-3.24c7.79-5,10-6.29,16.21-9.91,2.36-1.37,2.73.63,2.77,2.12l.2,7.16C158.09,282.26,157.56,282.55,156.26,283.29Z"/><path class="cls-3" d="M58.31,311.15c-4.59,2.65-9.26,5.42-16.17,9.79-1.26.8-2.69.82-2.76-1.65l-.18-6.8a3.31,3.31,0,0,1,1.72-3.23c7.79-5,10-6.3,16.2-9.91,2.36-1.37,2.74.62,2.78,2.11l.19,7.16C60.14,310.11,59.6,310.4,58.31,311.15Z"/><path class="cls-3" d="M104.23,284.78c-4.59,2.65-9.26,5.42-16.16,9.8-1.27.8-2.7.82-2.76-1.65l-.19-6.8a3.32,3.32,0,0,1,1.72-3.24c7.79-5,10-6.29,16.2-9.9,2.37-1.38,2.74.62,2.78,2.11l.2,7.16C106.06,283.75,105.52,284,104.23,284.78Z"/><path class="cls-3" d="M126.37,271.43c-4.58,2.65-9.26,5.42-16.16,9.79-1.26.8-2.69.82-2.76-1.65l-.19-6.8a3.31,3.31,0,0,1,1.72-3.23c7.79-5,10-6.29,16.21-9.91,2.36-1.37,2.73.62,2.77,2.12l.2,7.15C128.2,270.4,127.66,270.68,126.37,271.43Z"/><path class="cls-3" d="M148.69,258.07c-4.58,2.65-9.26,5.42-16.16,9.79-1.26.8-2.69.82-2.76-1.65l-.19-6.8a3.31,3.31,0,0,1,1.72-3.23c7.79-5,10-6.29,16.21-9.91,2.36-1.37,2.73.62,2.77,2.12l.2,7.15C150.52,257,150,257.32,148.69,258.07Z"/><path class="cls-3" d="M97.33,304.19c-4.59,2.65-9.26,5.42-16.17,9.8-1.26.8-2.69.82-2.76-1.65l-.19-6.8a3.34,3.34,0,0,1,1.72-3.24c7.8-5,10-6.29,16.21-9.9,2.36-1.38,2.73.62,2.77,2.11l.2,7.16C99.15,303.16,98.62,303.45,97.33,304.19Z"/><path class="cls-3" d="M119.46,290.63c-4.58,2.65-9.26,5.42-16.16,9.79-1.26.8-2.69.82-2.76-1.65l-.19-6.8a3.33,3.33,0,0,1,1.72-3.24c7.79-5,10-6.29,16.21-9.9,2.36-1.37,2.73.62,2.77,2.11l.2,7.16C121.29,289.59,120.75,289.88,119.46,290.63Z"/><path class="cls-3" d="M141.6,277.27c-4.58,2.65-9.26,5.42-16.16,9.8-1.26.79-2.69.81-2.76-1.65l-.19-6.8a3.31,3.31,0,0,1,1.72-3.24c7.79-5,10-6.29,16.21-9.91,2.36-1.37,2.73.63,2.77,2.12l.2,7.16C143.43,276.24,142.9,276.53,141.6,277.27Z"/><path class="cls-3" d="M163.93,263.91c-4.59,2.65-9.26,5.42-16.17,9.8-1.26.8-2.69.82-2.76-1.65l-.19-6.8a3.31,3.31,0,0,1,1.72-3.24c7.8-5,10-6.29,16.21-9.91,2.36-1.37,2.73.63,2.77,2.12l.2,7.16C165.75,262.88,165.22,263.17,163.93,263.91Z"/><path class="cls-3" d="M92,277.27c-4.58,2.65-9.26,5.42-16.16,9.79-1.26.8-2.69.82-2.76-1.65l-.19-6.8a3.31,3.31,0,0,1,1.72-3.23c7.79-5,10-6.3,16.21-9.91,2.36-1.37,2.73.62,2.77,2.11l.2,7.16C93.84,276.23,93.31,276.52,92,277.27Z"/><path class="cls-3" d="M114.15,263.7c-4.59,2.65-9.26,5.42-16.16,9.79-1.27.8-2.7.82-2.76-1.65L95,265a3.31,3.31,0,0,1,1.72-3.23c7.79-5,10-6.29,16.2-9.91,2.36-1.37,2.74.63,2.78,2.12l.2,7.16C116,262.67,115.44,263,114.15,263.7Z"/><path class="cls-3" d="M136.29,250.35c-4.58,2.64-9.26,5.42-16.16,9.79-1.26.8-2.69.82-2.76-1.65l-.19-6.8a3.33,3.33,0,0,1,1.72-3.24c7.79-5,10-6.29,16.21-9.9,2.36-1.37,2.73.62,2.77,2.11l.2,7.16C138.12,249.31,137.58,249.6,136.29,250.35Z"/><path class="cls-3" d="M158.61,237c-4.58,2.65-9.26,5.42-16.16,9.79-1.26.8-2.69.82-2.76-1.65l-.19-6.8a3.33,3.33,0,0,1,1.72-3.24c7.79-5,10-6.29,16.21-9.9,2.36-1.37,2.73.62,2.77,2.11l.2,7.16C160.44,236,159.91,236.24,158.61,237Z"/><path class="cls-3" d="M169.84,290.24c-4.59,2.65-9.26,5.42-16.17,9.79-1.26.8-2.69.82-2.76-1.65l-.19-6.8a3.31,3.31,0,0,1,1.72-3.23c7.8-5,10-6.29,16.21-9.91,2.36-1.37,2.73.63,2.77,2.12l.2,7.15C171.66,289.21,171.13,289.5,169.84,290.24Z"/><path class="cls-3" d="M170.71,244.86c-4.59,2.65-9.26,5.42-16.17,9.8-1.26.79-2.69.81-2.76-1.65l-.19-6.8a3.31,3.31,0,0,1,1.72-3.24c7.8-5,10-6.29,16.21-9.91,2.36-1.37,2.73.63,2.77,2.12l.2,7.16C172.53,243.83,172,244.12,170.71,244.86Z"/><path class="cls-3" d="M185.94,250.71c-4.59,2.64-9.26,5.41-16.17,9.79-1.26.8-2.69.82-2.76-1.65l-.19-6.8a3.35,3.35,0,0,1,1.72-3.24c7.8-5,10-6.29,16.21-9.9,2.36-1.38,2.73.62,2.77,2.11l.2,7.16C187.76,249.67,187.23,250,185.94,250.71Z"/><path class="cls-3" d="M180.62,223.78c-4.58,2.65-9.26,5.42-16.16,9.79-1.26.8-2.69.82-2.76-1.65l-.19-6.8a3.31,3.31,0,0,1,1.72-3.23c7.8-5,10-6.3,16.21-9.91,2.36-1.37,2.73.62,2.77,2.11l.2,7.16C182.45,222.74,181.92,223,180.62,223.78Z"/><path class="cls-3" d="M171.15,363.49c-4.58,2.65-9.25,5.42-16.16,9.79-1.26.8-2.69.82-2.76-1.65l-.19-6.8a3.31,3.31,0,0,1,1.72-3.23c7.8-5,10-6.29,16.21-9.91,2.36-1.37,2.73.62,2.77,2.12l.2,7.15C173,362.46,172.45,362.74,171.15,363.49Z"/><path class="cls-3" d="M74.07,317.73c-4.58,2.65-9.26,5.42-16.16,9.8-1.26.8-2.69.82-2.76-1.65l-.19-6.8a3.32,3.32,0,0,1,1.72-3.24c7.79-5,10-6.29,16.21-9.9,2.36-1.38,2.73.62,2.77,2.11l.2,7.16C75.9,316.7,75.37,317,74.07,317.73Z"/><path class="cls-3" d="M119.12,365c-4.58,2.65-9.26,5.42-16.16,9.8-1.26.79-2.69.81-2.76-1.65l-.19-6.8a3.31,3.31,0,0,1,1.72-3.24c7.79-5,10-6.29,16.21-9.91,2.36-1.37,2.73.63,2.77,2.12l.2,7.16C121,364,120.41,364.24,119.12,365Z"/><path class="cls-3" d="M141.26,351.63c-4.58,2.65-9.26,5.42-16.16,9.79-1.26.8-2.69.82-2.76-1.65l-.19-6.8a3.31,3.31,0,0,1,1.72-3.23c7.79-5,10-6.3,16.21-9.91,2.36-1.37,2.73.62,2.77,2.11l.2,7.16C143.09,350.59,142.56,350.88,141.26,351.63Z"/><path class="cls-3" d="M163.59,338.27c-4.59,2.65-9.26,5.42-16.17,9.79-1.26.8-2.69.82-2.76-1.65l-.19-6.8a3.31,3.31,0,0,1,1.72-3.23c7.8-5,10-6.3,16.21-9.91,2.36-1.37,2.73.62,2.77,2.11l.2,7.16C165.41,337.23,164.88,337.52,163.59,338.27Z"/><path class="cls-3" d="M112.22,384.39c-4.59,2.65-9.26,5.42-16.17,9.8-1.26.79-2.69.81-2.76-1.65l-.18-6.8a3.3,3.3,0,0,1,1.72-3.24c7.79-5,10-6.29,16.2-9.91,2.36-1.37,2.73.63,2.78,2.12l.19,7.16C114,383.36,113.51,383.65,112.22,384.39Z"/><path class="cls-3" d="M134.35,370.83c-4.58,2.64-9.26,5.41-16.16,9.79-1.26.8-2.69.82-2.76-1.65l-.19-6.8a3.33,3.33,0,0,1,1.72-3.24c7.79-5,10-6.29,16.21-9.9,2.36-1.38,2.73.62,2.77,2.11l.2,7.16C136.18,369.79,135.65,370.08,134.35,370.83Z"/><path class="cls-3" d="M156.5,357.47c-4.59,2.65-9.26,5.42-16.17,9.79-1.26.8-2.69.82-2.76-1.65l-.19-6.8a3.33,3.33,0,0,1,1.72-3.23c7.8-5,10-6.29,16.21-9.91,2.36-1.37,2.73.62,2.77,2.12l.2,7.15C158.32,356.44,157.79,356.72,156.5,357.47Z"/><path class="cls-3" d="M178.82,344.11c-4.59,2.65-9.26,5.42-16.17,9.8-1.26.79-2.69.81-2.76-1.66l-.19-6.8a3.33,3.33,0,0,1,1.72-3.23c7.8-5,10-6.29,16.21-9.91,2.36-1.37,2.73.63,2.77,2.12l.2,7.16C180.64,343.08,180.11,343.37,178.82,344.11Z"/><path class="cls-3" d="M106.91,357.47c-4.59,2.64-9.26,5.42-16.17,9.79-1.26.8-2.69.82-2.76-1.65l-.19-6.8a3.33,3.33,0,0,1,1.72-3.24c7.8-5,10-6.29,16.21-9.9,2.36-1.37,2.73.62,2.77,2.11l.2,7.16C108.73,356.43,108.2,356.72,106.91,357.47Z"/><path class="cls-3" d="M129,343.9c-4.58,2.65-9.26,5.42-16.16,9.79-1.26.8-2.69.82-2.76-1.65l-.19-6.8a3.31,3.31,0,0,1,1.72-3.23c7.79-5,10-6.3,16.21-9.91,2.36-1.37,2.73.62,2.77,2.12l.2,7.15C130.87,342.86,130.33,343.15,129,343.9Z"/><path class="cls-3" d="M151.18,330.54c-4.58,2.65-9.26,5.42-16.16,9.8-1.26.8-2.69.82-2.76-1.65l-.19-6.8a3.33,3.33,0,0,1,1.72-3.24c7.79-5,10-6.29,16.21-9.9,2.36-1.38,2.73.62,2.77,2.11L153,328C153,329.51,152.48,329.8,151.18,330.54Z"/><path class="cls-3" d="M173.5,317.19c-4.58,2.64-9.25,5.41-16.16,9.79-1.26.8-2.69.82-2.76-1.65l-.19-6.8a3.33,3.33,0,0,1,1.72-3.24c7.8-5,10-6.29,16.21-9.9,2.36-1.38,2.73.62,2.77,2.11l.2,7.16C175.33,316.15,174.8,316.44,173.5,317.19Z"/><path class="cls-3" d="M185.6,325.06c-4.59,2.65-9.26,5.42-16.17,9.79-1.26.8-2.69.82-2.76-1.65l-.19-6.8a3.33,3.33,0,0,1,1.72-3.23c7.8-5,10-6.29,16.21-9.91,2.36-1.37,2.73.62,2.77,2.12l.2,7.15C187.42,324,186.89,324.31,185.6,325.06Z"/><path class="cls-3" d="M81.56,299c-4.58,2.65-9.26,5.42-16.16,9.8-1.26.79-2.69.81-2.76-1.66l-.19-6.79a3.31,3.31,0,0,1,1.72-3.24c7.79-5,10-6.29,16.21-9.91,2.36-1.37,2.73.63,2.77,2.12l.2,7.16C83.39,297.92,82.85,298.21,81.56,299Z"/></g></g></svg>