<svg xmlns="http://www.w3.org/2000/svg" viewBox="0 0 1012.1 467.38"><defs><style>.cls-1{fill:#fff6ee;}.cls-2{fill:#f2d7c0;}.cls-3{fill:#e2c6aa;}.cls-4{fill:#bfa180;}.cls-5{fill:#d1af8c;}.cls-6{fill:#f7ddc4;}.cls-7{fill:#bc9877;}.cls-8{fill:#841600;}.cls-9{fill:#631104;}.cls-10{fill:#af2715;}.cls-11{fill:#ad2a18;}.cls-12{fill:#eaa028;}</style></defs><title>Middle wall</title><g id="Layer_2" data-name="Layer 2"><g id="_ÎÓÈ_3" data-name="—ÎÓÈ_3"><g id="_Group_middleWall" data-name="&lt;Group&gt;middleWall"><polygon class="cls-1" points="492.05 114.63 228.57 304.87 221.99 150.7 303.96 99.81 314.95 107.7 379.3 169.31 482.1 106.38 492.05 114.63"/><polygon class="cls-2" points="492.61 160.94 234.54 316.75 233.6 156.82 314.95 107.7 397.81 170.95 492.05 114.63 492.61 160.94"/></g><polygon class="cls-1" points="234.44 157.23 0 9.26 8.63 0 243.07 147.98 234.44 157.23"/><polygon class="cls-3" points="235.04 316.47 0.59 168.5 0.7 9.87 235.15 157.84 235.04 316.47"/><g id="_Group_middleLeftWall" data-name="&lt;Group&gt;middleLeftWall"><polygon class="cls-1" points="1010.45 461.33 492.05 114.63 479.32 107.99 491.67 100.69 758.96 262.82 791.61 183.61 804.24 177.56 1012.1 304.06 1010.45 461.33"/><polygon class="cls-3" points="997.83 467.38 492.61 160.94 492.05 114.63 746.34 268.88 791.61 183.61 997.93 308.76 997.83 467.38"/></g><polygon class="cls-4" points="820.96 214.46 819.9 359.46 930.37 426.11 931.82 285.09 820.96 214.46"/><polygon class="cls-5" points="940.34 439.88 943.51 438.11 945.51 274.93 942.34 276.66 940.34 439.88"/><polygon class="cls-5" points="817.87 363.19 820.17 361.69 821.94 216.51 819.65 216.48 817.87 363.19"/><polygon class="cls-6" points="942.34 276.58 940.34 439.88 930 433.85 931.82 285.09 819.13 217.89 815.74 318.32 808.66 301.62 808.95 196.76 942.34 276.58"/><polygon class="cls-7" points="942.34 276.66 945.51 275.03 812.08 195.27 808.95 196.98 942.34 276.66"/><polygon class="cls-8" points="815.74 217.74 815.48 363.93 768.61 333.68 768.57 193.12 815.74 217.74"/><polygon class="cls-9" points="815 363.93 818.15 362.45 819.9 217.21 815.74 217.74 815 363.93"/><polygon class="cls-10" points="815.74 218.08 819.9 217.21 773.27 192.29 768.57 193.12 815.74 218.08"/><polygon class="cls-8" points="977.5 310.17 977.24 456.36 930.37 426.11 930.33 285.55 977.5 310.17"/><polygon class="cls-9" points="976.76 456.36 979.91 454.87 981.67 309.63 977.5 310.17 976.76 456.36"/><polygon class="cls-10" points="977.5 310.51 981.67 309.63 935.03 284.72 930.33 285.55 977.5 310.51"/><polygon class="cls-11" points="876.68 389.87 923.96 420.39 924 416.66 879.14 388.09 876.68 389.87"/><path class="cls-12" d="M784.42,281.45l11.05,5.49c2.54,1.26,5.51.51,6.59-1.67a5.09,5.09,0,0,0,.35-1.3,1.35,1.35,0,0,0-1.14-1.24,1.14,1.14,0,0,0-1.16.42l-.54,1.06a2.36,2.36,0,0,1-3.21.81l-11-5.44a2.47,2.47,0,0,1-1.29-3.05,1.82,1.82,0,0,1,.35-.78,1,1,0,0,0,.21-.5,1.32,1.32,0,0,0-1.13-1.32,1.16,1.16,0,0,0-1.07.31,5.16,5.16,0,0,0-.71.95C780.68,277.37,781.88,280.18,784.42,281.45Z"/></g></g></svg>