<svg xmlns="http://www.w3.org/2000/svg" viewBox="0 0 105.87 305.97"><defs><style>.cls-1{fill:#f77f43;}.cls-2{fill:#ff985f;}.cls-3{fill:#280f04;}.cls-4{fill:#050505;}.cls-5{fill:#2e3030;}.cls-6{fill:#1f2121;}.cls-7{fill:#3c6084;}.cls-8{fill:#282751;}.cls-9{fill:#181835;}.cls-10{fill:#eda97c;}.cls-11{fill:#1b1c1c;}</style></defs><title>Asset 19</title><g id="Layer_2" data-name="Layer 2"><g id="_ÎÓÈ_3" data-name="—ÎÓÈ_3"><path class="cls-1" d="M62,57.31c.74-.12-1.33-1.52-.35-2.09.94-1.77,2.81-11.41,1.52-14.51.09,0,12,0,16.14,0l1.83,14.65c4,1.59,1.61,3.2,4,1.59a6.57,6.57,0,0,1,8.52,1.47c1.91,2.45-1,1.27-1.9,4.52a35.47,35.47,0,0,1-1.88,4.51c-.35.76-.86,1.44-1.25,2.19a1.19,1.19,0,0,0-.08.2c.22.46.48.92.74,1.38.58.62,1.23,1.18,1.8,1.79a2.3,2.3,0,0,1,.92.64,6.54,6.54,0,0,1,1.58,4.09,7.49,7.49,0,0,1,0,2.67v0a.36.36,0,0,0,0,.1,1.16,1.16,0,0,1,0,.18,3.74,3.74,0,0,1-.12.48l-.08.24,0,.09a6.76,6.76,0,0,1-.33.78,2.43,2.43,0,0,1-.55.75c-.3.41-.61.82-.9,1.24-2,2.88-5.07,4.61-8.21,6a6.79,6.79,0,0,0-1,.6l-.3.37c-2.44.84-4.46,2.31-5.06,5.1a9.68,9.68,0,0,0-.17,2.51c-6.51,1-13,1.93-19.57,2.79.09-.24.16-.47.23-.72C58.85,95.84,59.14,57.8,62,57.31Z"/><path class="cls-2" d="M86.24,15.51c-3.33-7.81-12.92-9.6-18.77-7.3-3.1,1.21-10.63.8-13,5.81a26.9,26.9,0,0,0-1.3,5.44c0,1.08.31,4.31.22,5.2-.11,1.09-.69,1.84-.65,2.9a33,33,0,0,0,.95,7.63c1,3.62-.31,4.92,1.78,6.15,2.52,1.49,11.74,1.34,17-1.67,4.2-2.42,6.73-4,7.22-4.26C90.07,30.17,89.58,23.32,86.24,15.51Z"/><path class="cls-3" d="M93,21.7a14.21,14.21,0,0,0-3.22-8.13h0S90.1,2.72,74,.25C64.46-1.21,58.77,3.91,55,11.38c-1.74,3.45-2.8,6.23-2.8,6.23.29.31,7.56-1.76,7.66-.19.35,5.66,1.19,9.92,1.63,9.62,7.95-5.52,3.35,9.67,5,14.69,4.36,1.47,14.21,1.23,14.41,0C82.13,34,93,29.53,93,21.7Z"/><path class="cls-4" d="M82,288c10.08.84,17.34,4.27,18.51,1.92.86,1.15.82,6.86.76,7.83,0,0,1,2.67-4.18,3-5.62.4-6.86-.38-9.34.31-9.58,2.64-25.08,1.16-24.8-2.33.22-2.73,5.1-5.1,10.26-6.94A53.45,53.45,0,0,0,82,288Z"/><polygon class="cls-5" points="0.89 56.64 10.77 54.95 10.76 54.93 18.77 53.81 36.07 79.72 28.32 80.99 28.32 80.98 18.4 82.58 0.89 56.64"/><polygon class="cls-6" points="36.07 79.71 35.69 80.57 35.68 80.58 35.3 81.44 17.51 84.32 17.89 83.46 17.9 83.45 18.28 82.59 36.07 79.71"/><polygon class="cls-6" points="18.28 82.59 17.9 83.45 17.89 83.46 17.51 84.32 0 58.38 0.38 57.52 0.39 57.51 0.78 56.65 18.28 82.59"/><path class="cls-2" d="M66,118.26c.37-.89.76-1.76,1.17-2.62-.65-.8-.76-.2-1.12-.83l.32-1.36c-1.4-2.16-7.06-5.32-9.3-5-4.11.51-4.6-.23-6.28-1.22-1-.62-1.14,2,.64,2.48l1.87.48a23.31,23.31,0,0,1-2.93-.24c-1.92-.69-3.83-1.5-5.75-2-.36-.09-1.58.19-.54,1,.83.65-1.06,1-2.22,1.38a.67.67,0,0,0-.34,1,4.78,4.78,0,0,0,.84,1.07.65.65,0,0,0-.35.51c-.1.8.87,1.35,1.49,1.74a12.8,12.8,0,0,0,3.3,2.61c.4.26,0,0,.42.22s.79.41,1.19.58h0l.51.23a8.37,8.37,0,0,0,.93.3q.58.12,1.2.21h0c8.7,2.25,11.07-1,11.69-.94a4.31,4.31,0,0,1,3.16.55Z"/><path class="cls-7" d="M93,103c-1.14-3.13-6.7-36.07-6.88-39.82-.26-5.64,2.05-8.35,4.48-8.85,9.33-1.93,12,7,13.49,17.31.22,1.5,3.12,38.54,1,42-4,6.52-29.08,9.3-42.74,5.18L64,109.37A45.85,45.85,0,0,0,93,103Z"/><path class="cls-8" d="M94.77,140.28l-37.59-2.75s-2-7.71-2.89-13.65c-.08-.55-3.51-1.72-4-2.25-4.13-4.4-1.32-10.86-1.69-14.1-2.9-25.8-4.25-40.33-4.25-40.33,0-8.86,11.11-13.06,14.39-13.06l5-.42,1.62-4.54a16.24,16.24,0,0,0,7.13,2.38,17.27,17.27,0,0,0,7.59-1.12l.72,3.05s10.7-.2,13.54,1.69C101.26,59.8,98.39,74.1,99,85.71c.94,18.64,1.38,24.84-.89,31.37-1.23,3.55-4,4.08-4,4.91C94.51,131.29,94.77,140.28,94.77,140.28Z"/><path class="cls-9" d="M99,85.71c0-.86-.06-1.73-.07-2.61a64.57,64.57,0,0,0-16.36,8.18c.54-.31-4,3.44-4.77,4.13q-2.55,2.41-4.94,5c-4.25,4.65-4.57,5.27-8.66,11.38l-.09.11a91.49,91.49,0,0,0-4.21,17.8A104.42,104.42,0,0,1,74,107.45,70.39,70.39,0,0,1,99.12,88.59C99.07,87.65,99,86.71,99,85.71Z"/><path class="cls-10" d="M60.89,126.64c-6.5,7.62-3.71,10.89-9.57,28.94-3,9.14-1.2,46.07-1.42,59-.12,7.41-6,14.39-5.64,24.71.23,6.66,3.55,21.52,3.9,44.14.06,4.08-3.43,7.36-3.68,9.7a3.41,3.41,0,0,0,2.27,3.92s10.28,1,12.72-.31c1.14-.63,2.24-2.88,2.24-2.88s-4.43-6.36-4.46-8.12c-.38-23.67,3.69-58.17,6.31-66.87,6.38-21.17,10.51-61.89,19.32-81.43C67.88,133.75,76.35,126.69,60.89,126.64Z"/><path class="cls-4" d="M45.71,292.47c10.07,1,20.21,5,21.43,2.64.83,1.17.69,6.87.6,7.84,0,0-.2,2.76-4.23,2.95-4.75.23-7.09-.65-9.47-.43-13.13,1.19-26,.49-24.8-4.9.4-1.78,7.32-3.83,12.51-5.57C47.91,292.93,45.71,292.47,45.71,292.47Z"/><path class="cls-11" d="M76.23,230.67c1,18.58-2,60.55-2,60.55,3.52.38,25.14,1.09,28,.43-2-10.6-2.1-40.39-3.19-48.6-1.77-13.35-5.14-28.11-4.57-35,1.41-16.82-5.71-34,1.33-56.44-4.88,5.57-29.19-2.57-33.43,3.51C64.2,155.16,76,226.22,76.23,230.67Z"/><path class="cls-5" d="M39.53,295.53c1.85-11.72,3.37-25.84,4.71-62.77,1.23-33.77,1.14-56.34,9.06-94.15l19.78-14.17,6.68,1.43,14.56,7.22s2.63,13.66,1.47,18.57c-1.88,8-12.24,7.93-17.2,22-4.25,12.08-8.66,38-9.83,49.35-.48,4.62.94,21,.75,23.75-2.18,31.81-.26,51.65-1.71,51.63C67.8,298.37,39.46,296,39.53,295.53Z"/><path class="cls-7" d="M82.13,53.84,80.67,47.4s-2.41,2-7,1.78c-3.85-.21-11.28-1.35-11.28-1.35L60.76,54c2.1,1.56,10.41,3.69,14.11,3.17C79.3,56.51,82,55.31,82.13,53.84Z"/><path class="cls-6" d="M95.1,137.56l-41.8,1.05-1.15-16.06s22.36,2.34,29.4,2.13a28.26,28.26,0,0,0,14.24-4.28Z"/><path class="cls-2" d="M17.39,84.3c.85-.45,1.71-.87,2.58-1.27,0-1-.46-.63-.33-1.35l1.12-.84c.31-2.55-2-8.6-3.9-9.83-3.48-2.24-3.38-3.12-4-5-.41-1.14-2.15.78-1.1,2.32.14.21,1.12,1.56,1.12,1.56a22.9,22.9,0,0,1-2.09-2.06c-1-1.76-2-3.61-3.15-5.21-.22-.3-1.33-.87-1.05.42.22,1-1.49.12-2.59-.37a.69.69,0,0,0-.87.51,4.82,4.82,0,0,0,0,1.37.63.63,0,0,0-.6.16c-.59.55-.2,1.6,0,2.29a12.72,12.72,0,0,0,.86,4.13c.14.45,0,0,.17.43s.35.82.55,1.21h0l.25.51a8.88,8.88,0,0,0,.52.83c.25.32.51.62.78.92l0,0c5.23,7.32,9.11,6.37,9.58,6.78a4.34,4.34,0,0,1,2.06,2.45Z"/><path class="cls-7" d="M48.55,118.77c6.05-2.11,10.37-38.69,10.67-40.17,1.48-7.3,3.67-18.5-7.07-20.28-4-.66-8,4.42-9.31,9.91-.85,3.65-2.1,30.58-3.32,28.62-2.59-4.18-14.14-12.78-16.51-18,0,0-5.66,1.78-8,6,0,0,13.77,22.28,19.69,28.09S45,120,48.55,118.77Z"/></g></g></svg>