<svg xmlns="http://www.w3.org/2000/svg" viewBox="0 0 129.87 216.55"><defs><style>.cls-1{fill:#eda97c;}.cls-2{fill:#2e3030;}.cls-3{fill:#1b1c1c;}.cls-4{fill:#f7a581;}.cls-5{fill:#efe8da;}.cls-6{fill:#d6cfc1;}.cls-7{fill:#492004;}.cls-8{fill:#ffbc8f;}.cls-9{fill:#682d04;}.cls-10{fill:#1f2121;}.cls-11{fill:#422e20;}.cls-12{fill:#564031;}.cls-13{fill:#d67432;}.cls-14{fill:#ea833d;}.cls-15{fill:#9b5627;}</style></defs><title>entrance pos</title><g id="Layer_2" data-name="Layer 2"><g id="_ÎÓÈ_3" data-name="—ÎÓÈ_3"><path class="cls-1" d="M35,64.84c-3.21,3.76-2.58,5.45-3.42,14.89-.42,4.71-.59,22.7-.7,29.08-.06,3.65-2.95,7.09-2.78,12.17.11,3.29,1.75,10.61,1.92,21.75,0,2-1.69,3.63-1.81,4.78a1.69,1.69,0,0,0,1.12,1.94s5.06.5,6.27-.16a4.05,4.05,0,0,0,1.1-1.42s-2.18-3.13-2.2-4c-.18-11.66,1.82-28.66,3.11-32.95,3.15-10.43,5.18-30.49,9.52-40.12C39.75,69,42.63,64.87,35,64.84Z"/><path class="cls-2" d="M37.3,147.49c-3.1,2.65-8.35-.67-8.52-1.71a9.37,9.37,0,0,0-1.22,2.91s-.39,1.64,1.24,1.67a9.14,9.14,0,0,1,3.11.79c4.85,2.12,8.69,2.33,9.72-.1.43-.6-.16-.28-1.92-1.6A20.83,20.83,0,0,1,37.3,147.49Z"/><path class="cls-1" d="M50,112.88c-.16-.27-10.06-33.23-11-33.23,2.09-3,11-2.93,13.42-5.68,2.37,1.6,4.44,35.3,4.82,39.92.62,7.44.52,17.6,1.64,24.23A10.33,10.33,0,0,0,64,145.78a2.1,2.1,0,0,0-1.92,1.49c-.34.94-3,.4-5,.49-.73,0-4.74.65-4.2-1.32s1.82-3.75,1.66-5.09c-.43-3.79-.92-3.35-1.63-6-2.41-9.06-3.28-10.88-3.92-15.84C48.71,117.3,50.46,113.69,50,112.88Z"/><path class="cls-3" d="M49,119.48c.64,5,1.51,6.78,3.92,15.84A50.19,50.19,0,0,1,54,142a23.72,23.72,0,0,0,6.1-.29,15.38,15.38,0,0,1-.87-4.07c-1.11-6.62-1.35-16.33-2-23.77-.38-4.62-3.71-48.56-6.07-50.15C48.8,66.49,41.13,76.65,39,79.65c.9,0,10.8,33,11,33.23C50.46,113.69,48.71,117.3,49,119.48Z"/><path class="cls-3" d="M63.41,145.14c-3.17,2.68-9.74.36-10-.66-.44.37-.94,2.61-1,3,0,0-.26,1.67,1.36,1.57a27.13,27.13,0,0,1,4.51.06c4.47.89,9.8,1,10.65-1.48.38-.63-1.52-.75-3.58-1.55S63.41,145.14,63.41,145.14Z"/><path class="cls-4" d="M76.27,59c0,.48,0,1,0,1.42.46.23.38-.07.67.14l.14.68a8.24,8.24,0,0,0,5.19.39,9.93,9.93,0,0,1,3-1.18c.59-.1.21-.66-.7-.53l-1.93.34s2.12-.64,2.36-.66c1-.08,2-.1,3-.27.17,0,.67-.41,0-.56s-.59-.06-1.1-.15,1.36-.53,1.82-.92a.33.33,0,0,0,0-.49,2.16,2.16,0,0,0-.6-.32.33.33,0,0,0,.06-.3c-.12-.38-.67-.43-1-.47-.09,0-.2,0-.61-.05,1.13-.71-.64-.5-1.41-.46-.23,0,0,0-.23,0l-.65,0h-.29a3.91,3.91,0,0,0-.48,0l-.58.15h0c-4.36.75-4.78,2.67-5.06,2.79a2.14,2.14,0,0,1-1.53.38Z"/><path class="cls-2" d="M29.66,144.48c-.16-5.1-1.54-16-1.56-26.12,0-1.44,2-5.38,2-6.83,0-16.65-1.22-30.66-1-33.35.82-9.17,2.48-7.42,5-13.34.62,0,8.2-1.1,8.2-1.1l3.29.7,5.6-.7S46.05,74,42.83,90c-1.31,6.47-3.48,17.44-5.21,25.9-3,14.62-1.89,29.05-2.61,29.05C35,144.93,29.66,144.72,29.66,144.48Z"/><path class="cls-5" d="M61.83,51.58C58,47.8,55.14,34.34,52.49,31.25c-1.43-1.67-3.37-.89-4.47-.37-4.34,2.08-.39,7.64,1.2,10.94,1,2.16,4.21,10.19,9,14.36,2.14,1.87,12.06,4,19.58,5.51l.92-4.37C72.44,54.85,65.06,54.79,61.83,51.58Z"/><path class="cls-1" d="M46.38,24.2c.92-1.95.23-2.06-.61-2.89A4.57,4.57,0,0,0,42.59,20a4.51,4.51,0,0,0-3.18,1.32c-.3.32-.16-1.32-.38-.93.44,1.94-.85,8.41-1.2,10.45.23.47,1.21.59,1.53.92.78.78,2.06-.68,3.18-.73s2.87-1.15,3.09,0C46,33.09,45,27.12,46.38,24.2Z"/><path class="cls-6" d="M52.06,65.86l-17.88.53s-1-7.13-1.43-10.06c-.85-5.49-4.57-23.59-4.57-23.59,0-1.61,5.44-3,7.06-3l2.46-.2.8-2.24A8,8,0,0,0,42,28.47a8.57,8.57,0,0,0,3.74-.55l.36,1.5,3.48.9c2,3.56,2.67,10.31,2.67,11.28,0,3.17-.72,4.6-.74,11.09,0,.8.51,3.2.54,4,0,.41-.48,1.58-.47,2C51.8,63.28,52.06,65.86,52.06,65.86Z"/><path class="cls-5" d="M46.11,29.42l-.46-1.74a7.56,7.56,0,0,1-3.64.57,9.58,9.58,0,0,1-3.51-.95l-.8,2.24a11.07,11.07,0,0,0,5.49,1.68l.39-2.39L44.52,31C45.16,30.81,46.05,30.15,46.11,29.42Z"/><path class="cls-7" d="M35.84,6c-1.62,1.76-1.24,4.3-2.3,6.29a3.88,3.88,0,0,1-1.3,1.31c-2.66,1.81-5.51,1.09-7.9-.57a5.09,5.09,0,0,0,3-2.92C28.05,8.42,26.29,5,29,1.85,31.36-.82,35.9-.39,38.2,1.78a4.6,4.6,0,0,1,1.16,2.7h0A4.39,4.39,0,0,0,35.84,6Z"/><path class="cls-8" d="M53.78,10.12c.07,1.07-1.5,3.32-.68,4.56,1.29,1.94-2.34,9.12-5.55,9.51-5.71.69-13.43-4.15-13.83-9.89A10.42,10.42,0,0,1,43.39,3.18C49.13,2.78,53.38,4.38,53.78,10.12Z"/><path class="cls-9" d="M41.33,13.5c-6.27,6-1.35,8-3.74,7.21-1.51-.51-3.29-2.35-4.18-6.37-1.37-6.19.46-10,4.78-12.12,6-3,15.34-.56,15.59,7.9C53.81,11.29,47.16,8,41.33,13.5Z"/><path class="cls-3" d="M45.05,37.39a.33.33,0,1,1-.33-.33A.33.33,0,0,1,45.05,37.39Z"/><circle class="cls-3" cx="45.05" cy="62.62" r="0.33"/><path class="cls-3" d="M44.94,57.29a.34.34,0,0,1,.42.21.33.33,0,0,1-.2.42.34.34,0,0,1-.42-.21A.33.33,0,0,1,44.94,57.29Z"/><circle class="cls-3" cx="45.05" cy="55.9" r="0.33"/><path class="cls-3" d="M45.38,50.46a.33.33,0,1,1-.33-.33A.33.33,0,0,1,45.38,50.46Z"/><path class="cls-3" d="M45.38,43.92a.33.33,0,1,1-.33-.33A.33.33,0,0,1,45.38,43.92Z"/><path class="cls-3" d="M45.38,39a.33.33,0,1,1-.33-.33A.33.33,0,0,1,45.38,39Z"/><path class="cls-3" d="M44.92,52.42a.34.34,0,0,1-.17-.44.32.32,0,0,1,.43-.16.32.32,0,0,1,.17.43A.33.33,0,0,1,44.92,52.42Z"/><path class="cls-3" d="M45.38,45.64a.33.33,0,1,1-.33-.33A.33.33,0,0,1,45.38,45.64Z"/><path class="cls-3" d="M44.39,32a.33.33,0,1,1-.32-.33A.32.32,0,0,1,44.39,32Z"/><path class="cls-3" d="M44.72,33.41a.33.33,0,1,1-.65,0,.33.33,0,0,1,.65,0Z"/><path class="cls-10" d="M52.06,65.86l-17.88.53L33,59.14s8.92.48,12.39.37c4.2-.12,6.18-1.32,6.18-1.32Z"/><path class="cls-4" d="M49.76,72.45c.15-.45.3-.9.43-1.35.5-.09.34.17.68.06l.33-.61c1.22-.34,4.34.35,5.07,1.19,1.35,1.53,1.55,1.82,2.49,2,.59.11,0,.69-.82.29-.12-.05-1.75-.9-1.75-.9s1.84,1.25,2.06,1.34c.93.38,1.9.7,2.77,1.15.16.09.52.59-.13.55s-.58-.12-1.09-.18,1.14.91,1.46,1.41a.34.34,0,0,1-.19.46,2.41,2.41,0,0,1-.66.12.32.32,0,0,1,0,.31c-.22.32-.76.21-1.12.15a3.43,3.43,0,0,0-.59-.15c.87,1-.76.29-1.48,0a1.42,1.42,0,0,1-.22,0c-.22-.06-.43-.11-.63-.18h0L56.06,78a3.62,3.62,0,0,1-.45-.2,5.19,5.19,0,0,1-.5-.31l0,0c-3.94-2-3.76-4-4-4.17a2.17,2.17,0,0,0-1.34-.83Z"/><path class="cls-5" d="M37.26,55.73C35.8,53.16,36.3,36.88,35,33c-.72-2.07-2.81-2.06-4-2-4.79.36-3.13,7-2.86,10.63.18,2.38,2.18,16.43,4.05,18.64C37,66.1,42.93,67.83,50.83,73.5L54,70.35C49.75,66.19,40,60.56,37.26,55.73Z"/><polygon class="cls-11" points="35.27 216.55 2.65 195.87 2.35 119.2 34.97 139.88 35.27 216.55"/><polygon class="cls-12" points="126.68 161.87 35.27 216.55 34.97 135.04 126.38 80.36 126.68 161.87"/><polygon class="cls-13" points="129.87 82.21 118.53 75.44 118.61 75.39 95.81 61.76 0 119.86 22.12 133.3 22.13 133.29 33.38 140.12 129.87 82.21"/><polygon class="cls-14" points="129.87 85.26 33.38 143.16 33.38 140.12 129.87 82.21 129.87 85.26"/><polygon class="cls-15" points="0 122.9 33.38 143.16 33.38 140.12 0 119.86 0 122.9"/></g></g></svg>