<svg xmlns="http://www.w3.org/2000/svg" viewBox="0 0 122.51 305.97"><defs><style>.cls-1{fill:#f77f43;}.cls-2{fill:#ff985f;}.cls-3{fill:#280f04;}.cls-4{fill:#050505;}.cls-5{fill:#2e3030;}.cls-6{fill:#1f2121;}.cls-7{fill:#3c6084;}.cls-8{fill:#282751;}.cls-9{fill:#181835;}.cls-10{fill:#eda97c;}.cls-11{fill:#1b1c1c;}</style></defs><title>Asset 22</title><g id="Layer_2" data-name="Layer 2"><g id="_ÎÓÈ_3" data-name="—ÎÓÈ_3"><path class="cls-1" d="M43.88,57.31c-.74-.12,1.33-1.52.35-2.09-.94-1.77-2.81-11.41-1.52-14.51-.09,0-12,0-16.14,0L24.74,55.36c-4,1.59-1.61,3.2-4,1.59a6.57,6.57,0,0,0-8.52,1.47c-1.91,2.45,1,1.27,1.9,4.52A35.47,35.47,0,0,0,16,67.45c.35.76.86,1.44,1.25,2.19l.09.2c-.23.46-.49.92-.75,1.38-.58.62-1.23,1.18-1.8,1.79a2.3,2.3,0,0,0-.92.64,6.54,6.54,0,0,0-1.58,4.09,7.49,7.49,0,0,0,0,2.67v0a.36.36,0,0,1,0,.1c0,.06,0,.12,0,.18a3.74,3.74,0,0,0,.12.48,2.25,2.25,0,0,1,.08.24l0,.09a6.76,6.76,0,0,0,.33.78,2.3,2.3,0,0,0,.56.75c.29.41.6.82.89,1.24,2,2.88,5.07,4.61,8.21,6a6.79,6.79,0,0,1,1.05.6l.3.37c2.44.84,4.46,2.31,5.06,5.1a9.68,9.68,0,0,1,.17,2.51c6.51,1,13,1.93,19.57,2.79-.09-.24-.16-.47-.23-.72C47,95.84,46.74,57.8,43.88,57.31Z"/><path class="cls-2" d="M19.63,15.51C23,7.7,32.55,5.91,38.4,8.21,41.5,9.42,49,9,51.44,14a26.9,26.9,0,0,1,1.3,5.44c0,1.08-.31,4.31-.22,5.2.11,1.09.69,1.84.65,2.9a33,33,0,0,1-1,7.63c-1,3.62.31,4.92-1.78,6.15-2.52,1.49-11.74,1.34-17-1.67-4.2-2.42-6.73-4-7.22-4.26C15.8,30.17,16.29,23.32,19.63,15.51Z"/><path class="cls-3" d="M12.83,21.7a14.21,14.21,0,0,1,3.22-8.13h0S15.77,2.72,31.88.25c9.53-1.46,15.22,3.66,19,11.13,1.74,3.45,2.8,6.23,2.8,6.23-.29.31-7.56-1.76-7.66-.19-.35,5.66-1.19,9.92-1.62,9.62-8-5.52-3.36,9.67-5,14.69C35.05,43.2,25.2,43,25,41.73,23.74,34,12.83,29.53,12.83,21.7Z"/><path class="cls-4" d="M23.87,288c-10.08.84-17.34,4.27-18.51,1.92-.86,1.15-.82,6.86-.76,7.83,0,0-.95,2.67,4.18,3,5.62.4,6.86-.38,9.34.31,9.58,2.64,25.08,1.16,24.8-2.33-.22-2.73-5.1-5.1-10.25-6.94A53.38,53.38,0,0,1,23.87,288Z"/><polygon class="cls-5" points="122.4 94.57 114.07 89 114.1 88.98 107.24 84.69 80.87 101.28 87.42 105.6 87.42 105.6 95.83 111.1 122.4 94.57"/><polygon class="cls-6" points="80.87 101.27 80.87 102.21 80.87 102.22 80.87 103.17 95.93 113.06 95.93 112.12 95.93 112.1 95.93 111.16 80.87 101.27"/><polygon class="cls-6" points="95.93 111.16 95.93 112.1 95.93 112.12 95.93 113.06 122.5 96.53 122.5 95.59 122.5 95.57 122.5 94.63 95.93 111.16"/><path class="cls-2" d="M39.91,118.26c-.37-.89-.76-1.76-1.17-2.62.65-.8.76-.2,1.12-.83l-.32-1.36c1.4-2.16,7.06-5.32,9.3-5,4.11.51,4.6-.23,6.28-1.22,1-.62,1.14,2-.64,2.48l-1.87.48a23.31,23.31,0,0,0,2.93-.24c1.92-.69,3.83-1.5,5.75-2,.36-.09,1.58.19.54,1-.83.65,1.06,1,2.23,1.38a.67.67,0,0,1,.33,1,4.78,4.78,0,0,1-.84,1.07.65.65,0,0,1,.35.51c.1.8-.87,1.35-1.49,1.74a12.8,12.8,0,0,1-3.3,2.61c-.4.26,0,0-.42.22s-.79.41-1.19.58h0l-.51.23a8.37,8.37,0,0,1-.93.3q-.59.12-1.2.21h0c-8.7,2.25-11.07-1-11.69-.94a4.31,4.31,0,0,0-3.16.55Z"/><path class="cls-7" d="M12.86,103c1.14-3.13,6.7-36.07,6.88-39.82.26-5.64-2-8.35-4.48-8.85-9.33-1.93-11.95,7-13.49,17.31-.22,1.5-3.11,38.54-1,42,4,6.52,29.08,9.3,42.74,5.18l-1.61-9.41A45.85,45.85,0,0,1,12.86,103Z"/><path class="cls-8" d="M11.1,140.28l37.59-2.75s2-7.71,2.89-13.65c.08-.55,3.51-1.72,4-2.25,4.13-4.4,1.32-10.86,1.69-14.1,2.9-25.8,4.25-40.33,4.25-40.33,0-8.86-11.11-13.06-14.38-13.06l-5-.42-1.62-4.54a16.24,16.24,0,0,1-7.13,2.38,17.27,17.27,0,0,1-7.59-1.12l-.72,3.05s-10.7-.2-13.54,1.69C4.61,59.8,7.48,74.1,6.9,85.71c-.94,18.64-1.38,24.84.89,31.37,1.23,3.55,4,4.08,4,4.91C11.36,131.29,11.1,140.28,11.1,140.28Z"/><path class="cls-9" d="M6.9,85.71c0-.86.06-1.73.07-2.61a64.57,64.57,0,0,1,16.36,8.18c-.54-.31,4,3.44,4.77,4.13q2.56,2.41,4.94,5c4.25,4.65,4.57,5.27,8.66,11.38a.87.87,0,0,1,.09.11A91.49,91.49,0,0,1,46,129.71a104.42,104.42,0,0,0-14.14-22.26A70.39,70.39,0,0,0,6.75,88.59C6.8,87.65,6.85,86.71,6.9,85.71Z"/><path class="cls-10" d="M45,126.64c6.5,7.62,3.71,10.89,9.57,28.94,3,9.14,1.2,46.07,1.42,59,.12,7.41,6,14.39,5.64,24.71-.23,6.66-3.55,21.52-3.9,44.14-.06,4.08,3.44,7.36,3.68,9.7a3.41,3.41,0,0,1-2.27,3.92s-10.28,1-12.72-.31c-1.14-.63-2.24-2.88-2.24-2.88s4.43-6.36,4.46-8.12c.38-23.67-3.69-58.17-6.31-66.87C35.93,197.72,31.8,157,23,137.46,38,133.75,29.52,126.69,45,126.64Z"/><path class="cls-4" d="M60.16,292.47c-10.07,1-20.21,5-21.43,2.64-.83,1.17-.69,6.87-.6,7.84,0,0,.2,2.76,4.23,2.95,4.75.23,7.09-.65,9.47-.43,13.13,1.19,26,.49,24.8-4.9-.4-1.78-7.32-3.83-12.51-5.57C58,292.93,60.16,292.47,60.16,292.47Z"/><path class="cls-11" d="M29.64,230.67c-1,18.58,2,60.55,2,60.55-3.52.38-25.14,1.09-27.95.43,2-10.6,2.1-40.39,3.19-48.6,1.77-13.35,5.14-28.11,4.57-35-1.41-16.82,5.71-34-1.33-56.44,4.88,5.57,29.19-2.57,33.43,3.51C41.67,155.16,29.88,226.22,29.64,230.67Z"/><path class="cls-5" d="M66.34,295.53c-1.85-11.72-3.37-25.84-4.71-62.77-1.23-33.77-1.14-56.34-9.06-94.15L32.79,124.44l-6.68,1.43-14.56,7.22s-2.63,13.66-1.47,18.57c1.88,8,12.24,7.93,17.2,22,4.26,12.08,8.66,38,9.83,49.35.48,4.62-.94,21-.75,23.75,2.18,31.81.26,51.65,1.71,51.63C38.07,298.37,66.41,296,66.34,295.53Z"/><path class="cls-7" d="M23.74,53.84,25.2,47.4s2.41,2,7,1.78c3.85-.21,11.28-1.35,11.28-1.35L45.11,54C43,55.53,34.7,57.66,31,57.14,26.57,56.51,23.85,55.31,23.74,53.84Z"/><path class="cls-6" d="M10.77,137.56l41.8,1.05,1.15-16.06s-22.36,2.34-29.4,2.13a28.31,28.31,0,0,1-14.24-4.28Z"/><path class="cls-2" d="M96.05,113.09c-.6-.76-1.21-1.5-1.84-2.21.41-.95.67-.39.85-1.1l-.68-1.22c.76-2.46,5.35-7,7.58-7.39,4.09-.62,4.36-1.47,5.7-2.88.84-.87,1.64,1.59.06,2.56-.21.14-1.66,1-1.66,1a23.26,23.26,0,0,0,2.75-1c1.67-1.18,3.28-2.48,5-3.47.32-.18,1.57-.25.79.82-.62.85,1.31.71,2.52.72a.68.68,0,0,1,.58.82,4.93,4.93,0,0,1-.52,1.26.64.64,0,0,1,.48.4c.31.74-.47,1.54-1,2.07a12.6,12.6,0,0,1-2.46,3.42c-.32.35,0,0-.34.32s-.65.61-1,.89h0l-.43.36a8.87,8.87,0,0,1-.81.55c-.36.18-.72.36-1.09.52h-.05c-7.76,4.54-10.91,2.09-11.51,2.28a4.33,4.33,0,0,0-2.89,1.39Z"/><path class="cls-7" d="M67.06,106.1c.24-3.32-3.18-34.22-4-37.87-1.28-5.49-5.33-10.57-9.31-9.91C43,60.1,45.17,71.3,46.65,78.6c.3,1.48,7.5,37.92,10.47,40.67,5.61,5.18,30.51,1,42.53-6.67L95.54,104C79.76,110.47,67.06,106.1,67.06,106.1Z"/></g></g></svg>