<svg xmlns="http://www.w3.org/2000/svg" viewBox="0 0 164.32 348.72"><defs><style>.cls-1{fill:#f7a581;}.cls-2{fill:#efe8da;}.cls-3{fill:#050505;}.cls-4{fill:#272828;}.cls-5{fill:#2e3030;}.cls-6{fill:#eda97c;}.cls-7{fill:#1f2121;}.cls-8{fill:#ffbc8f;}.cls-9{fill:#682d04;}.cls-10{fill:#492004;}.cls-11{fill:#d6cfc1;}</style></defs><title>Asset 34</title><g id="Layer_2" data-name="Layer 2"><g id="_ÎÓÈ_3" data-name="—ÎÓÈ_3"><path class="cls-1" d="M138.8,155.94c1.08.35,2.15.67,3.23,1,.22,1.19-.4.82-.12,1.63l1.46.75c.85,2.89-.91,10.09-2.61,12.13-2.17,2.6-3.1,2.82-4.68,6-.62,1.27-1.65,0-.74-2l2.07-4.19s-2.88,4.42-3.09,4.95c-.86,2.24-1.59,4.56-2.63,6.63-.19.39-1.37,1.27-1.3-.28.06-1.23.26-1.37.38-2.6s-2.12,2.75-3.31,3.53a.79.79,0,0,1-1.1-.42,5.91,5.91,0,0,1-.31-1.57.75.75,0,0,1-.73-.08c-.78-.52-.53-1.8-.4-2.65a8.3,8.3,0,0,0,.32-1.42c-2.39,2.12-.72-1.8-.13-3.51.08-.56,0,0,.12-.54s.25-1,.39-1.51h0c.06-.22.12-.43.19-.64a8.16,8.16,0,0,1,.44-1.06c.22-.41.47-.82.72-1.22l0,0c4.63-9.47,9.3-9.12,9.75-9.69a5.1,5.1,0,0,0,1.92-3.24Z"/><path class="cls-2" d="M150.42,119.37c-1-12.72-21.07-38.65-22.61-48.21-.83-5.15,2.07-9.25,4.71-10.43C143,56,148.47,73.5,152,81.46c2.33,5.19,12.05,23.29,12.28,38.43.1,6.75-11.26,28.06-20,44.05l-9.36-5.05C140.07,143.68,151.3,130.15,150.42,119.37Z"/><path class="cls-3" d="M140.06,337.18c4.08,7.33,16,3,17,.83.65,1,.49,6.05.41,6.91,0,0-.34,3.74-3.39,2.92a16.08,16.08,0,0,0-6.33.07c-10.45,2-17.76.39-18.12-5.37-.42-1.52.48-.52,4.62-2.44A44.16,44.16,0,0,0,140.06,337.18Z"/><path class="cls-3" d="M75.54,332.82c7.54,6.36,23.18.86,23.76-1.59,1.06.89,2.26,6.22,2.41,7.13,0,0,.62,4-3.23,3.74-2.29-.14-8.49-.32-10.74.13-10.62,2.13-23.31,2.42-25.32-3.52-.92-1.49,3.62-1.79,8.5-3.69C75.55,333.22,75.54,332.82,75.54,332.82Z"/><path class="cls-4" d="M159.45,338.67c-2.89-17.49-1.43-45.45-1.39-69.58,0-3.41-4.74-12.79-4.74-16.25,0-39.62,2.91-73,2.34-79.34-1.94-21.82-7.4-18.25-13.41-32.34-1.47,0-18-2-18-2l-7.83,1.67-13.32-1.67s12.26,24.35,19.93,62.43c3.11,15.41,8.28,41.49,12.39,61.64,7.1,34.79,2.19,58.63-2.17,77.71,0,0,9.55,1.86,14.93,1.23C154.82,341.35,159.5,339,159.45,338.67Z"/><path class="cls-5" d="M104.58,139.13C99,142.92,91,247.47,90.13,258.45c-1.47,17.7-3,33.15-8.11,52.39-2,7.6-5.12,18.71-9.39,23.49,3.3.77,25,4.48,29.08,4,0,0,.89-17.86,2.12-24.34,4.63-24.56,4.5-30.47,6-42.26.67-5.19-3.28-13.68-2.38-15.72,4.72-10.78,13.67-39,20.64-49.75s16.68-27,13.95-39.42-8.95-21.14-9.7-25.13Z"/><path class="cls-6" d="M111.82,45.23c-2.34-4.9.14-5.91,2.26-8a11.3,11.3,0,0,1,16,0c.76.83.41-3.29.95-2.31-1.1,4.86,2.14,21.14,3,26.27-.59,1.19-3,1.49-3.86,2.31-2,2-5.18-1.71-8-1.83s-7.2-2.91-7.75,0C113.47,66.83,115.31,52.57,111.82,45.23Z"/><polygon class="cls-5" points="46.7 127.69 44 114.87 44.03 114.88 41.53 104.6 1.72 96.05 3.91 106.08 3.91 106.08 6.75 118.9 46.7 127.69"/><polygon class="cls-7" points="1.73 96.04 0.87 96.92 0.86 96.94 0 97.81 5.06 120.82 5.92 119.94 5.94 119.92 6.79 119.04 1.73 96.04"/><polygon class="cls-7" points="6.79 119.04 5.94 119.92 5.92 119.94 5.06 120.82 45.01 129.61 45.87 128.73 45.88 128.72 46.74 127.84 6.79 119.04"/><path class="cls-1" d="M38.81,129c.27-1.1.56-2.19.88-3.26-.9-.8-.91-.08-1.45-.75l.13-1.64c-2-2.24-9.15-4.88-11.69-4.15-4.66,1.33-5.45,1.67-7.58.82-1.31-.52-.88,1.4,1.28,1.66.3,0,4.65.44,4.65.44s-5.27.13-5.84,0c-2.35-.44-4.7-1-7-1.25-.43,0-1.8.5-.44,1.26,1.08.6,1.3.5,2.41,1s-3.46.36-4.74,1a.8.8,0,0,0-.22,1.16,6.08,6.08,0,0,0,1.17,1.09.76.76,0,0,0-.31.66c0,.94,1.25,1.4,2,1.73a10.09,10.09,0,0,1,1.38.48c-3.06.92,1.15,1.56,2.92,1.95.51.23,0,0,.52.18s1,.33,1.49.46h0l.64.17a10.84,10.84,0,0,0,1.14.19c.47,0,.94,0,1.42,0l.05,0c10.49,1,12.64-3.12,13.37-3.21a5.1,5.1,0,0,1,3.76.07Z"/><path class="cls-8" d="M129.52,13.65c-6-7.35-16.84-6.32-22.41-2.06-3,2.26-11.15,4.14-12.2,10.25a30.07,30.07,0,0,0,.28,6.24c.65,2.12,1.56,4,1.76,6.17A22.26,22.26,0,0,0,99.12,42a52.29,52.29,0,0,1,2.67,5.35,11.66,11.66,0,0,0,.92,2.29c1.67,2.66,6.78.86,9.07.11a25.59,25.59,0,0,0,10.32-5.95c3.76-3.89,6-6.38,6.44-6.79C138.14,28.2,135.5,21,129.52,13.65Z"/><path class="cls-9" d="M138.72,18.2a15.81,15.81,0,0,0-6-7.73h0S131.44-2,113.39.29C102.71,1.66,96.27,8.6,94.45,17.77a19.1,19.1,0,0,0,.36,8.06c1.19-.57,2.7-2.67,4.73.61,3.33,5.38,6.58,7.67,6.95,7.21,6.84-8.38,6.58,9.34,9.87,14.23,5.13.24,15.63-3.06,15.46-4.44C130.79,34.75,141.13,26.6,138.72,18.2Z"/><path class="cls-10" d="M130.91,2.15C140.27,1,146,7.4,146.48,17.19s-11,17.93-1,28.69c0,0-12.23,0-13.92-10.46s.88-17.55-4.54-21.16C122.9,11.55,124.2,3,130.91,2.15Z"/><path class="cls-9" d="M97.61,12c-4,1.23-10.11,9.77.76,18.44s12.45,8.81,12.45,8.81-6.74-4.61-3.44-10.39S105,9.69,97.61,12Z"/><path class="cls-2" d="M112.21,58.27s11.18-7.89,20.92-5.39c0,0,.52,5.79,2.63,9.6-.66.39-14.21-1.81-23.94,4.49C111.82,67,113.13,61.43,112.21,58.27Z"/><path class="cls-11" d="M105.16,69.06s13.55-12,29.46-10.14a66.18,66.18,0,0,1,7.27,6.4c3.42,3.55,7.86,19.62,6,29.08s-5.2,32.17-5.2,39.41c0,0-10.33,6.36-39.16.77,0,0-.63-15.93-4.5-27.84S98.44,76.22,105.16,69.06Z"/><path class="cls-2" d="M92.23,135.67c6.32-1.19,11.8-9.66,16-18s10.22-28.6,10.8-37.51-1.75-11.39-7-12.27c-4-.67-10.08.59-14.6,16.79s-10.7,32-10.7,32a87.74,87.74,0,0,0-15.3,1.38c-9.28,1.55-19.07,3.41-34.1,2.8A15.66,15.66,0,0,0,37,133.47s32.13,1.31,41.29,2.2S90,136.08,92.23,135.67Z"/><path class="cls-7" d="M102.88,131.3s20.78,3.48,40.2-1.06a71.57,71.57,0,0,1-.55,11.34s-15.45,5.82-39.47.84A32.23,32.23,0,0,1,102.88,131.3Z"/></g></g></svg>