<svg xmlns="http://www.w3.org/2000/svg" viewBox="0 0 136.43 348.72"><defs><style>.cls-1{fill:#f7a581;}.cls-2{fill:#efe8da;}.cls-3{fill:#6b6e70;}.cls-4{fill:#a8a8a8;}.cls-5{fill:#7f7f7f;opacity:0.72;}.cls-6{fill:#dbdbdb;}.cls-7{fill:#969696;}.cls-8{fill:#050505;}.cls-9{fill:#272828;}.cls-10{fill:#2e3030;}.cls-11{fill:#eda97c;}.cls-12{fill:#ffbc8f;}.cls-13{fill:#682d04;}.cls-14{fill:#492004;}.cls-15{fill:#d6cfc1;}.cls-16{fill:#1f2121;}</style></defs><title>Asset 37</title><g id="Layer_2" data-name="Layer 2"><g id="_ÎÓÈ_3" data-name="—ÎÓÈ_3"><path class="cls-1" d="M64.38,149.4q.3-1.67.51-3.33c1.14-.38.86.29,1.63-.11l.54-1.54c2.74-1.25,10.33-.79,12.37.89,3.73,3.1,4.32,3.72,6.61,3.8,1.41,0,.24,1.63-1.84,1l-4.44-1.47s4.78,2.24,5.34,2.37c2.33.54,4.73.94,6.93,1.69.41.13,1.44,1.18-.1,1.32-1.23.12-1.4-.07-2.63,0s3,1.72,4,2.79A.79.79,0,0,1,93,158a6,6,0,0,1-1.51.53.75.75,0,0,1,0,.73c-.4.85-1.71.78-2.57.76a10,10,0,0,0-1.45-.11c2.43,2.07-1.68,1-3.46.61a2.5,2.5,0,0,1-.55,0c-.52-.05-1-.1-1.54-.18l0,0c-.23,0-.44-.06-.66-.09a10.65,10.65,0,0,1-1.11-.29c-.44-.17-.88-.35-1.31-.55l0,0c-10-3.27-10.32-7.94-11-8.31a5,5,0,0,0-3.47-1.45Z"/><path class="cls-2" d="M12.79,134c-5.3-3.63-6.92-13.59-7.44-22.91s2.14-30.3,5.19-38.69S16.73,62.71,21.89,64c3.94,1,9,4.58,6.61,21.24s-3.07,33.58-3.07,33.58a88.35,88.35,0,0,1,13.46,7.42C46.76,131.41,55,137.05,69,142.54a15.66,15.66,0,0,1-4.74,11.69S34.3,142.5,25.55,139.64,14.63,135.29,12.79,134Z"/><ellipse class="cls-3" cx="97.15" cy="141.63" rx="39.28" ry="24.01"/><path class="cls-4" d="M58.71,137.86c0,13,17.21,23.51,38.44,23.51s38.45-10.53,38.45-23.51S119.9,102,98.67,102C74.79,102,58.71,124.88,58.71,137.86Z"/><path class="cls-5" d="M98.67,102c.41,0,.81.06,1.22.08-4.63,1.56-9.27,4.65-13.73,9.66C76.92,122.07,69,136.4,77.75,149.45c3.56,5.29,8.61,8.93,14.25,11.68-18.79-1.54-33.29-11.36-33.29-23.27C58.71,124.88,74.79,102,98.67,102Z"/><path class="cls-6" d="M103.28,107.21c16.18,8.09,20.37,30.92,18.86,48.5a53.64,53.64,0,0,1-22.43,5.59C111.18,146,111.59,125.61,103.28,107.21Z"/><path class="cls-7" d="M96,99.56a2.86,2.86,0,1,0,2.86-2.85A2.86,2.86,0,0,0,96,99.56Z"/><path class="cls-8" d="M19.39,337.18c-4.07,7.33-16,3-17,.83-.65,1-.49,6.05-.41,6.91,0,0,.34,3.74,3.39,2.92a16.08,16.08,0,0,1,6.33.07c10.45,2,17.76.39,18.12-5.37.42-1.52-.47-.52-4.62-2.44A44.16,44.16,0,0,1,19.39,337.18Z"/><path class="cls-8" d="M83.91,332.82c-7.53,6.36-23.18.86-23.76-1.59-1.06.89-2.26,6.22-2.41,7.13,0,0-.62,4,3.23,3.74,2.3-.14,8.5-.32,10.74.13C82.33,344.36,95,344.65,97,338.71c.91-1.49-3.62-1.79-8.51-3.69C83.9,333.22,83.91,332.82,83.91,332.82Z"/><path class="cls-9" d="M0,338.67c2.89-17.49,1.43-45.45,1.39-69.58,0-3.41,4.74-12.79,4.74-16.25,0-39.62-2.9-73-2.34-79.34,2-21.82,7.4-18.25,13.41-32.34,1.47,0,18-2,18-2L43,140.8l13.33-1.67S44.1,163.48,36.43,201.56C33.32,217,28.15,243.05,24,263.2,17,298,21.85,321.83,26.21,340.91c0,0-9.55,1.86-14.93,1.23C4.63,341.35,0,339,0,338.67Z"/><path class="cls-10" d="M54.87,139.13c5.63,3.79,13.54,108.34,14.45,119.32,1.48,17.7,3,33.15,8.11,52.39,2,7.6,5.12,18.71,9.39,23.49-3.3.77-24.95,4.48-29.08,4,0,0-.89-17.86-2.12-24.34-4.63-24.56-4.5-30.47-6-42.26-.67-5.19,3.28-13.68,2.39-15.72-4.73-10.78-13.67-39-20.65-49.75s-16.68-27-13.95-39.42,9-21.14,9.71-25.13Z"/><path class="cls-11" d="M45.42,45.23c2.33-4.9-.15-5.91-2.26-8a11.31,11.31,0,0,0-16,0c-.76.83-.4-3.29-.94-2.31,1.09,4.86-2.14,21.14-3,26.27.59,1.19,3,1.49,3.86,2.31,2,2,5.19-1.71,8-1.83s7.2-2.91,7.75,0C43.77,66.83,41.92,52.57,45.42,45.23Z"/><path class="cls-1" d="M101.6,146.93c.21-1.11.4-2.22.55-3.32,1.15-.37.86.29,1.63-.09l.56-1.54c2.77-1.21,10.35-.64,12.36,1.07,3.69,3.15,4.27,3.78,6.55,3.9,1.41.07.23,1.63-1.85,1L117,146.39s4.74,2.31,5.3,2.45c2.32.58,4.71,1,6.9,1.78.41.15,1.43,1.21-.11,1.33-1.24.1-1.4-.09-2.63-.06s3,1.77,3.91,2.85a.79.79,0,0,1-.28,1.14,5.91,5.91,0,0,1-1.52.51.75.75,0,0,1,0,.73c-.42.84-1.73.76-2.58.73a8.09,8.09,0,0,0-1.45-.14c2.4,2.1-1.7.94-3.47.57-.56,0,0,0-.55-.06s-1-.11-1.54-.2l0,0-.66-.11a11.42,11.42,0,0,1-1.11-.3c-.43-.17-.87-.37-1.3-.57l0,0c-10-3.41-10.21-8.09-10.84-8.47a5.06,5.06,0,0,0-3.45-1.5Z"/><path class="cls-12" d="M27.72,13.65c6-7.35,16.83-6.32,22.4-2.06,3,2.26,11.16,4.14,12.21,10.25a30.78,30.78,0,0,1-.28,6.24c-.66,2.12-1.57,4-1.76,6.17A22.49,22.49,0,0,1,58.11,42a52.29,52.29,0,0,0-2.67,5.35,11,11,0,0,1-.91,2.29c-1.68,2.66-6.79.86-9.07.11a25.56,25.56,0,0,1-10.33-5.95c-3.76-3.89-6-6.38-6.44-6.79C19.09,28.2,21.74,21,27.72,13.65Z"/><path class="cls-13" d="M18.52,18.2a15.78,15.78,0,0,1,6-7.73h0S25.8-2,43.84.29C54.53,1.66,61,8.6,62.79,17.77a19,19,0,0,1-.37,8.06c-1.18-.57-2.69-2.67-4.73.61-3.33,5.38-6.57,7.67-6.95,7.21C43.9,25.27,44.16,43,40.87,47.88c-5.12.24-15.62-3.06-15.46-4.44C26.44,34.75,16.11,26.6,18.52,18.2Z"/><path class="cls-14" d="M26.32,2.15C17,1,11.23,7.4,10.75,17.19s11,17.93,1.05,28.69c0,0,12.24,0,13.93-10.46s-.88-17.55,4.53-21.16C34.33,11.55,33,3,26.32,2.15Z"/><path class="cls-13" d="M59.62,12c4,1.23,10.12,9.77-.75,18.44s-12.46,8.81-12.46,8.81,6.75-4.61,3.44-10.39S52.19,9.69,59.62,12Z"/><path class="cls-2" d="M45,58.27s-11.18-7.89-20.91-5.39c0,0-.53,5.79-2.64,9.6.66.39,14.21-1.81,24,4.49C45.42,67,44.1,61.43,45,58.27Z"/><path class="cls-15" d="M50.94,69.06s-12.12-12-28-10.14a67.94,67.94,0,0,0-8.28,7c-3.42,3.55-7.25,20-5.35,29.44s5.92,29.81,7.28,37.59c0,0,7.23,7.24,36.07,1.65,0,0,.63-15.93,4.5-27.84S57.67,76.22,50.94,69.06Z"/><path class="cls-16" d="M56.76,131.3s-21.34,3.92-40.76-.63c0,0,.31,4.81,1.11,11,0,0,15.44,5.77,39.47.79A32.52,32.52,0,0,0,56.76,131.3Z"/><path class="cls-2" d="M56.92,135.06c-5.43-3.43-10.64-10.93-13.91-19.67s-6.95-29.56-6.53-38.48,3-11.12,8.34-11.4c4.06-.22,9.94,1.71,12.62,18.31s7,33,7,33c.1.37,1.89,1.14,2.26,1.38.81.5,1.61,1,2.41,1.54,1.46,1,3,1.94,4.37,3,2.73,2.14,5.18,4.52,8,6.49,7,4.77,14.61,7.66,22.56,10.29,0,0,2.74,7.43-2.55,11.3l-16.89-4.48C79,144.8,60.2,137.12,56.92,135.06Z"/></g></g></svg>