<svg xmlns="http://www.w3.org/2000/svg" viewBox="0 0 122.51 305.97"><defs><style>.cls-1{fill:#f77f43;}.cls-2{fill:#ff985f;}.cls-3{fill:#280f04;}.cls-4{fill:#050505;}.cls-5{fill:#2e3030;}.cls-6{fill:#1f2121;}.cls-7{fill:#3c6084;}.cls-8{fill:#282751;}.cls-9{fill:#181835;}.cls-10{fill:#eda97c;}.cls-11{fill:#1b1c1c;}</style></defs><title>Asset 20</title><g id="Layer_2" data-name="Layer 2"><g id="_ÎÓÈ_3" data-name="—ÎÓÈ_3"><path class="cls-1" d="M78.62,57.31c.75-.12-1.32-1.52-.34-2.09.93-1.77,2.8-11.41,1.51-14.51.1,0,12,0,16.15,0l1.82,14.65c4,1.59,1.61,3.2,4,1.59a6.56,6.56,0,0,1,8.51,1.47c1.91,2.45-1,1.27-1.9,4.52a32.79,32.79,0,0,1-1.88,4.51c-.35.76-.86,1.44-1.25,2.19,0,.06,0,.13-.08.2.23.46.49.92.74,1.38.58.62,1.24,1.18,1.81,1.79a2.2,2.2,0,0,1,.91.64,6.55,6.55,0,0,1,1.59,4.09,8,8,0,0,1,0,2.67v0a.36.36,0,0,1,0,.1l0,.18c0,.16-.08.33-.13.48a2.25,2.25,0,0,1-.08.24l0,.09a5.37,5.37,0,0,1-.33.78,2.43,2.43,0,0,1-.55.75c-.29.41-.6.82-.9,1.24-2,2.88-5.06,4.61-8.2,6a6.79,6.79,0,0,0-1,.6l-.3.37c-2.45.84-4.47,2.31-5.06,5.1a9.27,9.27,0,0,0-.18,2.51c-6.5,1-13,1.93-19.56,2.79.08-.24.16-.47.23-.72C75.49,95.84,75.77,57.8,78.62,57.31Z"/><path class="cls-2" d="M102.88,15.51C99.55,7.7,90,5.91,84.1,8.21,81,9.42,73.48,9,71.06,14a26.9,26.9,0,0,0-1.3,5.44c0,1.08.32,4.31.22,5.2-.11,1.09-.69,1.84-.64,2.9a32.46,32.46,0,0,0,1,7.63c1,3.62-.31,4.92,1.77,6.15,2.52,1.49,11.75,1.34,17-1.67,4.19-2.42,6.73-4,7.22-4.26C106.71,30.17,106.21,23.32,102.88,15.51Z"/><path class="cls-3" d="M109.67,21.7a14.21,14.21,0,0,0-3.22-8.13h0S106.73,2.72,90.63.25c-9.54-1.46-15.22,3.66-19,11.13-1.74,3.45-2.8,6.23-2.8,6.23.3.31,7.56-1.76,7.66-.19.36,5.66,1.19,9.92,1.63,9.62,7.95-5.52,3.36,9.67,5,14.69,4.35,1.47,14.2,1.23,14.4,0C98.76,34,109.67,29.53,109.67,21.7Z"/><path class="cls-4" d="M98.64,288c10.08.84,17.33,4.27,18.51,1.92.86,1.15.82,6.86.75,7.83,0,0,.95,2.67-4.17,3-5.62.4-6.87-.38-9.34.31-9.58,2.64-25.09,1.16-24.81-2.33.23-2.73,5.1-5.1,10.26-6.94A53.38,53.38,0,0,0,98.64,288Z"/><polygon class="cls-5" points="0.1 94.57 8.43 89 8.41 88.98 15.27 84.69 41.64 101.28 35.08 105.6 35.08 105.6 26.68 111.1 0.1 94.57"/><polygon class="cls-6" points="41.64 101.27 41.64 102.21 41.64 102.22 41.64 103.17 26.57 113.06 26.57 112.12 26.57 112.1 26.57 111.16 41.64 101.27"/><polygon class="cls-6" points="26.57 111.16 26.57 112.1 26.57 112.12 26.57 113.06 0 96.53 0 95.59 0 95.57 0 94.63 26.57 111.16"/><path class="cls-2" d="M82.59,118.26c.37-.89.76-1.76,1.17-2.62-.65-.8-.75-.2-1.12-.83l.32-1.36c-1.4-2.16-7.06-5.32-9.3-5-4.1.51-4.59-.23-6.27-1.22-1-.62-1.15,2,.64,2.48l1.86.48a23.18,23.18,0,0,1-2.92-.24c-1.93-.69-3.83-1.5-5.76-2-.36-.09-1.58.19-.54,1,.83.65-1.06,1-2.22,1.38a.68.68,0,0,0-.34,1,5.43,5.43,0,0,0,.84,1.07.65.65,0,0,0-.35.51c-.1.8.87,1.35,1.5,1.74a12.8,12.8,0,0,0,3.3,2.61c.4.26,0,0,.41.22s.79.41,1.2.58h0l.51.23a7.89,7.89,0,0,0,.94.3c.39.08.79.15,1.19.21h0c8.7,2.25,11.06-1,11.69-.94a4.31,4.31,0,0,1,3.16.55Z"/><path class="cls-7" d="M109.65,103c-1.14-3.13-6.7-36.07-6.88-39.82-.26-5.64,2-8.35,4.47-8.85,9.33-1.93,12,7,13.49,17.31.22,1.5,3.12,38.54,1,42-4,6.52-29.08,9.3-42.74,5.18l1.61-9.41A45.85,45.85,0,0,0,109.65,103Z"/><path class="cls-8" d="M111.41,140.28l-37.59-2.75s-2-7.71-2.89-13.65c-.09-.55-3.52-1.72-4-2.25-4.13-4.4-1.33-10.86-1.69-14.1C62.33,81.73,61,67.2,61,67.2c0-8.86,11.11-13.06,14.39-13.06l5-.42L82,49.18a16.18,16.18,0,0,0,7.13,2.38,17.25,17.25,0,0,0,7.58-1.12l.72,3.05s10.71-.2,13.55,1.69c6.93,4.62,4.06,18.92,4.65,30.53.94,18.64,1.38,24.84-.89,31.37-1.24,3.55-4,4.08-4,4.91C111.15,131.29,111.41,140.28,111.41,140.28Z"/><path class="cls-9" d="M115.61,85.71c0-.86-.07-1.73-.08-2.61a64.34,64.34,0,0,0-16.35,8.18c.54-.31-4,3.44-4.77,4.13q-2.56,2.41-4.94,5c-4.26,4.65-4.57,5.27-8.67,11.38l-.09.11a92.22,92.22,0,0,0-4.21,17.8,104.86,104.86,0,0,1,14.15-22.26,70.26,70.26,0,0,1,25.1-18.86C115.71,87.65,115.66,86.71,115.61,85.71Z"/><path class="cls-10" d="M77.53,126.64C71,134.26,73.82,137.53,68,155.58c-3,9.14-1.2,46.07-1.42,59-.13,7.41-6,14.39-5.65,24.71.23,6.66,3.56,21.52,3.9,44.14.06,4.08-3.43,7.36-3.67,9.7a3.4,3.4,0,0,0,2.27,3.92s10.27,1,12.72-.31c1.14-.63,2.24-2.88,2.24-2.88s-4.44-6.36-4.47-8.12c-.38-23.67,3.69-58.17,6.31-66.87,6.39-21.17,10.52-61.89,19.32-81.43C84.52,133.75,93,126.69,77.53,126.64Z"/><path class="cls-4" d="M62.35,292.47c10.06,1,20.2,5,21.42,2.64.84,1.17.69,6.87.61,7.84,0,0-.2,2.76-4.23,2.95-4.75.23-7.1-.65-9.48-.43-13.12,1.19-26,.49-24.8-4.9.41-1.78,7.33-3.83,12.52-5.57C64.55,292.93,62.35,292.47,62.35,292.47Z"/><path class="cls-11" d="M92.87,230.67c1,18.58-2,60.55-2,60.55,3.53.38,25.14,1.09,27.95.43-2-10.6-2.1-40.39-3.19-48.6-1.77-13.35-5.14-28.11-4.57-35,1.41-16.82-5.71-34,1.34-56.44-4.88,5.57-29.19-2.57-33.43,3.51C80.83,155.16,92.63,226.22,92.87,230.67Z"/><path class="cls-5" d="M56.17,295.53c1.85-11.72,3.37-25.84,4.71-62.77C62.1,199,62,176.42,69.93,138.61l19.79-14.17,6.68,1.43L111,133.09s2.63,13.66,1.47,18.57c-1.89,8-12.25,7.93-17.2,22-4.26,12.08-8.67,38-9.84,49.35-.48,4.62.94,21,.76,23.75-2.18,31.81-.27,51.65-1.72,51.63C84.43,298.37,56.09,296,56.17,295.53Z"/><path class="cls-7" d="M98.76,53.84,97.31,47.4s-2.41,2-7,1.78C86.42,49,79,47.83,79,47.83L77.4,54c2.1,1.56,10.41,3.69,14.1,3.17C95.94,56.51,98.65,55.31,98.76,53.84Z"/><path class="cls-6" d="M111.74,137.56l-41.81,1.05-1.14-16.06s22.36,2.34,29.39,2.13a28.32,28.32,0,0,0,14.25-4.28Z"/><path class="cls-2" d="M26.46,113.09c.59-.76,1.21-1.5,1.83-2.21-.4-.95-.67-.39-.85-1.1l.68-1.22c-.76-2.46-5.34-7-7.58-7.39-4.08-.62-4.35-1.47-5.7-2.88-.83-.87-1.64,1.59-.06,2.56.22.14,1.66,1,1.66,1a23.22,23.22,0,0,1-2.74-1c-1.67-1.18-3.28-2.48-5-3.47-.32-.18-1.58-.25-.79.82.62.85-1.31.71-2.52.72a.67.67,0,0,0-.58.82,4.93,4.93,0,0,0,.52,1.26.64.64,0,0,0-.48.4c-.32.74.47,1.54,1,2.07a12.94,12.94,0,0,0,2.47,3.42c.31.35,0,0,.33.32s.66.61,1,.89h0l.43.36a9,9,0,0,0,.82.55c.35.18.72.36,1.09.52h0c7.76,4.54,10.91,2.09,11.5,2.28a4.33,4.33,0,0,1,2.89,1.39Z"/><path class="cls-7" d="M55.44,106.1c-.24-3.32,3.18-34.22,4-37.87,1.28-5.49,5.34-10.57,9.32-9.91,10.73,1.78,8.55,13,7.06,20.28-.3,1.48-7.49,37.92-10.46,40.67-5.61,5.18-30.51,1-42.54-6.67L27,104C42.75,110.47,55.44,106.1,55.44,106.1Z"/></g></g></svg>