<svg xmlns="http://www.w3.org/2000/svg" viewBox="0 0 172.28 195.13"><defs><style>.cls-1{fill:#23201e;}.cls-2{fill:#f2a408;}.cls-3{fill:#ffb200;}.cls-4{fill:#c6b9bd;}.cls-5{fill:#eda97c;}.cls-6{fill:#4f1b15;}.cls-7{fill:#705140;}.cls-8{fill:#27567c;}.cls-9{fill:#1b4663;}.cls-10{fill:#896954;}.cls-11{fill:#336596;}.cls-12{fill:#745b84;}.cls-13{fill:#ffbc8f;}.cls-14{fill:#4c2b14;}.cls-15{fill:#191713;}.cls-16{fill:#efebe8;}.cls-17{fill:#c9c9c9;}.cls-18{fill:#afaaa7;}.cls-19{fill:#44403c;}.cls-20{fill:#2b2824;}.cls-21{fill:#605b58;}.cls-22{fill:#110f0d;}.cls-23{fill:#f7ad7c;}.cls-24{fill:#d3c9cc;}</style></defs><title>office 2</title><g id="Layer_2" data-name="Layer 2"><g id="_ÎÓÈ_3" data-name="—ÎÓÈ_3"><path class="cls-1" d="M138.8,49.49l-8.5,4.43a3.41,3.41,0,0,0-4.09-.57c-7.27,3.89-16.42,9.29-16.37,18.66a3.47,3.47,0,0,0,2.55,3.28c0,2.56,0,5.12,0,7.69a1,1,0,0,0,1.92,0V75.15A3.34,3.34,0,0,0,116.57,72c0-.34,0-.68,0-1v0a.68.68,0,0,1,0-.21v-.06a.54.54,0,0,0,0-.18s0,.06,0,.09c.06-.27.12-.54.2-.81,0-.11.19-.51.24-.67l.24-.48c.16-.29.33-.57.51-.85l.31-.45.76-.87a23,23,0,0,1,1.91-1.78c.19-.16.39-.3.57-.47h0l1.33-1a71.08,71.08,0,0,1,6.83-4.07,3.44,3.44,0,0,0,1.61-3.55l2.07-1.07q3.24-1.7,6.49-3.38C140.87,50.58,139.9,48.92,138.8,49.49Z"/><path class="cls-1" d="M116.61,71c0,.19.12.05.06-.36l0,.09C116.64,70.79,116.62,70.89,116.61,71Z"/><path class="cls-1" d="M134.47,110h0a1.27,1.27,0,0,1-1.27-1.27V90a1.28,1.28,0,0,1,1.27-1.28h0A1.29,1.29,0,0,1,135.75,90v18.75A1.28,1.28,0,0,1,134.47,110Z"/><path class="cls-1" d="M151.73,128.68h-1.45v-1a4.35,4.35,0,0,0-4.32-4.38H132.44v-1.48H146a5.82,5.82,0,0,1,5.77,5.86Z"/><path class="cls-1" d="M135.46,134l0-8.68H136a1.82,1.82,0,0,0,1.81-1.81V106.64a1.82,1.82,0,0,0-1.81-1.82h-3.07a1.82,1.82,0,0,0-1.81,1.82v15.22h-7.62a5.75,5.75,0,0,0-5,2.88,4.36,4.36,0,0,0-4,4.35h1.13a3.19,3.19,0,1,0,6.37,0h1.12a4.38,4.38,0,0,0-3-4.17,4.31,4.31,0,0,1,3.32-1.58h7.62v.12a1.81,1.81,0,0,0,1.81,1.81h.86V134a4.35,4.35,0,0,0-3.45,4.28h1.12a3.19,3.19,0,1,0,6.37,0H139A4.35,4.35,0,0,0,135.46,134Z"/><path class="cls-1" d="M150.74,125.66a4.34,4.34,0,0,0-4.31,4.37h1.12a3.19,3.19,0,1,0,6.37,0H155A4.33,4.33,0,0,0,150.74,125.66Z"/><path class="cls-1" d="M157.67,69.1a2.92,2.92,0,0,0-1.87-2.39,1.14,1.14,0,0,0-1.57,1.23c.18,3.18-.16,5.93-2.18,8.5-1.85,2.34-4.49,4-7,5.53-1.57,1,1,4.42,2.64,3.38,2.9-1.84,5.79-3.75,7.81-6.58a11.12,11.12,0,0,0,1.75-3.87,1.48,1.48,0,0,0,.18-.49A18.54,18.54,0,0,0,157.67,69.1Z"/><path class="cls-2" d="M141.85,71.73s5.22,2.81,10.65,5.4c8.18,3.9,14.38,3.6,17.52-13.24,2.48-13.32,4.48-16.25-2.9-19.72-5.1-2.4-13.3-6.38-15.07-7.06-9-3.47-11.91,2.54-14.65,13.64C133.09,68.22,137.71,69.26,141.85,71.73Z"/><path class="cls-2" d="M123.32,97c12.35,7.48,17,3.62,26.11-2.29,7.5-4.86,10.29-9.09-.45-14.65-12.68-6.56-16.32-10.73-31.91-1.88S114.76,91.78,123.32,97Z"/><path class="cls-3" d="M125.05,92.41c9.59,5.81,13.19,2.81,20.26-1.78,5.82-3.77,8-7-.34-11.36-9.84-5.1-12.67-8.34-24.77-1.46S118.41,88.38,125.05,92.41Z"/><path class="cls-3" d="M141.19,71.13s4.66,2.51,9.5,4.82c7.3,3.49,12.83,3.21,15.63-11.82,2.22-11.88,4-14.49-2.58-17.59-4.56-2.14-11.87-5.69-13.46-6.3-8.05-3.1-10.62,2.27-13.07,12.17C133.37,68,137.49,68.93,141.19,71.13Z"/><path class="cls-1" d="M150,77.48c0,.15.1,0,.05-.3v.07C150,77.33,150,77.42,150,77.48Z"/><path class="cls-4" d="M106.13,61a17.83,17.83,0,0,1,2.48-.53c.6,0,2,1.06,3,1,6.47-.53,14.15-.48,18.07-3.76,8.44-7,4.73-21,2-25-2.58-3.8-8.77-3.33-9.58,2.36-1.33,9.39.21,13.44-.08,15.11-.49,2.81-7.47,1.63-13.13,4.56-.47.24-1.72,2.25-2.13,2.38s-2.31,1.14-2.31,1.14Z"/><path class="cls-5" d="M142.07,33.13,132.71,33a24.56,24.56,0,0,0,0-3.25,18.53,18.53,0,0,0-1.65-5.61l8.37-7.35s.46,3.52,1.76,9.49C141.57,28,142.07,33.13,142.07,33.13Z"/><path class="cls-6" d="M106.83,134a3.63,3.63,0,0,0-1.82-2.27l-.92-.4c-1.88-.63-8.58,1-9.83,1.65a10.16,10.16,0,0,0-2.25,1.2,14.58,14.58,0,0,0-3.89,3.94c-.24.4,0,.93.43,1.26a1.2,1.2,0,0,0,.38.3.82.82,0,0,0,.24.1c.21.06.43.11.65.15a7,7,0,0,0,2.89.15,23.55,23.55,0,0,0,8.75-3,29.58,29.58,0,0,0,3.83-.9C106.35,135.79,107.12,135.27,106.83,134Z"/><path class="cls-7" d="M106.4,133.58a3.6,3.6,0,0,0-1.78-2.21l-.9-.4a11.48,11.48,0,0,0-6.53.39,54.28,54.28,0,0,0-5.27,2.4,14,14,0,0,0-3.79,3.85c-.24.39,0,.9.41,1.22a1.2,1.2,0,0,0,.38.3,1.07,1.07,0,0,0,.22.1l.65.15a6.81,6.81,0,0,0,2.82.13,22.83,22.83,0,0,0,8.54-3,28.21,28.21,0,0,0,3.74-.88C105.92,135.29,106.68,134.79,106.4,133.58Z"/><path class="cls-8" d="M129.61,81.53c1.5-1.55,3.37-8.1.61-12-.55-.78-16.75,2.88-17.52,3.44,0,0-17.29,11.12-18.94,19.06l1.42,40.14h10.45s2.05-31.89,2.61-34.7C108.62,95.62,124.9,86.38,129.61,81.53Z"/><rect class="cls-9" x="94.9" y="130.66" width="11.07" height="1.54"/><path class="cls-6" d="M120.71,137.13a3.7,3.7,0,0,0-1.83-2.27l-.91-.4c-1.89-.62-8.58,1-9.83,1.65a10.67,10.67,0,0,0-2.26,1.2,14.58,14.58,0,0,0-3.88,3.95c-.25.39,0,.92.42,1.25a1.36,1.36,0,0,0,.39.3,1,1,0,0,0,.23.11l.66.15a7.15,7.15,0,0,0,2.89.14,23.56,23.56,0,0,0,8.74-3,30.86,30.86,0,0,0,3.83-.89C120.22,138.88,121,138.37,120.71,137.13Z"/><path class="cls-10" d="M120.27,136.67a3.57,3.57,0,0,0-1.78-2.21l-.9-.4a11.44,11.44,0,0,0-6.52.39,54.28,54.28,0,0,0-5.27,2.4,14.49,14.49,0,0,0-3.8,3.85c-.24.39,0,.91.41,1.23a1.67,1.67,0,0,0,.38.29.77.77,0,0,0,.23.1c.21.06.43.11.64.15a6.82,6.82,0,0,0,2.82.14,23,23,0,0,0,8.54-3,29.43,29.43,0,0,0,3.74-.87C119.8,138.38,120.56,137.88,120.27,136.67Z"/><path class="cls-11" d="M143.48,84.63c1.51-1.56,3.38-8.11.62-12-.56-.78-16.76,2.88-17.53,3.44,0,0-17.28,11.13-18.94,19.06l1.43,40.14h10.45s2-31.89,2.61-34.69C122.49,98.71,138.78,89.47,143.48,84.63Z"/><rect class="cls-8" x="108.78" y="133.75" width="11.07" height="1.54"/><path class="cls-12" d="M118.45,71.45l26.68,9.63c12.3-29.19,5.34-47.2,5.34-47.2-1.86-3.14-2.7-2.8-6.57-3.3l-2.14-.32s-2,2.52-6.88,1.83c-2.44-.35-2.17-2.37-2.17-2.37l-1.47-.19c-5.66-.72-9,3.91-8.73,9.61.47,9.2,1.62,13.7,1.29,20.65A18.26,18.26,0,0,1,118.45,71.45Z"/><path class="cls-13" d="M121,13c.35,3.18.6,2.14,1,3.25s-.44,2,.87,3.79c2.57,3.59,5.86,6.16,6.9,6.17a13.08,13.08,0,0,0,6.84-2.35c1.84-1.64,5.92-6.58,5.62-11C141.81,6.48,136.73,1.6,130.91,2c-4.8.33-9.68.37-10.57,5C120.15,8,120.89,11.92,121,13Z"/><path class="cls-14" d="M141.19,3.24A5.36,5.36,0,0,0,133.87,1c-3.36-2.07-10.12-.69-11.81,2.27-3.12,5.47-4.62,4.35-4.72,4.26a6.86,6.86,0,0,0,3,4.11c2.29,1.27,6.16.92,13.29-2.09.4-.18.9.34,1,.76.3,1.23.67,5,.67,5s2.24-2,4-1.45c2,.63-.5,7.76-.5,7.76C142.79,17.48,145.35,10.11,141.19,3.24Z"/><path class="cls-15" d="M90.36,120.17l-1.09.06-3,.14,6.56,74.48c0,.17.26.3.57.28s.55-.16.54-.33L93.37,120Z"/><path class="cls-15" d="M140.79,99l1.07-.22,3-.59,7.83,63.12c0,.16-.18.35-.48.41s-.58,0-.61-.2L137.84,99.55Z"/><path class="cls-15" d="M9.53,74.93l-1.09-.09-3-.27L2.8,144.11c0,.17.22.33.53.35s.56-.09.58-.26l8.62-69Z"/><polygon class="cls-16" points="89.74 129.34 0 76.97 60.45 41.58 150.19 93.95 89.74 129.34"/><polygon class="cls-17" points="150.19 98.66 89.74 134.01 89.74 129.34 150.19 93.99 150.19 98.66"/><polygon class="cls-18" points="0 81.64 89.74 134.01 89.74 129.34 0 76.97 0 81.64"/><polygon class="cls-19" points="126.23 82.11 112.73 90.03 112.73 81.88 126.23 81.88 126.23 82.11"/><polygon class="cls-20" points="81.17 71.43 112.73 90.03 112.73 87.75 81.17 69.57 81.17 71.43"/><polygon class="cls-21" points="126.23 81.88 112.73 87.75 81.17 69.57 94.67 63.27 126.23 81.88"/><path class="cls-20" d="M72.47,94.86c0,2.91,4.72,5.27,10.53,5.27s10.54-2.36,10.54-5.27V93.38S88.49,89.59,83,89.59C78,89.59,72.49,93,72.49,93S72.47,94.47,72.47,94.86Z"/><path class="cls-21" d="M72.47,93.38c0,2.91,4.72,5.26,10.53,5.26s10.54-2.35,10.54-5.26S88.82,88.11,83,88.11,72.47,90.47,72.47,93.38Z"/><path class="cls-20" d="M85.45,92.31c-.4-5.48-.4-10.43-3-17.82l-3.89-2.25v0a9.41,9.41,0,0,1,.89,3.37,38.56,38.56,0,0,1-1.12,10.8c-.35,1.38-1.2,5.25-1.2,5.25l8.47,4.91C85.62,95.17,85.56,93.74,85.45,92.31Z"/><path class="cls-19" d="M82.77,75.36l-.21.55s2.36,6.61,2.59,11.84c.06,1.5.49,8.85.49,8.85l1.21-.4s-.15-3.7-.69-8.69C85.61,82.35,82.77,75.36,82.77,75.36Z"/><polygon class="cls-22" points="100.41 91.74 66.62 72.04 56.19 44.83 89.97 64.53 100.41 91.74"/><polygon class="cls-19" points="101.92 90.85 100.41 91.74 89.97 64.53 91.49 63.64 101.92 90.85"/><polygon class="cls-21" points="91.49 63.64 89.94 64.53 56.19 44.83 57.97 44.06 91.49 63.64"/><path class="cls-23" d="M130.7,84.35a2.56,2.56,0,0,0-1.19-2.83c-1.58-.88-4.74-.31-8.55.65a13.44,13.44,0,0,1-3.65.48c-.32,0-.33.42-.21.79.3.89,4.81.55,4.94.66-.72.73-3,1.75-3.57,2.25-.35.25-.71.49-1.07.73-.58.38-1.63.74-1.66,1.55a.48.48,0,0,0,.59.46h0l1.82-.36c.3,0-1.24.91-1.5,1.08a.51.51,0,0,0,.09.88.53.53,0,0,0,.47.57,6,6,0,0,0,2.8-.72,19.89,19.89,0,0,1,2.52-.76,18.5,18.5,0,0,1-2.14,1.06c-.51.22-.13,1,.36.86a17.36,17.36,0,0,0,5.89-2.46,15,15,0,0,0,1.93-1.46,6.44,6.44,0,0,0,.83-.82,7.35,7.35,0,0,0,1.37-2.15A.38.38,0,0,0,130.7,84.35Zm-9.63-1.66a.08.08,0,0,0,0,0l-.09,0Zm1.05,0-.08-.06.13,0h0Z"/><path class="cls-4" d="M130.85,85.21a7.79,7.79,0,0,1,2.34-3.07c.73-.49,1.53.59,2.48,0,5.46-3.43,14.27-9.94,15.33-14,2.18-8.43,3.2-29.67-.53-34.23-2.75-3.36-9.6-1.33-9.1,4,0,0,3.37,20.11,1.18,26.08-1.16,3.17-9.37,8.93-13,13.07-.89,1,.81,1.35.05,2.12a8.17,8.17,0,0,1-3.26,1.93Z"/><path class="cls-24" d="M129.84,78.88a.6.6,0,0,1-.19.3,8.17,8.17,0,0,1-3.26,1.93l4.46,4.1a8.19,8.19,0,0,1,2.06-2.87A20,20,0,0,0,129.84,78.88Z"/><path class="cls-1" d="M168.05,65.78l-8.5,4.43a3.42,3.42,0,0,0-4.1-.58c-7.26,3.89-16.42,9.3-16.37,18.66a3.5,3.5,0,0,0,2.55,3.28v7.69a1,1,0,0,0,1.93,0V91.44a3.34,3.34,0,0,0,2.26-3.15c0-.33,0-.67,0-1v0a1,1,0,0,1,0-.21l0-.06a.6.6,0,0,0,0-.19s0,.07,0,.1c.06-.27.12-.55.2-.81s.19-.52.24-.67.2-.42.24-.49q.24-.44.51-.84c.1-.16.21-.3.31-.45.25-.29.5-.59.76-.87a24.55,24.55,0,0,1,1.9-1.78c.19-.16.4-.31.58-.47h0l0,0c.44-.32.89-.65,1.34-1a72.17,72.17,0,0,1,6.82-4.07,3.44,3.44,0,0,0,1.62-3.55l2.06-1.08q3.25-1.68,6.49-3.38C170.12,66.87,169.15,65.21,168.05,65.78Z"/><path class="cls-5" d="M106.55,60.81c-1.86.72-1.6,2.52-2.39,3.62-1.06.86-2.15,1.15-3.2,2l-.66.78c-.24.3-.24.63-.61.73a.37.37,0,0,1-.4-.08c-.44-.53,0-1.2.4-1.7a6.63,6.63,0,0,1,1-1.06c.14-.2.26-.41.38-.57s.43-.66.65-1H101c-.48,0-1,0-1.46.07h0a8.84,8.84,0,0,0-1.92,1A24.94,24.94,0,0,0,95,66.9a.34.34,0,0,1-.46-.27,2,2,0,0,1,.73-1.58c.39-.43,2.59-2.1,3-2.49-.16-.11-.76-.23-2,.54-.42.25-1.09.89-1.5,1.18s-1.23,1.22-1.91,1.17a.41.41,0,0,1-.29-.52,3.42,3.42,0,0,1,.35-.75.36.36,0,0,1-.25-.26c-.14-.46.34-.92.65-1.23a3.89,3.89,0,0,0,.54-.48c-1.54.12.27-1,1-1.5.2-.2,0,0,.21-.18s.4-.34.6-.5h0l.26-.2a4.94,4.94,0,0,1,.49-.3l.64-.28h0c4.6-2.45,6.63-1,7-1.07,0,0,.81-.1.81-.1Z"/><path class="cls-24" d="M107.43,56.43a4.2,4.2,0,0,1-.84.49c-.54.18-2.52,1.25-2.52,1.25l1.81,3a18.75,18.75,0,0,1,2.72-.58,8.07,8.07,0,0,1,1.9.58A21.64,21.64,0,0,1,107.43,56.43Z"/></g></g></svg>