<svg xmlns="http://www.w3.org/2000/svg" viewBox="0 0 54.81 166.56"><defs><style>.cls-1{fill:#f77f43;}.cls-2{fill:#ff985f;}.cls-3{fill:#280f04;}.cls-4{fill:#050505;}.cls-5{fill:#1c4f8c;}.cls-6{fill:#194c72;}.cls-7{fill:#215889;}.cls-8{fill:#1d6d89;}.cls-9{fill:#1b5b77;}.cls-10{fill:#eacc96;}.cls-11{fill:#efe8da;}</style></defs><title>enter guest 1</title><g id="Layer_2" data-name="Layer 2"><g id="_ÎÓÈ_3" data-name="—ÎÓÈ_3"><path class="cls-1" d="M26.32,31.48c.4-.07-.73-.83-.19-1.15.51-1,1.54-6.27.83-8,.05,0,6.58,0,8.87,0l1,8.05c2.22.87.88,1.76,2.22.87a3.61,3.61,0,0,1,4.67.81c1.05,1.34-.52.7-1,2.48a18.51,18.51,0,0,1-1,2.48c-.2.42-.48.79-.69,1.2a.36.36,0,0,0,0,.11c.12.26.26.51.4.76.32.34.68.65,1,1a1.18,1.18,0,0,1,.51.34,3.62,3.62,0,0,1,.87,2.25,4.53,4.53,0,0,1,0,1.47v0s0,0,0,.05a.3.3,0,0,1,0,.1,2.61,2.61,0,0,1-.06.27s0,.09-.05.13,0,0,0,0-.11.29-.18.43a1.47,1.47,0,0,1-.31.41l-.49.68A10.54,10.54,0,0,1,38,49.63a3.33,3.33,0,0,0-.58.33l-.16.2A3.8,3.8,0,0,0,34.52,53a5.35,5.35,0,0,0-.1,1.38c-3.57.56-7.15,1.06-10.74,1.53,0-.13.09-.26.12-.39C24.6,52.65,24.75,31.75,26.32,31.48Z"/><path class="cls-2" d="M39.64,8.52c-1.83-4.29-7.1-5.27-10.31-4-1.71.67-5.84.44-7.17,3.19a15.11,15.11,0,0,0-.71,3c0,.59.17,2.37.12,2.86s-.38,1-.35,1.59a17.51,17.51,0,0,0,.52,4.19c.53,2-.17,2.7,1,3.38,1.39.81,6.46.73,9.33-.92,2.3-1.33,3.7-2.2,4-2.34C41.74,16.57,41.47,12.81,39.64,8.52Z"/><path class="cls-3" d="M43.37,11.92A7.74,7.74,0,0,0,41.6,7.46h0s.16-6-8.69-7.32c-5.24-.81-8.36,2-10.43,6.11-1,1.9-1.54,3.42-1.54,3.42.16.17,4.15-1,4.21-.1.19,3.11.65,5.45.89,5.28,4.37-3,1.84,5.31,2.73,8.07,2.4.81,7.81.67,7.92,0C37.38,18.67,43.37,16.22,43.37,11.92Z"/><path class="cls-4" d="M38.56,159.39c4.26.35,7.32,1.8,7.82.8.36.49.35,2.9.32,3.31,0,0,.4,1.13-1.77,1.28-2.37.17-2.9-.16-3.94.13-4.05,1.12-10.6.49-10.48-1,.09-1.15,2.15-2.16,4.33-2.94A23.38,23.38,0,0,0,38.56,159.39Z"/><path class="cls-4" d="M17.09,160.6c4.44.45,8.92,2.19,9.46,1.17.37.51.3,3,.26,3.46,0,0-.08,1.22-1.86,1.3-2.1.1-3.14-.29-4.19-.19-5.79.52-11.49.22-10.94-2.16.18-.79,3.23-1.7,5.52-2.46C18.06,160.8,17.09,160.6,17.09,160.6Z"/><path class="cls-5" d="M42.84,80.17c-.32-.42-.63-.84-.93-1.27-.56.09-.3.31-.7.31l-.56-.53c-1.41.08-4.46,1.91-4.94,3.06-.88,2.09-1.37,2.12-2.3,2.65-.58.33.63,1.08,1.36.37.1-.09.73-.75.73-.75a12.4,12.4,0,0,1-.91,1.32c-.85.73-1.76,1.42-2.52,2.2-.14.15-.34.81.33.53s.21.8.05,1.44a.37.37,0,0,0,.36.42,2.65,2.65,0,0,0,.74-.11.36.36,0,0,0,.15.31c.35.27.88,0,1.23-.24A6.82,6.82,0,0,0,37.08,89c.23-.12,0,0,.22-.14s.41-.27.6-.41v0l.25-.18a4.48,4.48,0,0,0,.4-.36,5.17,5.17,0,0,0,.42-.51v0c3.46-3.53,2.57-5.54,2.75-5.83a2.35,2.35,0,0,1,1.13-1.35Z"/><path class="cls-5" d="M46.14,59.45c-.42-1.78-5-18.16-6.35-21.83-1.09-2.9,2-6.2,4.18-6.19,6,0,8.73,14.71,10.81,27.55.85,5.28-13.11,23.89-13.11,23.89l-3.59-3.2C39.83,74.3,46.14,59.45,46.14,59.45Z"/><path class="cls-6" d="M34.48,127.69c2.12,8.93,2.24,32.66,2.24,32.66,1.93.21,8.33.92,9.87.56,0,0,.67-22.9.07-27.41-1-7.33-2.49-6.85-2.51-19.19,0-11.83-3.13-18.68.74-31-2.65,3-15.72-1.3-18.28,1.81a.32.32,0,0,0,0,.19C27.18,102.43,33.47,123.47,34.48,127.69Z"/><path class="cls-7" d="M16.7,161s2-12.08-.13-33.67c-1.81-18.47.62-30.45,5-51.21l10.87-7.79,3.67.79,8,4s1.44,7.51.81,10.2c-1,4.37-6.73,4.36-9.45,12.08-2.34,6.63-8.27,21.48-8.92,27.72-.26,2.54,2.11,7.92,2.05,11-.32,17.5-1.39,28.34-1.39,28.34Z"/><path class="cls-8" d="M43.68,92.34a41.27,41.27,0,0,1-12.24.87c-8.75-.52-13.15-2.65-13.15-2.65l-.18-5.73S16,84,16.6,81c4.22-19.67,0-44,0-44,0-4.86,6.1-7.17,7.9-7.17l2.75-.23.89-2.5a8.79,8.79,0,0,0,3.92,1.31,9.47,9.47,0,0,0,4.16-.61l.4,1.67s5.88-.11,7.44.93c3.81,2.54,2.23,10.39,2.55,16.77.36,7.17,1.12,26.05.13,37-.12,1.36-2.58,3.05-2.68,4.11C43.84,90.76,43.68,92.34,43.68,92.34Z"/><path class="cls-9" d="M38.44,87c-4,.33-8.28-.31-12.29-.53a37.4,37.4,0,0,1-8-1.23l.16,5.3s4.4,2.13,13.15,2.65a41.27,41.27,0,0,0,12.24-.87s.16-1.58.4-4.16c.1-1.06,2.56-2.75,2.68-4.11.06-.62.11-1.27.15-1.94C45.28,84.9,42.51,86.68,38.44,87Z"/><path class="cls-10" d="M37.38,29.57,36.58,26a5.76,5.76,0,0,1-3.87,1c-2.11-.11-6.19-.74-6.19-.74l-.88,3.38a16.45,16.45,0,0,0,7.75,1.74C35.83,31,37.32,30.38,37.38,29.57Z"/><path class="cls-2" d="M12,80c-.25-.46-.49-.93-.71-1.4-.57,0-.35.25-.74.19l-.47-.61C8.68,78,5.38,79.32,4.72,80.37,3.52,82.3,3,82.25,2,82.63c-.62.23.44,1.17,1.28.58l.85-.63A12.44,12.44,0,0,1,3,83.75,32.16,32.16,0,0,0,.21,85.52c-.17.12-.47.74.24.57.56-.13.07.82-.18,1.43A.36.36,0,0,0,.55,88a2.69,2.69,0,0,0,.75,0,.36.36,0,0,0,.1.33c.3.32.88.1,1.25,0a6.75,6.75,0,0,0,2.26-.5c.25-.08,0,0,.24-.1s.45-.2.66-.31h0l.27-.14c.16-.09.31-.19.46-.29l.5-.44v0c4-2.94,3.42-5.06,3.64-5.32A2.39,2.39,0,0,1,12,80Z"/><path class="cls-11" d="M18.58,60.05c-.13-1.83-2-18.73-2.78-22.57-.61-3,2.93-5.81,5.12-5.44C26.81,33,27.18,48,27.18,61c0,5.36-16.76,21.5-16.76,21.5l-3-3.74C10,73.69,18.58,60.05,18.58,60.05Z"/><path class="cls-5" d="M12,80c-.25-.46-.49-.93-.71-1.4-.57,0-.35.25-.74.19l-.47-.61C8.68,78,5.38,79.32,4.72,80.37,3.52,82.3,3,82.25,2,82.63c-.62.23.44,1.17,1.28.58l.85-.63A12.44,12.44,0,0,1,3,83.75,32.16,32.16,0,0,0,.21,85.52c-.17.12-.47.74.24.57.56-.13.07.82-.18,1.43A.36.36,0,0,0,.55,88a2.69,2.69,0,0,0,.75,0,.36.36,0,0,0,.1.33c.3.32.88.1,1.25,0a6.75,6.75,0,0,0,2.26-.5c.25-.08,0,0,.24-.1s.45-.2.66-.31h0l.27-.14c.16-.09.31-.19.46-.29l.5-.44v0c4-2.94,3.42-5.06,3.64-5.32A2.39,2.39,0,0,1,12,80Z"/><path class="cls-5" d="M18.58,60.05c-.13-1.83-2-18.73-2.78-22.57-.61-3,2.93-5.81,5.12-5.44C26.81,33,27.18,48,27.18,61c0,5.36-16.76,21.5-16.76,21.5l-3-3.74C10,73.69,18.58,60.05,18.58,60.05Z"/></g></g></svg>