<svg xmlns="http://www.w3.org/2000/svg" viewBox="0 0 50.25 154.93"><defs><style>.cls-1{fill:#b7a7ac;}.cls-2{fill:#ffbc8f;}.cls-3{fill:#d3c9cc;}.cls-4{fill:#72311a;}.cls-5{fill:#eda97c;}.cls-6{fill:#844025;}.cls-7{fill:#70311b;}.cls-8{fill:#e8a577;}.cls-9{fill:#280906;}.cls-10{fill:#d3750f;}.cls-11{fill:#ed880f;}.cls-12{fill:#324677;}.cls-13{fill:#263e6d;}.cls-14{fill:#a3959a;}</style></defs><title>enter guest 4</title><g id="Layer_2" data-name="Layer 2"><g id="_ÎÓÈ_3" data-name="—ÎÓÈ_3"><path class="cls-1" d="M40.28,66.66S42,62.9,42.63,61.9c3.35-5.75,4.17-9.42,4-13.76-.25-9.13-3.14-21.24-7-22.36-4.3-1.23-5.33,2.4-2.78,9.17,1,2.6,5.26,13.55,5,15.68-.14,1.41-2.72,6.6-4,12.09L37,66.65Z"/><path class="cls-2" d="M39.62,67.6a7.65,7.65,0,0,1-2.79.7.86.86,0,0,1,0,.16c0,.68-.94,1.41-1.33,2a11.61,11.61,0,0,0-1.46,3.67c-.21.74,1.28,5.12,2,4.78,2.18-1-.2-4.56,1.37-5.66,2.29-1.6.06.66.94,1.8.26.33.48.45.54-.35.11-1.52,2.75-2.2,1.17-6.34,0-.3-.1-.59-.16-.88A1.17,1.17,0,0,1,39.62,67.6Z"/><path class="cls-3" d="M37.88,62.72c0,.12-1.34,6.16-1.34,6.16l3.51-.55a28.3,28.3,0,0,1,2-5.68A6.16,6.16,0,0,0,37.88,62.72Z"/><path class="cls-4" d="M30.56,2.22l.11,0-.21,0h.1Z"/><path class="cls-4" d="M37.1,12.48c.67-3,1.39-7.59-.77-10.88a1.87,1.87,0,0,1-1.19.45c-.91,0-1.82,0-2.73,0-.41,0-.82,0-1.22.07q-.32,0-.63.06h-.19a11.71,11.71,0,0,0-2.24.58l-.21.09-.48.25c-.18.1-.35.21-.52.32s-.2.17-.11.08l0,0a7.4,7.4,0,0,0-.84.84c-.06.07-.11.15-.16.22a2.79,2.79,0,0,0-.19.33c-.18.49-.29,1-.43,1.5a6.18,6.18,0,0,1-.6,1.42,2.13,2.13,0,0,1,1,1.68c-.35,9.37-4,10.31-4,10.31a37,37,0,0,0,9.17,1.27C31.65,21.14,35.15,21.08,37.1,12.48Z"/><path class="cls-5" d="M39.11,27.06s-3.4,2.33-4.64,2.46S29.7,28,29.7,28s.51-4.25.58-5.54,0-4.52,0-4.52l8.29-2.19Z"/><path class="cls-2" d="M24.15,6.78c-.86,2.11-.2,3-.32,3.85s-1,1.07-.71,2.69c.54,3.2,1.92,6,2.64,6.43a11.08,11.08,0,0,0,5.54,1.08c1.85-.33,6.39-1.9,7.71-4.76A8.32,8.32,0,0,0,35,5C30.79,3.11,25.89,2.53,24.15,6.78Z"/><path class="cls-6" d="M29.6,22.13a40.38,40.38,0,0,0,9.57,1.31c1,0,4.63-.07,6.63-8.67C47,9.61,48.36-.79,33.4.05c-6.29.35-8.94.78-9.79,7.3,0,0,9.56,1.42,10.16,4.49C35.72,22,29.6,22.13,29.6,22.13Z"/><path class="cls-7" d="M35.1,0a11.15,11.15,0,0,1,4.47,2.23A11.51,11.51,0,0,1,42.65,7a12.54,12.54,0,0,1,.8,5.75,12.55,12.55,0,0,1-2.07,6A12.48,12.48,0,0,1,36.83,23l-.77.35a27.07,27.07,0,0,0,3.11.14c1,0,4.63-.07,6.63-8.67C47,9.81,48.25,0,35.1,0Z"/><path class="cls-8" d="M42,139.32c0-1.18-1-1.41-1-2.48.13-12.22,3.71-19.6,3.06-24.86s-3.91-7.68-4-11.45c-.75-24.12-.15-29.44-.15-29.44l-6.88-2S30.83,95,32.4,103.38c1.12,6,1.78,4.38,4.08,24,0,.41,0,.64.21,7.38.07,2.28-3.39,11.68-3.39,11.68Z"/><path class="cls-9" d="M40.11,141.11,35.82,143l.08,7a22.24,22.24,0,0,0,3.73-2.69C40.43,146.13,40.11,141.11,40.11,141.11Z"/><path class="cls-10" d="M42.77,142a4.14,4.14,0,0,0-1.13-3.79l-2.89.5c-1.49.05-3.57,3.69-5.45,7.7-1.16,2.45-3.74,1.69-3.39,2.61a13.89,13.89,0,0,0,6,.91c2.5-1.16.86-5.62,2.49-7.08s2.44,6.53,2.41,6.67l.58-.12S42.53,143.51,42.77,142Z"/><path class="cls-2" d="M47.36,141.64c-.44-1.09-1.46-1-1.82-2-4.07-11.53-3.23-19.68-5.63-24.4s-7.1-5.66-7.71-9.39L38,75.82,19.61,74.41s1,28.81,5.38,36.19c3.1,5.24,4.24,4.06,13.11,21.72.19.37.25.58,2.73,6.85.84,2.13.8,12.14.8,12.14Z"/><path class="cls-9" d="M46.21,144l-3.4,3.21,2.48,6.56a22,22,0,0,0,2.58-3.81C48.23,148.57,46.21,144,46.21,144Z"/><path class="cls-11" d="M49,143.93a4.12,4.12,0,0,0-2.36-3.17l-2.55,1.45c-1.38.56-2.08,4.69-2.49,9.1-.24,2.7-2.92,2.87-2.28,3.62a14,14,0,0,0,5.94-1.2c2-1.94-1.12-5.57-.09-7.51s4.53,5.31,4.55,5.45l.5-.32S49.31,145.39,49,143.93Z"/><path class="cls-12" d="M41.41,78.94c-.73,3,3,22.18,3,22.18a19.44,19.44,0,0,1-11.93,4.13,41.44,41.44,0,0,1-12.88-1.79c-2.35-18.66,1-38.89,1-38.89L43.23,62S44.25,67.29,41.41,78.94Z"/><path class="cls-13" d="M41.32,80.74a7.49,7.49,0,0,1,.09-1.8c.66-2.73,1.11-5.09,1.42-7.14-6.75,2-13.45,4-17.8,10.07C21.69,86.5,20.32,92,19.72,97.53a.66.66,0,0,1,0,.14C24.44,89.53,31.15,83.08,41.32,80.74Z"/><path class="cls-14" d="M20.55,64.57a58.1,58.1,0,0,0,10.94,2.19C39.62,67.6,43.92,64,43.92,64c-1.28-4.34-4.23-7.32-4.1-9.77.25-4.53.93-6.17,3-16.08,1.64-7.81-2-12.91-3.82-13.06l-9.1,1.14c-.41.51-4.68,2.43-5.07,3C20,36.14,15.75,42.47,22,46.68,26.63,49.81,20.55,64.57,20.55,64.57Z"/><path class="cls-1" d="M10.31,63.6s3.47-2.27,4.5-2.82C20.68,57.66,23.3,55,25.48,51.2c4.58-7.91,9.39-21.69,4.84-22.67-4.75-1-6.31.29-7.69,7.39-.54,2.73-3.34,13.3-4.64,15C17.14,52.06,14.32,55,10.33,59L7.54,61.88Z"/><path class="cls-2" d="M9.26,64.06a7.83,7.83,0,0,1-2.75-.87c0,.05,0,.09-.07.14-.35.59-1.54.71-2.17,1a11.17,11.17,0,0,0-3.16,2.36c-.58.52-1.6,5-.84,5.1,2.41.25,2.23-4,4.14-4.09,2.8-.17-.29.59-.14,2,.05.41.17.63.64,0,.9-1.23,3.5-.42,4.33-4.78l.33-.83A1.58,1.58,0,0,1,9.26,64.06Z"/><path class="cls-3" d="M10.33,59C10.24,59.07,6,63.53,6,63.53L9.24,64.9a28.19,28.19,0,0,1,4.68-3.78A6.11,6.11,0,0,0,10.33,59Z"/></g></g></svg>