<svg xmlns="http://www.w3.org/2000/svg" viewBox="0 0 312.23 335.03"><defs><style>.cls-1{fill:#634b40;}.cls-2{fill:#422f26;}.cls-3{fill:#775944;}.cls-4{fill:#604431;}.cls-5{fill:#9b6948;}.cls-6{fill:#ffb200;}.cls-7{fill:#c80;}.cls-8{fill:#b7b0ab;}.cls-9{fill:#0c354c;}.cls-10{fill:#ffbc8f;}.cls-11{fill:#ddd;}.cls-12{fill:#c4c2bf;}.cls-13{fill:#eda97c;}.cls-14{fill:#2c506d;}.cls-15{fill:#3a5f84;}.cls-16{fill:#b5b5b5;}.cls-17{fill:#512914;}.cls-18{fill:#1e1e1e;}.cls-19{fill:#a39c96;}.cls-20{fill:#d6d2cc;}.cls-21{fill:#bab4ae;}.cls-22{fill:#e5e5e5;}.cls-23{fill:#fff;}.cls-24{fill:#a3a3a3;}.cls-25{fill:#ededed;}.cls-26{fill:#7c7c7c;fill-rule:evenodd;}.cls-27{fill:#9b3b78;}.cls-28{opacity:0.6;}.cls-29{fill:#e09ec5;}.cls-30{fill:#78245e;opacity:0.74;}.cls-31{fill:#edaabd;}.cls-32{fill:#1d4560;}.cls-33{fill:#10384f;}.cls-34{fill:#1d445e;}.cls-35{fill:#1b5b77;}.cls-36{fill:#913107;}.cls-37{fill:#2e3030;}.cls-38{fill:#1f2121;}</style></defs><title>Asset 48</title><g id="Layer_2" data-name="Layer 2"><g id="_ÎÓÈ_3" data-name="—ÎÓÈ_3"><polygon class="cls-1" points="205.93 218.05 202.95 219.96 208.7 154.96 214.53 151.34 205.93 218.05"/><polygon class="cls-2" points="208.68 154.96 202.84 151.46 200.06 218.26 202.93 219.96 208.68 154.96"/><polygon class="cls-3" points="251.46 245.58 248.45 247.41 253.41 182.79 259.24 179.16 251.46 245.58"/><polygon class="cls-2" points="253.41 182.79 247.57 179.29 245.59 245.71 248.45 247.41 253.41 182.79"/><polygon class="cls-3" points="309.39 210.86 306.41 212.76 297.88 152.93 303.71 149.31 309.39 210.86"/><polygon class="cls-2" points="297.86 152.93 292.02 149.43 303.52 211.06 306.38 212.76 297.86 152.93"/><polygon class="cls-3" points="303.93 151.44 253.38 183.23 202.84 151.44 202.84 146.77 303.93 146.77 303.93 151.44"/><polygon class="cls-2" points="253.38 183.23 202.84 151.44 202.84 146.77 253.38 173 253.38 183.23"/><polygon class="cls-4" points="303.93 146.77 253.38 178.55 202.84 146.77 253.38 116.11 303.93 146.77"/><polygon class="cls-5" points="312.23 48.66 308.68 48.66 261.11 18.62 265.69 18.62 312.23 48.66"/><path class="cls-3" d="M303.9,146.88,300,149.31s-9.81-46.8-8.19-59.87c1.44-11.57,16.91-40.79,16.91-40.79h3.55A195.67,195.67,0,0,0,303.93,97C303.22,114.53,303.9,146.88,303.9,146.88Z"/><path class="cls-2" d="M300,149.31s0-29.23.21-42.51c.66-46.64,8.51-58.15,8.51-58.15L268.6,23.33v-.12l-.09.06L264.88,21h0l-3.52-2.22h0l-.24-.16s-9.28,14.84-9.66,64c-.17,22.35-.51,35.9-.51,35.9l0,1.24,45.77,28.39-.11-3.5.15,2.71Z"/><path class="cls-6" d="M299.2,145.59c0,3.44-5.36,5.87-17.46,13.2-8.45,5.12-19.58,14.24-28.36,14.21-5.34,0-20.39-9-26.69-12.89C214,152.29,202.07,149.62,203,143c.92-7,7.77-6.65,16.78-11,25.69-12.4,26.52-19.31,37.4-14.67,8.53,3.65,25.62,14.36,33.32,18C295.38,137.64,299.2,138.69,299.2,145.59Z"/><path class="cls-7" d="M285.42,152c-8.3,4.59-15.48,11.24-25,13.18-11.15,2.27-20.29-4-29.28-9.73-8.55-5.42-19-9.58-26.2-16.81a7.51,7.51,0,0,0-2,4.38c-.88,6.63,11.06,9.3,23.74,17.12C233,164,248,173,253.38,173c8.78,0,19.91-9.09,28.36-14.21,12.1-7.33,17.46-9.76,17.46-13.2a12.8,12.8,0,0,0-.38-3.32C295.28,146.26,290.59,149.11,285.42,152Z"/><path class="cls-8" d="M178.45,226.16c1.2-2.43,2.31-10.14.44-17.74,4-.16,8-.17,12-.21.38,3.59.91,7.39,1.62,11.43.34,1.94,1.78,6.92,2.23,9-.35.81-.95,2.54-1.67,4.66a3,3,0,0,0-2.08-.46c-4.57.7-9.4.71-14,1.45C178.37,231.16,177.09,228.93,178.45,226.16Z"/><path class="cls-9" d="M187,235.75c4-2.21,9.31-.08,10-6.26.26-2.52-2.65-7.15-3.72-10.22a3.46,3.46,0,0,0-.83.21c-2.67,1-4.5,2.8-9.73,3.27L179,222c-.46.26-1.18,2-11.78,8.67-4.49,3.11-11.68,6.4-9.21,8.13C163.49,242.64,175.79,241.91,187,235.75Z"/><path class="cls-10" d="M195.25,69.6a8.78,8.78,0,0,0,.19.91c-.22-.11,1.23-3.05,1.14-3.85-.16-.57-1.64-1-1.79-1.56-1.14-3.44-3.2-8.2-2.47-10.85.28-1-2-.35-2.23,5.67-.06,1.95-9.13.41-14.39-2.62-1-.95-2.12-.53-2.82.56-.19.29.08.81.18,1.13.69,2.16,1,6.37,5.76,9.89,3.89,2.89,15.13,1.6,16.62,1.64,0,.13.06.15.07,0C195.42,70.22,195.33,69.91,195.25,69.6Z"/><path class="cls-11" d="M254.59,51.37c-4.13-3-7.78-.08-13.37,4.41L220.15,77.15c-8.46-2.85-17.56-8.87-26.06-14-1.16,2.09-5.13,6.48-6.33,8.55,0,0,26.8,17.87,31.46,18.79,11.73,2.3,31.16-18.87,36-24.41C259.16,61.89,260.06,55.39,254.59,51.37Z"/><path class="cls-12" d="M200.63,75.91l7.42,4.6a69.42,69.42,0,0,0,6.16,3.9c3,1.46,6.43,2.25,9.69,1.1a18.75,18.75,0,0,0,7.53-5.27,42.75,42.75,0,0,0,7.07-11.68c1.62-3.64,2.18-7,5.13-12a36.36,36.36,0,0,1,4.92-5.43c.1-.1,0-.28,0-.41a5.65,5.65,0,0,1,6,.65c5.47,4,4.57,10.52.66,14.7-4.87,5.54-24.3,26.71-36,24.41-4.66-.92-31.46-18.79-31.46-18.79a23.81,23.81,0,0,1,1.76-2.47Q195.12,72.51,200.63,75.91Z"/><path class="cls-8" d="M208.84,237c1.2-2.44,2.3-10.15.43-17.74,4-.16,8-.17,12-.22.39,3.6.91,7.4,1.62,11.43.35,2,1.79,6.93,2.23,9-.34.82-.94,2.55-1.67,4.66a3.08,3.08,0,0,0-2.08-.45c-4.56.69-9.39.71-14,1.45C208.76,242,207.47,239.77,208.84,237Z"/><path class="cls-9" d="M217.33,246.6c4-2.21,9.32-.08,10-6.26.27-2.52-2.64-7.16-3.72-10.22a3.58,3.58,0,0,0-.83.21c-2.67,1-4.5,2.8-9.72,3.27l-3.64-.74c-.46.26-1.18,2-11.78,8.67-4.49,3.11-11.69,6.4-9.21,8.13C193.88,253.48,206.18,252.76,217.33,246.6Z"/><path class="cls-13" d="M279.53,54,259.09,55.8s2.09-5.61,2.85-8.43c.3-1.12,1.4-7.34,1.4-7.34l15.32-4.13Z"/><path class="cls-14" d="M268.92,139.77c3.6-2.62,21.19-12,17-20.83-.85-1.78-46.35-4.41-48.11-3.54l-3.31,6.15c-18.16,8.69-55.15,17-57.24,27.76-3.79,19.36-3.1,76.78-3.1,76.78a65.2,65.2,0,0,0,13.11.5,25.28,25.28,0,0,0,8.29-2.1s.21-52.47,2.33-58C199.28,162.83,257.67,148,268.92,139.77Z"/><path class="cls-15" d="M278.85,148.94c3.61-2.6,10.86-10.33,9.43-27.22.6-.08-30.52,4.21-45,6.38,0,0-9.16,2.84-24.14,10.51-18.29,9.37-21.17,10.82-21,23.32.13,13.45,6.71,74.8,6.71,74.8s7.71,1.48,12.53.81a18.12,18.12,0,0,0,8-3.39s-5.13-61.47-3.41-67.11c.87-2.84,22.9-4.85,39.79-12.2C267.36,152.39,271.65,154.11,278.85,148.94Z"/><path class="cls-16" d="M237.77,115.4s10.29,2.73,24.6,6.15c17.17,4.11,26.39,4.11,26.39,4.11,7.61-5.11,9-65.83,9-65.83.25-1.1-18.18-9-18.18-9s-4.3,4.3-12.28,2.34a8,8,0,0,1-5.36-4l-11.12,1c-3.23,1.19-2.76,2.26-5.92,13.12-6,20.7-1.14,23.36-3.25,33.51C240.14,104.08,237.77,115.4,237.77,115.4Z"/><path class="cls-10" d="M259.18,6.54c-1.27,4.59-3.13,9-2.64,10.68.69,2.41-2.06,4.66-2.08,8.11-.08,11.55-1.05,13.51.15,14.7,4.16,4.17,16.49,2.44,20.19-1,6.95-6.47,12.1-6.75,14.13-13A17.4,17.4,0,0,0,277.75,4.09C268.61,1.13,261.72-2.73,259.18,6.54Z"/><path class="cls-17" d="M278.15,25.32s3.23-2.41,5.57-.62c2.7,2.06-5.06,11.2-5.06,11.2C287.19,32.66,295.27,24,292.79,12c-1.72-8.26-9.93-7.53-9.93-7.53-4-4.88-14.65-5.45-19.55-3.3C257,4,257.4,6.57,255.92,12.72c0,0,10.92-1,19,3.37C278.3,18,278.15,25.32,278.15,25.32Z"/><path class="cls-18" d="M247.84,121.8c-1.29-.08,1.78-7.08,2.45-9,6.77-19.25,9.43-50.49,9.43-50.49.5-2,4.83-6.68,6.54-6.24l-.9-.55c1.7.44,3.6,7.45,3.09,9.41,0,0-5.36,35.47-13.09,48.91C253.39,117.28,249.59,121.9,247.84,121.8Z"/><path class="cls-18" d="M265.12,57.75h0a3.49,3.49,0,0,1-3.05-3.86h0a3.49,3.49,0,0,1,3.86-3h0A3.5,3.5,0,0,1,269,54.7h0A3.5,3.5,0,0,1,265.12,57.75Z"/><path class="cls-11" d="M261.91,57.84l4.48-8.54,1.54,10.49c2.07-.37,13.94-4,15.59-7.28-.59-.36-4.38-7.76-4.44-8-1.66.12-8.38,3.87-13.09,3a6.94,6.94,0,0,1-4-3c-.36.93-3.73,4.68-3.73,4.68C258.15,51.34,260.29,56.57,261.91,57.84Z"/><polygon class="cls-3" points="80.94 265.2 77.02 267.57 77.02 130.12 84.87 125.38 80.94 265.2"/><polygon class="cls-2" points="77.02 130.12 69.17 125.38 73.09 265.2 77.02 267.57 77.02 130.12"/><polygon class="cls-3" points="264.96 276.67 261.03 279.04 261.03 148.35 268.88 143.62 264.96 276.67"/><polygon class="cls-2" points="261.03 148.35 253.19 143.62 257.11 276.67 261.03 279.04 261.03 148.35"/><polygon class="cls-3" points="178.97 328.39 175.05 330.76 175.05 197.24 182.9 192.5 178.97 328.39"/><polygon class="cls-2" points="175.05 197.24 167.2 192.5 171.13 328.39 175.05 330.76 175.05 197.24"/><polygon class="cls-19" points="69.17 125.38 42.95 216.9 59.93 221.06 69.17 125.38"/><polygon class="cls-19" points="268.88 143.62 278.32 232.54 295.3 230.56 268.88 143.62"/><polygon class="cls-20" points="268.88 143.33 175.05 197.24 69.17 125.38 155.27 74.02 268.88 143.33"/><polygon class="cls-21" points="175.05 197.24 157.67 281.03 59.93 221.06 69.17 125.38 175.05 197.24"/><polygon class="cls-21" points="278.32 232.54 178.72 286.24 175.05 197.24 268.88 143.33 278.32 232.54"/><path class="cls-20" d="M175.05,197.24l-19.68,89s6.49,6.09,19.68,6.09c14.38,0,19.68-6.09,19.68-6.09Z"/><path class="cls-22" d="M213.22,118.12c-.12,7.88-4.48,15.56-9.86,15.56s-9.82-7.58-9.86-15.56A44.49,44.49,0,0,0,213.22,118.12Z"/><path class="cls-23" d="M193.5,118.12c0,2.7,4.42,4.88,9.86,4.88s9.86-2.18,9.86-4.88-4.42-4.88-9.86-4.88S193.5,115.42,193.5,118.12Z"/><path class="cls-22" d="M189.44,125.23a3.28,3.28,0,1,0,3.28-3.28A3.27,3.27,0,0,0,189.44,125.23Zm1.35,0a1.93,1.93,0,1,1,1.93,1.93A1.92,1.92,0,0,1,190.79,125.23Z"/><path class="cls-24" d="M194.61,118.12c0,2.08,3.92,3.76,8.75,3.76s8.75-1.68,8.75-3.76-3.92-3.76-8.75-3.76S194.61,116,194.61,118.12Z"/><ellipse class="cls-25" cx="139.81" cy="130.55" rx="25.55" ry="15.62" transform="translate(-2.3 2.5) rotate(-1.02)"/><path class="cls-23" d="M159.31,130.2c.12,6.59-8.52,12.08-19.29,12.28s-19.6-5-19.72-11.58,8.52-12.08,19.3-12.28S159.2,123.62,159.31,130.2Z"/><path class="cls-26" d="M159.49,128.58a4.11,4.11,0,0,0,.13-2.34,2.43,2.43,0,0,0-.3-.49h0v0h0a3.18,3.18,0,0,0-.48-.32,4.17,4.17,0,0,0-2.34.08,8.84,8.84,0,0,0-1.22.4,11,11,0,0,0-2.06,1.33,5.35,5.35,0,0,0-1.44,1.83,4.31,4.31,0,0,0-.2.69c-.1.78.09,1.59-.06,2.43-.09.27-.11.47-.18.61l-.23.23c-2.13,2.11-4.73,4.35-7.18,6.49h0l-.26.24-.07,0-.22.2-.09.07-.2.18-.1.09-.2.17-.1.09-.2.19-.09.07-.29.26c-1.08,1-2,1.88-3.12,2.84-.76.68-1.34,1.09-1.07,1.76l0,.06v0a.05.05,0,0,0,0,0v0l0,0,0,0,0,0,0,0,0,0,0,0,0,0,0,0,0,0v0l0,0,0,0h0v0l0,0,0,0,0,0,0,0,0,0,0,0h0l0,0,0,0,0,0h0l0,0h0l0,0h0l.06,0c.66.29,1.09-.28,1.79-1,1-1,1.92-2,2.92-3l.25-.27.09-.09L144,142l.09-.11.17-.17.09-.1.18-.2.08-.08.53-.58h0c1.54-1.67,3.12-3.41,4.67-5h0l.22-.24h0c.3-.32.61-.63.92-.93s.7-.7,1.05-1c.15-.06.38-.09.63-.16.84-.13,1.64.08,2.43,0a5.51,5.51,0,0,0,.69-.18,5.42,5.42,0,0,0,1.86-1.4,10.15,10.15,0,0,0,1.38-2A8.91,8.91,0,0,0,159.49,128.58Z"/><path class="cls-26" d="M140.36,120.69s0-.09-.06-.09c-.24.08-2.48,1.14-3.51,1.59-.65.28-2.18,1-2.37,1a.64.64,0,0,1-.2,0,.18.18,0,0,1-.12-.08.44.44,0,0,1,.12-.15,3.28,3.28,0,0,1,.31-.2c.13-.07,5.52-2.8,5.48-2.9l0-.12c0-.06-4.69,2-5.64,2.47h0l-.07,0-.13.06a1.26,1.26,0,0,1-.43.08l0,0s0,0,0-.05a1.54,1.54,0,0,1,.34-.28l.13-.06.07,0c.95-.46,5.52-2.7,5.5-2.75a.9.9,0,0,0-.06-.12c0-.09-4.8,2-5.6,2.31h0l-.12.06-.35.11h-.2a.25.25,0,0,1,0-.15l0,0v0l0,0,0,0c.17-.1,1.69-.83,2.31-1.15,1-.51,3.26-1.55,3.48-1.69,0,0,0-.1,0-.09a28.88,28.88,0,0,0-4,1.25,20.4,20.4,0,0,0-2.17.86l-.07,0-.07,0-.49.24-.84.48h0a1.3,1.3,0,0,0-.49.59c-.17.31-.26.65-.42,1l0,0h0a.59.59,0,0,0,0,.08h0l-.17.35-.78.38h0c-2.71,1.29-5.9,2.55-8.92,3.77h0l-.32.13-.08,0-.28.11-.1,0-.25.1-.13,0-.24.1-.12,0-.26.11-.1,0-.36.15c-1.34.56-2.54,1.1-3.88,1.66-1,.39-1.63.59-1.59,1.31a.15.15,0,0,0,0,.07v0s0,0,0,0v0l0,0v0s0,0,0,0v.1l0,.05v0l0,.05v0l0,0V132l0,0,0,0v0l0,.05,0,0,0,.05,0,0,0,0,0,0,0,0v0l0,0,0,0,0,0h0l0,0c.53.49,1.12.09,2-.38,1.28-.68,2.47-1.25,3.75-1.93l.33-.17.11-.06.22-.12.13-.06.21-.12.12-.06.24-.13.1,0,.69-.37h0c2-1.07,4.07-2.2,6.06-3.21h0l.29-.14h0l1.18-.58c.62-.3,1.24-.59,1.83-.85l.38.08h.12c.34.08.66.23,1,.3a1.35,1.35,0,0,0,.77,0h0c.14,0,1-.37.91-.34l.49-.22.08,0c.72-.35,1.42-.74,2.11-1.16A30.56,30.56,0,0,0,140.36,120.69Z"/><path class="cls-26" d="M159.58,160.48c.46-1.47.92-2.8,1.38-4.27l.12-.38,0-.13.08-.25s0-.1,0-.15,0-.16.08-.24l0-.14a2.76,2.76,0,0,0,.08-.27l0-.12.24-.8h0c.51-1.68,1-3.42,1.55-5.11h0l5.44-15a.93.93,0,0,0,0-.54.28.28,0,0,0-.12-.24.46.46,0,0,0-.18-.13l-.12,0-.12,0a1.53,1.53,0,0,0-1.22.26,2.31,2.31,0,0,0-.64.75c-.5.86-1,1.72-1.42,2.62s-.78,1.91-1.17,2.85S163,141,162.58,142l-.86,2.18c-.29.76-.62,1.5-.86,2.27a3.85,3.85,0,0,0-.22,1.06,1.44,1.44,0,0,0,.41.88,6.77,6.77,0,0,1,.5.87.83.83,0,0,1,.06.29l0,.05s0,0,0,.07c-.62,1.44-1,1.75-1.66,3.4v0c0,.11-.09.23-.14.34l0,.09-.12.29,0,.11-.11.27-.06.13-.1.25-.06.14-.11.27-.05.11c-.05.13-.1.25-.16.38-.59,1.43-1.08,2.74-1.67,4.16-.42,1-.78,1.67-.21,2.19l0,.05h0l0,0h0l0,0,0,0,0,0h0l0,0h0l.05,0,0,0,0,0h.07l0,0h0l0,0h.07l.06,0h0l0,0h.42C159.11,162.26,159.26,161.52,159.58,160.48Z"/><path class="cls-27" d="M126.75,123.7c-6.19-1.43-10.26,3.66-10.26,3.66s0,.26-.21,1c-.72,3.39,2.78,7,7.8,8.05s9.66-.85,10.37-4.24c.1-.46.19-.91.19-.91a9.49,9.49,0,0,0-.38-2.12A11.46,11.46,0,0,0,126.75,123.7Zm-2.21,11.67c-4.38-.91-8.13-3.58-7.59-6.45a15.15,15.15,0,0,1,.91-1.82,6.19,6.19,0,0,1,2.88-2.38,9.74,9.74,0,0,1,2.32-.52,10.93,10.93,0,0,1,2.74,0,10.35,10.35,0,0,1,2.53.75,15.07,15.07,0,0,1,2.09,1,8.88,8.88,0,0,1,1.66,1.47,6.78,6.78,0,0,1,1.64,1.87c.46,1.08.65,1.75.28,2.53,0,.09-.4.31-.46.38C132.86,135.1,128.92,136.29,124.54,135.37Z"/><g class="cls-28"><path class="cls-29" d="M121.11,134.23l0,0a10.34,10.34,0,0,0-.21,1.11l0,0C121,135,121,134.6,121.11,134.23Z"/><path class="cls-29" d="M125.73,135.57l-.5-.07q-.09.56-.15,1.11c.18,0,.36,0,.55.06C125.66,136.31,125.69,135.94,125.73,135.57Z"/><path class="cls-29" d="M127.86,135.67h-.18c-.05.35-.08.69-.11,1h.09C127.72,136.35,127.79,136,127.86,135.67Z"/><path class="cls-29" d="M131.08,135l-.1.05v.06c0,.31-.07.61-.13.92L131,136C131,135.63,131,135.3,131.08,135Z"/><path class="cls-29" d="M133.21,133.19l0,0a4.3,4.3,0,0,1-.35.52.93.93,0,0,1,.23.56c0,.13,0,.26,0,.38a5.57,5.57,0,0,0,.65-.73A4.88,4.88,0,0,0,133.21,133.19Z"/><path class="cls-29" d="M117.42,131.24c-.06.14-.11.28-.16.42s-.11.32-.16.48l.21.31c.09-.31.19-.62.29-.92Z"/><path class="cls-29" d="M134.19,131.54l0-.06-.06.2.14,0h0Z"/><path class="cls-29" d="M123.32,135.07,123,135q-.12.57-.21,1.14l.42.12C123.2,135.83,123.26,135.45,123.32,135.07Z"/><path class="cls-29" d="M119.16,133.08c-.09.34-.18.67-.25,1l.14.11v0a9,9,0,0,1,.25-1Z"/></g><path class="cls-30" d="M119.32,133.8a6.35,6.35,0,0,0-.44-.91,5,5,0,0,1-1.95-2.89,6,6,0,0,1-.39-.7,5.52,5.52,0,0,1-.29-.77c-.41,2.22,1,4.52,3.39,6.12C119.53,134.37,119.43,134.08,119.32,133.8Z"/><path class="cls-30" d="M132.82,134.26a4.85,4.85,0,0,1-2.25,1.1,6.13,6.13,0,0,1-.85.09,9.06,9.06,0,0,1-1.69.24l-1.1.43c-.54.2-1.09.39-1.65.55,4.54.53,8.52-1.32,9.17-4.44l.06-.3A6.3,6.3,0,0,1,132.82,134.26Z"/><path class="cls-31" d="M126.84,123.24c-5-1-9.66.85-10.37,4.24s2.78,7,7.8,8,9.66-.85,10.37-4.24S131.86,124.29,126.84,123.24Zm5.7,10a8.28,8.28,0,0,1-1.67,1.27,7.06,7.06,0,0,1-2.15.66,10.82,10.82,0,0,1-4-.19,13.82,13.82,0,0,1-3.76-1.39,9.43,9.43,0,0,1-3.17-2.75,3.87,3.87,0,0,1-.7-1.79,3.22,3.22,0,0,1,.32-1.7,4.24,4.24,0,0,1,.91-1.2c1.49-1.85,4.81-2.72,8.34-2a11.6,11.6,0,0,1,6.67,4.19,3,3,0,0,1,.49,3.37A5.93,5.93,0,0,1,132.54,133.22Z"/><path class="cls-27" d="M126.79,121.12c-4.85.52-6.53,5.24-6.53,5.24s0,.2.1.8c.33,2.65,3.78,4.39,7.69,3.9s6.81-3,6.48-5.69l-.09-.7a7.16,7.16,0,0,0-.81-1.45A8.82,8.82,0,0,0,126.79,121.12Zm1.33,9c-3.42.43-6.81-.57-7.14-2.79a13,13,0,0,1,.21-1.55,4.67,4.67,0,0,1,1.49-2.45,7.66,7.66,0,0,1,1.56-1,8.38,8.38,0,0,1,2-.66,8.11,8.11,0,0,1,2-.09,12,12,0,0,1,1.78.23,7.13,7.13,0,0,1,1.57.65,5.24,5.24,0,0,1,1.67,1c.6.66.91,1.1.83,1.76a2.55,2.55,0,0,1-.24.39C134.1,127.88,131.53,129.74,128.12,130.17Z"/><g class="cls-28"><path class="cls-29" d="M125.34,130.2h0c0,.29.08.58.13.86h0C125.41,130.77,125.37,130.49,125.34,130.2Z"/><path class="cls-29" d="M129,130l-.38.08c0,.28.1.56.17.84l.41-.09C129.16,130.56,129.09,130.29,129,130Z"/><path class="cls-29" d="M130.61,129.55l-.14,0c.06.26.12.52.19.78l.06,0C130.67,130.08,130.64,129.82,130.61,129.55Z"/><path class="cls-29" d="M132.77,128.24l-.06,0v.05c.05.23.1.47.14.7l.06-.06C132.88,128.73,132.83,128.48,132.77,128.24Z"/><path class="cls-29" d="M133.88,126.41l0,0a2.42,2.42,0,0,1-.13.46.68.68,0,0,1,.31.36l.09.28a4.65,4.65,0,0,0,.28-.7A3.85,3.85,0,0,0,133.88,126.41Z"/><path class="cls-29" d="M121.9,129c0,.11,0,.23,0,.34s0,.26,0,.39l.23.17c0-.24,0-.49,0-.74Z"/><path class="cls-29" d="M134.17,125l0,0v.16l.11,0h0A.76.76,0,0,0,134.17,125Z"/><path class="cls-29" d="M127.16,130.25h-.3c0,.29.08.59.13.88l.34,0C127.26,130.83,127.21,130.54,127.16,130.25Z"/><path class="cls-29" d="M123.63,129.85c0,.26,0,.53.07.79l.14.05v0c0-.25,0-.52-.06-.78Z"/></g><path class="cls-30" d="M123.93,130.33a5.71,5.71,0,0,0-.55-.55,3.87,3.87,0,0,1-2.14-1.61,6.1,6.1,0,0,1-.46-.41,3.72,3.72,0,0,1-.4-.49c.26,1.72,1.84,3,4,3.6Z"/><path class="cls-30" d="M133.86,127.28a3.7,3.7,0,0,1-1.36,1.36,6.63,6.63,0,0,1-.6.29,7.52,7.52,0,0,1-1.17.59l-.69.59c-.34.28-.69.56-1.06.81,3.43-.75,5.86-3.09,5.55-5.52l0-.23A4.76,4.76,0,0,1,133.86,127.28Z"/><path class="cls-31" d="M126.75,120.77c-3.91.49-6.81,3-6.48,5.68s3.78,4.39,7.69,3.9,6.81-3,6.48-5.68S130.66,120.28,126.75,120.77Zm6.64,5.83a6,6,0,0,1-.89,1.33,5.45,5.45,0,0,1-1.4,1,8.33,8.33,0,0,1-3,.86,10.2,10.2,0,0,1-3.07-.07,7.27,7.27,0,0,1-3-1.2,3,3,0,0,1-1-1.13,2.45,2.45,0,0,1-.19-1.31,3.39,3.39,0,0,1,.36-1.1c.62-1.72,2.81-3.18,5.57-3.53a8.83,8.83,0,0,1,5.9,1.38,2.31,2.31,0,0,1,1.2,2.32A4.56,4.56,0,0,1,133.39,126.6Z"/><path class="cls-27" d="M135.69,122.87c-5.3-1.62-9.15,2.56-9.15,2.56s-.06.23-.25.89c-.83,2.91,2,6.26,6.31,7.48s8.46-.16,9.28-3.07l.22-.78a8,8,0,0,0-.2-1.86A10,10,0,0,0,135.69,122.87Zm-2.62,10c-3.76-1.07-6.87-3.62-6.23-6.08a16,16,0,0,1,.91-1.53,5.25,5.25,0,0,1,2.65-1.89,8.93,8.93,0,0,1,2-.32,10,10,0,0,1,2.38.19,9.19,9.19,0,0,1,2.16.8,14.79,14.79,0,0,1,1.76,1,8.08,8.08,0,0,1,1.36,1.38,6,6,0,0,1,1.31,1.73c.33,1,.46,1.56.09,2.21,0,.08-.37.25-.43.31C140.33,133.16,136.82,134,133.07,132.9Z"/><g class="cls-28"><path class="cls-29" d="M130.15,131.7l-.05,0c-.1.32-.18.64-.25,1l0,0C130,132.33,130.06,132,130.15,131.7Z"/><path class="cls-29" d="M134.09,133.14l-.43-.09c-.08.32-.15.63-.2,1l.47.08C134,133.78,134,133.46,134.09,133.14Z"/><path class="cls-29" d="M135.94,133.35h-.17l-.15.89h.08C135.77,133.94,135.85,133.65,135.94,133.35Z"/><path class="cls-29" d="M138.78,132.94l-.09,0V133a6.93,6.93,0,0,1-.17.79l.1,0C138.67,133.51,138.73,133.23,138.78,132.94Z"/><path class="cls-29" d="M140.75,131.52l0,0a3.57,3.57,0,0,1-.34.43.79.79,0,0,1,.16.51l0,.33a5,5,0,0,0,.61-.61A5,5,0,0,0,140.75,131.52Z"/><path class="cls-29" d="M127.11,128.87c0,.12-.11.23-.16.35l-.17.42.17.28c.1-.27.2-.53.31-.79Z"/><path class="cls-29" d="M141.7,130.14l0,0-.06.17.12,0h0Z"/><path class="cls-29" d="M132,132.56l-.31-.12c-.1.32-.18.64-.26,1l.36.13C131.87,133.21,131.94,132.89,132,132.56Z"/><path class="cls-29" d="M128.52,130.58c-.1.28-.19.57-.28.86l.12.11v0a7.11,7.11,0,0,1,.29-.85Z"/></g><path class="cls-30" d="M128.62,131.22a6,6,0,0,0-.34-.83,4.33,4.33,0,0,1-1.51-2.63,4,4,0,0,1-.3-.63,6,6,0,0,1-.21-.69c-.49,1.91.58,4,2.58,5.53C128.76,131.72,128.69,131.47,128.62,131.22Z"/><path class="cls-30" d="M140.34,132.43a4.27,4.27,0,0,1-2,.82,6.35,6.35,0,0,1-.76,0,8.76,8.76,0,0,1-1.48.1l-1,.31c-.49.14-1,.27-1.47.38,3.92.74,7.49-.64,8.25-3.31l.07-.26A5.38,5.38,0,0,1,140.34,132.43Z"/><path class="cls-31" d="M135.8,122.47c-4.31-1.21-8.46.16-9.29,3.07s2,6.26,6.31,7.48,8.46-.16,9.28-3.07S140.1,123.69,135.8,122.47Zm4.36,9a6.76,6.76,0,0,1-1.53,1,6.26,6.26,0,0,1-1.92.45,9.36,9.36,0,0,1-3.48-.42,11.67,11.67,0,0,1-3.18-1.43,8.42,8.42,0,0,1-2.6-2.58,3.53,3.53,0,0,1-.5-1.61,2.8,2.8,0,0,1,.38-1.46,3.53,3.53,0,0,1,.87-1c1.41-1.53,4.35-2.08,7.38-1.23a10.1,10.1,0,0,1,5.55,4.06,2.65,2.65,0,0,1,.23,3A5.39,5.39,0,0,1,140.16,131.5Z"/><path class="cls-8" d="M104.19,283.55c-1.18-2.45-2.21-10.17-.27-17.74-4-.2-8-.25-12-.33-.42,3.59-1,7.39-1.73,11.41-.36,1.94-1.85,6.91-2.31,9,.34.82.92,2.55,1.63,4.67a3.08,3.08,0,0,1,2.08-.43c4.56.74,9.39.8,14,1.58C104.22,288.55,105.52,286.33,104.19,283.55Z"/><path class="cls-9" d="M99.35,294.55c-4.49-.92-12.45-1-12.73-4.86-.18-2.53.6-4.95,2-9.16a3.19,3.19,0,0,1,.85,0s5.58,3.55,10.53,1.8c2.08-.74,4.65-1.75,4.65-1.75.51.12,1.52,2.61,12.22,6.92,5.19,1.7,6.21,2.72,5.79,5.46C122.24,296,114.45,297.64,99.35,294.55Z"/><path class="cls-32" d="M47.58,210.08c-3.6-2.62-21.2-12-17-20.83.85-1.78,38.27-4.19,38.27-4.19,30-3.61,43.78-2.83,45.87,7.88,3.79,19.36-2.51,80.46-2.51,80.46a51.91,51.91,0,0,1-12.13.54c-4.86-.4-13.82-4.45-13.92-4.48s7-60,4.91-65.52C89.68,200.25,58.82,218.26,47.58,210.08Z"/><polygon class="cls-3" points="111.99 298.48 109 300.39 100.48 240.56 106.31 236.93 111.99 298.48"/><polygon class="cls-2" points="100.46 240.56 94.62 237.06 106.12 298.68 108.98 300.39 100.46 240.56"/><polygon class="cls-3" points="106.53 239.06 55.98 270.85 5.44 239.06 5.44 234.39 106.53 234.39 106.53 239.06"/><polygon class="cls-4" points="106.53 234.39 55.98 266.18 5.44 234.39 55.98 203.74 106.53 234.39"/><path class="cls-6" d="M104,232.57c-.25,3.43-7.57,6.52-19.67,13.85-8.45,5.12-16.64,12.8-29,12.14-5.33-.29-19.24-11.15-25.55-15-12.68-7.82-17.4-7.69-18.47-14.29-1-6,1.94-7.38,9.87-11C30.33,214,49.31,200,59.07,204.67c8.36,4,25.88,12.7,34,15.31C96.75,221.16,104.76,222.3,104,232.57Z"/><path class="cls-7" d="M48.19,250.09c-16.37-11-37.43-18.93-33.29-28.73-3.13,1.93-4.21,3.87-3.57,7.88,1.07,6.6,5.79,6.47,18.47,14.29,6.31,3.88,20.22,14.74,25.55,15,12.35.66,20.54-7,29-12.14,12.1-7.33,19.42-10.42,19.67-13.85a13.59,13.59,0,0,0-.5-5.12C97.47,236.37,60.22,258.17,48.19,250.09Z"/><path class="cls-33" d="M68.27,177.38s-46.53-3.94-49.88-11.09c-4.72-10.07,6-25.7,10.42-36.83,1.91-4.79,8-12.47,15.51-13.59,7.24-1.08,9,1.66,5.46,10L34.47,154.93,71.91,166Z"/><path class="cls-8" d="M146.33,297.84c-1.53-2.25-3.69-9.73-2.89-17.51-4,.4-8,.94-11.93,1.45.12,3.62.13,7.45,0,11.55-.07,2-.8,7.1-1,9.21.46.76,1.29,2.38,2.3,4.38a3.11,3.11,0,0,1,2-.74c4.62.06,9.4-.6,14.06-.5C147.1,302.78,148.06,300.39,146.33,297.84Z"/><path class="cls-9" d="M143.17,309.43c-4.57-.24-12.46.82-13.3-2.92-.56-2.47-.15-5,.66-9.36a3.58,3.58,0,0,1,.84-.16s6,2.69,10.68.23c1.95-1,4.34-2.42,4.34-2.42.53,0,1.9,2.35,13.11,5,5.38.91,6.54,1.77,6.53,4.54C166,307.47,158.56,310.25,143.17,309.43Z"/><path class="cls-10" d="M142.78,161.54c-.17.39-.31.7-.39.85.24-.06-.54-3.24-.27-4,.27-.53,1.81-.61,2.09-1.14,1.85-3.1,4.9-7.31,4.77-10.05,0-1.09,2.05.1.94,6-.37,1.92,8.82,2.39,14.62.58,1.19-.7,2.18-.05,2.63,1.16.11.32-.26.77-.43,1.06-1.14,2-2.39,6-7.77,8.4-4.43,2-15.12-1.74-16.59-2-.06.12-.09.13-.06,0S142.63,161.82,142.78,161.54Z"/><path class="cls-13" d="M59.2,119.75,78.75,126s-.82-5.92-1-8.84c0-1.16,1.34-8,1.34-8L64,102.32Z"/><path class="cls-15" d="M66.1,227.41c-14-.9-15.58-20.72-18.94-37.32-.6.08,40.22-.3,40.22-.3l-.68,4.86s18-.1,33.66.13c20.55.29,20.23,6.32,22.83,19.58s4.39,72.23,4.39,72.23-6.92,1.8-11.73,2.51c-4.62.67-10.88-1.54-10.88-1.54l-5.89-66.2s-10.65,4.44-29,5.88A139.72,139.72,0,0,1,66.1,227.41Z"/><path class="cls-34" d="M96.72,222.72s-30.53,19.21-52.16,10.64c-16.41-6.5-9.18-44.68-9.18-44.68-5-5.25-3.21-28.28.54-46.73,2.5-12.32,6.65-22.59,9.66-24.68,6.42-4.46,15.08.34,15.08.34s3.25,5.14,11.47,5c4.15-.09,7.73-.2,7.73-.2l12.41,5.23c2.89,1.86,2.21,3.48.6,14.39-3.15,21.32-5.07,18.42-5.23,28.78C87.53,178.22,96.72,222.72,96.72,222.72Z"/><path class="cls-11" d="M72.29,125.76c-7.76,1.2-15.77-4.72-16.66-8.29.65-.22,4.93-6.62,5-6.81,1.08,2.46,6,4.23,10.76,4.39a42.52,42.52,0,0,0,7,0c.15,1,1.91,6.68,1.91,6.68C80.06,123.81,77.15,125,72.29,125.76Z"/><path class="cls-33" d="M70.64,127c-13.25-.76-16-6.83-17.09-11.4.83-.29,2.49-3,4.06-4.16,1.59,2.19,4.27,6.09,12.29,7.35,3.12.49,3.81-.1,8.85-.1,4.67.93,6,5.69,6,5.69C80.38,124.69,76.93,127.4,70.64,127Z"/><path class="cls-35" d="M85.51,127.62c4.69-2.06,11.29,1.42,15,9.77l8.69,27.79c8.88-.94,21.78-7.3,31.19-10.46.68,2.3,4.66,10.22,5.39,12.5,0,0-34.56,13.55-39.3,13.43-12-.3-21.13-23.88-24.67-30.34C76.34,136.76,79.29,130.34,85.51,127.62Z"/><polygon class="cls-1" points="8.53 305.68 5.54 307.58 11.3 242.59 17.12 238.96 8.53 305.68"/><polygon class="cls-2" points="11.27 242.59 5.44 239.09 2.66 305.88 5.52 307.58 11.27 242.59"/><polygon class="cls-3" points="54.05 333.2 51.05 335.03 56.01 270.41 61.83 266.79 54.05 333.2"/><polygon class="cls-2" points="56.01 270.41 50.17 266.91 48.19 333.33 51.05 335.03 56.01 270.41"/><polygon class="cls-2" points="55.98 270.85 5.44 239.06 5.44 234.39 55.98 260.62 55.98 270.85"/><polyline class="cls-3" points="3.28 141.91 0.24 136.17 54.66 165.47 54.53 169.24"/><polygon class="cls-5" points="54.66 165.48 51.11 168.17 0 136.02 3.74 133.76 54.66 165.48"/><path class="cls-3" d="M59.94,263.75,56,266.18l-4.88-98,3.54-2.69a233,233,0,0,1,6.6,50.35C61.6,233.35,59.94,263.75,59.94,263.75Z"/><path class="cls-2" d="M56,266.18s1.61-39,1.61-52.25c0-22.58-6.49-45.76-6.49-45.76L7.49,140.73v-.12l-.09.06-3.62-2.28h0L.24,136.17h0L0,136s9.72,16.68,9.47,60.17c-.09,16-4,38.2-4,38.2l1.55,1,0,1.23L52.79,265l-.11-3.5.15,2.71Z"/><path class="cls-10" d="M89.8,74.74c.23,4.76,1.09,9.44.24,11-1.2,2.21,1,5,.27,8.37-2.44,11.3-1.93,13.41-3.35,14.32-5,3.16-16.63-1.22-19.49-5.39-5.37-7.83-10.34-9.21-10.95-15.79A17.39,17.39,0,0,1,72.21,68.31C81.77,67.41,89.34,65.15,89.8,74.74Z"/><path class="cls-36" d="M80,86.31c0,.16-2.92,1.61-3,1.76-.13,1.64,2.65,4,2.46,5.59,2.23,5,1.11,10.26,1.11,15.72a10,10,0,0,0,6.4-.95c.81-.52,1-1.45,1.46-4.26C80.77,101.8,79.85,93.89,80,86.31Z"/><path class="cls-36" d="M82.6,100.18l-.78.27s-3.41-13.4-5.64-8.75c-1.28,2.68,1.29,5,1.29,6.71,0,7.36-4,8.72-4,8.72l-9.7-1.89c-3.67-5.24-12.5-21.67-7.46-32.83,3.47-7.69,11.33-5.18,11.33-5.18,4.95-3.9,15.48-2.13,19.8,1C93,72.36,92,74.81,92.12,81.13c0,0-1.15-2.67-7.93,3.48C80.62,87.84,80.36,93.18,82.6,100.18Z"/><polygon class="cls-37" points="239.05 102.31 230.39 94.63 230.43 94.62 223.26 88.66 184.79 97.5 191.57 103.4 191.57 103.4 200.35 111.03 239.05 102.31"/><polygon class="cls-38" points="184.8 97.48 184.49 98.38 184.48 98.4 184.17 99.3 199.75 112.84 200.06 111.94 200.07 111.92 200.38 111.02 184.8 97.48"/><polygon class="cls-38" points="200.38 111.02 200.07 111.92 200.06 111.94 199.75 112.84 238.46 104.12 238.77 103.22 238.77 103.2 239.08 102.3 200.38 111.02"/><path class="cls-10" d="M232.16,96.44c-7.61,5-6.56,2.1-6.44,6.29.14,4.84,8.79,7.72,13.54,6.73,6.57-1.37,10.66-7.28,7.47-10.92S236.22,93.79,232.16,96.44Z"/><path class="cls-11" d="M246.55,107.19s44.26,14.91,50.17,9.68c8.34-7.36,7.21-27.15,7.56-39.13.16-5.16.24-14.68-6.23-18.71-6.21-3.87-14-.8-14,8.27L286.49,100l-38.75-4.73Z"/><path class="cls-12" d="M255,105.66c5.28,1.76,27.17,6.47,32.81,6.4a11.84,11.84,0,0,0,8-2.81,12.25,12.25,0,0,0,3.26-6,105.24,105.24,0,0,0,3.07-15.76,110.66,110.66,0,0,0,0-23.93c2.33,4.54,2.26,10.46,2.15,14.14-.35,12,.78,31.77-7.56,39.13-5.91,5.23-50.17-9.68-50.17-9.68l.35-3.46C249.59,104.38,252.27,105,255,105.66Z"/></g></g></svg>