<svg xmlns="http://www.w3.org/2000/svg" viewBox="0 0 195.42 207.5"><defs><style>.cls-1{fill:#e8a52e;}.cls-2{fill:#72311a;}.cls-3{fill:#eda97c;}.cls-4{fill:#ffbc8f;}.cls-5{fill:#844025;}.cls-6{fill:#70311b;}.cls-7{fill:#e8a577;}.cls-8{fill:#280906;}.cls-9{fill:#d3750f;}.cls-10{fill:#ed880f;}.cls-11{fill:#d68b13;}.cls-12{fill:#c4790c;}.cls-13{fill:#f77f43;}.cls-14{fill:#ff985f;}.cls-15{fill:#876232;}.cls-16{fill:#050505;}.cls-17{fill:#eacc96;}.cls-18{fill:#194c72;}.cls-19{fill:#215889;}.cls-20{fill:#d6811d;}.cls-21{fill:#bc6915;}.cls-22{fill:#efe8da;}.cls-23{fill:#772b11;}.cls-24{fill:#911a28;}</style></defs><title>3 Guests</title><g id="Layer_2" data-name="Layer 2"><g id="_ÎÓÈ_3" data-name="—ÎÓÈ_3"><path class="cls-1" d="M186.46,66.72s1.8-3.74,2.4-4.74c3.43-5.7,4.29-9.36,4.22-13.71-.15-9.13-2.89-21.27-6.78-22.43-4.29-1.29-5.37,2.33-2.9,9.13.95,2.61,5.11,13.61,4.87,15.74-.15,1.41-2.8,6.56-4.17,12l-.9,3.91Z"/><path class="cls-1" d="M185.79,67.66a7.91,7.91,0,0,1-2.8.66c0,.05,0,.11,0,.16,0,.68-1,1.4-1.35,2a11.23,11.23,0,0,0-1.51,3.64c-.22.75,1.22,5.14,1.92,4.81,2.19-1-.14-4.57,1.44-5.64,2.31-1.58.05.66.92,1.8.25.33.47.46.54-.34.14-1.52,2.78-2.16,1.25-6.33l-.15-.88A1.75,1.75,0,0,1,185.79,67.66Z"/><path class="cls-1" d="M184.1,62.76c0,.11-1.41,6.13-1.41,6.13l3.52-.51a28.48,28.48,0,0,1,2.06-5.65A6.13,6.13,0,0,0,184.1,62.76Z"/><path class="cls-2" d="M177.5,2.17l.12,0a.83.83,0,0,0-.22,0h.1Z"/><path class="cls-2" d="M183.92,12.5c.71-2.93,1.49-7.57-.64-10.88a1.92,1.92,0,0,1-1.2.44c-.9,0-1.81,0-2.72,0-.41,0-.82,0-1.23,0l-.63.06h-.18a11.83,11.83,0,0,0-2.26.55l-.21.09q-.24.1-.48.24c-.17.1-.35.2-.52.32s-.21.16-.11.08l0,0a6.67,6.67,0,0,0-.85.83c-.06.07-.11.15-.17.23a3.37,3.37,0,0,0-.19.32c-.18.49-.3,1-.45,1.49a6,6,0,0,1-.61,1.41,2.12,2.12,0,0,1,1,1.7c-.47,9.37-4.16,10.26-4.16,10.26a37.1,37.1,0,0,0,9.16,1.38C178.37,21.1,181.87,21.08,183.92,12.5Z"/><path class="cls-3" d="M185.76,27.11s-3.43,2.29-4.67,2.41S176.34,28,176.34,28s.56-4.25.65-5.54,0-4.52,0-4.52l8.31-2.09Z"/><path class="cls-4" d="M171.05,6.66c-.89,2.1-.25,3-.37,3.84s-1,1.06-.74,2.68c.49,3.21,1.84,6.05,2.56,6.46A11,11,0,0,0,178,20.78c1.85-.31,6.4-1.81,7.76-4.66A8.32,8.32,0,0,0,181.87,5C177.72,3.06,172.83,2.43,171.05,6.66Z"/><path class="cls-5" d="M176.31,22.07a40.33,40.33,0,0,0,9.55,1.42c1,0,4.63,0,6.73-8.59C193.86,9.75,195.34-.63,180.37,0c-6.29.28-9,.68-9.87,7.18,0,0,9.54,1.53,10.1,4.61C182.43,22,176.31,22.07,176.31,22.07Z"/><path class="cls-6" d="M182.07,0a11,11,0,0,1,4.44,2.29,11.56,11.56,0,0,1,3,4.79,12.7,12.7,0,0,1,.73,5.76A12.71,12.71,0,0,1,183.52,23c-.25.12-.51.24-.77.34a25.06,25.06,0,0,0,3.11.18c1,0,4.63,0,6.73-8.59C193.81,10,195.22.18,182.07,0Z"/><path class="cls-7" d="M187.29,139.4c0-1.18-1-1.43-1-2.5.27-12.22,3.93-19.55,3.35-24.82s-3.82-7.73-3.89-11.5c-.47-24.12.2-29.44.2-29.44l-6.86-2.06s-2.43,25.82-.95,34.26c1,6,1.72,4.41,3.78,24.06,0,.41,0,.64.13,7.38,0,2.28-3.53,11.64-3.53,11.64Z"/><path class="cls-8" d="M185.4,141.16l-4.31,1.8v7a22,22,0,0,0,3.76-2.65C185.66,146.18,185.4,141.16,185.4,141.16Z"/><path class="cls-9" d="M188.06,142.13a4.14,4.14,0,0,0-1.09-3.8l-2.9.45c-1.49,0-3.61,3.66-5.54,7.64-1.19,2.44-3.76,1.65-3.42,2.57a13.86,13.86,0,0,0,6,1c2.51-1.13.92-5.61,2.57-7.05s2.36,6.56,2.33,6.7l.58-.12S187.79,143.59,188.06,142.13Z"/><path class="cls-4" d="M192.64,141.78c-.42-1.1-1.44-1-1.79-2-3.93-11.58-3-19.72-5.34-24.47s-7-5.74-7.6-9.48l6.16-30L165.7,74.22s.67,28.83,5,36.25c3,5.28,4.19,4.11,12.85,21.87.18.38.24.59,2.64,6.89.82,2.14.67,12.15.67,12.15Z"/><path class="cls-8" d="M191.47,144.09,188,147.25l2.4,6.59s2.37-2.85,2.62-3.77C193.43,148.71,191.47,144.09,191.47,144.09Z"/><path class="cls-10" d="M194.29,144.09a4.13,4.13,0,0,0-2.32-3.2l-2.57,1.42c-1.38.54-2.14,4.67-2.59,9.07-.28,2.7-3,2.84-2.33,3.59a13.81,13.81,0,0,0,6-1.13c2-1.92-1.05-5.58,0-7.5s4.47,5.36,4.49,5.5l.5-.31S194.55,145.55,194.29,144.09Z"/><path class="cls-11" d="M187.44,79c-.77,3,2.69,22.2,2.69,22.2a19.43,19.43,0,0,1-12,4,41.56,41.56,0,0,1-12.86-1.94c-2.12-18.69,1.46-38.87,1.46-38.87l22.71-2.27S190.42,67.4,187.44,79Z"/><path class="cls-12" d="M187.34,80.81a6.78,6.78,0,0,1,.1-1.79c.7-2.73,1.18-5.09,1.5-7.13-6.77,1.93-13.49,3.87-17.91,9.86-3.4,4.59-4.83,10-5.49,15.59v.14C170.34,89.4,177.14,83,187.34,80.81Z"/><path class="cls-11" d="M166.75,64.4a57.9,57.9,0,0,0,10.92,2.32c8.12.94,12.46-2.64,12.46-2.64-1.23-4.35-4.15-7.37-4-9.81.3-4.53,1-6.17,3.2-16.05,1.73-7.78-1.87-12.93-3.67-13.1l-9.11,1c-.41.51-4.71,2.37-5.1,2.92-4.9,6.89-9.25,13.17-3.06,17.45C173,49.71,166.75,64.4,166.75,64.4Z"/><path class="cls-1" d="M156.53,63.3s3.49-2.23,4.53-2.76c5.91-3.06,8.56-5.72,10.79-9.46,4.66-7.85,9.64-21.57,5.1-22.61-4.73-1.07-6.31.22-7.78,7.31-.56,2.72-3.49,13.26-4.81,14.95-.87,1.11-3.72,4-7.76,8l-2.82,2.85Z"/><path class="cls-1" d="M155.47,63.75a7.77,7.77,0,0,1-2.73-.9.64.64,0,0,0-.08.14c-.35.58-1.55.69-2.18.95a11.35,11.35,0,0,0-3.19,2.32c-.58.52-1.66,5-.9,5.1,2.41.28,2.28-4,4.19-4,2.8-.13-.3.59-.16,2,0,.41.16.64.64,0,.91-1.22,3.5-.38,4.38-4.73.11-.27.23-.55.34-.83A1.08,1.08,0,0,1,155.47,63.75Z"/><path class="cls-1" d="M156.6,58.7c-.09.08-4.42,4.48-4.42,4.48l3.26,1.41a28.63,28.63,0,0,1,4.72-3.73A6.06,6.06,0,0,0,156.6,58.7Z"/><path class="cls-13" d="M26.32,65.79c.4-.07-.73-.84-.19-1.15.51-1,1.54-6.27.83-8,.05,0,6.58,0,8.87,0l1,8c2.22.87.88,1.76,2.22.87a3.59,3.59,0,0,1,4.67.81c1.05,1.34-.52.7-1,2.48a18.51,18.51,0,0,1-1,2.48c-.2.42-.48.79-.69,1.2a.36.36,0,0,0,0,.11c.12.26.26.51.4.76.32.34.68.65,1,1a1.3,1.3,0,0,1,.51.35A3.62,3.62,0,0,1,43.69,77a4.53,4.53,0,0,1,0,1.47v0l0,0a.3.3,0,0,1,0,.1,2.61,2.61,0,0,1-.06.27s0,.09-.05.13,0,0,0,0-.11.29-.18.43a1.47,1.47,0,0,1-.31.41l-.49.68A10.54,10.54,0,0,1,38,83.94a3.33,3.33,0,0,0-.58.33l-.16.2a3.8,3.8,0,0,0-2.78,2.8,5.35,5.35,0,0,0-.1,1.38c-3.57.56-7.15,1.06-10.74,1.53,0-.13.09-.26.12-.39C24.6,87,24.75,66.06,26.32,65.79Z"/><path class="cls-14" d="M39.64,42.83c-1.83-4.29-7.1-5.27-10.31-4-1.71.66-5.84.44-7.17,3.19a15.11,15.11,0,0,0-.71,3c0,.59.17,2.37.12,2.86s-.38,1-.35,1.59a17.59,17.59,0,0,0,.52,4.19c.53,2-.17,2.7,1,3.38,1.39.81,6.46.73,9.33-.92,2.3-1.33,3.7-2.2,4-2.34C41.74,50.88,41.47,47.12,39.64,42.83Z"/><path class="cls-15" d="M43.37,46.23a7.8,7.8,0,0,0-1.77-4.47h0s.16-6-8.69-7.32c-5.24-.81-8.36,2-10.43,6.11-1,1.9-1.54,3.42-1.54,3.42.16.17,4.15-1,4.21-.1.19,3.11.65,5.45.89,5.28,4.37-3,1.84,5.31,2.73,8.07,2.4.81,7.81.67,7.92,0C37.38,53,43.37,50.53,43.37,46.23Z"/><path class="cls-16" d="M38.56,193.69c4.26.36,7.32,1.81,7.82.81.36.49.35,2.9.32,3.31,0,0,.4,1.13-1.77,1.28-2.37.17-2.9-.16-3.94.13-4.05,1.12-10.6.49-10.48-1,.09-1.16,2.15-2.16,4.33-2.94A22.65,22.65,0,0,0,38.56,193.69Z"/><path class="cls-16" d="M17.09,194.91c4.44.45,8.92,2.19,9.46,1.16.37.52.3,3,.26,3.46,0,0-.08,1.22-1.86,1.31-2.1.1-3.14-.29-4.19-.19-5.79.52-11.49.21-10.94-2.17.18-.78,3.23-1.69,5.52-2.46C18.06,195.11,17.09,194.91,17.09,194.91Z"/><path class="cls-14" d="M42.84,114.48c-.32-.42-.63-.84-.93-1.27-.56.09-.3.31-.7.31l-.56-.53c-1.41.08-4.46,1.91-4.94,3.05-.88,2.1-1.37,2.13-2.3,2.66-.58.32.63,1.08,1.36.37l.73-.75a12.4,12.4,0,0,1-.91,1.32c-.85.73-1.76,1.42-2.52,2.2-.14.15-.34.81.33.53s.21.79.05,1.44a.37.37,0,0,0,.36.42,2.65,2.65,0,0,0,.74-.11.37.37,0,0,0,.15.31c.35.27.88-.05,1.23-.24a7.08,7.08,0,0,0,2.15-.85,1.64,1.64,0,0,0,.22-.14c.21-.13.41-.27.6-.41v0l.25-.18a4.48,4.48,0,0,0,.4-.36,5.17,5.17,0,0,0,.42-.51v0c3.46-3.52,2.57-5.53,2.75-5.82a2.35,2.35,0,0,1,1.13-1.35Z"/><path class="cls-17" d="M46.14,93.76c-.42-1.78-5-18.16-6.35-21.83-1.09-2.9,2-6.2,4.18-6.19,6,0,8.73,14.71,10.81,27.54.85,5.29-13.11,23.9-13.11,23.9L38.08,114C39.83,108.61,46.14,93.76,46.14,93.76Z"/><path class="cls-18" d="M34.48,162c2.12,8.93,2.24,32.65,2.24,32.65,1.93.21,8.33.93,9.87.57,0,0,.67-22.9.07-27.41-1-7.33-2.49-6.86-2.51-19.2,0-11.82-3.13-18.67.74-31-2.65,3-15.72-1.3-18.28,1.81,0,0,0,.18,0,.18C27.18,136.74,33.47,157.77,34.48,162Z"/><path class="cls-19" d="M16.7,195.33s2-12.08-.13-33.67c-1.81-18.48.62-30.45,5-51.21l10.87-7.79,3.67.79,8,4s1.44,7.51.81,10.2c-1,4.37-6.73,4.36-9.45,12.08-2.34,6.63-8.27,21.48-8.92,27.72-.26,2.54,2.11,7.92,2.05,11-.32,17.5-1.39,28.34-1.39,28.34Z"/><path class="cls-20" d="M43.68,126.65a41.51,41.51,0,0,1-12.24.86c-8.75-.51-13.15-2.64-13.15-2.64l-.18-5.73s-2.15-.88-1.51-3.87c4.22-19.67,0-44,0-44,0-4.87,6.1-7.17,7.9-7.17l2.75-.23.89-2.5a8.79,8.79,0,0,0,3.92,1.31A9.47,9.47,0,0,0,36.24,62l.4,1.67s5.88-.11,7.44.93c3.81,2.54,2.23,10.39,2.55,16.77.36,7.17,1.12,26.05.13,37-.12,1.36-2.58,3.05-2.68,4.11C43.84,125.07,43.68,126.65,43.68,126.65Z"/><path class="cls-21" d="M38.44,121.33c-4,.33-8.28-.31-12.29-.53a38,38,0,0,1-8-1.23l.16,5.3s4.4,2.13,13.15,2.64a41.51,41.51,0,0,0,12.24-.86s.16-1.58.4-4.16c.1-1.06,2.56-2.75,2.68-4.11.06-.62.11-1.27.15-1.94C45.28,119.2,42.51,121,38.44,121.33Z"/><path class="cls-17" d="M37.38,63.88l-.8-3.54a5.73,5.73,0,0,1-3.87,1c-2.11-.11-6.19-.74-6.19-.74L25.64,64a16.34,16.34,0,0,0,7.75,1.75C35.83,65.35,37.32,64.69,37.38,63.88Z"/><path class="cls-14" d="M12,114.28c-.25-.47-.49-.93-.71-1.41-.57,0-.35.26-.74.2l-.47-.61c-1.41-.15-4.71,1.17-5.37,2.22C3.52,116.61,3,116.56,2,116.93c-.62.23.44,1.18,1.28.59l.85-.63A12.53,12.53,0,0,1,3,118.05c-1,.59-2,1.12-2.83,1.78-.17.12-.47.73.24.57.56-.13.07.82-.18,1.43a.36.36,0,0,0,.28.47,2.69,2.69,0,0,0,.75,0,.36.36,0,0,0,.1.33c.3.32.88.1,1.25,0a6.75,6.75,0,0,0,2.26-.5c.25-.08,0,0,.24-.1s.45-.2.66-.31h0l.27-.14c.16-.09.31-.19.46-.29l.5-.44v0c4-2.93,3.42-5,3.64-5.31A2.39,2.39,0,0,1,12,114.32Z"/><path class="cls-22" d="M18.58,94.35c-.13-1.82-2-18.72-2.78-22.56-.61-3,2.93-5.81,5.12-5.45,5.89,1,6.26,15.92,6.26,28.92,0,5.36-16.76,21.5-16.76,21.5l-3-3.74C10,108,18.58,94.35,18.58,94.35Z"/><path class="cls-14" d="M12,114.28c-.25-.47-.49-.93-.71-1.41-.57,0-.35.26-.74.2l-.47-.61c-1.41-.15-4.71,1.17-5.37,2.22C3.52,116.61,3,116.56,2,116.93c-.62.23.44,1.18,1.28.59l.85-.63A12.53,12.53,0,0,1,3,118.05c-1,.59-2,1.12-2.83,1.78-.17.12-.47.73.24.57.56-.13.07.82-.18,1.43a.36.36,0,0,0,.28.47,2.69,2.69,0,0,0,.75,0,.36.36,0,0,0,.1.33c.3.32.88.1,1.25,0a6.75,6.75,0,0,0,2.26-.5c.25-.08,0,0,.24-.1s.45-.2.66-.31h0l.27-.14c.16-.09.31-.19.46-.29l.5-.44v0c4-2.93,3.42-5,3.64-5.31A2.39,2.39,0,0,1,12,114.32Z"/><path class="cls-17" d="M18.58,94.35c-.13-1.82-2-18.72-2.78-22.56-.61-3,2.93-5.81,5.12-5.45,5.89,1,6.26,15.92,6.26,28.92,0,5.36-16.76,21.5-16.76,21.5l-3-3.74C10,108,18.58,94.35,18.58,94.35Z"/><path class="cls-13" d="M90.49,72.42c.4-.06-.73-.83-.19-1.14.51-1,1.54-6.27.83-8,.05,0,6.58,0,8.87,0l1,8c2.22.87.88,1.76,2.22.87a3.6,3.6,0,0,1,4.67.82c1,1.34-.52.69-1,2.47a18.51,18.51,0,0,1-1,2.48c-.2.42-.48.79-.69,1.2a.56.56,0,0,0,0,.12c.12.25.26.5.4.75.32.34.68.65,1,1a1.2,1.2,0,0,1,.51.35,3.68,3.68,0,0,1,.87,2.25,4.47,4.47,0,0,1,0,1.46v0a.13.13,0,0,1,0,.06.36.36,0,0,1,0,.1,2,2,0,0,1-.06.26s0,.09-.05.13a.08.08,0,0,1,0,0,2.75,2.75,0,0,1-.17.43,1.34,1.34,0,0,1-.31.41c-.16.23-.33.45-.49.69a10.44,10.44,0,0,1-4.51,3.31,5.45,5.45,0,0,0-.58.33l-.16.2a3.8,3.8,0,0,0-2.78,2.81,5.35,5.35,0,0,0-.1,1.38c-3.57.56-7.15,1.06-10.74,1.53,0-.13.09-.26.12-.4C88.77,93.59,88.92,72.69,90.49,72.42Z"/><path class="cls-14" d="M103.81,49.47c-1.83-4.29-7.1-5.28-10.31-4-1.71.67-5.84.44-7.17,3.19a15.11,15.11,0,0,0-.71,3c0,.6.17,2.37.12,2.86s-.38,1-.35,1.59a17.42,17.42,0,0,0,.52,4.19c.53,2-.17,2.71,1,3.38,1.39.82,6.46.74,9.33-.92,2.3-1.32,3.7-2.2,4-2.33C105.91,57.52,105.64,53.75,103.81,49.47Z"/><path class="cls-23" d="M107.54,52.87a7.8,7.8,0,0,0-1.77-4.47h0s.16-6-8.69-7.32c-5.24-.8-8.36,2-10.43,6.12-1,1.89-1.54,3.42-1.54,3.42.16.17,4.15-1,4.21-.11.19,3.11.65,5.45.89,5.29,4.37-3,1.84,5.31,2.73,8.06,2.4.81,7.81.68,7.92,0C101.55,59.62,107.54,57.17,107.54,52.87Z"/><path class="cls-16" d="M102.73,200.33c4.26.35,7.32,1.8,7.82.81.36.49.34,2.9.32,3.3,0,0,.4,1.13-1.77,1.29-2.37.16-2.9-.16-3.94.13-4,1.11-10.6.49-10.48-1,.09-1.15,2.15-2.15,4.33-2.93A22.65,22.65,0,0,0,102.73,200.33Z"/><path class="cls-16" d="M81.26,201.54c4.44.45,8.92,2.2,9.46,1.17.37.52.3,3,.26,3.46,0,0-.09,1.22-1.86,1.3-2.1.1-3.14-.28-4.19-.19-5.79.53-11.49.22-10.94-2.16.18-.79,3.23-1.69,5.52-2.46C82.23,201.75,81.26,201.54,81.26,201.54Z"/><path class="cls-14" d="M107,121.12c-.32-.42-.63-.84-.93-1.27-.56.08-.3.3-.7.3l-.56-.52c-1.41.07-4.46,1.91-4.94,3.05-.88,2.09-1.37,2.12-2.3,2.65-.58.33.63,1.09,1.36.38l.73-.76a13.46,13.46,0,0,1-.91,1.33c-.85.73-1.76,1.41-2.52,2.2-.14.15-.34.8.33.53s.21.79.05,1.44a.37.37,0,0,0,.36.41,2.32,2.32,0,0,0,.74-.1.39.39,0,0,0,.15.31c.35.26.88,0,1.23-.24a6.91,6.91,0,0,0,2.15-.86c.23-.12,0,0,.22-.14a6.34,6.34,0,0,0,.6-.41h0l.25-.18a4.48,4.48,0,0,0,.4-.36c.14-.17.29-.34.42-.51v0c3.46-3.53,2.57-5.53,2.75-5.83a2.38,2.38,0,0,1,1.13-1.35Z"/><path class="cls-17" d="M110.31,100.4c-.42-1.78-5-18.17-6.35-21.84-1.09-2.9,2-6.19,4.18-6.18,6,0,8.73,14.71,10.81,27.54.85,5.29-13.11,23.9-13.11,23.9l-3.59-3.21C104,115.24,110.31,100.4,110.31,100.4Z"/><path class="cls-18" d="M98.65,168.64c2.12,8.92,2.24,32.65,2.24,32.65,1.93.21,8.33.93,9.87.57,0,0,.67-22.9.07-27.41-1-7.33-2.49-6.86-2.51-19.2,0-11.83-3.13-18.67.73-31-2.64,3-15.71-1.3-18.27,1.81,0,0,0,.18,0,.18C91.35,143.37,97.64,164.41,98.65,168.64Z"/><path class="cls-19" d="M80.87,202s2-12.08-.13-33.68c-1.81-18.47.62-30.44,5-51.21l10.87-7.78,3.67.78,8,4s1.44,7.5.8,10.2c-1,4.37-6.72,4.36-9.44,12.07-2.34,6.64-8.27,21.49-8.92,27.73-.26,2.54,2.11,7.92,2,11-.32,17.51-1.39,28.35-1.39,28.35Z"/><path class="cls-24" d="M107.85,133.29a41.51,41.51,0,0,1-12.24.86c-8.76-.52-13.15-2.65-13.15-2.65l-.18-5.73s-2.15-.88-1.51-3.86c4.22-19.68,0-44,0-44,0-4.87,6.1-7.18,7.9-7.18l2.75-.23L92.33,68a8.93,8.93,0,0,0,3.92,1.31,9.55,9.55,0,0,0,4.16-.62l.4,1.67s5.88-.1,7.44.94c3.81,2.53,2.23,10.39,2.55,16.76.36,7.18,1.12,26.06.13,37-.12,1.36-2.58,3.06-2.68,4.12C108,131.71,107.85,133.29,107.85,133.29Z"/><path class="cls-21" d="M102.61,128c-4,.34-8.28-.31-12.29-.53a37.4,37.4,0,0,1-8-1.22l.16,5.29s4.39,2.13,13.15,2.65a41.51,41.51,0,0,0,12.24-.86s.16-1.58.4-4.16c.1-1.06,2.56-2.76,2.68-4.12.06-.62.11-1.27.15-1.94C109.45,125.84,106.68,127.62,102.61,128Z"/><path class="cls-17" d="M101.55,70.52l-.8-3.54a5.73,5.73,0,0,1-3.87,1c-2.11-.12-6.19-.74-6.19-.74l-.88,3.37a16.22,16.22,0,0,0,7.75,1.74C100,72,101.49,71.33,101.55,70.52Z"/><path class="cls-14" d="M76.18,120.92c-.25-.47-.49-.94-.71-1.41-.57,0-.35.26-.74.19l-.47-.61c-1.41-.15-4.71,1.18-5.37,2.23-1.2,1.92-1.69,1.88-2.69,2.25-.62.23.44,1.17,1.28.59l.84-.63a12.21,12.21,0,0,1-1.11,1.16c-1,.59-2,1.12-2.83,1.77-.17.12-.47.74.24.58.56-.13.07.81-.18,1.42a.37.37,0,0,0,.28.48,2.69,2.69,0,0,0,.75,0,.36.36,0,0,0,.1.33c.3.31.88.09,1.25,0a7.32,7.32,0,0,0,2.26-.5c.25-.09,0,0,.24-.11a6.62,6.62,0,0,0,.66-.3v0l.27-.14a4.43,4.43,0,0,0,.46-.29c.17-.14.33-.28.5-.44v0c4-2.93,3.42-5,3.64-5.31A2.39,2.39,0,0,1,76.2,121Z"/><path class="cls-22" d="M82.75,101c-.13-1.82-2-18.73-2.78-22.57-.61-3,2.93-5.8,5.11-5.44,5.9,1,6.27,15.92,6.27,28.92,0,5.35-16.76,21.49-16.76,21.49l-3-3.74C74.15,114.63,82.75,101,82.75,101Z"/><path class="cls-14" d="M76.18,120.92c-.25-.47-.49-.94-.71-1.41-.57,0-.35.26-.74.19l-.47-.61c-1.41-.15-4.71,1.18-5.37,2.23-1.2,1.92-1.69,1.88-2.69,2.25-.62.23.44,1.17,1.28.59l.84-.63a12.21,12.21,0,0,1-1.11,1.16c-1,.59-2,1.12-2.83,1.77-.17.12-.47.74.24.58.56-.13.07.81-.18,1.42a.37.37,0,0,0,.28.48,2.69,2.69,0,0,0,.75,0,.36.36,0,0,0,.1.33c.3.31.88.09,1.25,0a7.32,7.32,0,0,0,2.26-.5c.25-.09,0,0,.24-.11a6.62,6.62,0,0,0,.66-.3v0l.27-.14a4.43,4.43,0,0,0,.46-.29c.17-.14.33-.28.5-.44v0c4-2.93,3.42-5,3.64-5.31A2.39,2.39,0,0,1,76.2,121Z"/><path class="cls-17" d="M82.75,101c-.13-1.82-2-18.73-2.78-22.57-.61-3,2.93-5.8,5.11-5.44,5.9,1,6.27,15.92,6.27,28.92,0,5.35-16.76,21.49-16.76,21.49l-3-3.74C74.15,114.63,82.75,101,82.75,101Z"/></g></g></svg>