<svg xmlns="http://www.w3.org/2000/svg" viewBox="0 0 227.15 229.08"><defs><style>.cls-1{fill:#f9ece8;}.cls-2{fill:#af9f9a;}.cls-3{fill:#f2d6cc;}.cls-4{fill:#f9eee4;}</style></defs><title>Railing back</title><g id="Layer_2" data-name="Layer 2"><g id="_ÎÓÈ_3" data-name="—ÎÓÈ_3"><rect class="cls-1" x="111.63" y="75.61" width="5.47" height="88.51" rx="1.64" transform="translate(2.13 -1.99) rotate(1.01)"/><path class="cls-2" d="M116.37,161.43l1.46-83a2.76,2.76,0,0,0-2.69-2.78l-1.56,88.5A2.76,2.76,0,0,0,116.37,161.43Z"/><rect class="cls-1" x="125.3" y="81.41" width="5.47" height="88.51" rx="1.64" transform="translate(2.23 -2.23) rotate(1.01)"/><path class="cls-2" d="M130,167.23l1.46-83a2.74,2.74,0,0,0-2.69-2.78l-1.55,88.5A2.75,2.75,0,0,0,130,167.23Z"/><rect class="cls-1" x="138.94" y="89.09" width="5.47" height="88.51" rx="1.64" transform="translate(2.36 -2.47) rotate(1.01)"/><path class="cls-2" d="M143.68,174.91l1.46-83a2.73,2.73,0,0,0-2.68-2.78l-1.56,88.49A2.73,2.73,0,0,0,143.68,174.91Z"/><rect class="cls-1" x="152.57" y="97.85" width="5.47" height="88.51" rx="1.64" transform="translate(2.52 -2.71) rotate(1.01)"/><path class="cls-2" d="M157.31,183.66l1.46-83a2.76,2.76,0,0,0-2.69-2.79l-1.56,88.5A2.74,2.74,0,0,0,157.31,183.66Z"/><rect class="cls-1" x="166.2" y="106.1" width="5.47" height="88.51" rx="1.64" transform="translate(2.67 -2.95) rotate(1.01)"/><path class="cls-2" d="M170.94,191.91l1.46-83a2.75,2.75,0,0,0-2.69-2.79l-1.55,88.5A2.74,2.74,0,0,0,170.94,191.91Z"/><rect class="cls-1" x="179.82" y="114.65" width="5.47" height="88.51" rx="1.64" transform="translate(2.82 -3.19) rotate(1.01)"/><path class="cls-2" d="M184.56,200.47l1.46-83a2.74,2.74,0,0,0-2.68-2.78l-1.56,88.5A2.74,2.74,0,0,0,184.56,200.47Z"/><rect class="cls-1" x="193.45" y="123.44" width="5.47" height="88.51" rx="1.64" transform="translate(2.97 -3.42) rotate(1.01)"/><path class="cls-2" d="M198.19,209.26l1.46-83a2.75,2.75,0,0,0-2.69-2.78l-1.56,88.49A2.74,2.74,0,0,0,198.19,209.26Z"/><rect class="cls-1" x="207.06" y="132.83" width="5.47" height="88.51" rx="1.64" transform="translate(3.14 -3.65) rotate(1.01)"/><path class="cls-2" d="M211.8,218.64l1.46-83a2.74,2.74,0,0,0-2.69-2.79L209,221.33A2.74,2.74,0,0,0,211.8,218.64Z"/><rect class="cls-1" x="220.7" y="140.55" width="5.47" height="88.51" rx="1.64" transform="translate(3.28 -3.89) rotate(1.01)"/><path class="cls-2" d="M225.44,226.37l1.46-83a2.74,2.74,0,0,0-2.69-2.78l-1.55,88.5A2.75,2.75,0,0,0,225.44,226.37Z"/><polygon class="cls-3" points="111.5 76.09 226.84 146.89 226.95 140.61 111.61 69.8 111.5 76.09"/><polygon class="cls-4" points="111.61 69.8 226.95 140.61 227.15 137.61 114.45 68.23 111.61 69.8"/><rect class="cls-1" x="0.75" y="7.38" width="5.47" height="88.51" rx="1.64" transform="translate(0.91 -0.05) rotate(1.01)"/><path class="cls-2" d="M5.49,93.2,7,10.17A2.75,2.75,0,0,0,4.26,7.39L2.71,95.89A2.74,2.74,0,0,0,5.49,93.2Z"/><rect class="cls-1" x="14.42" y="13.18" width="5.47" height="88.51" rx="1.64" transform="translate(1.01 -0.29) rotate(1.01)"/><path class="cls-2" d="M19.16,99l1.46-83a2.74,2.74,0,0,0-2.68-2.78l-1.56,88.5A2.74,2.74,0,0,0,19.16,99Z"/><rect class="cls-1" x="28.07" y="20.86" width="5.47" height="88.51" rx="1.64" transform="translate(1.15 -0.53) rotate(1.01)"/><path class="cls-2" d="M32.81,106.68l1.45-83a2.73,2.73,0,0,0-2.68-2.78L30,109.37A2.76,2.76,0,0,0,32.81,106.68Z"/><rect class="cls-1" x="41.69" y="29.62" width="5.47" height="88.51" rx="1.64" transform="translate(1.31 -0.77) rotate(1.01)"/><path class="cls-2" d="M46.43,115.44l1.46-83a2.74,2.74,0,0,0-2.69-2.78l-1.55,88.49A2.74,2.74,0,0,0,46.43,115.44Z"/><rect class="cls-1" x="55.32" y="37.87" width="5.47" height="88.51" rx="1.64" transform="translate(1.45 -1.01) rotate(1.01)"/><path class="cls-2" d="M60.06,123.69l1.46-83a2.73,2.73,0,0,0-2.69-2.78l-1.55,88.49A2.74,2.74,0,0,0,60.06,123.69Z"/><rect class="cls-1" x="68.95" y="46.43" width="5.47" height="88.51" rx="1.64" transform="translate(1.61 -1.25) rotate(1.01)"/><path class="cls-2" d="M73.69,132.24l1.46-83a2.76,2.76,0,0,0-2.69-2.79l-1.56,88.5A2.74,2.74,0,0,0,73.69,132.24Z"/><rect class="cls-1" x="82.57" y="55.21" width="5.47" height="88.51" rx="1.64" transform="translate(1.76 -1.48) rotate(1.01)"/><path class="cls-2" d="M87.31,141l1.46-83a2.74,2.74,0,0,0-2.69-2.78l-1.55,88.5A2.76,2.76,0,0,0,87.31,141Z"/><rect class="cls-1" x="96.18" y="64.6" width="5.47" height="88.51" rx="1.64" transform="translate(1.93 -1.72) rotate(1.01)"/><path class="cls-2" d="M100.92,150.42l1.46-83a2.73,2.73,0,0,0-2.69-2.78L98.14,153.1A2.73,2.73,0,0,0,100.92,150.42Z"/><polygon class="cls-3" points="0.62 7.86 115.96 78.67 116.07 72.38 0.73 1.58 0.62 7.86"/><polygon class="cls-4" points="0.73 1.58 116.07 72.38 116.28 69.39 3.58 0 0.73 1.58"/></g></g></svg>