<svg xmlns="http://www.w3.org/2000/svg" viewBox="0 0 69.41 69.41"><defs><style>.cls-1{fill:#9f2e20;}</style></defs><title>Asset 13</title><g id="Layer_2" data-name="Layer 2"><g id="_ÎÓÈ_3" data-name="—ÎÓÈ_3"><path class="cls-1" d="M34.07,58.67a1.35,1.35,0,1,0-1.91,1.91,1.35,1.35,0,1,0,1.91-1.91Z"/><path class="cls-1" d="M40.53,46.16v-10a1.36,1.36,0,0,0-.6-1.13,1.34,1.34,0,0,0-1.26-.13L15.31,44.34H7.79a7.79,7.79,0,1,0,0,15.57h.89v8.14A1.36,1.36,0,0,0,10,69.41h5.53a1.36,1.36,0,0,0,1.36-1.36V60.56l21.74,8.75a1.44,1.44,0,0,0,.5.1,1.29,1.29,0,0,0,.76-.24,1.33,1.33,0,0,0,.6-1.12v-10a6.11,6.11,0,0,0,0-11.92ZM14.22,66.69H11.39V59.91h2.83v6.78Zm0-9.49H7.79a5.08,5.08,0,1,1,0-10.15h6.43ZM37.82,66h0l-20.89-8.4v-11l14.83-6V54.09a1.36,1.36,0,0,0,2.71,0V39.54l3.35-1.34Zm2.71-10.81V49a3.4,3.4,0,0,1,0,6.23Z"/><path class="cls-1" d="M58.22,50.8H50.54a1.36,1.36,0,1,0,0,2.71h7.68a1.36,1.36,0,0,0,0-2.71Z"/><path class="cls-1" d="M51.92,40.87a1.36,1.36,0,0,0-1.92,0l-2.64,2.65a1.35,1.35,0,0,0,0,1.91,1.34,1.34,0,0,0,1.91,0l2.65-2.64A1.36,1.36,0,0,0,51.92,40.87Z"/><path class="cls-1" d="M52,61.4l-2.74-2.73a1.35,1.35,0,0,0-1.91,1.92l2.73,2.73a1.34,1.34,0,0,0,1,.4,1.32,1.32,0,0,0,1-.4A1.36,1.36,0,0,0,52,61.4Z"/><path class="cls-1" d="M64,0H38.77a5.42,5.42,0,0,0-5.42,5.42V6H10.57A3.26,3.26,0,0,0,7.32,9.22V30.64a3.26,3.26,0,0,0,3.25,3.25H12v4.16a1.36,1.36,0,0,0,.84,1.25,1.34,1.34,0,0,0,.52.1,1.36,1.36,0,0,0,1-.4l5.11-5.11H46.33a3.26,3.26,0,0,0,3.25-3.25V26.57H64a5.43,5.43,0,0,0,5.43-5.42V5.42A5.43,5.43,0,0,0,64,0ZM46.87,30.64a.54.54,0,0,1-.54.54H18.84a1.35,1.35,0,0,0-1,.4l-3.19,3.19V32.53a1.36,1.36,0,0,0-1.36-1.35H10.57a.54.54,0,0,1-.54-.54V9.22a.54.54,0,0,1,.54-.54H33.35V21.15a5.42,5.42,0,0,0,5.42,5.42h8.1Zm19.82-9.49A2.71,2.71,0,0,1,64,23.86H38.77a2.71,2.71,0,0,1-2.71-2.71V5.42a2.71,2.71,0,0,1,2.71-2.71H64a2.71,2.71,0,0,1,2.71,2.71Z"/><path class="cls-1" d="M56.82,12.11,47.54,6.75a1.36,1.36,0,0,0-2,1.18V18.64a1.34,1.34,0,0,0,.68,1.17,1.29,1.29,0,0,0,1.35,0l9.28-5.35a1.36,1.36,0,0,0,0-2.35Zm-8.6,4.18v-6l5.21,3Z"/><path class="cls-1" d="M29.08,14.23H15.52a1.36,1.36,0,0,0,0,2.71H29.08a1.36,1.36,0,0,0,0-2.71Z"/><path class="cls-1" d="M30,22.22a1.41,1.41,0,0,0-1-.4,1.36,1.36,0,0,0,0,2.72,1.39,1.39,0,0,0,1-.4,1.38,1.38,0,0,0,0-1.92Z"/><path class="cls-1" d="M24,21.82H15.52a1.36,1.36,0,0,0,0,2.72H24a1.36,1.36,0,1,0,0-2.72Z"/></g></g></svg>