<svg xmlns="http://www.w3.org/2000/svg" viewBox="0 0 711.53 448.87"><defs><style>.cls-1{fill:#fff6ee;}.cls-2{fill:#3c6f77;}.cls-3{fill:#06495b;}.cls-4{fill:#d1af8c;}.cls-5{fill:#f7ddc4;}.cls-6{fill:#bc9877;}.cls-7{fill:#033e4c;}.cls-8{fill:#20627f;}.cls-9{fill:#2083a5;}.cls-10{fill:#eaa028;}.cls-11{fill:#4e7882;}.cls-12{fill:#84807f;}.cls-13{fill:#9b9592;}.cls-14{fill:#efebe8;}.cls-15{fill:#afaaa7;}.cls-16{fill:#c9c9c9;}.cls-17{fill:#db7e21;}.cls-18{fill:#ef903a;}.cls-19{fill:#c16e14;}</style></defs><title>Office wall</title><g id="Layer_2" data-name="Layer 2"><g id="_ÎÓÈ_3" data-name="—ÎÓÈ_3"><polygon class="cls-1" points="444.3 175.13 5.14 282.88 0 272.31 444.3 2.58 450.8 7.43 444.3 175.13"/><polygon class="cls-2" points="454.55 182.09 13.66 448.87 13.66 276.32 454.55 9.54 454.55 182.09"/><polygon class="cls-3" points="330.14 111.78 330.83 247.84 317.23 265.75 379.19 228.22 382.34 84.58 330.14 111.78"/><path class="cls-4" d="M320.49,240.88V104.47l-3.15,2.25v132.4C318.39,239.7,319.45,240.28,320.49,240.88Z"/><polygon class="cls-4" points="382.34 229.89 379.19 228.22 379.21 69.42 382.36 69.42 382.34 229.89"/><path class="cls-5" d="M320.49,104.39V240.88a81.11,81.11,0,0,1,7.41,4.8c.86.64,2.05,1.36,3,2.22V113l51.46-29,0,146,10.43-6V63.58Z"/><polygon class="cls-3" points="335.57 254.2 267.92 296.81 268.06 148.56 336.44 109.89 335.57 254.2"/><polygon class="cls-4" points="258.42 305.08 255.26 303.26 255.26 140.08 258.42 141.84 258.42 305.08"/><polygon class="cls-5" points="258.42 141.76 258.42 305.08 268.83 299.18 268.83 150.41 382.34 84.58 392.77 63.58 258.42 141.76"/><polygon class="cls-6" points="258.42 141.84 255.26 140.18 389.66 62.05 392.77 63.8 258.42 141.84"/><polygon class="cls-7" points="327.77 259.4 326.5 260.14 326.64 116.95 328.11 116.1 327.77 259.4"/><polygon class="cls-7" points="322.74 255.75 275.04 285.79 275.09 222.58 323.29 195.32 322.74 255.75"/><polygon class="cls-7" points="375.73 223.85 330.45 251.86 330.68 190.6 376.47 165.21 375.73 223.85"/><polygon class="cls-8" points="372.89 225.58 330.57 251.86 330.68 190.6 373.55 166.82 372.89 225.58"/><polygon class="cls-9" points="375.73 223.85 330.45 251.86 330.45 248.13 372.92 222.27 375.73 223.85"/><polygon class="cls-8" points="320.2 257.44 275.04 285.79 275.09 222.58 320.89 196.68 320.2 257.44"/><polygon class="cls-9" points="322.68 255.85 275.04 285.79 275.04 282.06 320.24 254.04 322.68 255.85"/><path class="cls-10" d="M325.07,192.65a5.62,5.62,0,0,0-.77-.89,1.16,1.16,0,0,0-1.1-.24,1.31,1.31,0,0,0-1,1.39,1,1,0,0,0,.24.49,1.87,1.87,0,0,1,.4.75,2.47,2.47,0,0,1-1.08,3.13l-10.55,6.17a2.36,2.36,0,0,1-3.26-.59l-.62-1a1.12,1.12,0,0,0-1.18-.34,1.35,1.35,0,0,0-1.05,1.31,5.39,5.39,0,0,0,.43,1.28c1.23,2.1,4.24,2.65,6.69,1.22l10.66-6.23C325.3,197.65,326.3,194.75,325.07,192.65Z"/><path class="cls-10" d="M349.26,180a5.62,5.62,0,0,0-.77-.89,1.16,1.16,0,0,0-1.1-.24,1.31,1.31,0,0,0-1,1.39,1,1,0,0,0,.24.49,1.87,1.87,0,0,1,.4.75,2.47,2.47,0,0,1-1.08,3.13l-10.55,6.17a2.36,2.36,0,0,1-3.26-.59l-.62-1a1.12,1.12,0,0,0-1.18-.34,1.37,1.37,0,0,0-1.06,1.31,6.06,6.06,0,0,0,.44,1.28c1.23,2.1,4.24,2.65,6.69,1.22L347,186.41C349.49,185,350.49,182.08,349.26,180Z"/><polygon class="cls-1" points="702.9 181.14 468.46 33.17 477.09 23.91 711.53 171.89 702.9 181.14"/><polygon class="cls-11" points="703.5 340.38 469.05 192.41 469.16 33.78 703.61 181.76 703.5 340.38"/><polygon class="cls-12" points="417.34 206.29 474.52 239.73 474.52 179.32 417.34 145.88 417.34 206.29"/><polygon class="cls-13" points="417.34 146.19 452.8 126.36 509.97 159.78 474.52 179.63 417.34 146.19"/><polygon class="cls-14" points="417.34 206.29 452.8 186.47 509.97 219.89 474.52 239.73 417.34 206.29"/><polygon class="cls-15" points="509.97 159.48 474.52 179.32 474.52 239.73 509.97 219.89 509.97 159.48"/><path class="cls-16" d="M417.34,145.88v60.41l57.18,33.44V179.32Zm1.94,3.19,53.3,31.17v56.31l-53.3-31.18Z"/><polygon class="cls-12" points="476.07 241.87 533.25 275.31 533.25 214.9 476.07 181.46 476.07 241.87"/><polygon class="cls-13" points="476.07 181.76 511.53 161.94 568.7 195.36 533.25 215.21 476.07 181.76"/><polygon class="cls-14" points="476.07 241.87 511.53 222.04 568.7 255.46 533.25 275.31 476.07 241.87"/><polygon class="cls-15" points="568.7 195.05 533.25 214.9 533.25 275.31 568.7 255.46 568.7 195.05"/><path class="cls-16" d="M476.07,181.46v60.41l57.18,33.44V214.9Zm1.94,3.18,53.3,31.17v56.31L478,241Z"/><polygon class="cls-12" points="416.57 143.51 473.74 176.96 473.74 116.55 416.57 83.1 416.57 143.51"/><polygon class="cls-13" points="416.57 83.41 452.02 63.59 509.19 97.01 473.74 116.85 416.57 83.41"/><polygon class="cls-14" points="416.57 143.51 452.02 123.69 509.19 157.11 473.74 176.96 416.57 143.51"/><polygon class="cls-15" points="509.19 96.7 473.74 116.54 473.74 176.96 509.19 157.11 509.19 96.7"/><path class="cls-16" d="M416.57,83.1v60.41L473.74,177V116.55Zm1.94,3.19,53.29,31.17v56.31L418.51,142.6Z"/><polygon class="cls-12" points="475.3 179.09 532.47 212.53 532.47 152.12 475.3 118.68 475.3 179.09"/><polygon class="cls-13" points="475.3 118.99 510.75 99.16 567.92 132.58 532.47 152.43 475.3 118.99"/><polygon class="cls-14" points="475.3 179.09 510.75 159.26 567.92 192.69 532.47 212.53 475.3 179.09"/><polygon class="cls-15" points="567.92 132.28 532.47 152.12 532.47 212.53 567.92 192.69 567.92 132.28"/><path class="cls-16" d="M475.3,118.68v60.41l57.17,33.44V152.12Zm1.94,3.19L530.53,153v56.31l-53.29-31.18Z"/><polygon class="cls-12" points="416.57 79.93 473.74 113.37 473.74 52.96 416.57 19.52 416.57 79.93"/><polygon class="cls-13" points="416.57 19.82 452.02 0 509.19 33.42 473.74 53.27 416.57 19.82"/><polygon class="cls-14" points="416.57 79.93 452.02 60.1 509.19 93.52 473.74 113.37 416.57 79.93"/><polygon class="cls-15" points="509.19 33.11 473.74 52.96 473.74 113.37 509.19 93.53 509.19 33.11"/><path class="cls-16" d="M416.57,19.52V79.93l57.17,33.44V53Zm1.94,3.18L471.8,53.87v56.31L418.51,79Z"/><polygon class="cls-12" points="475.3 115.5 532.47 148.95 532.47 88.53 475.3 55.09 475.3 115.5"/><polygon class="cls-13" points="475.3 55.4 510.75 35.58 567.92 69 532.47 88.84 475.3 55.4"/><polygon class="cls-14" points="475.3 115.5 510.75 95.68 567.92 129.1 532.47 148.95 475.3 115.5"/><polygon class="cls-15" points="567.92 68.69 532.47 88.53 532.47 148.95 567.92 129.1 567.92 68.69"/><path class="cls-16" d="M475.3,55.09V115.5L532.47,149V88.54Zm1.94,3.19,53.29,31.17v56.31l-53.29-31.17Z"/><polygon class="cls-17" points="485.92 175.37 513.51 191.51 513.51 162.36 485.92 146.22 485.92 175.37"/><polygon class="cls-18" points="485.92 146.39 503.03 136.83 530.62 152.96 513.51 162.53 485.92 146.39"/><polygon class="cls-19" points="530.62 152.81 513.51 162.38 513.51 191.53 530.62 181.96 530.62 152.81"/><polygon class="cls-12" points="241.54 369.86 184.37 403.3 184.37 342.89 241.54 309.45 241.54 369.86"/><polygon class="cls-13" points="241.54 309.75 206.09 289.93 148.92 323.35 184.37 343.19 241.54 309.75"/><polygon class="cls-14" points="241.54 369.86 206.09 350.03 148.92 383.45 184.37 403.3 241.54 369.86"/><polygon class="cls-15" points="148.92 323.04 184.37 342.89 184.37 403.3 148.92 383.45 148.92 323.04"/><path class="cls-16" d="M184.37,342.89V403.3l57.18-33.44V309.45Zm55.23,26.05-53.29,31.17V343.8l53.29-31.17Z"/><polygon class="cls-12" points="182.81 405.43 125.64 438.87 125.64 378.46 182.81 345.02 182.81 405.43"/><polygon class="cls-13" points="182.81 345.33 147.36 325.5 90.19 358.93 125.64 378.77 182.81 345.33"/><polygon class="cls-14" points="182.81 405.43 147.36 385.61 90.19 419.03 125.64 438.87 182.81 405.43"/><polygon class="cls-15" points="90.19 358.62 125.64 378.46 125.64 438.87 90.19 419.03 90.19 358.62"/><path class="cls-16" d="M125.64,378.46v60.41l57.17-33.44V345Zm55.23,26.06-53.29,31.17V379.38l53.29-31.17Z"/><polygon class="cls-12" points="242.32 307.08 185.15 340.52 185.15 280.11 242.32 246.67 242.32 307.08"/><polygon class="cls-13" points="242.32 246.98 206.87 227.15 149.69 260.57 185.15 280.42 242.32 246.98"/><polygon class="cls-14" points="242.32 307.08 206.87 287.25 149.69 320.68 185.15 340.52 242.32 307.08"/><polygon class="cls-15" points="149.69 260.27 185.15 280.11 185.15 340.52 149.69 320.68 149.69 260.27"/><path class="cls-16" d="M185.15,280.11v60.41l57.17-33.44V246.67Zm55.23,26.06-53.29,31.17V281l53.29-31.17Z"/><polygon class="cls-12" points="183.59 342.66 126.42 376.1 126.42 315.69 183.59 282.25 183.59 342.66"/><polygon class="cls-13" points="183.59 282.55 148.14 262.73 90.96 296.15 126.42 316 183.59 282.55"/><polygon class="cls-14" points="183.59 342.66 148.14 322.83 90.96 356.25 126.42 376.1 183.59 342.66"/><polygon class="cls-15" points="90.96 295.84 126.42 315.69 126.42 376.1 90.96 356.25 90.96 295.84"/><path class="cls-16" d="M126.42,315.69V376.1l57.17-33.44V282.25Zm55.23,26.05-53.29,31.17V316.6l53.29-31.17Z"/><polygon class="cls-12" points="242.32 243.5 185.15 276.94 185.15 216.53 242.32 183.08 242.32 243.5"/><polygon class="cls-13" points="242.32 183.39 206.87 163.57 149.69 196.99 185.15 216.83 242.32 183.39"/><polygon class="cls-14" points="242.32 243.5 206.87 223.67 149.69 257.09 185.15 276.94 242.32 243.5"/><polygon class="cls-15" points="149.69 196.68 185.15 216.52 185.15 276.94 149.69 257.09 149.69 196.68"/><path class="cls-16" d="M185.15,216.53v60.41l57.17-33.45V183.08Zm55.23,26.05-53.29,31.17V217.44l53.29-31.17Z"/><polygon class="cls-12" points="183.59 279.07 126.42 312.51 126.42 252.1 183.59 218.66 183.59 279.07"/><polygon class="cls-13" points="183.59 218.97 148.14 199.14 90.96 232.56 126.42 252.41 183.59 218.97"/><polygon class="cls-14" points="183.59 279.07 148.14 259.25 90.96 292.67 126.42 312.51 183.59 279.07"/><polygon class="cls-15" points="90.96 232.26 126.42 252.1 126.42 312.51 90.96 292.67 90.96 232.26"/><path class="cls-16" d="M126.42,252.1v60.41l57.17-33.44V218.66Zm55.23,26.06-53.29,31.17V253l53.29-31.17Z"/><polygon class="cls-17" points="172.97 338.94 145.38 355.08 145.38 325.93 172.97 309.79 172.97 338.94"/><polygon class="cls-18" points="172.97 309.96 155.86 300.39 128.27 316.52 145.38 326.1 172.97 309.96"/><polygon class="cls-19" points="128.27 316.37 145.38 325.95 145.38 355.1 128.27 345.52 128.27 316.37"/><polygon class="cls-17" points="484.92 108.97 512.5 125.11 512.5 95.96 484.92 79.82 484.92 108.97"/><polygon class="cls-18" points="484.92 79.99 502.02 70.43 529.61 86.55 512.5 96.13 484.92 79.99"/><polygon class="cls-19" points="529.61 86.41 512.5 95.98 512.5 125.13 529.61 115.56 529.61 86.41"/></g></g></svg>