<svg xmlns="http://www.w3.org/2000/svg" viewBox="0 0 174.02 195.17"><defs><style>.cls-1{fill:#23201e;}.cls-2{fill:#f2a408;}.cls-3{fill:#ffb200;}.cls-4{fill:#1b5b77;}.cls-5{fill:#eda97c;}.cls-6{fill:#4f1b15;}.cls-7{fill:#705140;}.cls-8{fill:#27567c;}.cls-9{fill:#1b4663;}.cls-10{fill:#896954;}.cls-11{fill:#336596;}.cls-12{fill:#1d445e;}.cls-13{fill:#ffbc8f;}.cls-14{fill:#4c2b14;}.cls-15{fill:#2b4454;}.cls-16{fill:#1e1107;}.cls-17{fill:#0d3954;}.cls-18{fill:#775944;}.cls-19{fill:#422f26;}.cls-20{fill:#604431;}.cls-21{fill:#c80;}.cls-22{fill:#b5b5b5;}.cls-23{fill:#215889;}.cls-24{fill:#191713;}.cls-25{fill:#efebe8;}.cls-26{fill:#c9c9c9;}.cls-27{fill:#afaaa7;}.cls-28{fill:#44403c;}.cls-29{fill:#2b2824;}.cls-30{fill:#605b58;}.cls-31{fill:#110f0d;}.cls-32{fill:#666060;}.cls-33{fill:#2e3030;}.cls-34{fill:#ddd;}.cls-35{fill:#634b40;}.cls-36{fill:#9b6948;}</style></defs><title>people in office 1</title><g id="Layer_2" data-name="Layer 2"><g id="_ÎÓÈ_3" data-name="—ÎÓÈ_3"><path class="cls-1" d="M33.47,49.49,42,53.92a3.4,3.4,0,0,1,4.09-.57C53.33,57.24,62.49,62.64,62.44,72a3.5,3.5,0,0,1-2.55,3.28V83A1,1,0,0,1,58,83V75.15A3.35,3.35,0,0,1,55.7,72a8.46,8.46,0,0,0,0-1v0a1.26,1.26,0,0,0,0-.21v-.06a.59.59,0,0,1,0-.18s0,.06,0,.09c-.07-.27-.12-.54-.21-.81,0-.11-.18-.51-.24-.67s-.2-.42-.24-.48c-.15-.29-.33-.57-.51-.85l-.31-.45c-.25-.29-.49-.58-.76-.87a22.85,22.85,0,0,0-1.9-1.78c-.19-.16-.39-.3-.58-.47h0c-.44-.33-.88-.65-1.34-1a70.93,70.93,0,0,0-6.82-4.07,3.42,3.42,0,0,1-1.61-3.55L39,54.54,32.5,51.16C31.4,50.58,32.37,48.92,33.47,49.49Z"/><path class="cls-1" d="M55.67,71c0,.19-.12.05-.06-.36l0,.09C55.64,70.79,55.66,70.89,55.67,71Z"/><path class="cls-1" d="M37.8,110h0a1.27,1.27,0,0,0,1.27-1.27V90a1.28,1.28,0,0,0-1.27-1.28h0A1.28,1.28,0,0,0,36.53,90v18.75A1.27,1.27,0,0,0,37.8,110Z"/><path class="cls-1" d="M20.54,128.68H22v-1a4.35,4.35,0,0,1,4.32-4.38H39.83v-1.48H26.32a5.83,5.83,0,0,0-5.78,5.86Z"/><path class="cls-1" d="M36.81,134v-8.68h-.53a1.81,1.81,0,0,1-1.81-1.81V106.64a1.82,1.82,0,0,1,1.81-1.82h3.07a1.82,1.82,0,0,1,1.81,1.82v15.22h7.62a5.76,5.76,0,0,1,5,2.88,4.35,4.35,0,0,1,4,4.35H56.56a3.19,3.19,0,1,1-6.37,0H49.07a4.38,4.38,0,0,1,3-4.17,4.32,4.32,0,0,0-3.32-1.58H41.15v.12a1.82,1.82,0,0,1-1.81,1.81h-.87l0,8.69a4.35,4.35,0,0,1,3.45,4.28H40.81a3.18,3.18,0,1,1-6.36,0H33.32A4.36,4.36,0,0,1,36.81,134Z"/><path class="cls-1" d="M21.54,125.66A4.34,4.34,0,0,1,25.85,130H24.72a3.19,3.19,0,1,1-6.37,0H17.23A4.34,4.34,0,0,1,21.54,125.66Z"/><path class="cls-1" d="M14.61,69.1a2.91,2.91,0,0,1,1.86-2.39,1.14,1.14,0,0,1,1.58,1.23c-.18,3.18.15,5.93,2.18,8.5,1.85,2.34,4.48,4,7,5.53,1.57,1-1,4.42-2.64,3.38-2.89-1.84-5.78-3.75-7.8-6.58A11,11,0,0,1,15,74.9a1.28,1.28,0,0,1-.17-.49A18.19,18.19,0,0,1,14.61,69.1Z"/><path class="cls-2" d="M30.42,71.73s-5.22,2.81-10.65,5.4C11.59,81,5.4,80.73,2.26,63.89-.23,50.57-2.22,47.64,5.15,44.17c5.11-2.4,13.31-6.38,15.08-7.06,9-3.47,11.91,2.54,14.65,13.64C39.19,68.22,34.57,69.26,30.42,71.73Z"/><path class="cls-2" d="M49,97c-12.36,7.48-17,3.62-26.11-2.29-7.5-4.86-10.3-9.09.44-14.65C36,73.47,39.62,69.3,55.21,78.15S57.52,91.78,49,97Z"/><path class="cls-3" d="M47.23,92.41C37.64,98.22,34,95.22,27,90.63c-5.82-3.77-8-7,.35-11.36,9.84-5.1,12.67-8.34,24.76-1.46S53.87,88.38,47.23,92.41Z"/><path class="cls-3" d="M31.09,71.13S26.43,73.64,21.58,76C14.29,79.44,8.76,79.16,6,64.13,3.74,52.25,2,49.64,8.54,46.54c4.55-2.14,11.87-5.69,13.45-6.3,8.05-3.1,10.63,2.27,13.07,12.17C38.91,68,34.79,68.93,31.09,71.13Z"/><path class="cls-1" d="M22.29,77.48c0,.15-.1,0-.05-.3l0,.07C22.27,77.33,22.29,77.42,22.29,77.48Z"/><path class="cls-4" d="M66.15,61a17.72,17.72,0,0,0-2.49-.53c-.59,0-2,1.06-3,1-6.47-.53-14.15-.48-18.07-3.76-8.43-7-4.73-21-2-25,2.58-3.8,8.76-3.33,9.57,2.36,1.34,9.39-.2,13.44.09,15.11.49,2.81,7.46,1.63,13.13,4.56.46.24,1.72,2.25,2.13,2.38s2.3,1.14,2.3,1.14Z"/><path class="cls-5" d="M30.21,33.13,39.56,33a24.56,24.56,0,0,1,0-3.25,18.39,18.39,0,0,1,1.66-5.61l-8.38-7.35s-.46,3.52-1.76,9.49C30.71,28,30.21,33.13,30.21,33.13Z"/><path class="cls-6" d="M65.44,134a3.67,3.67,0,0,1,1.83-2.27l.91-.4c1.89-.63,8.58,1,9.83,1.65a10.23,10.23,0,0,1,2.26,1.2,14.55,14.55,0,0,1,3.88,3.94c.25.4-.05.93-.42,1.26a1.36,1.36,0,0,1-.39.3.67.67,0,0,1-.23.1q-.33.09-.66.15a7,7,0,0,1-2.89.15,23.56,23.56,0,0,1-8.74-3,29.2,29.2,0,0,1-3.83-.9C65.93,135.79,65.15,135.27,65.44,134Z"/><path class="cls-7" d="M65.88,133.58a3.57,3.57,0,0,1,1.78-2.21l.9-.4a11.44,11.44,0,0,1,6.52.39,54.28,54.28,0,0,1,5.27,2.4,14.21,14.21,0,0,1,3.8,3.85c.24.39-.05.9-.41,1.22a1.47,1.47,0,0,1-.38.3,1.15,1.15,0,0,1-.23.1c-.21.06-.43.1-.64.15a6.82,6.82,0,0,1-2.82.13,22.83,22.83,0,0,1-8.54-3,27.84,27.84,0,0,1-3.74-.88C66.35,135.29,65.59,134.79,65.88,133.58Z"/><path class="cls-8" d="M42.67,81.53c-1.51-1.55-3.38-8.1-.62-12,.56-.78,16.76,2.88,17.53,3.44,0,0,17.28,11.12,18.94,19.06L77.09,132.2H66.64s-2-31.89-2.61-34.7C63.66,95.62,47.37,86.38,42.67,81.53Z"/><rect class="cls-9" x="66.3" y="130.66" width="11.07" height="1.54" transform="translate(143.67 262.86) rotate(-180)"/><path class="cls-6" d="M51.57,137.13a3.65,3.65,0,0,1,1.82-2.27l.92-.4c1.88-.62,8.58,1,9.83,1.65a10.6,10.6,0,0,1,2.25,1.2,14.62,14.62,0,0,1,3.89,3.95c.24.39,0,.92-.43,1.25a1.67,1.67,0,0,1-.61.41l-.66.15a7.15,7.15,0,0,1-2.89.14,23.61,23.61,0,0,1-8.75-3,30.71,30.71,0,0,1-3.82-.89C52.05,138.88,51.28,138.37,51.57,137.13Z"/><path class="cls-10" d="M52,136.67a3.56,3.56,0,0,1,1.77-2.21l.9-.4a11.47,11.47,0,0,1,6.53.39,54.28,54.28,0,0,1,5.27,2.4,14.31,14.31,0,0,1,3.79,3.85c.24.39,0,.91-.41,1.23a1.33,1.33,0,0,1-.38.29.72.72,0,0,1-.22.1c-.22.06-.43.11-.65.15a6.8,6.8,0,0,1-2.82.14,23.09,23.09,0,0,1-8.54-3,29.28,29.28,0,0,1-3.73-.87C52.48,138.38,51.72,137.88,52,136.67Z"/><path class="cls-11" d="M28.79,84.63c-1.5-1.56-3.37-8.11-.61-12,.55-.78,16.75,2.88,17.52,3.44,0,0,17.29,11.13,18.94,19.06l-1.42,40.14H52.77s-2.05-31.89-2.61-34.69C49.78,98.71,33.5,89.47,28.79,84.63Z"/><rect class="cls-8" x="52.42" y="133.75" width="11.07" height="1.54" transform="translate(115.92 269.05) rotate(-180)"/><path class="cls-12" d="M53.82,71.45,27.14,81.08c-12.3-29.19-5.33-47.2-5.33-47.2,1.85-3.14,2.69-2.8,6.56-3.3l2.14-.32s2.05,2.52,6.88,1.83c2.44-.35,2.17-2.37,2.17-2.37L41,29.53c5.66-.72,9,3.91,8.73,9.61-.47,9.2-1.62,13.7-1.29,20.65A18.31,18.31,0,0,0,53.82,71.45Z"/><path class="cls-13" d="M51.27,13c-.35,3.18-.6,2.14-1,3.25s.43,2-.87,3.79c-2.58,3.59-5.86,6.16-6.91,6.17a13.07,13.07,0,0,1-6.83-2.35c-1.85-1.64-5.93-6.58-5.63-11C30.47,6.48,35.54,1.6,41.37,2c4.8.33,9.67.37,10.57,5C52.13,8,51.39,11.92,51.27,13Z"/><path class="cls-14" d="M31.08,3.24A5.36,5.36,0,0,1,38.4,1C41.76-1.08,48.53.3,50.21,3.26c3.13,5.47,4.63,4.35,4.73,4.26a6.91,6.91,0,0,1-3,4.11c-2.3,1.27-6.16.92-13.29-2.09-.41-.18-.9.34-1,.76-.3,1.23-.67,5-.67,5s-2.25-2-4-1.45c-2,.63.5,7.76.5,7.76C29.48,17.48,26.92,10.11,31.08,3.24Z"/><path class="cls-15" d="M116.83,162.28c.64-1.34,1.21-5.59.14-9.75,2.2-.11,4.4-.13,6.6-.18.23,2,.54,4.06,1,6.27.2,1.07,1,3.8,1.27,4.93-.19.45-.51,1.4-.89,2.57a1.66,1.66,0,0,0-1.15-.24c-2.5.4-5.15.44-7.68.87C116.81,165,116.09,163.81,116.83,162.28Z"/><path class="cls-16" d="M119.49,168.32c2.46-.5,6.83-.57,7-2.67.11-1.39-.32-2.71-1.12-5a2.18,2.18,0,0,0-.47,0s-3.06,2-5.78,1c-1.14-.4-2.56-1-2.56-1-.28.07-.83,1.43-6.71,3.8-2.85.94-3.41,1.5-3.18,3C106.91,169.11,111.19,170,119.49,168.32Z"/><path class="cls-17" d="M148.77,125.7c2-1.44,11.64-6.59,9.31-11.44-.46-1-21-2.3-21-2.3-16.49-2-24-1.56-25.2,4.33-2.08,10.63,2.5,41.62,2.5,41.62a15.13,15.13,0,0,0,6.67,1.17,9.08,9.08,0,0,0,4.73-2.16s-2.08-31.57-.91-34.59C125.64,120.3,142.59,130.2,148.77,125.7Z"/><polygon class="cls-18" points="112.51 175.09 114.15 176.14 118.83 143.27 115.63 141.28 112.51 175.09"/><polygon class="cls-19" points="118.84 143.27 122.05 141.35 115.73 175.2 114.16 176.14 118.84 143.27"/><polygon class="cls-18" points="115.51 142.45 143.27 159.91 171.04 142.45 171.04 139.89 115.51 139.89 115.51 142.45"/><polygon class="cls-20" points="115.51 139.89 143.27 157.35 171.04 139.89 143.27 123.05 115.51 139.89"/><path class="cls-3" d="M116.89,138.89c.14,1.88,4.16,3.58,10.81,7.6,4.64,2.81,9.14,7,15.92,6.67,2.93-.15,10.57-6.12,14-8.25,7-4.3,9.56-4.23,10.15-7.85.53-3.31-1.06-4.05-5.42-6.06-5-2.31-15.44-10-20.8-7.44-4.6,2.21-14.22,7-18.67,8.41C120.88,132.62,116.48,133.25,116.89,138.89Z"/><path class="cls-21" d="M147.55,148.51c9-6,20.56-10.4,18.29-15.78a3.64,3.64,0,0,1,2,4.33c-.59,3.62-3.18,3.55-10.15,7.85-3.46,2.13-11.1,8.1-14,8.25-6.78.36-11.28-3.86-15.92-6.67-6.65-4-10.67-5.72-10.81-7.6a7.29,7.29,0,0,1,.28-2.81C120.49,141,140.94,153,147.55,148.51Z"/><path class="cls-22" d="M118.92,93.74s20.71,15.13,24.67,13.37c5.59-2.48,6.78-12.81,8.95-19,.93-2.67,2-10.34-2.07-12.7-3.48-2-5.47-1.72-7,3L141,96.6,121.5,87.71Z"/><path class="cls-15" d="M102.07,165.15c.74-1.29,1.59-5.49.8-9.71,2.2,0,4.4.16,6.6.26.09,2,.26,4.09.52,6.32.13,1.08.76,3.85.94,5-.22.44-.6,1.36-1.06,2.5a1.73,1.73,0,0,0-1.13-.31c-2.52.24-5.17.09-7.72.35C101.87,167.89,101.24,166.63,102.07,165.15Z"/><path class="cls-16" d="M104.32,171.36c2.49-.34,6.86-.11,7.15-2.19.2-1.38-.14-2.74-.78-5.1a1.92,1.92,0,0,0-.47,0s-3.18,1.74-5.83.6c-1.12-.48-2.49-1.13-2.49-1.13-.28,0-.93,1.37-7,3.34-2.9.74-3.5,1.26-3.37,2.78C91.72,171.3,95.93,172.5,104.32,171.36Z"/><path class="cls-5" d="M141.51,76.92l-10.74,3.43s.45-3.25.52-4.86c0-.63-.13-4.1-.13-4.1l7.72-4Z"/><path class="cls-23" d="M147.55,138.11c8.56-3.71,9.6-15.06,3.91-25.68.33,0-22.09-.16-22.09-.16l2.17,6.67s-11.68-4-20.29-3.93c-11.29.16-13.31,3.38-12.54,10.76,1.83,17.48,3.42,35.86,3.42,35.86h4.16a22.42,22.42,0,0,0,5.77-1l-.11-31s5.37,1.09,14.54,5.39C132.65,137.89,140.2,141.31,147.55,138.11Z"/><path class="cls-24" d="M81.91,120.17l1.09.06,3,.14-6.56,74.48c0,.17-.26.3-.57.28s-.55-.16-.54-.33L78.91,120Z"/><path class="cls-24" d="M31.48,99l-1.07-.22-2.95-.59-7.83,63.12c0,.16.18.35.48.41s.57,0,.61-.2L34.44,99.55Z"/><path class="cls-24" d="M162.75,74.93l1.09-.09,3-.27,2.63,69.54c0,.17-.22.33-.52.35s-.57-.09-.58-.26l-8.62-69Z"/><polygon class="cls-25" points="82.54 129.34 172.28 76.97 111.82 41.58 22.08 93.95 82.54 129.34"/><polygon class="cls-26" points="22.08 98.66 82.54 134.01 82.54 129.34 22.08 93.99 22.08 98.66"/><polygon class="cls-27" points="172.28 81.64 82.54 134.01 82.54 129.34 172.28 76.97 172.28 81.64"/><polygon class="cls-28" points="46.05 82.11 59.54 90.03 59.54 81.88 46.05 81.88 46.05 82.11"/><polygon class="cls-29" points="91.11 71.43 59.54 90.03 59.54 87.75 91.11 69.57 91.11 71.43"/><polygon class="cls-30" points="46.05 81.88 59.54 87.75 91.11 69.57 77.61 63.27 46.05 81.88"/><path class="cls-29" d="M99.81,94.86c0,2.91-4.72,5.27-10.54,5.27s-10.54-2.36-10.54-5.27V93.38s5-3.79,10.54-3.79c5,0,10.51,3.42,10.51,3.42S99.81,94.47,99.81,94.86Z"/><path class="cls-30" d="M99.81,93.38c0,2.91-4.72,5.26-10.54,5.26s-10.54-2.35-10.54-5.26,4.72-5.27,10.54-5.27S99.81,90.47,99.81,93.38Z"/><path class="cls-29" d="M86.82,92.31c.4-5.48.4-10.43,3-17.82l3.89-2.25,0,0a9.4,9.4,0,0,0-.88,3.37,38,38,0,0,0,1.11,10.8c.35,1.38,1.21,5.25,1.21,5.25L86.64,96.6C86.65,95.17,86.72,93.74,86.82,92.31Z"/><path class="cls-28" d="M89.5,75.36l.22.55s-2.37,6.61-2.59,11.84c-.06,1.5-.49,8.85-.49,8.85l-1.21-.4s.14-3.7.68-8.69C86.67,82.35,89.5,75.36,89.5,75.36Z"/><polygon class="cls-31" points="71.87 91.74 105.65 72.04 116.08 44.83 82.3 64.53 71.87 91.74"/><polygon class="cls-28" points="70.36 90.85 71.87 91.74 82.3 64.53 80.79 63.64 70.36 90.85"/><polygon class="cls-30" points="80.79 63.64 82.33 64.53 116.08 44.83 114.3 44.06 80.79 63.64"/><path class="cls-13" d="M95.6,99.87a4.1,4.1,0,0,0,.21.47c-.13,0,.3-1.78.15-2.2s-1-.33-1.15-.63c-1-1.7-2.69-4-2.62-5.52,0-.59-1.13.06-.51,3.31.19,1-4.85,1.32-8,.32-.65-.39-1.19,0-1.44.64-.06.17.14.42.23.58.63,1.08,1.32,3.3,4.27,4.61,2.43,1.09,8.31-1,9.11-1.1,0,.06,0,.07,0,0Z"/><path class="cls-32" d="M133.36,120.46c-4.41-3.2-4.82-6.1-5.37-11.26-.34-3.2-1.69-6.27-2.87-9.23a2.25,2.25,0,0,0-.19-.38c-.43-1.8-1-4.28-1.92-10.46-.88-6-1.26-6.88.33-7.9l6.82-2.87,4.24.11c4.52.09,6.3-2.73,6.3-2.73s4.76-2.64,8.28-.19c1.66,1.15,3.91,6.8,5.31,13.56,1.76,8.42.27,22.23-1.49,33.24C146.56,125.51,139.64,125,133.36,120.46Z"/><path class="cls-13" d="M124.91,53.93c-.12,2.62-.6,5.19-.13,6,.66,1.21-.54,2.74-.14,4.6,1.34,6.2,1,7.36,1.84,7.86,2.73,1.73,9.13-.67,10.7-3,2.95-4.3,5.68-5.06,6-8.67a9.56,9.56,0,0,0-8.62-10.41C129.33,49.91,125.17,48.66,124.91,53.93Z"/><path class="cls-33" d="M129.87,66.78A9.41,9.41,0,0,0,132,72.37l7.53-1.49c2-2.87,6.87-11.9,4.1-18A5.13,5.13,0,0,0,137.36,50c-2.71-2.14-8.5-1.17-10.87.58-3.06,2.24-2.52,3.59-2.58,7.06,0,0,1.41-.79,5.13,2.58C131,62,129.87,65.13,129.87,66.78Z"/><path class="cls-34" d="M134.31,80.22c4.26.66,8.67-2.59,9.16-4.55a31.59,31.59,0,0,1-2.77-3.75c-.59,1.36-3.27,2.33-5.91,2.42a23.86,23.86,0,0,1-3.87,0c-.08.54-1,3.67-1,3.67C130.05,79.15,131.64,79.81,134.31,80.22Z"/><path class="cls-22" d="M128.66,80.94c-2.58-1.12-6.1-.67-8.12,3.92l-6.48,17c-4.88-.51-12.9-3.08-18.07-4.81-.37,1.26-1.84,5.62-2.24,6.87,0,0,19.2,6.51,21.8,6.44,6.57-.17,11.61-13.12,13.55-16.67C132.09,86.26,132.08,82.44,128.66,80.94Z"/><polygon class="cls-35" points="169.34 179.04 170.98 180.09 167.82 144.39 164.62 142.4 169.34 179.04"/><polygon class="cls-19" points="167.83 144.39 171.04 142.47 172.56 179.16 170.99 180.09 167.83 144.39"/><polygon class="cls-18" points="144.33 194.16 145.98 195.17 143.26 159.67 140.06 157.68 144.33 194.16"/><polygon class="cls-19" points="143.26 159.67 146.47 157.75 147.55 194.23 145.98 195.17 143.26 159.67"/><polygon class="cls-19" points="143.27 159.91 171.04 142.45 171.04 139.89 143.27 154.3 143.27 159.91"/><polyline class="cls-18" points="172.22 89.09 173.89 85.94 144 102.03 144.07 104.1"/><polygon class="cls-36" points="144 102.04 145.95 103.52 174.02 85.85 171.97 84.61 144 102.04"/><path class="cls-18" d="M141.1,156l2.16,1.34,2.68-53.84L144,102a128.11,128.11,0,0,0-3.63,27.66C140.18,139.32,141.1,156,141.1,156Z"/><path class="cls-19" d="M145,156.26l.09-1.49-.07,1.92,25.15-15.59,0-.68.85-.53s-2.17-12.21-2.22-21c-.14-23.88,5.2-33,5.2-33l-.13.08h0L172,87.15h0l-2,1.26-.05,0v.06l-24,15.07a107.66,107.66,0,0,0-3.56,25.14c0,7.3.88,28.7.88,28.7Z"/><path class="cls-5" d="M41.48,84.8A7.35,7.35,0,0,0,42.85,87a8,8,0,0,0,.83.82,15.87,15.87,0,0,0,1.94,1.46,17.22,17.22,0,0,0,5.88,2.46c.49.11.87-.64.36-.86a19.34,19.34,0,0,1-2.14-1.06,19.89,19.89,0,0,1,2.52.76,6.08,6.08,0,0,0,2.81.72.52.52,0,0,0,.46-.57.51.51,0,0,0,.1-.88c-.27-.17-1.8-1-1.5-1.08l1.81.36h0a.48.48,0,0,0,.6-.46c0-.81-1.08-1.17-1.67-1.55l-1.06-.73c-.62-.5-2.86-1.52-3.57-2.25.12-.11,4.63.23,4.94-.66.12-.37.1-.78-.21-.79a13.44,13.44,0,0,1-3.65-.48c-3.81-1-7-1.53-8.55-.65a2.55,2.55,0,0,0-1.19,2.83A.37.37,0,0,0,41.48,84.8Zm9.84-2.1-.09,0a.17.17,0,0,1,0,0Zm-1.25-.13h0l.14,0-.09.06Z"/><path class="cls-4" d="M41.42,85.21a7.83,7.83,0,0,0-2.33-3.07c-.74-.49-1.53.59-2.49,0-5.46-3.43-14.27-9.94-15.32-14-2.19-8.43-3.2-29.67.53-34.23,2.74-3.36,9.59-1.33,9.09,4,0,0-3.36,20.11-1.17,26.08,1.16,3.17,9.36,8.93,12.94,13.07.9,1-.8,1.35-.05,2.12a8.24,8.24,0,0,0,3.26,1.93Z"/><path class="cls-4" d="M42.44,78.88a.65.65,0,0,0,.18.3,8.24,8.24,0,0,0,3.26,1.93l-4.46,4.1a8.19,8.19,0,0,0-2.06-2.87A19.64,19.64,0,0,1,42.44,78.88Z"/><path class="cls-1" d="M4.22,65.78l8.51,4.43a3.41,3.41,0,0,1,4.09-.58c7.26,3.89,16.42,9.3,16.37,18.66a3.49,3.49,0,0,1-2.55,3.28c0,2.57,0,5.13,0,7.69a1,1,0,0,1-1.92,0V91.44a3.34,3.34,0,0,1-2.26-3.15c0-.33,0-.67,0-1v0a1,1,0,0,0,0-.21V87a.6.6,0,0,1,0-.19.44.44,0,0,0,0,.1c-.06-.27-.12-.55-.2-.81s-.19-.52-.24-.67-.21-.42-.24-.49q-.24-.44-.51-.84c-.1-.16-.21-.3-.31-.45s-.5-.59-.77-.87A21.38,21.38,0,0,0,22.19,81c-.19-.16-.39-.31-.57-.47h0l0,0c-.44-.32-.88-.65-1.33-1a71.08,71.08,0,0,0-6.83-4.07,3.43,3.43,0,0,1-1.61-3.55L9.74,70.82,3.25,67.44C2.15,66.87,3.13,65.21,4.22,65.78Z"/><path class="cls-5" d="M65.73,60.81c1.86.72,1.59,2.52,2.39,3.62,1,.86,2.15,1.15,3.2,2,.11.15.52.63.65.78s.25.63.61.73A.38.38,0,0,0,73,67.9c.44-.53,0-1.2-.41-1.7a6.63,6.63,0,0,0-1-1.06c-.13-.2-.26-.41-.38-.57s-.43-.66-.64-1h.7c.49,0,1,0,1.46.07h0a8.62,8.62,0,0,1,1.92,1,24.08,24.08,0,0,1,2.64,2.29.35.35,0,0,0,.46-.27A2,2,0,0,0,77,65.05c-.38-.43-2.58-2.1-3-2.49.17-.11.77-.23,2,.54.42.25,1.09.89,1.49,1.18s1.23,1.22,1.91,1.17a.4.4,0,0,0,.29-.52,3,3,0,0,0-.35-.75.35.35,0,0,0,.25-.26c.14-.46-.34-.92-.64-1.23a3.64,3.64,0,0,1-.55-.48c1.54.12-.27-1-1-1.5-.19-.2,0,0-.2-.18s-.4-.34-.6-.5h0l-.26-.2a4.94,4.94,0,0,0-.49-.3c-.2-.1-.42-.19-.64-.28h0c-4.6-2.45-6.64-1-7-1.07,0,0-.82-.1-.82-.1Z"/><path class="cls-4" d="M64.85,56.43a4.2,4.2,0,0,0,.84.49c.54.18,2.52,1.25,2.52,1.25l-1.81,3a19,19,0,0,0-2.73-.58,8.21,8.21,0,0,0-1.9.58A21.56,21.56,0,0,0,64.85,56.43Z"/></g></g></svg>