<svg xmlns="http://www.w3.org/2000/svg" xmlns:xlink="http://www.w3.org/1999/xlink" version="1.1" x="0px" y="0px" viewBox="0 0 100 100" enable-background="new 0 0 100 100" xml:space="preserve" width="100px" height="100px"><g><path d="M87.629,50.245c-1.036,0-1.875,0.839-1.875,1.875c0,1.32-0.725,2.307-1.371,2.307h-67.28c-0.647,0-1.372-0.986-1.372-2.307   c0-1.035-0.839-1.875-1.875-1.875s-1.875,0.839-1.875,1.875c0,3.34,2.297,6.057,5.122,6.057h67.28c2.824,0,5.121-2.717,5.121-6.057   C89.504,51.084,88.664,50.245,87.629,50.245z"/><path d="M19.265,51.144h62.956c0.518,0,1.012-0.215,1.366-0.593s0.538-0.886,0.504-1.402c-0.428-6.649-4.2-13.505-10.349-18.812   c-4.44-3.831-9.673-6.481-15.213-7.771c0.023-0.118,0.037-0.24,0.037-0.365c0-4.314-3.51-7.824-7.824-7.824   s-7.825,3.51-7.825,7.824c0,0.125,0.013,0.247,0.037,0.366c-5.54,1.29-10.772,3.94-15.212,7.771   c-6.149,5.307-9.921,12.164-10.348,18.812c-0.033,0.517,0.149,1.024,0.503,1.402S18.747,51.144,19.265,51.144z M50.742,18.125   c2.15,0,3.912,1.677,4.059,3.791c-1.343-0.161-2.697-0.251-4.059-0.251s-2.716,0.09-4.061,0.251   C46.829,19.802,48.591,18.125,50.742,18.125z M50.742,25.415c15.123,0,27.369,11.221,29.357,21.979H21.386   C23.373,36.636,35.618,25.415,50.742,25.415z"/><path d="M62.218,60.841c-0.997,0-2.054,0.303-3.14,0.899c-0.074,0.041-0.146,0.088-0.215,0.139   c-4.76,3.535-11.942,6.743-13.58,7.454H35.262c-0.163-0.084-0.312-0.192-0.382-0.272c0.067-0.038,0.156-0.078,0.235-0.104h7.178   c3.092,0,5.251-1.829,5.251-4.448c0-2.382-2.03-3.872-3.917-4.251c-0.122-0.023-0.245-0.036-0.368-0.036H28.304   c-3.687,0-11.277,3.286-13.516,4.293c-0.859,0.387-1.298,1.351-1.025,2.253l5.036,16.658c0.169,0.558,0.588,1.006,1.133,1.212   c0.214,0.081,0.438,0.12,0.662,0.12c0.346,0,0.689-0.096,0.99-0.283c1.128-0.701,2.583-1.227,3.159-1.421h18.517   c5.778,0,12.9-5.941,17.612-9.873c0.99-0.825,1.846-1.539,2.496-2.032c3.461-2.626,3.574-4.948,3.289-6.681   C66.361,62.71,64.707,60.841,62.218,60.841z M61.1,68.161c-0.719,0.545-1.604,1.284-2.631,2.14   c-4.035,3.367-10.791,9.003-15.21,9.003H24.444c-0.186,0-0.37,0.027-0.548,0.082c-0.062,0.019-1.005,0.309-2.157,0.808   l-3.905-12.919c3.968-1.693,8.543-3.303,10.47-3.303h14.714c0.269,0.09,0.776,0.319,0.776,0.537c0,0.679-1.486,0.698-1.501,0.698   h-7.395c-0.104,0-0.207,0.008-0.309,0.025c-1.684,0.28-3.496,1.582-3.496,3.778c0,2.366,2.047,3.622,3.257,3.991   c0.177,0.054,0.361,0.081,0.547,0.081h10.771c0.249,0,0.496-0.05,0.726-0.146c0.361-0.152,8.852-3.735,14.594-7.967   c0.597-0.312,0.996-0.38,1.229-0.38c0.579,0,0.735,0.493,0.738,0.493c0,0,0,0,0-0.001C63.066,65.743,63.202,66.566,61.1,68.161z"/></g></svg>