<?xml version="1.0" encoding="utf-8"?>
<!-- Generator: Adobe Illustrator 19.0.1, SVG Export Plug-In . SVG Version: 6.00 Build 0)  -->
<svg version="1.1" id="Layer_1" xmlns="http://www.w3.org/2000/svg" xmlns:xlink="http://www.w3.org/1999/xlink" x="0px" y="0px"
	 viewBox="114 -114.3999939 240.8999939 240.3999939" style="enable-background:new 114 -114.3999939 240.8999939 240.3999939;"
	 xml:space="preserve">
<g id="Layer_1_1_">
	
		<linearGradient id="SVGID_1_" gradientUnits="userSpaceOnUse" x1="-68.6952744" y1="-683.4089966" x2="164.184021" y2="-683.4089966" gradientTransform="matrix(-4.489659e-11 1 -1 -4.489659e-11 -448.9590149 -41.6222992)">
		<stop  offset="0" style="stop-color:#FFFFFF;stop-opacity:0"/>
		<stop  offset="1" style="stop-color:#FFFFFF"/>
	</linearGradient>
	<path style="fill:url(#SVGID_1_);" d="M351.1000061,5.8000183c0,64.2999878-52.3000183,116.5999756-116.6000061,116.5999756
		S117.8000031,70.1999817,117.8000031,5.7999878c0-64.3000183,52.3000031-116.6000061,116.6999969-116.6000061
		S351.1000061-58.4999695,351.1000061,5.8000183z M123.1000061,5.8000183
		c0,61.3999939,49.8999939,111.2999878,111.3000031,111.2999878S345.7000122,67.2000427,345.7000122,5.8000183
		s-49.9000244-111.2999878-111.3000183-111.2999878S123.1000061-55.5999756,123.1000061,5.8000183z"/>
</g>
<g id="Layer_2">
	<g>
		<g>
			<g>
				<defs>
					<path id="SVGID_2_" d="M351.1000061,5.8000183c0,64.2999878-52.3000183,116.5999756-116.6000061,116.5999756
						S117.8000031,70.1999817,117.8000031,5.7999878c0-64.3000183,52.3000031-116.6000061,116.6999969-116.6000061
						S351.1000061-58.4999695,351.1000061,5.8000183z M123.1000061,5.8000183
						c0,61.3999939,49.8999939,111.2999878,111.3000031,111.2999878S345.7000122,67.2000427,345.7000122,5.8000183
						s-49.9000244-111.2999878-111.3000183-111.2999878S123.1000061-55.5999756,123.1000061,5.8000183z"/>
				</defs>
				<clipPath id="SVGID_3_">
					<use xlink:href="#SVGID_2_"  style="overflow:visible;"/>
				</clipPath>
				
					<rect x="103.3999939" y="-125.8999634" style="clip-path:url(#SVGID_3_);fill:#FFFFFF;" width="131.1000061" height="248.3999939"/>
			</g>
		</g>
	</g>
</g>
</svg>
