<svg xmlns="http://www.w3.org/2000/svg" viewBox="0 0 100.36 311.26"><defs><style>.cls-1{fill:#ff985f;}.cls-2{fill:#512304;}.cls-3{fill:#280f04;}.cls-4{fill:#f77f43;}.cls-5{fill:#050505;}.cls-6{fill:#3c6084;}.cls-7{fill:#282751;}.cls-8{fill:#1b1c1c;}.cls-9{fill:#eda97c;}.cls-10{fill:#2e3030;}.cls-11{fill:#1f2121;}</style></defs><title>Asset 18</title><g id="Layer_2" data-name="Layer 2"><g id="_ÎÓÈ_3" data-name="—ÎÓÈ_3"><path class="cls-1" d="M81.64,15.78C78.25,7.85,68.51,6,62.56,8.36c-3.15,1.24-10.79.82-13.24,5.9A28,28,0,0,0,48,19.79c0,1.1.32,4.38.23,5.29-.11,1.11-.7,1.87-.66,2.94a33.23,33.23,0,0,0,1,7.76c1,3.68-.32,5,1.8,6.25,2.56,1.5,11.94,1.36,17.25-1.71,4.26-2.45,6.84-4.07,7.33-4.32C85.53,30.67,85,23.72,81.64,15.78Z"/><path class="cls-2" d="M84.33,30.77a29.51,29.51,0,0,1-2.19,2.42c2-1.49,3.76-2.71,4.43-3.89a14.66,14.66,0,0,0,2-7.23,10.81,10.81,0,0,0-.48-2.93,10,10,0,0,1-.27,3.67A15.27,15.27,0,0,1,84.33,30.77Z"/><path class="cls-2" d="M80.32,34.37,81,34a34.48,34.48,0,0,0,3-3.17,15.59,15.59,0,0,0,3.33-6.63c-.13.32-.28.64-.43,1a12.43,12.43,0,0,1-2.22,3.05c0,.11-.11.22-.17.34A10,10,0,0,1,83,30.61c-.65.69-1.41,1.27-2.11,1.89a20.54,20.54,0,0,0-2.84,3.16C78.81,35.2,79.57,34.81,80.32,34.37Z"/><path class="cls-2" d="M75.44,38a11.29,11.29,0,0,1,1.64-1.6,4.63,4.63,0,0,1,.42-.32,18.5,18.5,0,0,1,2.63-3.13c1.41-1.35,3-2.45,4-4.17l0-.05a19.41,19.41,0,0,1-2,1.61c-1,.73-2.1,1.41-3.07,2.23a13.13,13.13,0,0,0-1.36,1.33l-.12.15-.37.49c-.18.25-.35.5-.51.76s-.38.63-.55,1l-.11.23s-.16.34-.16.36C75.73,37.2,75.58,37.58,75.44,38Z"/><path class="cls-3" d="M88.54,22.07a14.35,14.35,0,0,0-3.27-8.26h0s.29-11-16.08-13.54c-9.68-1.49-13.87,3.1-18.11,10.48-.39.69-.73,1.28-1,1.79-.12.16-.25.33-.38.52a12.11,12.11,0,0,1-6.3,4.6c.3.32,14,0,15.6-.08,13.23-.37,11.61,7.11,11.74,9,0,.74-.32,3.27.12,3,8.08-5.6,2.09,4.45,3.74,9.54a11.81,11.81,0,0,1,2.49-2.75,25.65,25.65,0,0,1,3.24-2q.6-.34,1.2-.72c2.28-1.7,4.31-3.06,5-4.35A14.66,14.66,0,0,0,88.54,22.07Z"/><path class="cls-4" d="M74.93,53.54c-.75-.12,1.35-1.54.35-2.12-1-1.8-2.85-11.59-1.53-14.74-.1,0-12.94,6.3-17.16,6.27l-1.1,8.61c-4.1,1.61-1.64,3.25-4.1,1.61a6.68,6.68,0,0,0-8.65,1.5c-1.94,2.49,1,1.29,1.93,4.59a33.29,33.29,0,0,0,1.91,4.58c.36.78.87,1.47,1.27,2.22a1.8,1.8,0,0,1,.08.21c-.23.47-.49.94-.75,1.41-.59.62-1.26,1.2-1.83,1.82a2,2,0,0,0-.93.64,6.62,6.62,0,0,0-1.61,4.16,7.71,7.71,0,0,0,0,2.71v0a.44.44,0,0,1,0,.1,1.62,1.62,0,0,0,0,.19,4.37,4.37,0,0,0,.12.49,2.25,2.25,0,0,1,.08.24s0,.06,0,.09a6.13,6.13,0,0,0,.33.8,2.78,2.78,0,0,0,.56.76c.3.41.61.83.91,1.26,2,2.92,5.15,4.68,8.34,6.13a7,7,0,0,1,1.07.61l.3.37c2.48.85,4.54,2.35,5.14,5.19a9.51,9.51,0,0,1,.18,2.55c6.61,1,13.24,2,19.87,2.83-.08-.24-.16-.48-.23-.73C78.12,92.69,77.83,54,74.93,53.54Z"/><path class="cls-1" d="M34.87,140.3c1,0,2,0,2.92,0,.47.94-.14.78.29,1.38l1.39.28c1.4,2.21,1.92,8.78.72,10.73-2.21,3.57-1.73,4.34-1.53,6.31.13,1.22-2.31.22-2-1.64,0-.26.35-1.93.35-1.93a23.76,23.76,0,0,0-1,2.81,61.56,61.56,0,0,1-.61,6.15c-.07.37-.84,1.38-1.15.07-.25-1-1.41.54-2.22,1.47a.68.68,0,0,1-1-.09,5,5,0,0,1-.64-1.23.63.63,0,0,1-.62.11c-.78-.25-.88-1.38-1-2.11a13.1,13.1,0,0,1-1-4.16c-.06-.48,0,0,0-.47s0-.91,0-1.35l0,0c0-.19,0-.38,0-.57a8.33,8.33,0,0,1,.11-1c.09-.39.2-.79.32-1.19l0,0c1.61-9,5.58-9.82,5.82-10.4a4.42,4.42,0,0,0,.83-3.16Z"/><path class="cls-5" d="M23.14,288.12c10.27-.31,18,2.34,18.9-.17,1,1.07,1.61,6.83,1.65,7.82,0,0,.23,3.57-3.87,3.53-5.72-.05-8.24-.78-10.64-.43-10,1.46-19.48,3.86-24.11-1.6-.78-1.69,4.62-1.86,9.62-4.31A53.57,53.57,0,0,0,23.14,288.12Z"/><path class="cls-6" d="M36.29,87.83c-.72-19.3-1.62-25.36,1.57-33.12,1.72-4.19,6-3.93,8.5-3.61,9.84,1.26,5.71,14.68,4.74,22.18-.63,4.89,1.21,25.57,1.75,38.67.4,9.59-9,28.88-10.76,33.58L34,143.45c.75-6.27,2.9-31.81,3.55-38.42C37.78,102.31,36.36,89.78,36.29,87.83Z"/><path class="cls-7" d="M41.63,137.83,79.81,135s2-7.84,2.94-13.87c.09-.56,4.93-2.53,5.43-3.07,4.2-4.46,3.71-8.36,4.08-11.65,2.95-26.2,7.55-43.19,7.55-43.19,0-9-18.23-12.93-21.56-12.93l-5.08-.43-1.65-4.62a16.36,16.36,0,0,1-7.24,2.42,17.46,17.46,0,0,1-7.7-1.13l-.74,3.09L42.09,51.38c-4.22,7.34-2.43,20.21-1,25.6,4.21,16-2.19,32.09-1.62,36.66.47,3.79,2.28,5.25,2.24,6.09C41.27,129.17,41.63,137.83,41.63,137.83Z"/><path class="cls-8" d="M58,66.09a.68.68,0,0,0,1.36,0,.68.68,0,0,0-1.36,0Z"/><path class="cls-8" d="M57.34,118.1a.68.68,0,1,0,.68-.67A.68.68,0,0,0,57.34,118.1Z"/><path class="cls-8" d="M58.24,107.13a.67.67,0,0,0-.86.42.68.68,0,1,0,.86-.42Z"/><path class="cls-8" d="M57.34,104.24a.68.68,0,1,0,.68-.67A.68.68,0,0,0,57.34,104.24Z"/><path class="cls-8" d="M57.34,93a.68.68,0,1,0,.68-.68A.69.69,0,0,0,57.34,93Z"/><path class="cls-8" d="M57.34,79.56a.68.68,0,1,0,.68-.68A.69.69,0,0,0,57.34,79.56Z"/><path class="cls-8" d="M57.34,69.34a.68.68,0,1,0,.68-.67A.68.68,0,0,0,57.34,69.34Z"/><path class="cls-8" d="M58.3,97.07a.68.68,0,1,0-.9-.34A.67.67,0,0,0,58.3,97.07Z"/><path class="cls-8" d="M57.34,83.09a.68.68,0,1,0,.68-.67A.68.68,0,0,0,57.34,83.09Z"/><path class="cls-8" d="M59.38,54.94a.68.68,0,1,0,.67-.68A.67.67,0,0,0,59.38,54.94Z"/><path class="cls-8" d="M58.7,57.89a.68.68,0,1,0,.68-.67A.67.67,0,0,0,58.7,57.89Z"/><path class="cls-9" d="M76.05,124c6.61,7.75,3.76,11.07,9.72,29.41,3,9.28,1.22,46.8,1.44,60,.13,7.53,6.1,14.62,5.74,25.1-.24,6.78-3.61,21.87-4,44.85-.06,4.15,3.49,7.48,3.74,9.85a3.47,3.47,0,0,1-2.31,4s-10.44,1-12.92-.32c-1.16-.63-2.28-2.92-2.28-2.92s4.51-6.47,4.54-8.25c.38-24.05-3.75-59.1-6.41-67.93C66.85,196.19,62.66,154.82,53.71,135,68.94,131.2,60.34,124,76.05,124Z"/><path class="cls-5" d="M70.1,296.81c10-2.36,21.05-1.93,21.45-4.57,1.19.84,2.94,6.37,3.18,7.32,0,0,1,4.14-3.08,4.24a23.05,23.05,0,0,0-7.83,2.1c-12.21,5.5-21,7.3-26.63,2.88-1.1-1.5,2.46-3.57,6.87-7C69.28,297.79,70.1,296.81,70.1,296.81Z"/><path class="cls-8" d="M52.31,221.32c-1,18.88-8.93,71.61-8.93,71.61-3.58.39-22.47-1-25.32-1.7,1.08-2,6.28-16.24,7.39-24.57,1.83-13.73,3.16-29.62,4.44-45,.79-9.52,10.56-98,15.44-101.29,5,5.66,20.78,26.62,25.09,32.79C68.55,153.21,52.55,216.79,52.31,221.32Z"/><path class="cls-10" d="M92.72,294.46c.33-10.51.21-39.2.24-60.11,0-3-1.36-15.18-1.36-18.18,0-34.33,1.66-63.5-9.18-80.07L63.66,121.74l-6.78,1.45-15.59,7.44,12.42,29.9c2.69,13.35,14.72,51.26,15.94,69,2.22,32.31-2.09,68.9-.62,68.88C69,298.44,92.7,295,92.72,294.46Z"/><path class="cls-6" d="M54.47,50l1.37-5.21a14.49,14.49,0,0,0,8.44,2.45c3.91-.21,9.3-3.34,9.3-3.34l1.86,6.18c-2.13,1.59-9.8,3.36-13.59,3.28L61,48.44,59.12,53C57.8,52.52,54.59,51.51,54.47,50Z"/><path class="cls-11" d="M41.29,135.07l41.13,1,2.5-16.28S62.21,122.19,55.06,122c-8.65-.26-12.74-2.73-12.74-2.73Z"/><polygon class="cls-10" points="37.87 105 30.28 99.92 30.3 99.9 24.04 95.99 0 111.12 5.97 115.06 5.98 115.05 13.64 120.07 37.87 105"/><polygon class="cls-11" points="0 111.11 0 111.96 0 111.98 0 112.83 13.73 121.85 13.73 121 13.73 120.98 13.73 120.12 0 111.11"/><polygon class="cls-11" points="13.73 120.12 13.73 120.98 13.73 121 13.73 121.85 37.96 106.78 37.96 105.92 37.96 105.91 37.96 105.05 13.73 120.12"/><path class="cls-1" d="M42,115.35c0-1,0-1.95.11-2.92-.92-.51-.79.1-1.37-.36l-.21-1.4c-2.14-1.51-8.67-2.35-10.68-1.24-3.67,2-4.42,1.51-6.38,1.21-1.21-.18-.33,2.3,1.55,2.1.25,0,1.93-.25,1.93-.25a22.78,22.78,0,0,1-2.85.88c-2.07.08-4.17,0-6.17.31-.37,0-1.42.77-.13,1.14,1,.3-.61,1.39-1.58,2.14a.7.7,0,0,0,0,1,5.31,5.31,0,0,0,1.2.7.67.67,0,0,0-.14.61c.21.79,1.33.95,2.07,1.07a12.75,12.75,0,0,0,4.1,1.23c.47.09,0,0,.47,0s.9.08,1.35.1l0,0,.57,0a8.22,8.22,0,0,0,1-.06c.4-.07.81-.16,1.21-.26l0,0c9.06-1.15,10.07-5.08,10.67-5.3a4.39,4.39,0,0,1,3.19-.67Z"/><path class="cls-6" d="M75.61,107.31c2.91-1.61.86-12.73,2.74-23.54,1.56-9,4.6-19.8,6.3-23.22,2-4,6.28-3.48,8.75-3,9.71,2,6.89,13.59,5.39,21-.31,1.51-.85,8.18-2.47,13-3.55,10.61-8.38,21.48-11.4,24.27-5.7,5.26-14.59,3.39-21.81,4-7.41.62-13.83-2.28-23.69-3.29V109.6C46.12,108.49,73.11,108.7,75.61,107.31Z"/></g></g></svg>