<svg xmlns="http://www.w3.org/2000/svg" viewBox="0 0 674.3 349.16"><defs><style>.cls-1{fill:#f9ece8;}.cls-2{fill:#af9f9a;}.cls-3{fill:#f2d6cc;}.cls-4{fill:#f9eee4;}</style></defs><title>Railing front</title><g id="Layer_2" data-name="Layer 2"><g id="_ÎÓÈ_3" data-name="—ÎÓÈ_3"><g id="_Group_fanceFront" data-name="&lt;Group&gt;fanceFront"><rect class="cls-1" x="335.87" y="198.38" width="5.47" height="88.51" rx="1.64" transform="translate(673.73 490.05) rotate(-179.19)"/><path class="cls-2" d="M335.28,284.11l1.18-83a2.75,2.75,0,0,1,2.77-2.7L338,286.89A2.75,2.75,0,0,1,335.28,284.11Z"/><rect class="cls-1" x="322.02" y="203.74" width="5.47" height="88.51" rx="1.64" transform="translate(645.95 500.58) rotate(-179.19)"/><path class="cls-2" d="M321.43,289.47l1.18-83a2.73,2.73,0,0,1,2.77-2.69l-1.25,88.5A2.74,2.74,0,0,1,321.43,289.47Z"/><rect class="cls-1" x="308.14" y="210.98" width="5.47" height="88.51" rx="1.64" transform="translate(618.11 514.85) rotate(-179.19)"/><path class="cls-2" d="M307.55,296.72l1.18-83A2.74,2.74,0,0,1,311.5,211l-1.25,88.5A2.74,2.74,0,0,1,307.55,296.72Z"/><rect class="cls-1" x="294.24" y="219.3" width="5.47" height="88.51" rx="1.64" transform="translate(590.2 531.29) rotate(-179.19)"/><path class="cls-2" d="M293.66,305l1.17-83a2.74,2.74,0,0,1,2.78-2.69l-1.26,88.5A2.73,2.73,0,0,1,293.66,305Z"/><rect class="cls-1" x="280.36" y="227.12" width="5.47" height="88.51" rx="1.64" transform="translate(562.29 546.75) rotate(-179.18)"/><path class="cls-2" d="M279.77,312.85l1.18-83a2.74,2.74,0,0,1,2.77-2.7l-1.25,88.5A2.74,2.74,0,0,1,279.77,312.85Z"/><rect class="cls-1" x="266.47" y="235.24" width="5.47" height="88.51" rx="1.64" transform="translate(534.42 562.76) rotate(-179.19)"/><path class="cls-2" d="M265.88,321l1.18-83a2.74,2.74,0,0,1,2.77-2.7l-1.26,88.5A2.74,2.74,0,0,1,265.88,321Z"/><rect class="cls-1" x="252.57" y="243.59" width="5.47" height="88.51" rx="1.64" transform="translate(506.5 579.28) rotate(-179.19)"/><path class="cls-2" d="M252,329.32l1.18-83a2.74,2.74,0,0,1,2.77-2.7l-1.25,88.5A2.74,2.74,0,0,1,252,329.32Z"/><rect class="cls-1" x="238.67" y="252.53" width="5.47" height="88.51" rx="1.64" transform="translate(478.57 596.98) rotate(-179.19)"/><path class="cls-2" d="M238.08,338.27l1.18-83a2.74,2.74,0,0,1,2.77-2.7L240.78,341A2.74,2.74,0,0,1,238.08,338.27Z"/><polygon class="cls-3" points="342.86 198.97 225.33 266.08 225.42 259.79 342.95 192.68 342.86 198.97"/><polygon class="cls-4" points="342.95 192.68 225.42 259.79 225.31 256.79 340.15 191.02 342.95 192.68"/><rect class="cls-1" x="448.65" y="133.36" width="5.47" height="88.51" rx="1.64" transform="translate(900.8 360.14) rotate(-179.37)"/><path class="cls-2" d="M448.2,219.1l.9-83a2.74,2.74,0,0,1,2.77-2.71l-1,88.51A2.74,2.74,0,0,1,448.2,219.1Z"/><rect class="cls-1" x="434.82" y="138.77" width="5.47" height="88.51" rx="1.64" transform="translate(873.08 370.8) rotate(-179.38)"/><path class="cls-2" d="M434.36,224.51l.91-83a2.73,2.73,0,0,1,2.76-2.7l-1,88.51A2.76,2.76,0,0,1,434.36,224.51Z"/><rect class="cls-1" x="420.96" y="146.05" width="5.47" height="88.51" rx="1.64" transform="translate(845.31 385.19) rotate(-179.38)"/><path class="cls-2" d="M420.51,231.8l.9-83a2.74,2.74,0,0,1,2.77-2.7l-1,88.5A2.73,2.73,0,0,1,420.51,231.8Z"/><rect class="cls-1" x="407.09" y="154.42" width="5.47" height="88.51" rx="1.64" transform="translate(817.47 401.8) rotate(-179.38)"/><path class="cls-2" d="M406.64,240.16l.9-83a2.75,2.75,0,0,1,2.77-2.71l-1,88.51A2.75,2.75,0,0,1,406.64,240.16Z"/><rect class="cls-1" x="393.23" y="162.28" width="5.47" height="88.51" rx="1.64" transform="translate(789.67 417.36) rotate(-179.38)"/><path class="cls-2" d="M392.78,248l.9-83a2.75,2.75,0,0,1,2.77-2.71l-1,88.51A2.75,2.75,0,0,1,392.78,248Z"/><rect class="cls-1" x="379.37" y="170.45" width="5.47" height="88.51" rx="1.64" transform="matrix(-1, -0.01, 0.01, -1, 761.85, 433.54)"/><path class="cls-2" d="M378.92,256.19l.9-83a2.74,2.74,0,0,1,2.76-2.7l-1,88.5A2.73,2.73,0,0,1,378.92,256.19Z"/><rect class="cls-1" x="365.5" y="178.84" width="5.47" height="88.51" rx="1.64" transform="translate(734.04 450.17) rotate(-179.38)"/><path class="cls-2" d="M365.05,264.59l.9-83a2.76,2.76,0,0,1,2.77-2.71l-1,88.51A2.74,2.74,0,0,1,365.05,264.59Z"/><rect class="cls-1" x="351.63" y="187.84" width="5.47" height="88.51" rx="1.64" transform="translate(706.18 468.02) rotate(-179.38)"/><path class="cls-2" d="M351.18,273.58l.9-83a2.74,2.74,0,0,1,2.76-2.7l-1,88.5A2.73,2.73,0,0,1,351.18,273.58Z"/><polygon class="cls-3" points="455.49 133.93 338.19 201.43 338.25 195.15 455.56 127.65 455.49 133.93"/><polygon class="cls-4" points="455.56 127.65 338.25 195.15 338.13 192.15 452.76 125.99 455.56 127.65"/><rect class="cls-1" x="560.09" y="69.08" width="5.47" height="88.51" rx="1.64" transform="translate(1124.39 232.76) rotate(-179.38)"/><path class="cls-2" d="M559.64,154.83l.9-83a2.76,2.76,0,0,1,2.77-2.71l-1,88.51A2.74,2.74,0,0,1,559.64,154.83Z"/><rect class="cls-1" x="546.26" y="74.49" width="5.47" height="88.51" rx="1.64" transform="translate(1096.66 243.45) rotate(-179.38)"/><path class="cls-2" d="M545.81,160.23l.9-83a2.74,2.74,0,0,1,2.76-2.71l-1,88.51A2.74,2.74,0,0,1,545.81,160.23Z"/><rect class="cls-1" x="532.4" y="81.78" width="5.47" height="88.51" rx="1.64" transform="translate(1068.87 257.87) rotate(-179.38)"/><path class="cls-2" d="M532,167.52l.9-83a2.74,2.74,0,0,1,2.77-2.7l-1,88.51A2.74,2.74,0,0,1,532,167.52Z"/><rect class="cls-1" x="518.54" y="90.14" width="5.47" height="88.51" rx="1.64" transform="matrix(-1, -0.01, 0.01, -1, 1041.05, 274.46)"/><path class="cls-2" d="M518.08,175.89l.91-83a2.73,2.73,0,0,1,2.76-2.7l-1,88.5A2.74,2.74,0,0,1,518.08,175.89Z"/><rect class="cls-1" x="504.67" y="98" width="5.47" height="88.51" rx="1.64" transform="translate(1013.24 290.05) rotate(-179.37)"/><path class="cls-2" d="M504.22,183.75l.91-83a2.73,2.73,0,0,1,2.76-2.7l-1,88.5A2.74,2.74,0,0,1,504.22,183.75Z"/><rect class="cls-1" x="490.81" y="106.17" width="5.47" height="88.51" rx="1.64" transform="translate(985.43 306.18) rotate(-179.38)"/><path class="cls-2" d="M490.36,191.91l.9-83a2.75,2.75,0,0,1,2.77-2.71l-1,88.51A2.74,2.74,0,0,1,490.36,191.91Z"/><rect class="cls-1" x="476.94" y="114.57" width="5.47" height="88.51" rx="1.64" transform="translate(957.61 322.82) rotate(-179.38)"/><path class="cls-2" d="M476.49,200.31l.9-83a2.74,2.74,0,0,1,2.77-2.7l-1,88.5A2.74,2.74,0,0,1,476.49,200.31Z"/><rect class="cls-1" x="463.07" y="123.56" width="5.47" height="88.51" rx="1.64" transform="translate(929.77 340.66) rotate(-179.38)"/><path class="cls-2" d="M462.62,209.3l.9-83a2.75,2.75,0,0,1,2.77-2.71l-1,88.51A2.74,2.74,0,0,1,462.62,209.3Z"/><polygon class="cls-3" points="566.93 69.66 449.63 137.16 449.7 130.87 567 63.37 566.93 69.66"/><polygon class="cls-4" points="567 63.37 449.7 130.87 449.57 127.87 564.2 61.72 567 63.37"/><rect class="cls-1" x="667.39" y="7.37" width="5.47" height="88.51" rx="1.64" transform="translate(1339.66 110.52) rotate(-179.38)"/><path class="cls-2" d="M666.94,93.11l.9-83a2.74,2.74,0,0,1,2.77-2.7l-1,88.5A2.74,2.74,0,0,1,666.94,93.11Z"/><rect class="cls-1" x="653.56" y="12.77" width="5.47" height="88.51" rx="1.64" transform="translate(1311.93 121.16) rotate(-179.38)"/><path class="cls-2" d="M653.11,98.52l.9-83a2.74,2.74,0,0,1,2.76-2.7l-1,88.5A2.73,2.73,0,0,1,653.11,98.52Z"/><rect class="cls-1" x="639.7" y="20.06" width="5.47" height="88.51" rx="1.64" transform="translate(1284.15 135.58) rotate(-179.38)"/><path class="cls-2" d="M639.25,105.81l.91-83a2.74,2.74,0,0,1,2.76-2.71l-1,88.51A2.75,2.75,0,0,1,639.25,105.81Z"/><rect class="cls-1" x="625.84" y="28.43" width="5.47" height="88.51" rx="1.64" transform="translate(1256.32 152.17) rotate(-179.38)"/><path class="cls-2" d="M625.39,114.17l.9-83a2.74,2.74,0,0,1,2.76-2.71l-1,88.51A2.74,2.74,0,0,1,625.39,114.17Z"/><rect class="cls-1" x="611.98" y="36.29" width="5.47" height="88.51" rx="1.64" transform="translate(1228.51 167.79) rotate(-179.37)"/><path class="cls-2" d="M611.53,122l.9-83a2.73,2.73,0,0,1,2.76-2.7l-1,88.51A2.74,2.74,0,0,1,611.53,122Z"/><rect class="cls-1" x="598.11" y="44.45" width="5.47" height="88.51" rx="1.64" transform="translate(1200.7 183.94) rotate(-179.38)"/><path class="cls-2" d="M597.66,130.2l.9-83a2.74,2.74,0,0,1,2.77-2.7l-1,88.5A2.75,2.75,0,0,1,597.66,130.2Z"/><rect class="cls-1" x="584.25" y="52.85" width="5.47" height="88.51" rx="1.64" transform="translate(1172.87 200.58) rotate(-179.38)"/><path class="cls-2" d="M583.8,138.59l.9-83a2.74,2.74,0,0,1,2.76-2.71l-1,88.51A2.74,2.74,0,0,1,583.8,138.59Z"/><rect class="cls-1" x="570.37" y="61.84" width="5.47" height="88.51" rx="1.64" transform="translate(1145.03 218.42) rotate(-179.38)"/><path class="cls-2" d="M569.92,147.59l.9-83a2.74,2.74,0,0,1,2.77-2.7l-1,88.5A2.74,2.74,0,0,1,569.92,147.59Z"/><polygon class="cls-3" points="674.24 7.94 556.93 75.44 557 69.15 674.3 1.66 674.24 7.94"/><polygon class="cls-4" points="674.3 1.66 557 69.15 556.88 66.15 671.5 0 674.3 1.66"/><rect class="cls-1" x="111.63" y="195.7" width="5.47" height="88.51" rx="1.64" transform="translate(4.23 -1.97) rotate(1.01)"/><path class="cls-2" d="M116.37,281.51l1.46-83a2.76,2.76,0,0,0-2.69-2.79l-1.56,88.5A2.74,2.74,0,0,0,116.37,281.51Z"/><rect class="cls-1" x="125.3" y="201.5" width="5.47" height="88.51" rx="1.64" transform="translate(4.33 -2.21) rotate(1.01)"/><path class="cls-2" d="M130,287.31l1.46-83a2.74,2.74,0,0,0-2.69-2.78L127.26,290A2.74,2.74,0,0,0,130,287.31Z"/><rect class="cls-1" x="138.94" y="209.17" width="5.47" height="88.51" rx="1.64" transform="translate(4.48 -2.45) rotate(1.01)"/><path class="cls-2" d="M143.68,295l1.46-83a2.74,2.74,0,0,0-2.68-2.78l-1.56,88.5A2.74,2.74,0,0,0,143.68,295Z"/><rect class="cls-1" x="152.57" y="217.93" width="5.47" height="88.51" rx="1.64" transform="translate(4.63 -2.69) rotate(1.01)"/><path class="cls-2" d="M157.31,303.75l1.46-83a2.75,2.75,0,0,0-2.69-2.78l-1.56,88.49A2.74,2.74,0,0,0,157.31,303.75Z"/><rect class="cls-1" x="166.2" y="226.18" width="5.47" height="88.51" rx="1.64" transform="matrix(1, 0.02, -0.02, 1, 4.77, -2.92)"/><path class="cls-2" d="M170.94,312l1.46-83a2.74,2.74,0,0,0-2.69-2.78l-1.55,88.5A2.76,2.76,0,0,0,170.94,312Z"/><rect class="cls-1" x="179.82" y="234.74" width="5.47" height="88.51" rx="1.64" transform="translate(4.93 -3.16) rotate(1.01)"/><path class="cls-2" d="M184.57,320.56l1.45-83a2.74,2.74,0,0,0-2.68-2.79l-1.56,88.5A2.74,2.74,0,0,0,184.57,320.56Z"/><rect class="cls-1" x="193.45" y="243.52" width="5.47" height="88.51" rx="1.64" transform="translate(5.09 -3.41) rotate(1.01)"/><path class="cls-2" d="M198.19,329.34l1.46-83a2.76,2.76,0,0,0-2.69-2.78L195.4,332A2.74,2.74,0,0,0,198.19,329.34Z"/><rect class="cls-1" x="207.06" y="252.91" width="5.47" height="88.51" rx="1.64" transform="translate(5.25 -3.64) rotate(1.01)"/><path class="cls-2" d="M211.8,338.73l1.46-83a2.74,2.74,0,0,0-2.69-2.78L209,341.41A2.74,2.74,0,0,0,211.8,338.73Z"/><rect class="cls-1" x="220.7" y="260.64" width="5.47" height="88.51" rx="1.64" transform="translate(5.4 -3.88) rotate(1.01)"/><path class="cls-2" d="M225.44,346.46l1.46-83a2.74,2.74,0,0,0-2.69-2.79l-1.55,88.5A2.74,2.74,0,0,0,225.44,346.46Z"/><polygon class="cls-3" points="111.5 196.17 226.84 266.98 226.95 260.69 111.61 189.89 111.5 196.17"/><polygon class="cls-4" points="111.61 189.89 226.95 260.69 227.15 257.7 114.45 188.31 111.61 189.89"/><rect class="cls-1" x="0.75" y="127.47" width="5.47" height="88.51" rx="1.64" transform="translate(3.02 -0.03) rotate(1.01)"/><path class="cls-2" d="M5.49,213.29l1.46-83a2.74,2.74,0,0,0-2.69-2.78L2.71,216A2.74,2.74,0,0,0,5.49,213.29Z"/><rect class="cls-1" x="14.42" y="133.27" width="5.47" height="88.51" rx="1.64" transform="translate(3.12 -0.27) rotate(1.01)"/><path class="cls-2" d="M19.16,219.09l1.46-83a2.74,2.74,0,0,0-2.68-2.79l-1.56,88.5A2.73,2.73,0,0,0,19.16,219.09Z"/><rect class="cls-1" x="28.07" y="140.95" width="5.47" height="88.51" rx="1.64" transform="translate(3.26 -0.51) rotate(1.01)"/><path class="cls-2" d="M32.81,226.76l1.45-83A2.74,2.74,0,0,0,31.58,141L30,229.45A2.74,2.74,0,0,0,32.81,226.76Z"/><rect class="cls-1" x="41.69" y="149.7" width="5.47" height="88.51" rx="1.64" transform="translate(3.41 -0.75) rotate(1.01)"/><path class="cls-2" d="M46.43,235.52l1.46-83a2.75,2.75,0,0,0-2.69-2.78l-1.55,88.5A2.76,2.76,0,0,0,46.43,235.52Z"/><rect class="cls-1" x="55.32" y="157.95" width="5.47" height="88.51" rx="1.64" transform="translate(3.56 -0.99) rotate(1.01)"/><path class="cls-2" d="M60.06,243.77l1.46-83A2.74,2.74,0,0,0,58.83,158l-1.55,88.5A2.75,2.75,0,0,0,60.06,243.77Z"/><rect class="cls-1" x="68.95" y="166.51" width="5.47" height="88.51" rx="1.64" transform="translate(3.71 -1.23) rotate(1.01)"/><path class="cls-2" d="M73.69,252.33l1.46-83a2.75,2.75,0,0,0-2.69-2.78L70.9,255A2.74,2.74,0,0,0,73.69,252.33Z"/><rect class="cls-1" x="82.57" y="175.3" width="5.47" height="88.51" rx="1.64" transform="translate(3.87 -1.46) rotate(1.01)"/><path class="cls-2" d="M87.31,261.12l1.46-83a2.74,2.74,0,0,0-2.69-2.79l-1.55,88.5A2.74,2.74,0,0,0,87.31,261.12Z"/><rect class="cls-1" x="96.18" y="184.68" width="5.47" height="88.51" rx="1.64" transform="translate(4.03 -1.7) rotate(1.01)"/><path class="cls-2" d="M100.92,270.5l1.46-83a2.74,2.74,0,0,0-2.69-2.78l-1.55,88.5A2.75,2.75,0,0,0,100.92,270.5Z"/><polygon class="cls-3" points="0.62 127.94 115.96 198.75 116.07 192.47 0.73 121.66 0.62 127.94"/><polygon class="cls-4" points="0.73 121.66 116.07 192.47 116.28 189.47 3.58 120.08 0.73 121.66"/></g></g></g></svg>