<svg xmlns="http://www.w3.org/2000/svg" viewBox="0 0 45.03 130.71"><defs><style>.cls-1{fill:#ffb200;}.cls-2{fill:#fcbd3d;}.cls-3{fill:#d68f00;}.cls-4{fill:#99440b;}.cls-5{fill:#6c8e0e;}.cls-6{opacity:0.47;}.cls-7{fill:#c1dd5e;}</style></defs><title>Asset 2</title><g id="Layer_2" data-name="Layer 2"><g id="_ÎÓÈ_3" data-name="—ÎÓÈ_3"><path class="cls-1" d="M2.72,69.5c1.07,43.18,2.8,61.77,19.9,61.19,15.59-.52,18.69-13.82,19.91-61.63C30,71.9,14.83,72.62,2.72,69.5Z"/><ellipse class="cls-2" cx="22.62" cy="69.06" rx="19.92" ry="11.65"/><ellipse class="cls-3" cx="22.62" cy="69.06" rx="17.69" ry="8.98"/><path class="cls-4" d="M22.24,78c-.62,0-2.81-.14-2.81-.14V28.43a3.1,3.1,0,0,1,3.08-3.09h0a3.1,3.1,0,0,1,3.09,3.09V77.91S23.52,78,22.24,78Z"/><circle class="cls-5" cx="22.34" cy="22.34" r="22.34" transform="translate(-4.54 38.96) rotate(-76.72)"/><g class="cls-6"><path class="cls-7" d="M22.69,0c-.77,0-1.53,0-2.28.11a22.35,22.35,0,0,1,0,44.46,21.48,21.48,0,0,0,2.28.12A22.35,22.35,0,0,0,22.69,0Z"/></g></g></g></svg>