<svg xmlns="http://www.w3.org/2000/svg" viewBox="0 0 63.8 168.52"><defs><style>.cls-1{fill:#ff985f;}.cls-2{fill:#512304;}.cls-3{fill:#280f04;}.cls-4{fill:#f77f43;}.cls-5{fill:#050505;}.cls-6{fill:#efe8da;}.cls-7{fill:#d6cfc1;}.cls-8{fill:#1b1c1c;}.cls-9{fill:#eda97c;}.cls-10{fill:#2e3030;}.cls-11{fill:#1f2121;}.cls-12{fill:#6b6e70;}.cls-13{fill:#a8a8a8;}.cls-14{fill:#7f7f7f;opacity:0.72;}.cls-15{fill:#dbdbdb;}.cls-16{fill:#969696;}</style></defs><title>server 3</title><g id="Layer_2" data-name="Layer 2"><g id="_ÎÓÈ_3" data-name="—ÎÓÈ_3"><path class="cls-1" d="M10.13,8.55c1.84-4.3,7.12-5.29,10.33-4,1.71.67,5.85.44,7.18,3.19a15.2,15.2,0,0,1,.71,3c0,.59-.17,2.37-.12,2.86s.38,1,.35,1.59a17.61,17.61,0,0,1-.52,4.2c-.53,2,.17,2.71-1,3.38-1.38.82-6.46.74-9.33-.92-2.31-1.33-3.7-2.2-4-2.34C8,16.61,8.3,12.84,10.13,8.55Z"/><path class="cls-2" d="M8.68,16.66A16.35,16.35,0,0,0,9.87,18a9.27,9.27,0,0,1-2.4-2.11A7.89,7.89,0,0,1,6.4,12a5.77,5.77,0,0,1,.26-1.59,5.29,5.29,0,0,0,.15,2A8.28,8.28,0,0,0,8.68,16.66Z"/><path class="cls-2" d="M10.85,18.61l-.38-.22a20.22,20.22,0,0,1-1.62-1.72,8.41,8.41,0,0,1-1.8-3.59c.07.18.15.35.23.52a6.78,6.78,0,0,0,1.2,1.65,1.62,1.62,0,0,0,.1.18,5.08,5.08,0,0,0,.8,1.14c.35.38.77.69,1.15,1a10.71,10.71,0,0,1,1.53,1.71C11.67,19.06,11.25,18.84,10.85,18.61Z"/><path class="cls-2" d="M13.49,20.56a6,6,0,0,0-.88-.87l-.23-.17A10,10,0,0,0,11,17.82a11.24,11.24,0,0,1-2.16-2.25v0a11.41,11.41,0,0,0,1.08.87c.56.4,1.14.77,1.67,1.21a6.21,6.21,0,0,1,.73.72l.07.08.2.27a3.62,3.62,0,0,1,.27.41,5.39,5.39,0,0,1,.3.52l.06.12a1.63,1.63,0,0,1,.09.19Q13.39,20.25,13.49,20.56Z"/><path class="cls-3" d="M6.4,12A7.8,7.8,0,0,1,8.17,7.48h0S8,1.51,16.87.15c5.25-.8,7.52,1.68,9.81,5.68l.55,1,.2.28a6.56,6.56,0,0,0,3.41,2.5c-.16.17-7.58,0-8.44-.05-7.16-.2-6.29,3.85-6.36,4.89,0,.4.18,1.77-.06,1.61-4.38-3-1.14,2.4-2,5.16a6.54,6.54,0,0,0-1.34-1.49,16,16,0,0,0-1.76-1.08l-.65-.39a11.11,11.11,0,0,1-2.73-2.36A7.89,7.89,0,0,1,6.4,12Z"/><path class="cls-4" d="M13.77,29c.4-.07-.73-.84-.19-1.15.51-1,1.54-6.28.83-8,.05,0,7,3.41,9.29,3.39l.59,4.67c2.22.87.89,1.76,2.22.87a3.59,3.59,0,0,1,4.68.81c1.06,1.35-.52.7-1,2.48a18.64,18.64,0,0,1-1,2.49c-.2.42-.48.79-.69,1.2a1.17,1.17,0,0,0-.05.11c.13.26.27.51.41.76.32.34.68.65,1,1a1.07,1.07,0,0,1,.51.35,3.54,3.54,0,0,1,.87,2.25,4.21,4.21,0,0,1,0,1.46v0a.09.09,0,0,0,0,.05.36.36,0,0,0,0,.1,2.68,2.68,0,0,1-.07.27,1.12,1.12,0,0,1,0,.13.43.43,0,0,0,0,0,3.25,3.25,0,0,1-.18.43,1.64,1.64,0,0,1-.31.41l-.49.68a10.52,10.52,0,0,1-4.51,3.32,4.61,4.61,0,0,0-.58.33c-.06.07-.11.14-.17.2A3.82,3.82,0,0,0,22,50.5a5.35,5.35,0,0,0-.1,1.38c-3.58.56-7.16,1.06-10.76,1.54.05-.13.09-.26.13-.4C12,50.18,12.2,29.26,13.77,29Z"/><path class="cls-1" d="M50.31,65.63c.11-.52.2-1,.28-1.55.55-.16.4.14.77,0l.28-.72c1.3-.54,4.85-.21,5.78.61,1.7,1.51,2.16,1.32,3.23,1.4.66,0-.1,1.25-1.06.92-.14,0-1-.36-1-.36a12.53,12.53,0,0,0,1.4.8,32.57,32.57,0,0,1,3.23.9c.19.07.66.57-.07.62-.58,0,.16.8.58,1.31a.38.38,0,0,1-.14.54,2.51,2.51,0,0,1-.72.22.34.34,0,0,1,0,.35c-.2.39-.81.34-1.21.32a7.13,7.13,0,0,1-2.31.16c-.26,0,0,0-.26,0S58.6,71,58.37,71h0l-.31-.06a4.91,4.91,0,0,1-.51-.15c-.21-.08-.41-.18-.61-.28h0c-4.65-1.69-4.72-3.88-5-4.07a2.39,2.39,0,0,0-1.6-.73Z"/><path class="cls-5" d="M41.81,156c-5.56-.16-9.74,1.27-10.24-.09-.54.58-.87,3.7-.89,4.23a1.84,1.84,0,0,0,2.1,1.92c3.1,0,4.46-.43,5.76-.24,5.41.79,10.54,2.09,13.05-.87.42-.91-2.5-1-5.21-2.32A28.72,28.72,0,0,1,41.81,156Z"/><path class="cls-6" d="M38.16,45.35c-1-10.41-1.66-12-3.91-15.9-1.22-2.13-3.51-1.69-4.82-1.34-5.19,1.37-2,8.28-1,12.24.69,2.58-.47,10.87,3.91,16.46a28.44,28.44,0,0,0,8.7,6.26c2.62,1.17,7.57,2,10.85,3.33l2.21-3.33c-3.19-2-7.23-5.68-9.55-7a19.23,19.23,0,0,1-5.37-4.51C38.35,50.33,38.26,46.41,38.16,45.35Z"/><path class="cls-7" d="M31.8,74.63,11.12,73.11S10,68.87,9.53,65.6c0-.3-2.67-1.37-2.94-1.66-2.27-2.41-2-4.52-2.21-6.3A172.06,172.06,0,0,0,.3,34.25c0-4.87,9.87-7,11.67-7L14.72,27l.89-2.5a9,9,0,0,0,3.92,1.31,9.57,9.57,0,0,0,4.17-.62l.4,1.68,7.45.93c2.28,4,1.31,10.94.55,13.86-2.29,8.69,1.18,17.37.87,19.85-.26,2-1.23,2.84-1.21,3.29C32,69.94,31.8,74.63,31.8,74.63Z"/><path class="cls-8" d="M22.92,35.78a.37.37,0,1,1-.36-.37A.37.37,0,0,1,22.92,35.78Z"/><path class="cls-8" d="M23.29,63.94a.37.37,0,1,1-.73,0,.37.37,0,0,1,.73,0Z"/><path class="cls-8" d="M22.8,58a.37.37,0,0,1,.47.23.36.36,0,0,1-.23.46.35.35,0,0,1-.46-.22A.36.36,0,0,1,22.8,58Z"/><path class="cls-8" d="M23.29,56.44a.37.37,0,1,1-.37-.37A.37.37,0,0,1,23.29,56.44Z"/><circle class="cls-8" cx="22.92" cy="50.37" r="0.37"/><circle class="cls-8" cx="22.92" cy="43.07" r="0.37"/><circle class="cls-8" cx="22.92" cy="37.54" r="0.37"/><path class="cls-8" d="M22.77,52.56a.37.37,0,0,1-.18-.49.37.37,0,0,1,.48-.18.36.36,0,0,1,.19.48A.37.37,0,0,1,22.77,52.56Z"/><circle class="cls-8" cx="22.92" cy="44.99" r="0.37"/><circle class="cls-8" cx="21.82" cy="29.74" r="0.37"/><path class="cls-8" d="M22.56,31.34a.37.37,0,1,1-.37-.36A.37.37,0,0,1,22.56,31.34Z"/><path class="cls-9" d="M13.16,67.12c-3.58,4.19-2,6-5.26,15.92-1.63,5-.66,25.34-.78,32.46-.07,4.08-3.3,7.92-3.11,13.59.13,3.67,2,11.84,2.15,24.28,0,2.25-1.89,4-2,5.34a1.85,1.85,0,0,0,1.24,2.15s5.66.57,7-.17a4.42,4.42,0,0,0,1.23-1.58s-2.44-3.5-2.45-4.46c-.21-13,2-32,3.47-36.79,3.51-11.64,5.78-34,10.62-44.79C17,71,21.66,67.15,13.16,67.12Z"/><path class="cls-5" d="M16.38,160.7c-5.41-1.28-11.39-1-11.61-2.48-.64.46-1.59,3.45-1.72,4,0,0-.55,2.24,1.67,2.29A12.6,12.6,0,0,1,9,165.62c6.6,3,11.36,3.95,14.41,1.56.6-.82-1.33-1.93-3.72-3.77A28.51,28.51,0,0,1,16.38,160.7Z"/><path class="cls-8" d="M26,119.83c.55,10.22,4.84,38.77,4.84,38.77a106,106,0,0,0,13.71-.92,64.69,64.69,0,0,1-4-13.31c-1-7.43-1.71-16-2.4-24.33-.43-5.16-5.71-53.07-8.36-54.84C27.11,68.26,18.54,79.61,16.21,83,17.22,83,25.88,117.38,26,119.83Z"/><path class="cls-10" d="M4.14,159.42C4,153.73,4,138.2,4,126.88c0-1.6.73-8.22.73-9.84,0-18.59-.9-34.38,5-43.35l10.16-7.78,3.67.79,8.44,4L25.25,86.91c-1.45,7.23-8,27.76-8.63,37.38-1.19,17.49,1.14,37.3.34,37.29C17,161.58,4.15,159.69,4.14,159.42Z"/><path class="cls-6" d="M24.84,27.08l-.74-2.83a7.84,7.84,0,0,1-4.57,1.33,14.53,14.53,0,0,1-5-1.8l-1,3.34c1.15.86,5.31,1.82,7.36,1.78l.44-2.68,1,2.46C23,28.44,24.78,27.89,24.84,27.08Z"/><path class="cls-11" d="M32,73.13l-22.27.56L8.36,64.87S20.65,66.16,24.52,66c4.69-.14,6.9-1.48,6.9-1.48Z"/><path class="cls-1" d="M30.23,74c.11-.52.21-1,.29-1.55.54-.16.4.15.76,0l.28-.72c1.31-.54,4.86-.21,5.79.61,1.7,1.51,2.15,1.33,3.23,1.4.66,0-.1,1.25-1.07.93l-1-.37a12.53,12.53,0,0,0,1.4.8,32.38,32.38,0,0,1,3.22.9c.19.07.66.57-.06.62s.16.8.58,1.32a.37.37,0,0,1-.14.53,3,3,0,0,1-.72.23.34.34,0,0,1,0,.34c-.2.39-.81.34-1.22.32a7.1,7.1,0,0,1-2.31.16c-.26,0,0,0-.25,0s-.49-.06-.73-.11h0l-.31,0-.52-.16q-.3-.12-.6-.27l0,0c-4.65-1.69-4.72-3.88-5-4.07A2.4,2.4,0,0,0,30.22,74Z"/><path class="cls-6" d="M14.21,57.6c-1.08-1.45-1.28-6.39-2.29-12.25-.85-4.87-2.5-10.72-3.42-12.57-1.09-2.19-3.4-1.88-4.73-1.61C-1.49,32.23,0,38.52.85,42.53a45.41,45.41,0,0,0,1.34,7c1.92,5.75,5.32,12.34,7,13.85C12.23,66.27,14.32,69,18,70.66s9,2.14,13.72,4.73l3.08-3.93C31.48,69,27,65.38,22.19,62.38,19.33,60.59,15.6,59.46,14.21,57.6Z"/><ellipse class="cls-12" cx="47.25" cy="68.62" rx="16.51" ry="10.09"/><path class="cls-13" d="M63.41,67c0,5.45-7.24,9.88-16.16,9.88S31.09,72.49,31.09,67s6.6-15.1,15.52-15.1C56.64,51.94,63.41,61.58,63.41,67Z"/><path class="cls-14" d="M46.61,51.94c-.17,0-.34,0-.51,0A13.64,13.64,0,0,1,51.87,56c3.88,4.36,7.21,10.38,3.53,15.87a14.71,14.71,0,0,1-6,4.91c7.9-.65,14-4.78,14-9.78C63.41,61.58,56.64,51.94,46.61,51.94Z"/><path class="cls-15" d="M44.67,54.16c-6.8,3.39-8.56,13-7.92,20.38a22.62,22.62,0,0,0,9.42,2.35C41.35,70.44,41.18,61.89,44.67,54.16Z"/><path class="cls-16" d="M47.74,50.94a1.2,1.2,0,1,1-1.2-1.2A1.2,1.2,0,0,1,47.74,50.94Z"/></g></g></svg>