<svg xmlns="http://www.w3.org/2000/svg" viewBox="0 0 259.43 322.27"><defs><style>.cls-1{fill:#422f26;}.cls-2{fill:#f4e6df;}.cls-3{fill:#ba906e;}.cls-4{fill:#8e7a6f;opacity:0.29;}.cls-5{fill:#8c0707;opacity:0.27;}</style></defs><title>Umbrella</title><g id="Layer_2" data-name="Layer 2"><g id="_ÎÓÈ_3" data-name="—ÎÓÈ_3"><rect class="cls-1" x="125.15" y="133.11" width="7.73" height="189.16"/><rect class="cls-1" x="125.85" y="129.01" width="7.73" height="189.16"/><polygon class="cls-2" points="192.66 169.51 69.34 169.47 129.71 16.52 192.66 169.51"/><polygon class="cls-3" points="259.44 129.61 192.68 169.51 129.71 16.52 259.44 129.61"/><polygon class="cls-2" points="255.14 44.08 259.42 129.64 129.71 16.52 255.14 44.08"/><polygon class="cls-3" points="0 129.64 69.7 169.54 129.71 16.52 0 129.64"/><polygon class="cls-3" points="169.31 0 255.63 44.88 129.71 16.52 169.31 0"/><polygon class="cls-2" points="4.46 45.56 0 129.64 129.71 16.52 4.46 45.56"/><polygon class="cls-3" points="91.51 1.09 4.8 45.63 129.71 16.52 91.51 1.09"/><polygon class="cls-2" points="129.71 16.52 91.51 1.09 169.31 0 129.71 16.52"/><path class="cls-4" d="M159.59,162.55c-36.29-3-75.67-18.11-97.13-49.08-9.33-13.44-12.65-31-7.4-46.65S71.85,38.58,85.44,29.35C111.16,11.89,143.85,9.06,174,12.16a181.37,181.37,0,0,1,28.31,5L169.31,0,91.51,1.09,5.33,45.36l-.87.2L0,129.64l69.39,39.73,0,.1h.23l.13.07,0-.07,122.93,0-2.86-7A185.8,185.8,0,0,1,159.59,162.55Z"/><path class="cls-5" d="M189.82,162.54l2.86,7,15.45-9.24C202.06,161.29,196,162.06,189.82,162.54Z"/></g></g></svg>