<svg xmlns="http://www.w3.org/2000/svg" viewBox="0 0 48.82 103.64"><defs><style>.cls-1{fill:#844025;}.cls-2{fill:#154f7a;}.cls-3{fill:#ffbc8f;}.cls-4{fill:#d14e6b;}.cls-5{fill:#72311a;}.cls-6{fill:#eda97c;}.cls-7{fill:#215889;}.cls-8{fill:#e05f77;}.cls-9{fill:#e5738b;}.cls-10{fill:#70311b;}</style></defs><title>enter guest 2</title><g id="Layer_2" data-name="Layer 2"><g id="_ÎÓÈ_3" data-name="—ÎÓÈ_3"><path class="cls-1" d="M38.73,95.54C42.59,94,47,93.48,47,92.4c.53.26,1.57,2.37,1.72,2.73,0,0,.46,1.05-1,1.89-1.69,1-2.71,1.12-3.53,1.65-4.55,3-9.38,5.16-10,3-.19-.73,1.93-2.8,3.49-4.43C39.62,95.28,38.73,95.54,38.73,95.54Z"/><path class="cls-2" d="M47.34,92.78C47.26,91.84,41.66,79,41,76.06c-1.56-7.21-1.47-9.18-.3-13.9a28.27,28.27,0,0,0,.14-11.69L28.13,56.72,29,60s-1.6,9.14-.91,12.77C30.24,83.87,38.93,96,38.93,96a20,20,0,0,0,4.21-1.23A34.45,34.45,0,0,0,47.34,92.78Z"/><path class="cls-3" d="M43.42,57.87a2,2,0,0,1-2.49-.18,1.46,1.46,0,0,1-.47,1.08c-1.4,1.52-2.85,4-2.78,4.38s.55.29.8-.2c.68-1.37,1.33-.9,1.5-.46a4.55,4.55,0,0,1-.29,2.45c-.55,1.73-.77,2.55,1,2.57,1.9,0,2.49-2.42,2.64-3a9.61,9.61,0,0,0,.1-5.29l-.2-.68C43.12,58.57,43.48,57.82,43.42,57.87Z"/><path class="cls-4" d="M43.52,58.41s4.31-11.23,4-14.63c-.77-8.67-4.61-16.78-7.9-15.21s-3.05,4.1-.51,9.17c1,1.94,2.38,5.69,2.17,7.35a118.57,118.57,0,0,0-.43,12.44,1.4,1.4,0,0,0,1.24.95A5.56,5.56,0,0,0,43.52,58.41Z"/><path class="cls-5" d="M28.9,2.17l.11,0a.76.76,0,0,0-.21,0h.1Z"/><path class="cls-6" d="M37.13,29.59S33.71,31.88,32.47,32s-4.76-1.54-4.76-1.54.57-4.25.65-5.54,0-4.52,0-4.52l8.31-2.09Z"/><path class="cls-3" d="M22.44,6.66c-.88,2.1-.24,3-.37,3.84s-1,1.06-.74,2.68c.5,3.21,1.85,6.05,2.56,6.46a11.05,11.05,0,0,0,5.53,1.14c1.85-.31,6.41-1.81,7.77-4.66A8.32,8.32,0,0,0,33.26,5C29.12,3.06,24.23,2.43,22.44,6.66Z"/><path class="cls-1" d="M18.14,97.63c3.87.84,7.65,2.81,8.22,2a9,9,0,0,1-.1,3.08s-.2,1.07-1.78,1c-1.86-.12-2.73-.57-3.67-.59-5.16-.1-10.16-.94-9.44-3,.24-.68,3-1.18,5.12-1.63C19,97.9,18.14,97.63,18.14,97.63Z"/><path class="cls-7" d="M28,100c.35-1.12.1-17.13.77-20.84C30.4,70,30.62,67.14,36,64.32c7.11-3.72,4.74-13.5,4.83-13.85l-17.8.07-.52,4.25s-3.89,11.82-4.83,16.35c-2.85,13.86-.29,28-.29,28s1.07.71,4.73.8C25.26,100,28,100,28,100Z"/><path class="cls-8" d="M17.65,62.67s8.49,2.72,13.55,2.72c8.74,0,13.54-4.21,13.54-4.21-.56-3.58-4.23-13-2.05-22.86,1.72-7.73-1.86-12.84-3.64-13l-9,1c-.41.51-4.67,2.36-5.06,2.9C20.08,36.07,17.65,62.67,17.65,62.67Z"/><path class="cls-3" d="M9.49,52.6a2.12,2.12,0,0,1-1.7-2.06c1-.95-2.84,1.74-3.39,1.89A9.39,9.39,0,0,0,1.49,54c-.54.37-2,4-1.33,4.13,2,.51,3.52-.81,4.1-1.15,1.54-.9,3.39-1.76,4.18-3.42l.38-.65C8.73,52.88,9.58,52.61,9.49,52.6Z"/><path class="cls-9" d="M9.14,53.08s11.86-5,14.26-7.74c6.13-7,9.54-16,5.89-17.37-3.8-1.43-5.42.69-7.45,6.4-.78,2.19-2.63,6.05-4.07,7.13a124.23,124.23,0,0,0-9.91,8.87A1.48,1.48,0,0,0,8,52,6.3,6.3,0,0,0,9.14,53.08Z"/><path class="cls-1" d="M39.1,47C41.45,48.12,44,49.29,44,49.29s-2.17-2.15-2.44-7.42A123.18,123.18,0,0,1,44,14.9C45.25,9.75,46.73-.63,31.77,0c-6.29.28-10.21,2.15-9.88,9.18l1.92.26C22,28,35.24,45.1,39.1,47Z"/><path class="cls-10" d="M41.31,8.27a1.16,1.16,0,0,1,.18.33c.93,2.92,1.38,7.74,1.78,10.82.31-.82.46-3.45.72-4.52C45.2,10,46.62.18,33.46,0a11.06,11.06,0,0,1,4.45,2.29,11.67,11.67,0,0,1,3,4.79C41.08,7.47,41.2,7.87,41.31,8.27Z"/></g></g></svg>