<svg xmlns="http://www.w3.org/2000/svg" viewBox="0 0 139.16 351.85"><defs><style>.cls-1{fill:#492004;}.cls-2{fill:#050505;}.cls-3{fill:#eda97c;}.cls-4{fill:#232323;}.cls-5{fill:#f7a581;}.cls-6{fill:#2e3030;}.cls-7{fill:#efe8da;}.cls-8{fill:#d6cfc1;}.cls-9{fill:#ffbc8f;}.cls-10{fill:#1b1c1c;}.cls-11{fill:#1f2121;}.cls-12{fill:#6b6e70;}.cls-13{fill:#a8a8a8;}.cls-14{fill:#7f7f7f;opacity:0.72;}.cls-15{fill:#dbdbdb;}.cls-16{fill:#969696;}.cls-17{fill:#682d04;}</style></defs><title>Asset 36</title><g id="Layer_2" data-name="Layer 2"><g id="_ÎÓÈ_3" data-name="—ÎÓÈ_3"><path class="cls-1" d="M30.85,2.9c-5.44-3-13-3.47-18.19,4.88s-1.41,17.16-.38,23.92S14,45.86,10,48.77c0,0,8.1,1.31,11.66-6.47s1.88-24.95,5.72-28S30.85,2.9,30.85,2.9Z"/><path class="cls-2" d="M85.55,333.61C78,340,62.37,334.47,61.78,332c-1.05.89-2.25,6.21-2.4,7.13,0,0-.63,4,3.23,3.73,2.29-.13,8.49-.31,10.74.14,10.62,2.13,23.31,2.41,25.32-3.52.92-1.5-3.62-1.79-8.5-3.69C85.54,334,85.55,333.61,85.55,333.61Z"/><path class="cls-3" d="M18,142.54c-7.63,8.94-6.14,13-8.14,35.42-1,11.22-1.4,54-1.66,69.2-.15,8.68-7,16.87-6.62,29,.27,7.81,4.17,25.23,4.57,51.75.08,4.79-4,8.64-4.3,11.38-.4,3.79,2.66,4.59,2.66,4.59s12.05,1.21,14.91-.36c1.34-.73,2.63-3.37,2.63-3.37s-5.2-7.47-5.24-9.52c-.44-27.76,4.33-68.21,7.4-78.41,7.49-24.82,12.33-72.56,22.65-95.47C29.25,152.36,36.09,142.6,18,142.54Z"/><path class="cls-2" d="M23.41,339.2c-7.36,6.3-19.85-1.6-20.26-4.07-1.11.8-2.7,6-2.92,6.93,0,0-.91,3.91,3,4a21.66,21.66,0,0,1,7.4,1.89c11.56,5,20.69,5.53,23.13-.24,1-1.42-.37-.67-4.56-3.82C24.18,340.12,23.41,339.2,23.41,339.2Z"/><path class="cls-4" d="M51.24,272.55c1.52,11.8,1.39,17.71,6,42.26,1.23,6.49,2.12,24.35,2.12,24.35,4.13.44,25.78-3.26,29.07-4-4.26-4.79-7.38-15.89-9.38-23.49C74,292.39,72.43,276.94,71,259.25c-.91-11-8.82-115.54-14.45-119.33-5.72,6.54-24,30.73-29,37.85,2.16,0,25.71,78.43,26.07,79.07C54.73,258.77,50.57,267.36,51.24,272.55Z"/><path class="cls-5" d="M110.93,131.64c-.5,1-1,2-1.55,3,.7,1,.86.28,1.25,1.05l-.47,1.57c1.48,2.62,7.89,6.36,10.53,6.55,3.38.25,4.19-.27,7.57.82,1.35.43,1.16-1.18-.89-1.9-.28-.1-4.45-1.42-4.45-1.42s5.18,1,5.71,1.22c2.2.93,4.38,2,6.59,2.72.42.13,1.87-.11.71-1.14-.93-.81-1.18-.76-2.14-1.53s3.45.39,4.83.08a.8.8,0,0,0,.47-1.09,6.15,6.15,0,0,0-.91-1.31.77.77,0,0,0,.45-.58c.17-.93-.93-1.64-1.63-2.13a10,10,0,0,1-1.24-.76c3.18-.24-.8-1.77-2.44-2.54-.45-.32,0,0-.47-.28s-.9-.53-1.36-.77h0l-.58-.31a10.78,10.78,0,0,0-1.07-.42c-.45-.12-.92-.23-1.38-.32h-.06c-10-3.26-13,.34-13.75.27a5,5,0,0,1-3.66-.87Z"/><path class="cls-6" d="M.14,339.47C3,322,1.57,294,1.53,269.88c0-3.41,4.74-12.79,4.74-16.25,0-39.62-2.9-72.94-2.34-79.34,1.95-21.82,5.9-17.66,11.91-31.75,1.47,0,19.51-2.62,19.51-2.62l7.83,1.68,13.33-1.68s-12.27,24.35-19.94,62.44c-3.11,15.4-8.28,41.48-12.39,61.63-7.09,34.79-2.19,58.64,2.17,77.71,0,0-9.55,1.87-14.93,1.23C4.77,342.14.09,339.75.14,339.47Z"/><path class="cls-7" d="M79.29,115.56c-8.42-9.58-13.14-42-18.94-49.76-3.13-4.19-8.09-4.95-10.78-3.87C39,66.18,47.67,82.27,50.91,90.38,53,95.65,59.28,115.23,70,125.9c4.79,4.77,28,11.42,45.6,16.21l2.88-10.24C104,125,86.44,123.68,79.29,115.56Z"/><path class="cls-3" d="M43.08,45.32c2.21-4.63,2-4.54,0-6.54a10.68,10.68,0,0,0-15.13,0c-.72.78-.6-3.08-1.11-2.15,1,4.6,1.64,16.85-3.32,24.57.56,1.12,3.54,1.66,4.32,2.43,1.85,1.86,4.9-1.61,7.57-1.73s9.21-3.36,9.74-.56C46.05,66.21,39.78,52.27,43.08,45.32Z"/><path class="cls-8" d="M24.38,58.53l1.9-5.32A19,19,0,0,0,34.63,56a21.14,21.14,0,0,0,8.73-1.12l1,3.38,8,2.83a1.37,1.37,0,0,1,.77.63C57.75,70.28,59,85,59,87.24c0,7.55-1.73,11-1.76,26.39,0,1.91.43,6.22.49,8.18,0,1-.89,5.14-.85,6.11.49,10.9,1.1,17,1.1,17l-42.85-.35s-1.1-15.44-2.56-22.34S2.64,82.31,2.75,77s1.43-8,8.3-11.47S24,58.46,24,58.46"/><path class="cls-7" d="M44.37,58.26,43.29,54.1a18.11,18.11,0,0,1-8.66,1.38,22.63,22.63,0,0,1-8.35-2.27l-1.9,5.32a26.19,26.19,0,0,0,13.06,4l.93-5.7,2.23,5.23C42.12,61.56,44.24,60,44.37,58.26Z"/><path class="cls-9" d="M56,18.28c.14,2.14-1.93,6.89-1.41,9.81,1.1,6.12-4.41,19.26-10.85,19.25-10.59,0-23.32-11.23-24.11-22.65s5.22-19.25,16.64-20S55.22,6.85,56,18.28Z"/><circle class="cls-10" cx="41.08" cy="77.22" r="0.78"/><path class="cls-10" d="M42.64,137.25a.78.78,0,1,1-.78-.78A.78.78,0,0,1,42.64,137.25Z"/><path class="cls-10" d="M41.61,124.58a.78.78,0,1,1-.49,1A.78.78,0,0,1,41.61,124.58Z"/><path class="cls-10" d="M42.64,121.25a.78.78,0,1,1-.78-.78A.78.78,0,0,1,42.64,121.25Z"/><path class="cls-10" d="M42.64,108.31a.78.78,0,1,1-.78-.78A.78.78,0,0,1,42.64,108.31Z"/><circle class="cls-10" cx="41.86" cy="92.76" r="0.78"/><path class="cls-10" d="M42.64,81a.78.78,0,1,1-.78-.78A.78.78,0,0,1,42.64,81Z"/><path class="cls-10" d="M41.54,113a.78.78,0,0,1,.64-1.43.79.79,0,0,1,.4,1A.78.78,0,0,1,41.54,113Z"/><path class="cls-10" d="M42.64,96.84a.78.78,0,1,1-.78-.78A.78.78,0,0,1,42.64,96.84Z"/><circle class="cls-10" cx="39.52" cy="64.35" r="0.78"/><path class="cls-10" d="M41.08,67.76A.78.78,0,1,1,40.3,67,.78.78,0,0,1,41.08,67.76Z"/><path class="cls-11" d="M58.53,145H14.74l-1.58-16s21.23,1.13,29.48.88c10-.3,14.71-3.15,14.71-3.15Z"/><path class="cls-5" d="M53.06,160.64q.55-1.6,1-3.21c1.19-.2.81.41,1.62.14l.78-1.44c2.91-.8,10.33.83,12.08,2.82,3.2,3.64,3.68,4.34,5.93,4.78,1.39.27,0,1.65-2,.71l-4.15-2.15s4.36,3,4.9,3.18c2.21.9,4.52,1.67,6.58,2.75.38.2,1.24,1.39-.31,1.29-1.23-.08-1.37-.28-2.59-.43s2.72,2.17,3.47,3.37a.81.81,0,0,1-.44,1.1,5.88,5.88,0,0,1-1.58.28.77.77,0,0,1-.08.73c-.54.77-1.82.5-2.66.35a11.3,11.3,0,0,0-1.42-.34c2.08,2.42-1.81.69-3.51.07-.56-.09,0,0-.54-.13s-1-.26-1.5-.42v0l-.64-.19c-.35-.14-.71-.29-1.05-.46s-.81-.49-1.21-.75l0,0c-9.39-4.79-9-9.45-9.52-9.92a5,5,0,0,0-3.2-2Z"/><path class="cls-7" d="M23.32,120.86c-3.47-6.11-.88-36.83-4.08-46C17.51,70,11.8,66.9,9,67.48-3.4,70,.41,88.14,1.07,96.84c.43,5.68,5.55,29.72,10,35,11.56,13.7,25.75,17.81,44.56,31.31l7.55-7.51C53,145.74,29.84,132.37,23.32,120.86Z"/><ellipse class="cls-12" cx="93.76" cy="147.7" rx="39.28" ry="24.01"/><path class="cls-13" d="M55.31,143.93c0,13,17.21,23.51,38.45,23.51s38.45-10.52,38.45-23.51S116.5,108,95.27,108C71.39,108,55.31,131,55.31,143.93Z"/><path class="cls-14" d="M95.27,108c.41,0,.81.07,1.22.08-4.63,1.56-9.27,4.65-13.73,9.66-9.24,10.38-17.16,24.72-8.4,37.76,3.55,5.29,8.6,8.93,14.24,11.69-18.79-1.55-33.29-11.36-33.29-23.28C55.31,131,71.39,108,95.27,108Z"/><path class="cls-15" d="M99.88,113.29c16.18,8.08,20.37,30.91,18.86,48.49a53.59,53.59,0,0,1-22.42,5.59C107.78,152,108.19,131.68,99.88,113.29Z"/><path class="cls-16" d="M92.59,105.64a2.86,2.86,0,1,0,2.86-2.86A2.86,2.86,0,0,0,92.59,105.64Z"/><path class="cls-17" d="M25.26,4.05A20.33,20.33,0,0,1,41.59.44,19.6,19.6,0,0,1,56,13.37c1.2,4.36-.15,8.85-.44,10,0,0-1-8.11-5.78-11.07,0,0,.35,4.76-7.36,8.87S26.66,29.4,27.06,38.86c0,0-2.25-7.31.25-14.32a2.83,2.83,0,0,0-3.45.3c-2,1.45-2.56,4.44-.51,7.68a23.49,23.49,0,0,1,2.76,5.85,22.73,22.73,0,0,1-5.66-4.52C16.14,29.25,12.69,13.47,25.26,4.05Z"/></g></g></svg>